<?xml version="1.0" encoding="utf-8"?>
<svg version="1.1" xmlns:xlink="http://www.w3.org/1999/xlink" width="10px" height="10px" xmlns="http://www.w3.org/2000/svg">
  <g transform="matrix(1 0 0 1 -22 -760 )">
    <path d="M 27 760  C 29.8 760  32 762.2  32 765  C 32 767.8  29.8 770  27 770  C 24.2 770  22 767.8  22 765  C 22 762.2  24.2 760  27 760  Z " fill-rule="nonzero" fill="#55e6ff" stroke="none" />
    <path d="M 27 760.5  C 29.52 760.5  31.5 762.48  31.5 765  C 31.5 767.52  29.52 769.5  27 769.5  C 24.48 769.5  22.5 767.52  22.5 765  C 22.5 762.48  24.48 760.5  27 760.5  Z " stroke-width="1" stroke="#55e6ff" fill="none" />
  </g>
</svg>