<?xml version="1.0" encoding="utf-8"?>
<svg version="1.1" xmlns:xlink="http://www.w3.org/1999/xlink" width="14px" height="12px" xmlns="http://www.w3.org/2000/svg">
  <g transform="matrix(1 0 0 1 -1089 -594 )">
    <path d="M 2.4051282051282215 1.2666666666664241  L 3.5538461538462798 0.466666666666697  L 7.5743589743592565 1.2666666666664241  L 10.015384615384392 2.866666666666788  L 11.738461538461706 4.066666666666606  L 13.461538461538566 4.866666666666788  L 13.845153980804298 6.096793765112579  L 11.16410256410245 8.066666666666606  L 11.16410256410245 11  L 8.72307692307686 11  L 5.420512820512613 11  L 4.846153846154266 11.933333333333394  L 3.5538461538462798 11.933333333333394  L 1.8307692307689651 10.466666666666242  L 0.3948717948715057 8.866666666666788  L 1.11282051282069 7.533333333333758  L 2.4051282051282215 6.096793765112579  C 2.4051282051282215 6.096793765112579  2.979487179487478 4.866666666666788  2.979487179487478 3.533333333333303  C 2.979487179487478 2.199999999999818  2.4051282051282215 1.2666666666664241  2.4051282051282215 1.2666666666664241  Z " fill-rule="nonzero" fill="#fea213" stroke="none" transform="matrix(1 0 0 1 1089 594 )" />
  </g>
</svg>