<?xml version="1.0" encoding="utf-8"?>
<svg version="1.1" xmlns:xlink="http://www.w3.org/1999/xlink" width="109px" height="79px" xmlns="http://www.w3.org/2000/svg">
  <g transform="matrix(1 0 0 1 -944 -696 )">
    <path d="M 25.721693121693306 26.510067114094113  L 28.64373897707219 23.682326621923835  L 31.873368606701657 18.59239373601747  L 30.950617283950578 15.90604026845665  L 30.950617283950578 12.654138702460841  L 33.411287477954374 10.391946308724641  C 33.411287477954374 10.391946308724641  32.30555007086855 7.099606256168954  33.411287477954374 6.433109619686775  C 34.401707231040746 5.836122098139867  36.948500881834434 7.846979865771915  36.948500881834434 7.846979865771915  C 36.948500881834434 7.846979865771915  41.562257495590984 11.664429530201344  44.6380952380955 9.826398210290677  C 47.71393298059979 7.988366890380007  42.48500881834207 3.463982102908517  42.48500881834207 2.050111856823378  C 42.48500881834207 0.6362416107383524  44.6380952380955 0.07069351230427401  44.6380952380955 0.07069351230427401  L 46.79118165784848 0.07069351230427401  L 54.94215167548509 3.039821029082532  L 57.71040564373902 1.201789709172317  L 60.63245149911837 5.1606263982101845  L 67.70687830687848 2.050111856823378  L 67.70687830687848 3.605369127517065  L 62.939329805996294 8.978076062639957  L 61.40141093474472 11.240268456375816  L 64.01587301587324 15.340492170022571  L 67.70687830687848 13.361073825503013  L 69.859964726631 12.654138702460841  L 79.08747795414479 9.826398210290677  L 83.08606701940062 12.088590604026876  L 86.46948853615504 11.240268456375816  L 86.46948853615504 8.412527964205992  L 95.850793650794 8.412527964205992  L 99.08042328042347 11.240268456375816  L 101.23350970017646 17.60268456375786  L 106.30864197530877 21.985682326622168  L 108.76931216931189 22.69261744966434  L 108.85837468629279 24.799133846512287  L 105.23209876543228 24.799133846512287  L 104.00176366843016 26.510067114094113  C 104.00176366843016 26.510067114094113  101.33603762492658 27.264131245339172  100.00317460317433 27.64116331096227  C 99.43927101704844 28.866517524235405  98.31146384479712 31.317225950783037  98.31146384479712 31.317225950783037  L 90.4680776014111 36.97270693512303  L 89.08395061728379 36.97270693512303  C 89.08395061728379 36.97270693512303  86.75250594056092 34.84898112823771  85.23915343915314 35.41744966442991  C 83.15049356164877 36.202023927242635  83.08606701940062 40.36599552572693  83.08606701940062 40.36599552572693  C 83.08606701940062 40.36599552572693  80.42034097589658 38.103803131991185  79.08747795414479 36.97270693512303  C 78.16472663139348 37.16122296793458  76.31922398589109 37.53825503355722  76.31922398589109 37.53825503355722  L 74.01234567901247 37.53825503355722  L 74.01234567901247 40.36599552572693  L 72.7820105820108 40.36599552572693  L 71.09029982363313 38.8107382550337  L 67.0917107583773 40.36599552572693  L 68.97874080648694 42.173227586651706  L 67.70687830687848 44.32483221476525  L 61.40141093474472 45.455928411632954  L 56.01869488536181 36.97270693512303  L 52.481481481481524 36.97270693512303  L 53.40423280423306 49.27337807606273  C 53.40423280423306 49.27337807606273  52.78906525573211 50.02744220730824  52.481481481481524 50.404474272930884  C 51.917577895355635 50.404474272930884  50.78977072310386 50.404474272930884  50.78977072310386 50.404474272930884  L 46.79118165784848 46.72841163310943  L 45.77373898918131 51.988772102016355  L 41.402172911264415 53.36951748289357  L 40.0243386243385 55.77718120805321  L 31.873368606701657 55.77718120805321  L 31.873368606701657 58.32214765100696  L 31.08041424301905 57.85350825319847  L 29.720282186949134 55.77718120805321  L 27.567195767195702 55.77718120805321  L 25.721693121693306 58.32214765100696  L 13.879717813051343 63.83624161073806  L 7.112874779541243 63.83624161073806  L 7.728042328042079 68.21923937360191  L 4.959788359788263 68.21923937360191  L 4.959788359788263 71.47114093959715  L 11.265255731922593 76.27829977628619  L 9.265961199294225 78.96465324384792  L 3.8832451499122276 78.96465324384792  L 3.8832451499122276 77.69217002237178  L 1.422574955908658 74.86442953020105  L 1.3223976722937323 73.02413455668966  L 0.34603174603171283 70.05727069351212  L 0.34603174603171283 64.54317673378057  L 1.3223976722937323 60.018791946308625  L 3.268077601410596 55.77718120805321  L 8.337998453109208 55.77718120805321  L 8.337998453109208 52.120104010199725  L 12.649382716049786 52.120104010199725  L 13.264550264550167 48.566442953020555  L 12.649382716049786 45.455928411632954  L 22.030687830688066 39.51767337807621  L 22.030687830688066 34.7105145413874  L 25.721693121693306 26.510067114094113  Z " fill-rule="nonzero" fill="#169bd5" stroke="none" transform="matrix(1 0 0 1 944 696 )" />
  </g>
</svg>