<?xml version="1.0" encoding="utf-8"?>
<svg version="1.1" xmlns:xlink="http://www.w3.org/1999/xlink" width="82px" height="58px" xmlns="http://www.w3.org/2000/svg">
  <g transform="matrix(1 0 0 1 -1021 -548 )">
    <path d="M 0.34893617021270984 7.697859327217202  L 2.2099290780142837 3.5828746177367066  L 4.302029805293387 4.576146788991082  L 4.302029805293387 5.531871705120807  C 4.302029805293387 5.531871705120807  4.302029805293387 7.543447551044721  4.302029805293387 8.549235474006082  C 5.258878814245691 9.164118246686996  7.637825059101942 10.393883792049337  7.637825059101942 10.393883792049337  L 13.220803782505754 10.393883792049337  L 17.25295508274212 9.116819571865562  C 17.25295508274212 9.116819571865562  18.183451536643133 7.414067278287462  20.974940898344812 7.697859327217202  C 23.766430260047404 7.981651376146544  23.61134751773079 8.549235474006082  23.61134751773079 8.549235474006082  L 26.247754137115862 10.393883792049337  L 27.798581560283765 9.116819571865562  L 28.884160756500933 5.711314984709304  L 30.745153664302507 4.576146788991082  L 32.29598108747041 1.7382262996938493  L 35.08747044917254 0.4611620795105864  L 36.79338061465751 0.4611620795105864  L 36.173049645390165 3.5828746177367066  L 39.73995271867625 4.576146788991082  L 41.91111111111105 5.711314984709304  C 41.91111111111105 5.711314984709304  42.920933496481666 7.6551203348260515  45.012765957446845 8.549235474006082  C 48.353973144663534 9.977372757931391  51.991489361702406 9.116819571865562  51.991489361702406 9.116819571865562  C 51.991489361702406 9.116819571865562  53.74909377462563 12.900713557594486  54.62789598108793 14.792660550458661  C 55.506698187549325 15.644036697248055  57.264302600473 17.3467889908257  57.264302600473 17.3467889908257  L 60.055791962175135 21.319877675840644  L 63.15744680851094 29.124159021406793  L 63.77777777777782 33.66483180428128  L 67.80992907801419 34.23241590214087  L 75.56406619385325 38.48929663608601  L 78.20047281323878 39.198776758409736  L 78.82080378250612 41.894801223241416  C 78.82080378250612 41.894801223241416  80.26824271079568 43.59755351681952  80.99196217494045 44.44892966360885  C 81.19873916469669 45.39490316004094  81.6122931442078 47.28685015290523  81.6122931442078 47.28685015290523  C 81.6122931442078 47.28685015290523  75.96899647321288 42.924037937751564  72.30732860520084 44.44892966360885  C 71.45143626884919 44.80536372288725  70.32327965396235 44.70294041649038  69.98108747044898 45.58409785932702  C 69.42053586797692 47.027538827326566  70.91158392435 47.14495412844053  69.98108747044898 49.41529051987732  C 69.98108747044898 49.41529051987732  68.53364854215897 51.63832823649318  67.80992907801419 52.96269113149879  C 68.06840031520915 53.57757390417919  68.58534278959814 55.37492354740061  68.58534278959814 55.37492354740061  C 68.58534278959814 55.37492354740061  66.31079590228501 56.699286442405764  65.17352245862867 57.36146788990811  C 63.726083530338656 57.550662589194644  60.83120567375909 57.92905198776771  60.83120567375909 57.92905198776771  C 60.83120567375909 57.92905198776771  56.07533490937749 56.79388379204909  53.69739952718692 56.22629969418995  C 52.92198581560251 56.604689092762555  51.37115839243506 57.36146788990811  51.37115839243506 57.36146788990811  L 47.49408983451531 52.96269113149879  L 45.012765957446845 51.96941896024475  L 43.46193853427894 51.96941896024475  L 41.91111111111105 52.96269113149879  L 39.73995271867625 52.96269113149879  L 38.9645390070923 50.408562691131806  L 36.79338061465751 49.41529051987732  L 31.67565011820352 46.15168195718661  L 31.67565011820352 45.01651376146799  L 34.15697399527153 41.894801223241416  L 36.173049645390165 37.07033639143714  L 40.5153664302602 36.50275229357811  L 42.8416075650116 29.124159021406793  L 39.73995271867625 28.130886850153274  L 32.29598108747041 32.52966360856266  L 27.798581560283765 30.54311926605516  L 26.868085106383205 29.124159021406793  L 23.61134751773079 21.319877675840644  L 20.974940898344812 19.049541284403915  L 8.568321513002047 15.644036697247543  L 2.2099290780142837 8.549235474006082  L 0.34893617021270984 7.697859327217202  Z " fill-rule="nonzero" fill="#fea213" stroke="none" transform="matrix(1 0 0 1 1021 548 )" />
  </g>
</svg>