<?xml version="1.0" encoding="utf-8"?>
<svg version="1.1" xmlns:xlink="http://www.w3.org/1999/xlink" width="44px" height="30px" xmlns="http://www.w3.org/2000/svg">
  <g transform="matrix(1 0 0 1 -633 -314 )">
    <path d="M 44 20.32421875  C 44 15.446406249999994  40.23249999999996 11.492421874999991  35.484166666666624 11.15060546875003  C 34.237499999999955 4.794667968749991  28.673333333333403 0  22 0  C 16.701666666666597 0  12.109166666666624 3.0301562500000045  9.80833333333328 7.45529296875003  C 4.299166666666679 8.055781249999995  0 12.758066406250009  0 18.4765625  C 0 24.601542968749982  4.922500000000014 29.5625  11 29  L 34.83333333333326 29  C 39.89333333333332 29.5625  44 25.423749999999984  44 20.32421875  Z M 12.833333333333258 16.62890625  L 25.666666666666742 24.01953125  L 12.833333333333258 16.62890625  Z " fill-rule="nonzero" fill="#07dbff" stroke="none" transform="matrix(1 0 0 1 633 314 )" />
  </g>
</svg>