<?xml version="1.0" encoding="utf-8"?>
<svg version="1.1" xmlns:xlink="http://www.w3.org/1999/xlink" width="10px" height="19px" xmlns="http://www.w3.org/2000/svg">
  <g transform="matrix(1 0 0 1 -1036 -313 )">
    <path d="M 8.692824804878057 5.292670243902422  C 8.692824804878057 5.448065544715433  8.681249138211399 5.68377765853657  8.658097626016257 6.001552365853627  L 5.087807325203244 6.001552365853627  L 5.087807325203244 5.3764789756097295  C 5.087807325203244 4.710374154471538  5.046465300812997 4.275616414634129  4.963781430894301 4.069586682926797  C 4.881924439024402 3.86442988617884  4.704980853658526 3.762287999999984  4.433777731707323 3.762287999999984  C 4.215492211382127 3.762287999999984  4.052605016260173 3.8504617642276173  3.943462300812996 4.0276823170731575  C 3.834319495934949 4.204902780487799  3.7797481382113745 4.4711701219511895  3.7797481382113745 4.82561122764227  C 3.7797481382113745 5.416637292682907  3.891371398373991 5.830442894308931  4.115444707317067 6.067027943089414  C 4.333730227642292 6.302739967479653  4.9761840650406555 6.763687991869915  6.041979341463417 7.4481258780487565  C 6.949848422764234 8.026056934959342  7.568323959349584 8.469544739837374  7.897405861788627 8.77771644715446  C 8.227314552845542 9.085015040650376  8.505959219512192 9.52064580487803  8.733339951219506 10.083735715447148  C 8.95989380487805 10.645952601625993  9.073170731707307 11.347850617886166  9.073170731707307 12.187683894308918  C 9.073170731707307 13.531242585365847  8.767240341463435 14.585835658536553  8.154552682926834 15.350590268292649  C 7.541038235772362 16.115344967479643  6.622420276422758 16.58851506504064  5.397045048780484 16.768354601625987  L 5.397045048780484 18.18699186991867  L 3.753289292682922 18.18699186991867  L 3.753289292682922 16.72208520325202  C 2.799117276422777 16.622562300813  1.9648367642276412 16.235820008130077  1.2521016910569074 15.56011209756096  C 0.5393665284552753 14.885277300812987  0.18299899186990842 13.708463138211357  0.18299899186990842 12.028796585365853  L 0.18299899186990842 11.291978130081276  L 3.753289292682922 11.291978130081276  L 3.753289292682922 12.215620138211365  C 3.753289292682922 13.229181959349575  3.78967022764229 13.859493406504043  3.863258886178869 14.104808520325179  C 3.937674422764246 14.350123634146314  4.115444707317067 14.474090682926802  4.399050463414653 14.474090682926802  C 4.640487406504064 14.474090682926802  4.819084658536582 14.387662967479656  4.937322585365848 14.217426520325176  C 5.055560601626013 14.045444024390235  5.114266170731696 13.792271780487795  5.114266170731696 13.45616391869916  C 5.114266170731696 12.610219560975594  5.058041056910554 12.005225373983706  4.946417796747966 11.641181178861757  C 4.833967747967478 11.278010008130053  4.451141365853658 10.881664626016232  3.797111772357738 10.452144943089422  C 2.707338105691065 9.73016763414631  1.9664904308943107 9.200252024390238  1.5753957154471436 8.860652154471524  C 1.1826472439024371 8.521925219512184  0.8444701300813051 8.044390089430863  0.5583838292683083 7.428919699186963  C 0.27229761788618134 6.813449398373963  0.1300813008130035 6.115916325203244  0.1300813008130035 5.338939642276415  C 0.1300813008130035 4.213632845528423  0.43187747967479595 3.3292762195121663  1.035469926829279 2.6893616829268012  C 1.6398890731707354 2.048574121951191  2.545277699187011 1.6531016747967442  3.753289292682922 1.5038174552845476  L 3.753289292682922 0.3008130081300635  L 5.397045048780484 0.3008130081300635  L 5.397045048780484 1.5038174552845476  C 6.498394471544714 1.6531016747967442  7.323579682926834 2.044209089430865  7.871773804878046 2.674520536585362  C 8.419141138211387 3.3065780325203207  8.692824804878057 4.179585609756089  8.692824804878057 5.292670243902422  Z " fill-rule="nonzero" fill="#ffffff" stroke="none" transform="matrix(1 0 0 1 1036 313 )" />
  </g>
</svg>