<?xml version="1.0" encoding="utf-8"?>
<svg version="1.1" xmlns:xlink="http://www.w3.org/1999/xlink" width="51px" height="29px" xmlns="http://www.w3.org/2000/svg">
  <g transform="matrix(1 0 0 1 -958 -211 )">
    <path d="M 25.35325579674796 0.34959349593496114  C 20.349178991869906 0.34959349593496114  16.290486991869912 4.451133509756097  16.290486991869912 9.509994634146345  L 16.290486991869912 9.549836902439026  C 16.290486991869912 11.230959211382114  15.033990528455291 12.646466398373988  13.369981536585355 12.804728764227647  L 6.206746300812995 13.53295684552846  C 2.8666783983739776 13.877149796747972  0.32520325203250877 16.721444926829264  0.32520325203250877 20.12131830894309  L 0.32520325203250877 26.749522130081303  C 0.32520325203250877 27.478856918699194  0.9025124959349569 28.07317073170732  1.635377479674787 28  L 49.09742527642277 28  C 49.81714472357723 28.07317073170732  50.40650406504065 27.478856918699194  50.40650406504065 26.749522130081303  L 50.40650406504065 20.068195284552843  C 50.40650406504065 16.69599012195122  47.89241552032519 13.863869040650407  44.56549315447154 13.493114577235772  L 37.19192888617886 12.685201959349598  C 35.59364784552844 12.513658837398374  34.442315764227644 11.137993918699188  34.442315764227644 9.509994634146345  C 34.42807469918699 8.888012592682927  34.37658799186991 8.25274978617886  34.246227796747974 7.604206223577236  C 33.49912174796748 4.006228198373982  30.591761829268293 1.1353715337398427  27.0161692601626 0.5001087254471557  C 26.454196520325194 0.39828959965853983  25.897701154471548 0.34959349593496114  25.35325579674796 0.34959349593496114  Z M 25.365305894308932 12.090888146341463  C 22.92680434146341 12.090888146341463  21.030557178861784 9.697031926829268  21.855441186991868 7.113925000000002  C 22.20160760975608 6.0293299544715495  23.074691918699187 5.149479903252036  24.148246040650406 4.798646609756098  C 27.118047414634148 3.831364909756097  29.834796650406503 6.57605439593496  28.87626613008129 9.57750512195122  C 28.53119514634146 10.66099349593496  27.65811083739837 11.541950227642275  26.58455671544715 11.892783512195123  C 26.170471552845523 12.02780457723577  25.760768235772357 12.090888146341463  25.365305894308932 12.090888146341463  Z " fill-rule="nonzero" fill="#07dbff" stroke="none" transform="matrix(1 0 0 1 958 211 )" />
  </g>
</svg>