<?xml version="1.0" encoding="utf-8"?>
<svg version="1.1" xmlns:xlink="http://www.w3.org/1999/xlink" width="221px" height="93px" xmlns="http://www.w3.org/2000/svg">
  <defs>
    <mask fill="white" id="clip444">
      <path d="M 0 19.5  L 20 0.75  L 207 0.75  L 220.75 9.75  L 220.75 78  L 200 93  L 180 92.5  L 47.5 92.5  L 26 93  L 0 74.75  L 0 19.5  Z " fill-rule="evenodd" />
    </mask>
  </defs>
  <g transform="matrix(1 0 0 1 -608 -174 )">
    <path d="M 0 19.5  L 20 0.75  L 207 0.75  L 220.75 9.75  L 220.75 78  L 200 93  L 180 92.5  L 47.5 92.5  L 26 93  L 0 74.75  L 0 19.5  Z " fill-rule="nonzero" fill="#01033d" stroke="none" fill-opacity="0.3686274509803922" transform="matrix(1 0 0 1 608 174 )" />
    <path d="M 0 19.5  L 20 0.75  L 207 0.75  L 220.75 9.75  L 220.75 78  L 200 93  L 180 92.5  L 47.5 92.5  L 26 93  L 0 74.75  L 0 19.5  Z " stroke-width="2" stroke="#07dbff" fill="none" transform="matrix(1 0 0 1 608 174 )" mask="url(#clip444)" />
  </g>
</svg>