<?xml version="1.0" encoding="utf-8"?>
<svg version="1.1" xmlns:xlink="http://www.w3.org/1999/xlink" width="170px" height="170px" xmlns="http://www.w3.org/2000/svg">
  <g transform="matrix(1 0 0 1 -900 -197 )">
    <path d="M 985 198  C 1032.04 198  1069 234.95999999999998  1069 282  C 1069 329.03999999999996  1032.04 366  985 366  C 937.96 366  901 329.03999999999996  901 282  C 901 234.95999999999998  937.96 198  985 198  Z " fill-rule="nonzero" fill="#ffffff" stroke="none" fill-opacity="0" />
    <path d="M 985 198  C 1032.04 198  1069 234.95999999999998  1069 282  C 1069 329.03999999999996  1032.04 366  985 366  C 937.96 366  901 329.03999999999996  901 282  C 901 234.95999999999998  937.96 198  985 198  Z " stroke-width="2" stroke="#07dbff" fill="none" />
  </g>
</svg>