<?xml version="1.0" encoding="utf-8"?>
<svg version="1.1" xmlns:xlink="http://www.w3.org/1999/xlink" width="44px" height="28px" xmlns="http://www.w3.org/2000/svg">
  <g transform="matrix(1 0 0 1 -633 -197 )">
    <path d="M 24 6  C 24 9.310000000000002  26.689999999999998 12  29.999999999999996 12  C 33.31 12  35.980000000000004 9.309999999999999  35.980000000000004 6  C 35.980000000000004 2.6900000000000013  33.31 0  29.999999999999996 0  C 26.689999999999998 0  24 2.6899999999999995  24 6  Z M 8 6  C 8 9.310000000000002  10.69 12  14 12  C 17.31 12  19.98 9.309999999999999  19.98 6  C 19.98 2.6900000000000013  17.310000000000002 0  14 0  C 10.69 0  8 2.6899999999999995  8 6  Z M 28 23  C 28 18.34  18.67 16  14 16  C 9.33 16  0 18.34  0 23  L 0 28  L 28 28  L 28 23  Z M 44 23  C 44 18.34  34.67 16  29.999999999999996 16  C 29.42 16  28.769999999999996 16.04  28.07 16.11  C 30.39 17.78  32 20.03  32 23  L 32 28  L 44 28  L 44 23  Z " fill-rule="nonzero" fill="#07dbff" stroke="none" transform="matrix(1 0 0 1 633 197 )" />
  </g>
</svg>