<?xml version="1.0" encoding="utf-8"?>
<svg version="1.1" xmlns:xlink="http://www.w3.org/1999/xlink" width="15px" height="21px" xmlns="http://www.w3.org/2000/svg">
  <g transform="matrix(1 0 0 1 -649 -321 )">
    <path d="M 9.135832521908469 20.692767518939377  C 9.043330087633876 20.786478061868706  8.933787731256075 20.833333333333314  8.807205452775065 20.833333333333314  L 6.295034079844186 20.833333333333314  C 6.168451801363176 20.833333333333314  6.058909444985375 20.788944128787875  5.966407010710782 20.700165719696997  C 5.873904576436189 20.611387310606005  5.827653359298893 20.49794823232321  5.827653359298893 20.3598484848485  L 5.827653359298893 15.477035984848499  L 1.621226874391482 15.477035984848499  C 1.4946445959104722 15.477035984848499  1.3851022395326709 15.432646780303003  1.292599805258078 15.343868371212125  C 1.2000973709834852 15.25508996212119  1.1538461538461888 15.141650883838395  1.1538461538461888 15.003551136363626  L 1.1538461538461888 13.47952178030306  C 1.1538461538461888 13.35128630050508  1.2000973709834852 13.240313289141454  1.292599805258078 13.146602746212125  C 1.3851022395326709 13.052892203282852  1.4946445959104722 13.006036931818189  1.621226874391482 13.006036931818189  L 5.827653359298893 13.006036931818189  L 5.827653359298893 11.748342803030255  L 1.621226874391482 11.748342803030255  C 1.4946445959104722 11.748342803030255  1.3851022395326709 11.703953598484873  1.292599805258078 11.615175189393938  C 1.2000973709834852 11.526396780303003  1.1538461538461888 11.412957702020151  1.1538461538461888 11.274857954545439  L 1.1538461538461888 9.736032196969688  C 1.1538461538461888 9.60779671717171  1.2000973709834852 9.496823705808083  1.292599805258078 9.403113162878753  C 1.3851022395326709 9.30940261994948  1.4946445959104722 9.262547348484816  1.621226874391482 9.262547348484816  L 4.74683544303798 9.262547348484816  L 0.05842259006817585 0.7102272727272521  C -0.01947419668931616 0.5523989898989612  -0.01947419668931616 0.39457070707072717  0.05842259006817585 0.2367424242424363  C 0.1557935735150977 0.07891414141414543  0.29211295034076556 0  0.4673807205452931 0  L 3.300876338851026 0  C 3.485881207400098 0  3.6270691333982086 0.08877840909087809  3.724440116845244 0.26633522727274794  L 6.86465433300873 6.554805871212125  C 7.049659201557915 6.929648042929274  7.322297955209365 7.546164772727252  7.682570593963078 8.404356060606062  C 7.77994157741 8.167613636363626  7.928432327166547 7.832228535353523  8.12804284323272 7.398200757575751  C 8.327653359298893 6.964172979797978  8.461538461538453 6.663312815656582  8.5296981499514 6.495620265151501  L 11.319376825705945 0.28113162878787534  C 11.39727361246355 0.09371054292932968  11.538461538461547 0  11.742940603700163 0  L 14.532619279454707 0  C 14.698149951314576 0  14.829600778967915 0.07891414141414543  14.926971762414837 0.2367424242424363  C 15.014605647517099 0.3748421717171482  15.019474196689316 0.5277383207070443  14.941577409931824 0.6954308712121247  L 10.370009737098371 9.262547348484816  L 13.51022395326197 9.262547348484816  C 13.63680623174298 9.262547348484816  13.746348588120782 9.30940261994948  13.838851022395374 9.403113162878753  C 13.931353456669967 9.496823705808083  13.977604673807264 9.60779671717171  13.977604673807264 9.736032196969688  L 13.977604673807264 11.274857954545439  C 13.977604673807264 11.412957702020151  13.931353456669967 11.526396780303003  13.838851022395374 11.615175189393938  C 13.746348588120782 11.703953598484873  13.63680623174298 11.748342803030255  13.51022395326197 11.748342803030255  L 9.274586173320358 11.748342803030255  L 9.274586173320358 13.006036931818189  L 13.51022395326197 13.006036931818189  C 13.63680623174298 13.006036931818189  13.746348588120782 13.052892203282852  13.838851022395374 13.146602746212125  C 13.931353456669967 13.240313289141454  13.977604673807264 13.35128630050508  13.977604673807264 13.47952178030306  L 13.977604673807264 15.003551136363626  C 13.977604673807264 15.141650883838395  13.931353456669967 15.25508996212119  13.838851022395374 15.343868371212125  C 13.746348588120782 15.432646780303003  13.63680623174298 15.477035984848499  13.51022395326197 15.477035984848499  L 9.274586173320358 15.477035984848499  L 9.274586173320358 20.3598484848485  C 9.274586173320358 20.48808396464642  9.228334956183062 20.599056976010047  9.135832521908469 20.692767518939377  Z " fill-rule="nonzero" fill="#000000" stroke="none" transform="matrix(1 0 0 1 649 321 )" />
  </g>
</svg>