<?xml version="1.0" encoding="utf-8"?>
<svg version="1.1" xmlns:xlink="http://www.w3.org/1999/xlink" width="26px" height="30px" xmlns="http://www.w3.org/2000/svg">
  <g transform="matrix(1 0 0 1 -1176 -202 )">
    <path d="M 5.458984375 12.137276785714278  C 7.765755208333303 12.6171875  10.24609375 12.857142857142861  12.900000000000091 12.857142857142861  C 15.553906249999955 12.857142857142861  18.03424479166665 12.6171875  20.341015624999955 12.137276785714278  C 22.647786458333258 11.657366071428555  24.467447916666515 10.948660714285722  25.799999999999955 10.011160714285722  L 25.799999999999955 12.857142857142861  C 25.799999999999955 13.627232142857139  25.223307291666515 14.341517857142861  24.069921874999864 15  C 22.916536458333212 15.658482142857139  21.348828124999955 16.180245535714278  19.366796874999864 16.565290178571445  C 17.384765625 16.950334821428555  15.229166666666742 17.14285714285714  12.900000000000091 17.14285714285714  C 10.570833333333212 17.14285714285714  8.415234374999955 16.950334821428555  6.433203125000091 16.565290178571445  C 4.451171875 16.180245535714278  2.8834635416667425 15.658482142857139  1.730078125000091 15  C 0.5766927083334394 14.341517857142861  0 13.627232142857139  0 12.857142857142861  L 0 10.011160714285722  C 1.3325520833334394 10.948660714285722  3.152213541666697 11.657366071428555  5.458984375 12.137276785714278  Z M 5.458984375 24.99441964285714  C 7.765755208333303 25.47433035714286  10.24609375 25.714285714285722  12.900000000000091 25.714285714285722  C 15.553906249999955 25.714285714285722  18.03424479166665 25.47433035714286  20.341015624999955 24.99441964285714  C 22.647786458333258 24.514508928571416  24.467447916666515 23.805803571428555  25.799999999999955 22.868303571428555  L 25.799999999999955 25.714285714285722  C 25.799999999999955 26.484375  25.223307291666515 27.198660714285722  24.069921874999864 27.85714285714286  C 22.916536458333212 28.515625  21.348828124999955 29.03738839285714  19.366796874999864 29.422433035714278  C 17.384765625 29.807477678571445  15.229166666666742 30  12.900000000000091 30  C 10.570833333333212 30  8.415234374999955 29.807477678571445  6.433203125000091 29.422433035714278  C 4.451171875 29.03738839285714  2.8834635416667425 28.515625  1.730078125000091 27.85714285714286  C 0.5766927083334394 27.198660714285722  0 26.484375  0 25.714285714285722  L 0 22.868303571428555  C 1.3325520833334394 23.805803571428555  3.152213541666697 24.514508928571416  5.458984375 24.99441964285714  Z M 5.458984375 18.565848214285722  C 7.765755208333303 19.045758928571416  10.24609375 19.285714285714278  12.900000000000091 19.285714285714278  C 15.553906249999955 19.285714285714278  18.03424479166665 19.045758928571416  20.341015624999955 18.565848214285722  C 22.647786458333258 18.0859375  24.467447916666515 17.37723214285714  25.799999999999955 16.43973214285714  L 25.799999999999955 19.285714285714278  C 25.799999999999955 20.055803571428555  25.223307291666515 20.770089285714278  24.069921874999864 21.428571428571445  C 22.916536458333212 22.087053571428584  21.348828124999955 22.608816964285722  19.366796874999864 22.99386160714286  C 17.384765625 23.37890625  15.229166666666742 23.571428571428555  12.900000000000091 23.571428571428555  C 10.570833333333212 23.571428571428555  8.415234374999955 23.37890625  6.433203125000091 22.99386160714286  C 4.451171875 22.608816964285722  2.8834635416667425 22.087053571428584  1.730078125000091 21.428571428571445  C 0.5766927083334394 20.770089285714278  0 20.055803571428555  0 19.285714285714278  L 0 16.43973214285714  C 1.3325520833334394 17.37723214285714  3.152213541666697 18.0859375  5.458984375 18.565848214285722  Z M 6.433203125000091 0.5775669642857224  C 8.415234374999955 0.1925223214285836  10.570833333333212 0  12.900000000000091 0  C 15.229166666666742 0  17.384765625 0.1925223214285836  19.366796874999864 0.5775669642857224  C 21.348828124999955 0.9626116071428612  22.916536458333212 1.484375  24.069921874999864 2.142857142857139  C 25.223307291666515 2.8013392857142776  25.799999999999955 3.515625  25.799999999999955 4.285714285714278  L 25.799999999999955 6.428571428571416  C 25.799999999999955 7.198660714285722  25.223307291666515 7.912946428571416  24.069921874999864 8.571428571428584  C 22.916536458333212 9.229910714285722  21.348828124999955 9.751674107142861  19.366796874999864 10.13671875  C 17.384765625 10.521763392857139  15.229166666666742 10.714285714285722  12.900000000000091 10.714285714285722  C 10.570833333333212 10.714285714285722  8.415234374999955 10.521763392857139  6.433203125000091 10.13671875  C 4.451171875 9.751674107142861  2.8834635416667425 9.229910714285722  1.730078125000091 8.571428571428584  C 0.5766927083334394 7.912946428571416  0 7.198660714285722  0 6.428571428571416  L 0 4.285714285714278  C 0 3.515625  0.5766927083334394 2.8013392857142776  1.730078125000091 2.142857142857139  C 2.8834635416667425 1.484375  4.451171875 0.9626116071428612  6.433203125000091 0.5775669642857224  Z " fill-rule="nonzero" fill="#07dbff" stroke="none" transform="matrix(1 0 0 1 1176 202 )" />
  </g>
</svg>