<?xml version="1.0" encoding="utf-8"?>
<svg version="1.1" xmlns:xlink="http://www.w3.org/1999/xlink" width="38px" height="30px" xmlns="http://www.w3.org/2000/svg">
  <g transform="matrix(1 0 0 1 -1176 -314 )">
    <path d="M 16.875 22.5  L 16.875 24.375  L 20.625 24.375  L 20.625 22.5  L 22.5 22.5  C 23.531249999999996 22.5  24.375 21.65625  24.375 20.625  L 24.375 15  C 24.375 13.96875  23.531249999999996 13.125  22.5 13.125  L 16.875 13.125  L 16.875 11.25  L 24.375 11.25  L 24.375 7.5  L 20.625 7.5  L 20.625 5.625  L 16.875 5.625  L 16.875 7.5  L 15 7.5  C 13.96875 7.5  13.125 8.34375  13.125 9.375  L 13.125 15  C 13.125 16.03125  13.96875 16.875  15 16.875  L 20.625 16.875  L 20.625 18.75  L 13.125 18.75  L 13.125 22.5  L 16.875 22.5  Z M 37 3.75  C 37.5 1.6781250000000227  35.82187500000009 0  33.75 0  L 3.75 0  C 1.678124999999909 0  0.018749999999954525 1.6781250000000227  0 3.75  L 0 26.25  C 0 28.321874999999977  1.678124999999909 30  3.75 30  L 33.75 30  C 35.82187500000009 30  37.5 28.321874999999977  37 26.25  L 37 3.75  Z M 33 4  L 33 26  L 4 26  L 4 4  L 33 4  Z " fill-rule="nonzero" fill="#07dbff" stroke="none" transform="matrix(1 0 0 1 1176 314 )" />
  </g>
</svg>