<?xml version="1.0" encoding="utf-8"?>
<svg version="1.1" xmlns:xlink="http://www.w3.org/1999/xlink" width="25px" height="35px" xmlns="http://www.w3.org/2000/svg">
  <g transform="matrix(1 0 0 1 -1805 -171 )">
    <path d="M 24.6875 19.15640782828282  C 24.895833333333258 19.472064393939405  25 19.820601851851848  25 20.202020202020208  C 25 20.72811447811449  24.817708333333258 21.17529461279463  24.453125 21.543560606060623  C 24.088541666666742 21.911826599326616  23.645833333333258 22.095959595959584  23.125 22.095959595959584  C 22.4609375 22.095959595959584  21.940104166666742 21.81318392255892  21.5625 21.247632575757592  L 17.12890625 14.52020202020202  L 16.25 14.52020202020202  L 16.25 17.124368686868678  L 21.07421875 25.23279671717171  C 21.19140625 25.430082070707073  21.25 25.64709595959596  21.25 25.883838383838395  C 21.25 26.225799663299654  21.126302083333258 26.521727693602713  20.87890625 26.77162247474749  C 20.631510416666742 27.021517255892263  20.338541666666742 27.146464646464665  20 27.146464646464665  L 16.25 27.146464646464665  L 16.25 32.51262626262627  C 16.25 33.1176346801347  16.03515625 33.63715277777777  15.605468750000002 34.07118055555554  C 15.17578125 34.50520833333334  14.661458333333258 34.72222222222223  14.0625 34.72222222222223  L 10.9375 34.72222222222223  C 10.338541666666742 34.72222222222223  9.82421875 34.50520833333334  9.39453125 34.07118055555554  C 8.96484375 33.63715277777777  8.75 33.1176346801347  8.75 32.51262626262627  L 8.75 27.146464646464665  L 5 27.146464646464665  C 4.6614583333332575 27.146464646464665  4.3684895833332575 27.021517255892263  4.12109375 26.77162247474749  C 3.873697916666743 26.521727693602713  3.75 26.225799663299654  3.75 25.883838383838395  C 3.75 25.64709595959596  3.80859375 25.430082070707073  3.9257812500000004 25.23279671717171  L 8.75 17.124368686868678  L 8.75 14.52020202020202  L 7.871093749999999 14.52020202020202  L 3.4375000000000004 21.247632575757592  C 3.0598958333332575 21.81318392255892  2.5390625 22.095959595959584  1.875 22.095959595959584  C 1.3541666666667425 22.095959595959584  0.9114583333332575 21.911826599326616  0.546875 21.543560606060623  C 0.18229166666674246 21.17529461279463  0 20.72811447811449  0 20.202020202020208  C 0 19.820601851851848  0.10416666666674246 19.472064393939405  0.3125 19.15640782828282  L 5.3125 11.58065025252526  C 6.2630208333332575 10.173348063973066  7.4088541666667425 9.469696969696969  8.75 9.469696969696969  L 16.25 9.469696969696969  C 17.591145833333258 9.469696969696969  18.736979166666742 10.173348063973066  19.6875 11.58065025252526  L 24.6875 19.15640782828282  Z M 15.595703124999998 1.2922190656565533  C 16.448567708333258 2.153698442760941  16.875 3.1960227272727195  16.875 4.419191919191917  C 16.875 5.642361111111114  16.448567708333258 6.6846853956228935  15.595703124999998 7.54616477272728  C 14.742838541666742 8.40764414983164  13.7109375 8.838383838383834  12.5 8.838383838383834  C 11.2890625 8.838383838383834  10.257161458333258 8.40764414983164  9.404296875 7.54616477272728  C 8.551432291666742 6.6846853956228935  8.125 5.642361111111114  8.125 4.419191919191917  C 8.125 3.1960227272727195  8.551432291666742 2.153698442760941  9.404296875 1.2922190656565533  C 10.257161458333258 0.4307396885521939  11.2890625 0  12.5 0  C 13.7109375 0  14.742838541666742 0.4307396885521939  15.595703124999998 1.2922190656565533  Z " fill-rule="nonzero" fill="#fea213" stroke="none" transform="matrix(1 0 0 1 1805 171 )" />
  </g>
</svg>