<?xml version="1.0" encoding="utf-8"?>
<svg version="1.1" xmlns:xlink="http://www.w3.org/1999/xlink" width="25px" height="44px" xmlns="http://www.w3.org/2000/svg">
  <g transform="matrix(1 0 0 1 -1639 -164 )">
    <path d="M 23.6328125 13.126959247648898  C 24.544270833333258 14.041274817136895  25 15.151515151515156  25 16.45768025078371  L 25 26.64576802507835  C 25 27.298850574712645  24.772135416666742 27.853970741901776  24.31640625 28.311128526645742  C 23.860677083333258 28.768286311389744  23.307291666666742 28.996865203761757  22.65625 28.996865203761757  C 22.005208333333258 28.996865203761757  21.451822916666742 28.768286311389744  20.99609375 28.311128526645742  C 20.540364583333258 27.853970741901776  20.3125 27.298850574712645  20.3125 26.64576802507835  L 20.3125 18.02507836990594  L 18.75 18.02507836990594  L 18.75 40.3605015673981  C 18.75 41.11154649947753  18.4814453125 41.75646551724137  17.9443359375 42.29525862068965  C 17.4072265625 42.834051724137936  16.764322916666742 43.103448275862064  16.015625 43.103448275862064  C 15.266927083333256 43.103448275862064  14.6240234375 42.834051724137936  14.0869140625 42.29525862068965  C 13.5498046875 41.75646551724137  13.28125 41.11154649947753  13 40.3605015673981  L 13 28.996865203761757  L 12 28.996865203761757  L 12 40.3605015673981  C 11.71875 41.11154649947753  11.4501953125 41.75646551724137  10.9130859375 42.29525862068965  C 10.3759765625 42.834051724137936  9.733072916666742 43.103448275862064  8.984375 43.103448275862064  C 8.235677083333258 43.103448275862064  7.5927734375 42.834051724137936  7.0556640625 42.29525862068965  C 6.5185546875 41.75646551724137  6.25 41.11154649947753  6.25 40.3605015673981  L 6.25 18.02507836990594  L 4.6875 18.02507836990594  L 4.6875 26.64576802507835  C 4.6875 27.298850574712645  4.4596354166667425 27.853970741901776  4.00390625 28.311128526645742  C 3.548177083333257 28.768286311389744  2.9947916666667425 28.996865203761757  2.34375 28.996865203761757  C 1.6927083333332575 28.996865203761757  1.1393229166667425 28.768286311389744  0.68359375 28.311128526645742  C 0.22786458333325754 27.853970741901776  0 27.298850574712645  0 26.64576802507835  L 0 16.45768025078371  C 0 15.151515151515156  0.4557291666667424 14.041274817136895  1.3671875 13.126959247648898  C 2.2786458333332575 12.212643678160902  3.385416666666743 11.755485893416932  4.6875 12  L 20.3125 12  C 21.614583333333258 11.755485893416932  22.721354166666742 12.212643678160902  23.6328125 13.126959247648898  Z M 16.36962890625 1.6041340125391912  C 17.435709635416742 2.673556687565309  17.96875 3.9674764890282006  17.96875 5.485893416927894  C 17.96875 7.004310344827587  17.435709635416742 8.298230146290479  16.36962890625 9.367652821316597  C 15.303548177083256 10.437075496342743  14.013671875 10.971786833855788  12.5 10.971786833855788  C 10.986328125 10.971786833855788  9.696451822916742 10.437075496342743  8.63037109375 9.367652821316597  C 7.5642903645832575 8.298230146290479  7.03125 7.004310344827587  7.03125 5.485893416927894  C 7.03125 3.9674764890282006  7.5642903645832575 2.673556687565309  8.63037109375 1.6041340125391912  C 9.696451822916742 0.5347113375130448  10.986328125 0  12.5 0  C 14.013671875 0  15.303548177083256 0.5347113375130448  16.36962890625 1.6041340125391912  Z " fill-rule="nonzero" fill="#0000ff" stroke="none" transform="matrix(1 0 0 1 1639 164 )" />
  </g>
</svg>