<?xml version="1.0" encoding="utf-8"?>
<svg version="1.1" xmlns:xlink="http://www.w3.org/1999/xlink" width="340px" height="132px" xmlns="http://www.w3.org/2000/svg">
  <defs>
    <linearGradient gradientUnits="userSpaceOnUse" x1="0" y1="66" x2="340" y2="66" id="LinearGradient451">
      <stop id="Stop452" stop-color="#0a3333" stop-opacity="0.3764705882352941" offset="0" />
      <stop id="Stop453" stop-color="#3a7574" offset="1" />
    </linearGradient>
  </defs>
  <g transform="matrix(1 0 0 1 -62 -622 )">
    <path d="M 27.432762836185862 95.24050632911394  C 48.56881245159508 80.74156291162353  76.47921760391202 88.27848101265818  92.27383863080684 84.37974683544303  C 119.42950285248574 78.25316455696202  105.9361711179375 74.86636946472959  148.80195599022005 57.64556962025313  C 176.6164316485694 46.47144742655905  183.01566189787664 68.38023201322721  211.1491442542787 59.31645569620264  C 240.63923842510982 49.81561915750831  227.9521780980641 41.63132482539413  257.70171149144255 32.582278481012736  C 284.6027496432895 24.399671455578755  283.90384062537356 37.91675044913609  307.57946210268943 21.721518987341824  C 315.2944753556561 16.444089396641402  324.81015520416815 16.96942344988838  329.6919315403423 13.70126582278499  C 338.9385989031703 7.510984993409693  340 0  340 0  L 340 25.06329113924062  L 340 132  L 0 132  C 0 132  8.050545716609122 108.53635273540658  27.432762836185862 95.24050632911394  Z " fill-rule="nonzero" fill="url(#LinearGradient451)" stroke="none" transform="matrix(1 0 0 1 62 622 )" />
  </g>
</svg>