<?xml version="1.0" encoding="utf-8"?>
<svg version="1.1" xmlns:xlink="http://www.w3.org/1999/xlink" width="354px" height="135px" xmlns="http://www.w3.org/2000/svg">
  <g transform="matrix(1 0 0 1 -50 -621 )">
    <path d="M 0.3441176470588232 131.83184713375795  C 0.3441176470588232 131.83184713375795  5.480503158406222 108.22329871377246  23.105042016806735 99.45040946314816  C 32.37182642401187 94.83772291475293  42.32286615660087 91.09738935921018  51.863445378151255 87.67970882620557  C 58.77436383948597 85.20404032201964  75.94004076193616 86.10167298691704  88.73319327731089 85.0373066424022  C 99.51656225205022 84.14015052678451  106.42808667672972 81.14639361873446  109.16009176468282 80.62153758312343  C 110.901650201904 80.2869600740346  125.28041319924188 71.79322213934324  127.81512605042016 70.38398544131019  C 141.58550075239563 62.72800288428516  153.08057407328 55.01902668014168  168.86344537815128 55.250227479526984  C 179.577290345438 55.40717290935868  190.15021528738035 59.73099423625672  200.5714285714286 61.01546860782514  C 205.6823327023773 61.645416886668954  218.07663250078667 60.213347599009694  230.8046218487395 53.56869881710645  C 237.75960969793434 49.93784634882263  243.28827960148925 43.517299585638284  249.7310924369748 39.395814376706085  C 250.6434162942524 38.81219827927498  258.5978801507828 34.43788024610126  270.13235294117646 30.507734303912684  C 272.918771341185 29.558316747771414  276.96549016991065 29.705205128663465  279.718487394958 29.54686078252962  C 288.17573883378617 29.060424422555798  294.73649235805846 30.806998520810794  296.43277310924367 30.507734303912684  C 299.22657649885286 30.014841023732288  301.8896591118286 29.423040416304957  305.281512605042 27.865332120109088  C 310.0890645283212 25.657464495440763  315.9558423831493 22.121372469021935  322.24159663865544 19.457688808007333  C 327.69554335200655 17.14649620360774  336.2126987660251 16.45588846397436  340.4306722689076 13.692447679708721  C 347.3956290756873 9.129297700850657  350.2626050420168 0.7206551410372413  350.2626050420168 0.7206551410372413  " stroke-width="2" stroke="#0000ff" fill="none" transform="matrix(1 0 0 1 51 622 )" />
  </g>
</svg>