<?xml version="1.0" encoding="utf-8"?>
<svg version="1.1" xmlns:xlink="http://www.w3.org/1999/xlink" width="50px" height="36px" xmlns="http://www.w3.org/2000/svg">
  <g transform="matrix(1 0 0 1 -508 -201 )">
    <path d="M 30 11.300223214285722  C 30 14.765625  32.799999999999955 17.578125  36.25 17.578125  C 39.700000000000045 17.578125  42.47500000000002 14.765625  42.47500000000002 11.300223214285722  C 42.47500000000002 7.834821428571445  39.700000000000045 5.022321428571416  36.25 5.022321428571416  C 32.799999999999955 5.022321428571416  30 7.834821428571445  30 11.300223214285722  Z M 10 7.533482142857139  C 10 11.689453125  13.362499999999955 15.066964285714278  17.5 15.066964285714278  C 21.637500000000045 15.066964285714278  24.975000000000023 11.689453125  24.975000000000023 7.533482142857139  C 24.975000000000023 3.3775111607142776  21.637500000000045 0  17.5 0  C 13.362499999999955 0  10 3.3775111607142776  10 7.533482142857139  Z M 50 29.50613839285714  C 50 24.910714285714278  40.83749999999998 22.600446428571445  36.25 22.600446428571445  C 31.662500000000023 22.600446428571445  22.5 24.910714285714278  22.5 29.50613839285714  L 22.5 35  L 50 35  L 50 29.50613839285714  Z M 23.424999999999955 20.792410714285722  C 21.25 20.32784598214286  19.137500000000045 20.089285714285722  17.5 20.089285714285722  C 11.662500000000023 20.089285714285722  0 23.02734375  0 28.878348214285722  L 0 35  L 17.5 35  L 17.5 29.50613839285714  C 17.5 27.371651785714278  18.337499999999977 23.642578125  23.424999999999955 20.792410714285722  Z " fill-rule="nonzero" fill="#07dbff" stroke="none" transform="matrix(1 0 0 1 508 201 )" />
  </g>
</svg>