<?xml version="1.0" encoding="utf-8"?>
<svg version="1.1" xmlns:xlink="http://www.w3.org/1999/xlink" width="100px" height="200px" xmlns="http://www.w3.org/2000/svg">
  <defs>
    <mask fill="white" id="clip174">
      <path d="M 0.15060240963856586 0.3030310484848542  C 0.15060240963856586 0.3030310484848542  0.15060240963856586 15.212120466666649  0.15060240963856586 15.212120466666649  C 46.529211968727395 15.212120466666649  84.72891463395456 53.64333648138007  84.72891463395456 100.30303030303031  C 84.72891463395456 146.9627241246805  46.529211968727395 184.78787953333335  0.150600639978677 184.78787953333335  C 0.15060240963856586 184.78787953333335  0.15060240963856586 199.69696895151515  0.15060240963856586 199.69696895151515  C 54.71367367044571 199.69696895151515  99.54819203012045 155.196786844206  99.54819203012045 100.30303030303031  C 99.54819203012045 45.40927376185465  54.71367367044571 0.3030310484848542  0.15060240963856586 0.3030310484848542  Z " fill-rule="evenodd" />
    </mask>
  </defs>
  <g transform="matrix(1 0 0 1 -127 -141 )">
    <path d="M 0.15060240963856586 0.3030310484848542  C 0.15060240963856586 0.3030310484848542  0.15060240963856586 15.212120466666649  0.15060240963856586 15.212120466666649  C 46.529211968727395 15.212120466666649  84.72891463395456 53.64333648138007  84.72891463395456 100.30303030303031  C 84.72891463395456 146.9627241246805  46.529211968727395 184.78787953333335  0.150600639978677 184.78787953333335  C 0.15060240963856586 184.78787953333335  0.15060240963856586 199.69696895151515  0.15060240963856586 199.69696895151515  C 54.71367367044571 199.69696895151515  99.54819203012045 155.196786844206  99.54819203012045 100.30303030303031  C 99.54819203012045 45.40927376185465  54.71367367044571 0.3030310484848542  0.15060240963856586 0.3030310484848542  Z " fill-rule="nonzero" fill="#fea213" stroke="none" transform="matrix(1 0 0 1 127 141 )" />
    <path d="M 0.15060240963856586 0.3030310484848542  C 0.15060240963856586 0.3030310484848542  0.15060240963856586 15.212120466666649  0.15060240963856586 15.212120466666649  C 46.529211968727395 15.212120466666649  84.72891463395456 53.64333648138007  84.72891463395456 100.30303030303031  C 84.72891463395456 146.9627241246805  46.529211968727395 184.78787953333335  0.150600639978677 184.78787953333335  C 0.15060240963856586 184.78787953333335  0.15060240963856586 199.69696895151515  0.15060240963856586 199.69696895151515  C 54.71367367044571 199.69696895151515  99.54819203012045 155.196786844206  99.54819203012045 100.30303030303031  C 99.54819203012045 45.40927376185465  54.71367367044571 0.3030310484848542  0.15060240963856586 0.3030310484848542  Z " stroke-width="2" stroke="#fea213" fill="none" transform="matrix(1 0 0 1 127 141 )" mask="url(#clip174)" />
  </g>
</svg>