<?xml version="1.0" encoding="utf-8"?>
<svg version="1.1" xmlns:xlink="http://www.w3.org/1999/xlink" width="87px" height="58px" xmlns="http://www.w3.org/2000/svg">
  <defs>
    <mask fill="white" id="clip175">
      <path d="M 86.54687499999994 57.69791592354164  C 86.54687499999994 57.69791592354164  86.54687499999994 42.83541740979172  86.54687499999994 42.83541740979172  C 56.45766903111655 42.83541740979172  28.04992947964803 26.178850453651304  13.005326495206305 0.12083370489585832  C 13.005326495206305 0.12083370489585832  0.13402521859035232 7.5520829617708785  0.13402521859035232 7.5520829617708785  C 17.833557852544118 38.20857275400215  51.14780973209247 57.69791592354164  86.54687499999994 57.69791592354164  Z " fill-rule="evenodd" />
    </mask>
  </defs>
  <g transform="matrix(1 0 0 1 -204 -304 )">
    <path d="M 86.54687499999994 57.69791592354164  C 86.54687499999994 57.69791592354164  86.54687499999994 42.83541740979172  86.54687499999994 42.83541740979172  C 56.45766903111655 42.83541740979172  28.04992947964803 26.178850453651304  13.005326495206305 0.12083370489585832  C 13.005326495206305 0.12083370489585832  0.13402521859035232 7.5520829617708785  0.13402521859035232 7.5520829617708785  C 17.833557852544118 38.20857275400215  51.14780973209247 57.69791592354164  86.54687499999994 57.69791592354164  Z " fill-rule="nonzero" fill="#07dbff" stroke="none" transform="matrix(1 0 0 1 204 304 )" />
    <path d="M 86.54687499999994 57.69791592354164  C 86.54687499999994 57.69791592354164  86.54687499999994 42.83541740979172  86.54687499999994 42.83541740979172  C 56.45766903111655 42.83541740979172  28.04992947964803 26.178850453651304  13.005326495206305 0.12083370489585832  C 13.005326495206305 0.12083370489585832  0.13402521859035232 7.5520829617708785  0.13402521859035232 7.5520829617708785  C 17.833557852544118 38.20857275400215  51.14780973209247 57.69791592354164  86.54687499999994 57.69791592354164  Z " stroke-width="2" stroke="#07dbff" fill="none" transform="matrix(1 0 0 1 204 304 )" mask="url(#clip175)" />
  </g>
</svg>