<?xml version="1.0" encoding="utf-8"?>
<svg version="1.1" xmlns:xlink="http://www.w3.org/1999/xlink" width="87px" height="58px" xmlns="http://www.w3.org/2000/svg">
  <defs>
    <mask fill="white" id="clip176">
      <path d="M 0.13402521859035232 50.44791703822915  C 0.13402521859035232 50.44791703822915  13.005326495206305 57.87916629510414  13.005326495206305 57.87916629510414  C 28.04992947964803 31.82114954634875  56.45766903111655 15.16458259020834  86.54687499999994 15.16458259020834  C 86.54687499999994 15.16458259020834  86.54687499999994 0.3020840764583568  86.54687499999994 0.3020840764583568  C 51.14780973209247 0.3020840764583568  17.83355785254406 19.791427245997852  0.13402521859035232 50.44791703822915  Z " fill-rule="evenodd" />
    </mask>
  </defs>
  <g transform="matrix(1 0 0 1 -62 -305 )">
    <path d="M 0.13402521859035232 50.44791703822915  C 0.13402521859035232 50.44791703822915  13.005326495206305 57.87916629510414  13.005326495206305 57.87916629510414  C 28.04992947964803 31.82114954634875  56.45766903111655 15.16458259020834  86.54687499999994 15.16458259020834  C 86.54687499999994 15.16458259020834  86.54687499999994 0.3020840764583568  86.54687499999994 0.3020840764583568  C 51.14780973209247 0.3020840764583568  17.83355785254406 19.791427245997852  0.13402521859035232 50.44791703822915  Z " fill-rule="nonzero" fill="#0000ff" stroke="none" transform="matrix(1 0 0 1 62 305 )" />
    <path d="M 0.13402521859035232 50.44791703822915  C 0.13402521859035232 50.44791703822915  13.005326495206305 57.87916629510414  13.005326495206305 57.87916629510414  C 28.04992947964803 31.82114954634875  56.45766903111655 15.16458259020834  86.54687499999994 15.16458259020834  C 86.54687499999994 15.16458259020834  86.54687499999994 0.3020840764583568  86.54687499999994 0.3020840764583568  C 51.14780973209247 0.3020840764583568  17.83355785254406 19.791427245997852  0.13402521859035232 50.44791703822915  Z " stroke-width="2" stroke="#0000ff" fill="none" transform="matrix(1 0 0 1 62 305 )" mask="url(#clip176)" />
  </g>
</svg>