<?xml version="1.0" encoding="utf-8"?>
<svg version="1.1" xmlns:xlink="http://www.w3.org/1999/xlink" width="15px" height="15px" xmlns="http://www.w3.org/2000/svg">
  <g transform="matrix(1 0 0 1 -163 -304 )">
    <path d="M 170.5 306  C 173.58 306  176 308.42  176 311.5  C 176 314.58  173.58 317  170.5 317  C 167.42 317  165 314.58  165 311.5  C 165 308.42  167.42 306  170.5 306  Z " fill-rule="nonzero" fill="#ff0000" stroke="none" />
    <path d="M 170.5 305.5  C 173.86 305.5  176.5 308.14  176.5 311.5  C 176.5 314.86  173.86 317.5  170.5 317.5  C 167.14 317.5  164.5 314.86  164.5 311.5  C 164.5 308.14  167.14 305.5  170.5 305.5  Z " stroke-width="3" stroke="#ff0000" fill="none" />
  </g>
</svg>