<?xml version="1.0" encoding="utf-8"?>
<svg version="1.1" xmlns:xlink="http://www.w3.org/1999/xlink" width="36px" height="50px" xmlns="http://www.w3.org/2000/svg">
  <g transform="matrix(1 0 0 1 -885 -180 )">
    <path d="M 35.550000000000004 27.585227272727273  C 35.85 28.039772727272727  36 28.541666666666664  36 29.09090909090909  C 36 29.848484848484848  35.737500000000004 30.492424242424242  35.2125 31.022727272727273  C 34.6875 31.553030303030305  34.050000000000004 31.818181818181817  33.300000000000004 31.818181818181817  C 32.34375 31.818181818181817  31.593750000000004 31.41098484848485  31.05 30.59659090909091  L 24.665625000000002 20.90909090909091  L 23.400000000000002 20.90909090909091  L 23.400000000000002 24.659090909090907  L 30.346875 36.33522727272727  C 30.515625 36.61931818181819  30.599999999999998 36.93181818181818  30.599999999999998 37.27272727272727  C 30.599999999999998 37.765151515151516  30.421875 38.191287878787875  30.065625 38.55113636363636  C 29.709375000000005 38.91098484848485  29.287500000000005 39.09090909090909  28.8 39.09090909090909  L 23.400000000000002 39.09090909090909  L 23.400000000000002 46.81818181818182  C 23.400000000000002 47.689393939393945  23.090625 48.4375  22.471875 49.0625  C 21.853125000000002 49.6875  21.112500000000004 50  20.25 50  L 15.75 50  C 14.887500000000001 50  14.146875 49.6875  13.528125000000001 49.0625  C 12.909374999999999 48.4375  12.6 47.689393939393945  12.6 46.81818181818182  L 12.6 39.09090909090909  L 7.2 39.09090909090909  C 6.7125 39.09090909090909  6.290625 38.91098484848485  5.934375 38.55113636363636  C 5.578125 38.191287878787875  5.3999999999999995 37.765151515151516  5.3999999999999995 37.27272727272727  C 5.3999999999999995 36.93181818181818  5.484375 36.61931818181819  5.653125 36.33522727272727  L 12.6 24.659090909090907  L 12.6 20.90909090909091  L 11.334375 20.90909090909091  L 4.95 30.59659090909091  C 4.40625 31.41098484848485  3.65625 31.818181818181817  2.6999999999999997 31.818181818181817  C 1.9500000000000004 31.818181818181817  1.3125 31.553030303030305  0.7875 31.022727272727273  C 0.26249999999999996 30.492424242424242  0 29.848484848484848  0 29.09090909090909  C 0 28.541666666666664  0.15 28.039772727272727  0.45 27.585227272727273  L 7.6499999999999995 16.676136363636363  C 9.01875 14.649621212121206  10.668750000000001 13.636363636363635  12.6 14  L 23.400000000000002 14  C 25.331250000000004 13.636363636363635  26.981250000000003 14.649621212121206  28.349999999999998 16.676136363636363  L 35.550000000000004 27.585227272727273  Z M 22.4578125 1.8607954545454553  C 23.6859375 3.1013257575757516  24.3 4.602272727272727  24.3 6.363636363636366  C 24.3 8.124999999999998  23.6859375 9.625946969696969  22.4578125 10.86647727272727  C 21.2296875 12.107007575757573  19.743750000000002 12.727272727272727  18 12.727272727272727  C 16.256249999999998 12.727272727272727  14.770312500000001 12.107007575757573  13.542187499999999 10.86647727272727  C 12.314062500000002 9.625946969696969  11.700000000000001 8.124999999999998  11.700000000000001 6.363636363636366  C 11.700000000000001 4.602272727272727  12.314062500000002 3.1013257575757516  13.542187499999999 1.8607954545454553  C 14.770312500000001 0.620265151515148  16.256249999999998 0  18 0  C 19.743750000000002 0  21.2296875 0.620265151515148  22.4578125 1.8607954545454553  Z " fill-rule="nonzero" fill="#07dbff" stroke="none" transform="matrix(1 0 0 1 885 180 )" />
  </g>
</svg>