<?xml version="1.0" encoding="utf-8"?>
<svg version="1.1" xmlns:xlink="http://www.w3.org/1999/xlink" width="29px" height="50px" xmlns="http://www.w3.org/2000/svg">
  <g transform="matrix(1 0 0 1 -1224 -187 )">
    <path d="M 27.4140625 15.227272727272728  C 28.471354166666668 16.287878787878785  29 17.57575757575757  29 19.090909090909093  L 29 30.909090909090907  C 29 31.666666666666664  28.735677083333336 32.31060606060606  28.20703125 32.840909090909086  C 27.678385416666668 33.37121212121212  27.036458333333336 33.63636363636363  26.28125 33.63636363636363  C 25.52604166666667 33.63636363636363  24.884114583333336 33.37121212121212  24.35546875 32.840909090909086  C 23.826822916666668 32.31060606060606  23.5625 31.666666666666664  23.5625 30.909090909090907  L 23.5625 20.90909090909091  L 21.75 20.90909090909091  L 21.75 46.81818181818182  C 21.75 47.689393939393945  21.4384765625 48.4375  20.8154296875 49.0625  C 20.1923828125 49.6875  19.446614583333336 50  18.578125 50  C 17.709635416666668 50  16.9638671875 49.6875  16.3408203125 49.0625  C 15.7177734375 48.4375  15.40625 47.689393939393945  15 46.81818181818182  L 15 33.63636363636363  L 14 33.63636363636363  L 14 46.81818181818182  C 13.593750000000002 47.689393939393945  13.282226562500002 48.4375  12.6591796875 49.0625  C 12.036132812500002 49.6875  11.290364583333336 50  10.421875 50  C 9.553385416666668 50  8.8076171875 49.6875  8.1845703125 49.0625  C 7.5615234375 48.4375  7.25 47.689393939393945  7.25 46.81818181818182  L 7.25 20.90909090909091  L 5.4375 20.90909090909091  L 5.4375 30.909090909090907  C 5.4375 31.666666666666664  5.173177083333333 32.31060606060606  4.64453125 32.840909090909086  C 4.115885416666667 33.37121212121212  3.4739583333333335 33.63636363636363  2.71875 33.63636363636363  C 1.963541666666667 33.63636363636363  1.3216145833333335 33.37121212121212  0.79296875 32.840909090909086  C 0.26432291666666663 32.31060606060606  0 31.666666666666664  0 30.909090909090907  L 0 19.090909090909093  C 0 17.57575757575757  0.5286458333333333 16.287878787878785  1.5859375 15.227272727272728  C 2.643229166666667 14.16666666666666  3.927083333333334 13.636363636363635  5.4375 14  L 23.5625 14  C 25.07291666666667 13.636363636363635  26.356770833333336 14.16666666666666  27.4140625 15.227272727272728  Z M 18.98876953125 1.8607954545454553  C 20.225423177083336 3.1013257575757516  20.84375 4.602272727272727  20.84375 6.363636363636366  C 20.84375 8.124999999999998  20.225423177083336 9.625946969696969  18.98876953125 10.86647727272727  C 17.752115885416668 12.107007575757573  16.255859375 12.727272727272727  14.5 12.727272727272727  C 12.744140625 12.727272727272727  11.247884114583334 12.107007575757573  10.01123046875 10.86647727272727  C 8.774576822916668 9.625946969696969  8.15625 8.124999999999998  8.15625 6.363636363636366  C 8.15625 4.602272727272727  8.774576822916668 3.1013257575757516  10.01123046875 1.8607954545454553  C 11.247884114583334 0.620265151515148  12.744140625 0  14.5 0  C 16.255859375 0  17.752115885416668 0.620265151515148  18.98876953125 1.8607954545454553  Z " fill-rule="nonzero" fill="#07dbff" stroke="none" transform="matrix(1 0 0 1 1224 187 )" />
  </g>
</svg>