<?xml version="1.0" encoding="utf-8"?>
<svg version="1.1" xmlns:xlink="http://www.w3.org/1999/xlink" width="34px" height="11px" xmlns="http://www.w3.org/2000/svg">
  <defs>
    <mask fill="white" id="clip188">
      <path d="M 0.27419354838730214 3.7500000000001137  L 3.5645161290321994 0.24999999999977263  L 33.7258064516127 1.0000000000001137  L 23.58064516129025 6.750000000000341  L 12.612903225806804 11  L 5.758064516129252 10.249999999999659  L 0.27419354838730214 3.7500000000001137  Z " fill-rule="evenodd" />
    </mask>
  </defs>
  <g transform="matrix(1 0 0 1 -1189 -676 )">
    <path d="M 0.27419354838730214 3.7500000000001137  L 3.5645161290321994 0.24999999999977263  L 33.7258064516127 1.0000000000001137  L 23.58064516129025 6.750000000000341  L 12.612903225806804 11  L 5.758064516129252 10.249999999999659  L 0.27419354838730214 3.7500000000001137  Z " fill-rule="nonzero" fill="#623ceb" stroke="none" transform="matrix(1 0 0 1 1189 676 )" />
    <path d="M 0.27419354838730214 3.7500000000001137  L 3.5645161290321994 0.24999999999977263  L 33.7258064516127 1.0000000000001137  L 23.58064516129025 6.750000000000341  L 12.612903225806804 11  L 5.758064516129252 10.249999999999659  L 0.27419354838730214 3.7500000000001137  Z " stroke-width="2" stroke="#6b6b6b" fill="none" transform="matrix(1 0 0 1 1189 676 )" mask="url(#clip188)" />
  </g>
</svg>