<?xml version="1.0" encoding="utf-8"?>
<svg version="1.1" xmlns:xlink="http://www.w3.org/1999/xlink" width="122px" height="118px" xmlns="http://www.w3.org/2000/svg">
  <g transform="matrix(1 0 0 1 -820 -624 )">
    <path d="M 16.75046763935643 10.941818181818121  C 18.74497311519781 8.200661575598929  16.168602636868854 4.505454545454654  16.168602636868854 4.505454545454654  L 18.84928909952623 3.003636363636474  L 22 0  L 22 10.083636363636629  L 24.862559241706094 12.633257403188964  C 24.862559241706094 12.633257403188964  24.669370740793056 16.6246433794563  26.48151658767756 17.36400911161718  C 27.771289053633154 17.89024355640663  29.93557389112948 15.876363636363862  29.93557389112948 15.876363636363862  L 31.569668246445417 13.278359908883886  L 33.174021040687876 10.941818181818121  L 33.174021040687876 7.902505694761316  L 34.41025641025635 7.902505694761316  L 36.19526066350727 12.633257403188964  L 36.88909952606673 17.36400911161718  L 42.67109004739359 21.234624145785915  L 45.76448243114919 18.224145785877226  L 47.06540284360199 22.95636363636345  L 51.92227488151639 33.469090909091165  L 53.77251184834131 35.185454545454604  L 54.69763033175377 40.54909090909075  C 54.69763033175377 40.54909090909075  54.974509641768236 43.72455143572802  56.54786729857824 43.98181818181865  C 57.72926329545771 44.174993524147794  59.204178537512234 42.30797266514776  59.204178537512234 42.30797266514776  L 59.204178537512234 47.414545454545646  L 62.67996201329515 47.414545454545646  L 65.10521327014203 44.83999999999969  L 68.70465337132009 41.44783599088828  C 68.70465337132009 41.44783599088828  71.69723202673777 43.09814980776491  74.58767772511874 42.30797266514776  C 77.14725664252 41.608246406188414  78.51943127962113 39.04727272727257  78.51943127962113 39.04727272727257  L 78.51943127962113 35.185454545454604  L 76.74820454921655 31.967272727272867  L 76.74820454921655 27.866807899261744  C 76.74820454921655 27.866807899261744  80.8173849159225 26.419021194359402  83.83886255924153 22.95636363636345  C 86.10505674934348 20.359271959186117  86.61421800947892 17.36400911161718  86.61421800947892 17.36400911161718  L 85.22654028436 13.278359908883886  L 89.79107312440647 15.876363636363862  L 89.79107312440647 10.941818181818121  L 92.62748815165924 8.977676537585467  L 95.58404558404573 8.977676537585467  L 97.20607787274457 12.633257403188964  L 97.20607787274457 17.36400911161718  C 97.20607787274457 17.36400911161718  98.13792727264808 20.028124966072028  99.98670465337136 20.374487471525867  C 102.22835767691595 20.794453967054437  104.62108262108268 18.224145785877226  104.62108262108268 18.224145785877226  L 109.7188983855649 17.36400911161718  L 109.7188983855649 21.879726651480723  L 108.32858499525173 23.815034168564807  L 104.62108262108268 25.965375854214017  L 100.95355450236957 25.101818181817976  L 94.24644549763025 25.101818181817976  L 88.23317535545038 25.965375854214017  L 85.22654028436 29.39272727272737  L 85.22654028436 32.610909090909104  L 87.53933649289093 37.57722095671966  L 92.62748815165924 40.54909090909075  L 94.24644549763025 37.57722095671966  L 97.90123456790116 37.57722095671966  L 99.29154795821478 42.30797266514776  L 96.27920227920231 50.04920273348512  L 96.27920227920231 54.27999999999963  L 101.60873694207021 58.4355353075174  L 99.98670465337136 61.145454545454534  L 99.29154795821478 65.86545454545444  L 99.29154795821478 69.29818181818189  L 99.98670465337136 72.08727272727265  L 103.72890995260695 72.08727272727265  L 106.27298578199043 70.79999999999961  L 107.6606635071089 72.08727272727265  L 107.6606635071089 75.20820045558082  L 108.32858499525173 77.78861047835983  L 114.81671415004757 77.78861047835983  L 121.36277302943972 76.4984054669701  L 122 81.65922551252845  L 119.68281101614457 84.02460136674233  L 115.97530864197552 85.74487471526174  L 114.81671415004757 86.38997722095712  L 113.19468186134873 85.09977220956694  L 109.7188983855649 84.02460136674233  L 97.90123456790116 93.70113895216434  L 93.55260663507124 92.68363636363631  L 89.79107312440647 96.06651480637811  L 81.29478672985806 93.70113895216434  L 75.74407582938375 99.5490909090912  L 68.70465337132009 93.70113895216434  L 62.67996201329515 97.14168564920271  L 57.472985781990246 97.14168564920271  L 55.62274881516623 104.26909090909066  L 58.166824644549706 113.06545454545437  L 58.86066350710871 118  L 51.22843601895738 116.28363636363656  L 50.53459715639792 112.1940774487473  L 47.06540284360199 108.3454545454548  L 40.807503607503804 112.1940774487473  L 38.03169176502524 112.1940774487473  L 33.174021040687876 109.39863325740316  C 33.174021040687876 109.39863325740316  32.960668983123014 105.62549198174509  29.93557389112948 103.19636363636391  C 26.05083765445943 100.07694999154955  19.52627948183499 100.62181818181796  19.52627948183499 100.62181818181796  C 19.52627948183499 100.62181818181796  21.299714825640876 97.42839787395587  21.839456017233715 96.06651480637811  C 23.921314899092977 93.55778283978714  28.08503266281059 88.54031890660588  28.08503266281059 88.54031890660588  L 21.14434947768268 87.89521640091141  L 16.168602636868854 84.73256416953927  L 18.138373560595483 77.78861047835983  L 15.131244064577004 75.20820045558082  L 17.461611374407767 72.08727272727265  L 15.131244064577004 70.15636363636338  L 11.198843954399308 72.08727272727265  L 8.441706161137063 72.08727272727265  L 3.8161137440756647 72.9454545454546  L 0 74.45558086560322  L 1.503317535545193 70.79999999999961  L 0 69.29818181818189  L 0 64.14909090909043  L 4.5099526066351245 59.21454545454526  L 9.579620379620337 50.04920273348512  C 9.579620379620337 50.04920273348512  12.80087675474715 52.4693145578799  15.131244064577004 50.04920273348512  C 17.461611374407767 47.629090909090905  18.138373560595483 39.90545454545497  18.138373560595483 39.90545454545497  L 18.84928909952623 27.03272727272713  L 16.168602636868854 20.374487471525867  L 13.992417061611377 21.879726651480723  L 11.198843954399308 21.234624145785915  L 10.504890993780009 13.278359908883886  C 10.504890993780009 13.278359908883886  15.001706178595214 13.345235514551405  16.75046763935643 10.941818181818121  Z " fill-rule="nonzero" fill="#169bd5" stroke="none" transform="matrix(1 0 0 1 820 624 )" />
  </g>
</svg>