<?xml version="1.0" encoding="utf-8"?>
<svg version="1.1" xmlns:xlink="http://www.w3.org/1999/xlink" width="305px" height="241px" xmlns="http://www.w3.org/2000/svg">
  <g transform="matrix(1 0 0 1 -834 -254 )">
    <path d="M 1.7264150943394725 171.5792035398232  L 0.28773584905638927 166.17625368731592  C 0.28773584905638927 166.17625368731592  9.552830188679309 170.29955752212436  22.673584905660505 169.6597345132742  C 35.79433962264136 169.01991150442495  45.174528301886994 169.01991150442495  45.174528301886994 169.01991150442495  C 45.174528301886994 169.01991150442495  57.201886792453024 176.271238938053  65.48867924528292 180.32345132743353  C 73.77547169811317 184.37566371681407  83.44339622641462 181.3898230088497  83.44339622641462 181.3898230088497  L 85.97547169811298 185.01548672566378  L 92.65094339622601 183.9491150442476  C 92.65094339622601 183.9491150442476  100.70754716981162 176.48451327433622  111.296226415094 173.28539823008873  C 121.8849056603774 170.08628318584067  139.55188679245293 172.57402945878505  139.55188679245293 172.57402945878505  L 146.2849056603775 171.5792035398232  L 146.2849056603775 169.6597345132742  L 150.94622641509432 167.59808259586976  L 154.85943396226457 162.40840707964605  L 157.851886792453 158.35619469026562  C 157.851886792453 158.35619469026562  159.23301886792456 156.22345132743374  159.9235849056604 155.15707964601802  C 161.2279874213839 154.73053097345155  163.8367924528302 153.8774336283186  163.8367924528302 153.8774336283186  C 163.8367924528302 153.8774336283186  169.2078616352203 153.02433628318613  169.86006289308204 150.67831858407055  C 170.51226415094334 148.3323008849555  169.13113207547212 144.0668141592917  169.13113207547212 144.0668141592917  C 169.13113207547212 144.0668141592917  168.26429680100546 145.2422232204496  167.2896226415096 144.70663716814192  C 165.4166218507536 143.67741823408414  164.98773584905666 139.80132743362844  164.98773584905666 139.80132743362844  L 168.2103773584903 131.270353982301  L 173.50471698113222 130.41725663716807  L 177.64811320754734 132.9765486725663  L 183.40283018867945 133.8296460176989  L 186.85566037735828 134.4694690265485  L 195.14245283018863 131.270353982301  L 198.36509433962283 125.08539823008857  L 205.04056603773574 122.95265486725674  C 205.04056603773574 122.95265486725674  212.1764150943393 121.67300884955785  214.24811320754748 119.11371681415943  C 216.31981132075498 116.55442477876113  217.70094339622665 107.38362831858393  217.70094339622665 107.38362831858393  L 221.84433962264166 106.53053097345145  L 236.34622641509463 99  L 251.76886792452842 99  C 251.76886792452842 99  255.45188679245257 97.14646017699101  254.64622641509436 94.37389380530993  C 253.84056603773573 91.6013274336284  251.07830188679262 89.89513274336298  251.07830188679262 89.89513274336298  L 242.79150943396235 84.9898230088495  L 237.49716981132087 79.23141592920314  L 226.67830188679272 80.51106194690254  L 223.68584905660373 84.9898230088495  L 212.1764150943393 82.85707964601812  L 205.92295597484323 86.55383480825958  L 205.92295597484323 80.51106194690254  L 210.10471698113201 61.10309734513294  L 209.3757861635222 54.91814159292011  L 217.70094339622665 55.771238938053045  L 223.68584905660373 60.25  L 236.34622641509463 47.88008849557522  L 237.49716981132087 43.82787610619471  L 235.3849604112329 42.18423892201312  L 237.49716981132087 38.922566371681285  L 239.3003144654083 27.4057522123895  L 245.3235849056607 16.52876106194691  L 243.52044025157215 12.689823008849572  L 244.40283018867873 9.277433628318335  L 241.1801886792455 7.997787610619382  L 238.1877358490567 7.997787610619382  L 240.0676100628932 5.438495575221083  L 241.1801886792455 2.8792035398232088  L 243.52044025157215 0.8886430678466581  L 249.27515723270471 0.17772861356905878  L 251.07830188679262 0.8886430678466581  L 248.08584905660382 4.798672566371806  L 249.27515723270471 12.04999999999987  L 254.07075471698113 14.182743362831786  L 254.07075471698113 12.689823008849572  L 257.2933962264151 13.329646017698849  L 259.63364779874223 12.04999999999987  L 260.2858490566041 10.130530973451272  L 264.88962264150973 10.770353982300975  L 264.88962264150973 17.381858407079847  C 264.88962264150973 17.381858407079847  268.7261006289307 21.647345132743055  270.64433962264184 23.7800884955754  C 272.25566037735825 24.56209439528044  273.4066037735847 26.339380530973756  275.4783018867922 26.126106194690095  C 277.5500000000002 25.912831858407287  280.5424528301885 22.28716814159276  282.12856317481373 21.434070796460333  C 283.714673519439 20.580973451327395  287.2671412340642 20.794247787610118  287.2671412340642 20.794247787610118  C 287.2671412340642 20.794247787610118  289.7499999999998 17.381858407079847  289.7499999999998 17.381858407079847  C 289.7499999999998 17.381858407079847  292.28207547169814 15.67566371681397  292.28207547169814 15.67566371681397  L 294.81415094339627 17.381858407079847  L 297.2311320754711 21.434070796460333  L 299.1493710691825 26.126106194690095  L 297.99842767295604 30.17831858407058  L 299.1493710691825 32.87979351032473  L 297.99842767295604 37.856194690265625  L 297.99842767295604 40.842035398230394  C 297.99842767295604 40.842035398230394  300.50968727520603 43.08197043065667  300.3386792452834 45.74734513274336  C 300.1252509271292 49.07389324965783  296.6556603773581 51.5057522123893  296.6556603773581 51.5057522123893  L 295.96509433962274 55.771238938053045  L 297.2311320754711 59.539085545722855  L 295.96509433962274 64.72876106194695  L 293.0110062893084 63.235840707964314  L 290.4405660377356 63.235840707964314  L 287.2671412340642 66.86150442477884  L 284.6858490566042 73.47300884955769  L 280.5424528301885 75.1792035398231  L 277.665094339623 79.80014749262494  L 280.5424528301885 84.9898230088495  L 282.8809957205358 87.29101416435117  L 282.8809957205358 88.8287610619468  L 286.10534591195005 90.46386430678479  L 287.2671412340642 94.37389380530993  L 287.9084905660377 99.2792035398229  L 283.76509433962246 103.61578171091406  L 278.7009433962264 100.55884955752231  L 275.4783018867922 100.55884955752231  L 272.48584905660437 103.61578171091406  L 274.7877358490564 106.53053097345145  L 280.5424528301885 109.30309734513253  L 280.5424528301885 118.2606194690265  L 282.12856317481373 121.93026958749378  L 283.76509433962246 125.08539823008857  L 287.2671412340642 128.14233038348084  L 293.893396226415 122.95265486725674  L 295.96509433962274 127.21814159291995  L 299.1493710691825 128.71106194690265  L 299.1493710691825 132.9765486725663  L 297.99842767295604 137.73967551622445  L 301.067610062893 140.93879056047206  L 303.84905660377353 140.65442477876087  L 304.94245283018904 141.72079646017704  L 303.84905660377353 144.0668141592917  L 301.067610062893 146.2706489675515  L 297.2311320754711 147.05265486725648  L 293.0110062893084 146.2706489675515  L 289.7499999999998 149.82522123893813  L 288.8292452830192 153.02433628318613  L 283.76509433962246 151.53141592920304  L 280.5424528301885 155.15707964601802  L 275.0321441102035 159.88148829699918  L 270.64433962264184 164.54115044247806  L 267.6902515723268 166.17625368731592  L 264.88962264150973 162.40840707964605  L 259.63364779874223 160.48893805309746  L 261.93594321449746 172.57402945878505  L 258.09905660377353 176.8399705014748  L 249.27515723270471 174.99159292035358  L 247.16509433962278 172.57402945878505  L 248.08584905660382 169.01991150442495  L 248.08584905660382 166.17625368731592  L 247.16509433962278 163.261504424779  C 247.16509433962278 163.261504424779  245.3235849056607 164.54115044247806  244.40283018867873 165.1809734513272  C 243.63553459119476 164.75442477876118  242.10094339622654 163.90132743362824  242.10094339622654 163.90132743362824  L 242.10094339622654 160.48893805309746  L 240.0676100628932 158.35619469026562  L 236.34622641509463 157.71637168141592  L 233.81415094339673 160.48893805309746  L 229.67075471698104 160.48893805309746  L 227.82924528301896 163.261504424779  L 227.82924528301896 168.16681415929202  L 226.67830188679272 170.9393805309736  L 223.68584905660373 171.5792035398232  L 220.92358490566062 172.57402945878505  L 215.1688679245285 171.5792035398232  L 212.1764150943393 177.76415929203563  L 208.4933962264156 176.8399705014748  L 207.5726415094341 173.28539823008873  L 206.8820754716983 169.6597345132742  L 204.00471698113256 167.59808259586976  L 200.8971698113205 173.28539823008873  L 197.48270440251576 178.8305309734514  L 195.14245283018863 183.09601769911507  L 195.94811320754752 188.00132743362855  L 198.36509433962283 190.5606194690264  L 195.94811320754752 194.9682890855455  L 191.45943396226403 196.03466076696162  L 186.85566037735828 194.9682890855455  C 186.85566037735828 194.9682890855455  185.01415094339575 195.6792035398231  184.09339622641517 196.03466076696162  C 183.55628930817602 196.98254670599817  184.0785809214301 197.90294395280216  182.4820754716978 198.8783185840706  C 180.5953925508892 200.0309752558744  179.34674673250072 198.11322817438804  177.64811320754734 199.51814159292041  C 175.74476758211458 201.09236921176404  176.26698113207533 204.42345132743333  176.26698113207533 204.42345132743333  L 171.66320754717006 208.47566371681387  L 168.2103773584903 208.47566371681387  L 165.9084905660377 211.8880530973451  L 161.07452830188663 211.24823008849592  L 159.9235849056604 214.87389380531  L 155.78018867924573 212.74115044247804  L 150.94622641509432 212.74115044247804  L 152.55754716981153 217.00663716814182  L 143.35000000000014 221.48539823008883  L 138.51603773584884 226.60398230088504  L 138.51603773584884 231.50929203539795  L 136.21415094339613 238.33407079646003  L 134.3726415094336 240.8222713864305  L 130.34433962264188 240.8222713864305  L 120.73396226415116 236.62787610619466  C 120.73396226415116 236.62787610619466  118.5855345911948 234.77949852507402  117.51132075471708 233.85530973451364  C 116.20691823899404 233.85530973451364  113.59811320754761 233.85530973451364  113.59811320754761 233.85530973451364  L 112.4471698113208 231.50929203539795  L 112.4471698113208 227.24380530973463  L 114.74905660377385 223.40486725663698  L 115.669811320755 221.48539823008883  L 114.74905660377385 218.0260394421682  L 111.296226415094 215.72699115044242  L 106.69245283018836 214.87389380531  L 101.39811320754735 219.13938053097365  L 99.78679245283001 222.76504424778773  L 97.94528301886794 226.60398230088504  L 97.94528301886794 233.0022123893807  L 95.64339622641491 236.62787610619466  L 95.64339622641491 238.33407079646003  L 94.9911888934713 239.26076013029171  L 90.57924528301862 238.33407079646003  L 88.27735849056648 240.8222713864305  L 79.56855345911971 241  L 75.57861635220127 241  L 71.70377358490589 238.33407079646003  C 71.70377358490589 238.33407079646003  70.87893081761035 235.3482300884957  70.87893081761035 233.85530973451364  C 71.1538784067086 232.22020648967555  71.70377358490589 228.95000000000016  71.70377358490589 228.95000000000016  L 76.76792452830205 226.60398230088504  L 79.7028301886794 225.11106194690285  L 82.29245283018827 220.56120943952794  L 81.601886792453 217.00663716814182  L 79.7028301886794 212.74115044247804  L 73.77547169811317 211.8880530973451  L 67.2015141482176 218.0260394421682  L 64.56792452830177 219.13938053097365  L 57.66226415094354 217.00663716814182  L 53.51886792452831 217.00663716814182  L 51.907547169811096 220.56120943952794  L 54.20943396226414 222.76504424778773  L 53.51886792452831 224.2579646017699  L 51.907547169811096 225.11106194690285  L 47.99433962264163 223.40486725663698  L 46.38301886792476 221.48539823008883  L 42.10534591194994 220.56120943952794  C 42.10534591194994 220.56120943952794  40.85849056603763 214.87389380531  40.85849056603763 214.87389380531  L 38.55660377358504 213.59424778761058  L 35.56415094339661 211.24823008849592  C 35.56415094339661 211.24823008849592  33.32426251445929 209.42966911670055  32.571698113207276 208.47566371681387  C 31.574213836478066 207.97802359881996  29.57924528301885 206.98274336283168  29.57924528301885 206.98274336283168  L 26.816981132075288 204.42345132743333  C 26.816981132075288 204.42345132743333  32.40394992909614 196.43473124101956  32.571698113207276 196.74557522123882  C 32.80188679245293 197.1721238938053  31.65094339622624 193.11991150442475  31.65094339622624 193.11991150442475  L 30.979559748427505 191.41371681415933  L 25.205660377358868 193.11991150442475  C 25.205660377358868 193.11991150442475  20.145055694616303 193.5638265471281  17.614753353245305 193.78578406847998  C 16.4620368266917 193.99037521969456  14.156603773584948 194.39955752212416  14.156603773584948 194.39955752212416  L 12.545283018867622 196.74557522123882  L 10.262578616352018 196.03466076696162  L 10.262578616352018 192.05353982300858  L 6.79056603773563 189.49424778761033  L 6.099999999999909 185.65530973451348  L 3.567924528302001 182.45619469026536  L 6.099999999999909 176.8399705014748  L 1.7264150943394725 171.5792035398232  Z " fill-rule="nonzero" fill="#4c48c7" stroke="none" transform="matrix(1 0 0 1 834 254 )" />
  </g>
</svg>