<?xml version="1.0" encoding="utf-8"?>
<svg version="1.1" xmlns:xlink="http://www.w3.org/1999/xlink" width="24px" height="23px" xmlns="http://www.w3.org/2000/svg">
  <g transform="matrix(1 0 0 1 -1056 -437 )">
    <path d="M 4.808362369337829 7.794019933554978  L 6.648083623693765 6.724252491694244  L 8.9895470383276 5.960132890365514  L 8.9895470383276 4.8903654485052925  L 12 4.8903654485052925  C 12 4.8903654485052925  12.557491289198879 4.482834994462792  12.836236933798318 4.279069767441797  C 12.557491289198879 3.7696566998893104  12 2.750830564784337  12 2.750830564784337  C 12 2.750830564784337  11.108013937282067 1.6301218161684687  10.662020905923328 1.0697674418607335  C 11.108013937282067 0.7641196013287299  12 0.15282392026574598  12 0.15282392026574598  L 14.675958188153345 0.15282392026574598  L 19.86062717770028 3.667774086378813  L 23.707317073170998 3.667774086378813  L 23.707317073170998 4.279069767441797  C 23.707317073170998 4.279069767441797  22.592334494773695 5.399778516057779  22.03484320557527 5.960132890365514  C 21.75609756097583 6.571428571428498  21.477351916376392 7.182724252491482  21.198606271776953 7.794019933554978  C 21.75609756097583 8.812846068659951  22.87108013937268 10.850498338870352  22.87108013937268 10.850498338870352  C 22.87108013937268 10.850498338870352  22.87108013937268 11.869324473975325  22.87108013937268 12.378737541528267  C 22.313588850174256 12.684385382059759  21.198606271776953 13.295681063122743  21.198606271776953 13.295681063122743  L 18.0209059233448 13.295681063122743  L 18.689895470383362 16.35215946843863  C 18.689895470383362 16.35215946843863  18.243902439024623 18.186046511628092  18.0209059233448 19.102990033222568  C 17.519163763066445 19.714285714285552  16.51567944250837 20.93687707641152  16.51567944250837 20.93687707641152  L 14.675958188153345 22.923588039867127  L 12.836236933798318 22.923588039867127  L 10.662020905923328 21.5481727574749  C 10.662020905923328 21.5481727574749  9.825783972125464 20.17275747508279  7.818815331010228 19.867109634551298  C 5.811846689895447 19.561461794019806  3.470383275261156 19.867109634551298  3.470383275261156 19.867109634551298  L 0.9616724738675657 19.102990033222568  L 0.12543554006970226 17.727574750830343  L 0.9616724738675657 16.35215946843863  L 3.470383275261156 14.212624584717673  L 5.979094076655201 11.461794019933336  L 4.808362369337829 9.933554817275876  L 4.808362369337829 7.794019933554978  Z " fill-rule="nonzero" fill="#623ceb" stroke="none" transform="matrix(1 0 0 1 1056 437 )" />
  </g>
</svg>