<?xml version="1.0" encoding="utf-8"?>
<svg version="1.1" xmlns:xlink="http://www.w3.org/1999/xlink" width="24px" height="52px" xmlns="http://www.w3.org/2000/svg">
  <g transform="matrix(1 0 0 1 -1149 -663 )">
    <path d="M 8.936585365853716 8.7214035087718  C 10.705691056910382 6.872514619882849  14.243902439024168 3.1747368421054034  14.243902439024168 3.1747368421054034  L 18.302439024390424 0.2554385964913308  L 23.7658536585368 2.4449122807017147  L 21.892682926829366 4.926315789473847  L 22.67317073170716 8.7214035087718  L 23.7658536585368 12.516491228070095  L 21.892682926829366 16.749473684210784  L 20.48780487804879 29.594385964912025  L 15.648780487804743 41.41754385964896  L 14.243902439024168 51.781052631578405  L 11.121951219512084 49.29964912280707  L 8.936585365853716 45.65052631578919  L 4.5658536585365255 42.73122807017501  L 0.507317073170725 40.68771929824561  C 0.507317073170725 40.68771929824561  1.4439024390244413 33.87602339181319  1.9121951219508446 30.470175438596247  C 1.4439024390244413 27.891461988303945  0.507317073170725 22.734035087719008  0.507317073170725 22.734035087719008  C 0.507317073170725 22.734035087719008  3.213008130081107 19.23087719298212  4.5658536585365255 17.47929824561413  C 6.022764227642256 14.559999999999947  7.479674796747986 11.640701754386328  8.936585365853716 8.7214035087718  Z " fill-rule="nonzero" fill="#5f1e83" stroke="none" transform="matrix(1 0 0 1 1149 663 )" />
  </g>
</svg>