<?xml version="1.0" encoding="utf-8"?>
<svg version="1.1" xmlns:xlink="http://www.w3.org/1999/xlink" width="116px" height="72px" xmlns="http://www.w3.org/2000/svg">
  <g transform="matrix(1 0 0 1 -1113 -350 )">
    <path d="M 5.246231155778787 8.011764705882285  L 8.665996649916451 9.282352941176669  L 15.039195979899889 4.341176470588266  L 15.039195979899889 2.3647058823528937  L 15.971859296482306 2.3647058823528937  L 21.72328308207716 0.24705882352941444  L 22.500502512563344 3.494117647059113  L 25.764824120602952 8.011764705882285  L 29.184589614740617 10.83529411764681  L 33.22613065326641 11.400000000000148  L 38.20033500837508 9.847058823529608  L 42.08643216080418 9.282352941176669  L 43.95175879396993 9.847058823529608  L 45.972529313232826 9.282352941176669  L 47.06063651591285 8.011764705882285  L 48.615075376884306 9.847058823529608  L 50.014070351759074 12.105882352941137  L 51.56850921273053 13.79999999999984  L 54.05561139028441 13.79999999999984  L 55.45460636515918 11.400000000000148  L 60.73969849246214 11.400000000000148  L 62.13869346733646 13.235294117647413  L 62.13869346733646 15.917647058823775  L 64.1594639865998 16.62352941176482  L 66.80201005025128 16.62352941176482  L 68.66733668341703 16.62352941176482  L 72.08710217755424 18.741176470588243  L 72.70887772194328 20.435294117646947  L 72.08710217755424 22.41176470588232  L 77.06130653266337 23.964705882352916  L 79.23752093802341 20.435294117646947  L 78.61574539363482 18.741176470588243  C 78.61574539363482 18.741176470588243  78.77768910438454 16.660380888820725  79.23752093802341 16.62352941176482  C 79.72782534161843 16.584235826245333  80.32562814070343 18.741176470588243  80.32562814070343 18.741176470588243  L 81.10284757118961 20.999999999999886  L 81.72462311557774 22.41176470588232  L 83.2790619765492 23.25882352941187  L 85.92160804020114 24.67058823529436  L 91.51758793969839 29.470588235294144  L 96.33634840871036 27.35294117647078  L 94.47102177554461 23.25882352941187  L 98.20167504187566 20.435294117646947  L 101.62144053601332 21.705882352941273  L 104.73031825795624 20.999999999999886  L 113.27973199329972 24.67058823529436  L 115.92227805695165 24.67058823529436  L 115.92227805695165 31.023529411764855  L 111.10351758794013 33.423529411764946  L 114.98961474036832 37.51764705882334  L 113.27973199329972 39.49411764705917  L 106.28475711892816 32.7176470588235  L 102.39865996649905 33.423529411764946  L 101.62144053601332 41.61176470588214  L 98.8234505862647 44.0441053402613  L 97.1135678391961 46.41176470588249  L 93.74074114972564 49.64124366183654  L 91.51758793969839 50.89489862230664  L 88.71959798994976 50.89489862230664  L 83.2790619765492 50.89489862230664  L 86.54338358458972 53.752941176470586  L 91.51758793969839 57.70588235294133  L 90.8958123953098 60.388235294117635  L 80.32562814070343 59.82352941176481  L 75.35142378559476 57.70588235294133  L 72.08710217755424 57.70588235294133  L 64.1594639865998 71.82352941176464  L 64.1594639865998 67.02352941176486  L 62.13869346733646 65.47058823529426  L 60.73969849246214 64.85164880660346  L 58.43464273960535 64.85164880660346  L 57.31993299832493 63.494117647058886  L 57.31993299832493 54.88235294117686  L 55.45460636515918 53.752941176470586  L 52.10787573746802 50.89489862230664  L 50.014070351759074 47.5411764705882  L 50.014070351759074 43.16470588235319  L 47.99329983249572 41.61176470588214  L 45.972529313232826 41.61176470588214  L 44.771977040317324 44.0441053402613  L 43.95175879396993 45.705882352941444  L 41.153768844221304 44.57647058823517  L 40.22110552763843 42.17647058823508  L 37.57855946398695 42.17647058823508  L 35.71323283082074 43.16470588235319  L 34.37641138368144 41.498821700855046  L 31.8271356783921 40.341176470588266  L 30.117252931323492 42.17647058823508  L 27.163819095477265 43.16470588235319  L 25.764824120602952 41.61176470588214  L 26.386599664991536 38.64705882352911  L 27.163819095477265 34.411764705882604  L 25.764824120602952 31.023529411764855  L 23.122278056951018 29.470588235294144  L 21.101507537688576 26.082352941176396  L 18.92529313232808 23.964705882352916  L 15.971859296482306 27.917647058823604  L 12.552093802345098 29.470588235294144  L 10.842211055276948 27.917647058823604  L 8.665996649916451 24.67058823529436  L 7.577889447235975 20.999999999999886  L 7.577889447235975 17.188235294117703  L 6.9561139028478465 15.070588235294167  L 6.9561139028478465 12.105882352941137  L 4.002680067002075 10.83529411764681  L 0.1165829145729731 8.011764705882285  L 1.6710217755444319 6.741176470588471  L 4.002680067002075 6.176470588235077  L 5.246231155778787 8.011764705882285  Z " fill-rule="nonzero" fill="#169bd5" stroke="none" transform="matrix(1 0 0 1 1113 350 )" />
  </g>
</svg>