<?xml version="1.0" encoding="utf-8"?>
<svg version="1.1" xmlns:xlink="http://www.w3.org/1999/xlink" width="149px" height="123px" xmlns="http://www.w3.org/2000/svg">
  <g transform="matrix(1 0 0 1 -825 -547 )">
    <path d="M 4.549618320610875 4.029310344827934  L 5.7044410413477635 1.7083952317115063  L 16.8335877862595 2.974093264248836  L 17.97099236641202 5.310880829015389  L 17.97099236641202 7.860103626942988  C 17.97099236641202 7.860103626942988  18.034687022900357 10.25637305699513  19.56335877862614 11.683937823834015  C 20.70986259542008 12.754611398963789  22.293129770992664 12.746113989637138  22.293129770992664 12.746113989637138  L 26.615267175572285 19.11917098445565  L 28.207633587786404 21.141390992427205  L 30.70992366412213 21.99558860828256  L 32.98473282442717 20.18134715025883  L 33.8946564885498 21.99558860828256  L 37.98931297709919 23.36787564766837  L 40.036641221373884 26.554404145078024  L 43.6763358778627 27.829015544041795  L 43.6763358778627 23.36787564766837  L 50.27328244274827 23.36787564766837  C 50.27328244274827 23.36787564766837  51.334860050890484 21.883552544174222  51.86564885496193 21.141390992427205  C 51.56234096692128 20.113258934502483  50.955725190839644 18.05699481865304  50.955725190839644 18.05699481865304  L 50.955725190839644 16.357512953367973  L 52.54809160305331 16.357512953367973  L 54.82290076335869 16.994818652849858  L 55.90352220520674 14.02072538860142  L 58.00763358778636 14.02072538860142  L 59.11796468361627 12.933954258547487  L 60.96488549618323 14.02072538860142  L 65.96946564885525 14.02072538860142  L 67.56183206106846 12.746113989637138  L 65.96946564885525 6.160621761658433  L 72.33231240428745 0  C 72.33231240428745 0  73.21967688710333 5.334923461715277  77.3435114503817 7.860103626942988  C 81.88106352361979 10.63861870028245  88.03511450381677 9.13471502590636  88.03511450381677 9.13471502590636  L 88.71755725190859 12.933954258547487  L 91.44732824427467 15.507772020725893  L 93.72213740458017 16.357512953367973  L 92.58473282442719 21.99558860828256  L 95.54198473282452 24.00518134715037  L 98.72671755725217 24.00518134715037  L 103.27633587786227 26.554404145078024  C 103.27633587786227 26.554404145078024  105.70279898218814 24.854922279792845  106.91603053435097 24.00518134715037  C 107.86183556807691 23.050584562242648  109.75344563552812 21.141390992427205  109.75344563552812 21.141390992427205  C 109.75344563552812 21.141390992427205  111.34987628054523 23.050584562242648  112.14809160305379 24.00518134715037  C 113.209669211196 24.43005181347155  115.33282442748089 25.27979274611357  115.33282442748089 25.27979274611357  L 121.92977099236657 24.64248704663214  L 124.88702290076344 22.730569948186485  L 125.79694656488516 25.27979274611357  L 127.38931297709962 26.554404145078024  L 128.7541984732825 29.10362694300511  L 131.48396946564856 29.10362694300511  L 133.5312977099237 27.829015544041795  L 136.2304427957946 29.363307501590953  L 138.76335877862562 31.391762382695106  L 143.7679389312982 30.80310880829018  L 149 31.391762382695106  L 144.9053435114506 33.98963730569915  L 144.9053435114506 39.937823834196934  L 140.58320610687053 44.39896373056979  L 138.76335877862562 48.010362694300625  L 133.5312977099237 52.046632124352186  L 132.3938931297712 55.02072538860102  L 128.7541984732825 56.932642487046905  L 124.20458015267161 62.88082901554412  L 110.55572519083967 62.24352331606224  L 107.82595419847314 64.36787564766803  C 107.82595419847314 64.36787564766803  106.88351135574442 68.43031102977261  108.50839694656497 72.65284974093288  C 109.87987960635678 76.21687828261793  112.8305343511447 78.38860103626905  112.8305343511447 78.38860103626905  L 115.33282442748089 79.23834196891198  L 116.925190839695 83.27461139896366  C 116.925190839695 83.27461139896366  114.0745808775405 81.78267108623686  111.46564885496196 82.63730569948166  C 108.56037653016335 83.58901554404122  106.91603053435097 86.0362694300519  106.91603053435097 86.0362694300519  L 112.14809160305379 90.70984455958546  C 112.14809160305379 90.70984455958546  116.00973517412308 91.41335042215155  117.51148545176125 93.47150259067371  C 118.46542378520269 94.77887724466473  117.51148545176125 96.09723178375998  117.51148545176125 96.09723178375998  C 117.51148545176125 96.09723178375998  112.33945890760629 97.74570938560566  109.75344563552812 98.56994818652845  C 108.42850574175168 98.35751295336786  105.77862595419845 97.93264248704645  105.77862595419845 97.93264248704645  L 105.77862595419845 95.38341968911936  L 104.5594586455543 92.67866815662478  L 102.13893129770963 92.03979310844545  L 97.81679389312956 93.47150259067371  C 97.81679389312956 93.47150259067371  94.86864122137422 95.34748237630731  93.72213740458017 94.53367875647677  C 92.06512196316987 93.3575072125343  93.72213740458017 88.79792746114015  93.72213740458017 88.79792746114015  L 89.85496183206112 83.27461139896366  L 85.30534351145059 84.12435233160613  L 82.57557251908405 86.67357512953379  L 82.57557251908405 89.64766839378228  L 76.20610687022872 86.67357512953379  L 78.70839694656502 92.67866815662478  L 78.70839694656502 95.38341968911936  L 76.20610687022872 99.20725388601034  L 70.29160305343498 102.60621761658047  L 68.92671755725178 105.58031088082942  L 70.29160305343498 108.97927461139909  L 71.4290076335875 111.31606217616559  L 71.4290076335875 114.29015544041442  L 68.92671755725178 116.62694300518149  C 68.92671755725178 116.62694300518149  65.8321708836022 115.27654446686199  63.23969465648827 115.98963730569949  C 58.22369741491355 117.36934975019005  56.64274809160315 123  56.64274809160315 123  L 55.90352220520674 117.27413793103426  L 54.656657756565664 115.69135692577288  L 51.86564885496193 117.91034482758641  L 50.27328244274827 110.48793103448293  L 45.268702290076256 101.58103448275881  L 43.6763358778627 96.91551724137912  C 43.6763358778627 96.91551724137912  43.29523189345491 92.48646833443968  41.4015267175572 92.03979310844545  C 39.96188389817462 91.7002192455858  37.98931297709919 94.53367875647677  37.98931297709919 94.53367875647677  L 33.8946564885498 92.03979310844545  L 32.98473282442717 87.58448275862088  L 31.847328244275108 83.27461139896366  L 26.615267175572285 83.27461139896366  L 26.615267175572285 86.67357512953379  L 25.022900763358734 88.79792746114015  L 23.430534351145184 91.40172413793084  L 21.676875957120956 92.03979310844545  L 21.676875957120956 87.58448275862088  L 18.65343511450385 85.4637931034481  C 18.65343511450385 85.4637931034481  18.880916030534195 83.76724137931035  19.56335877862614 79.94999999999982  C 20.245801526717514 76.13275862068986  18.65343511450385 75.49655172413804  18.65343511450385 75.49655172413804  L 20.928244274809344 68.9224137931036  L 18.65343511450385 62.88082901554412  L 19.56335877862614 56.932642487046905  L 16.151145038168124 48.56379310344812  L 15.468702290076294 39.02068965517219  L 9.407542416616367 32.349680195432256  L 8.644274809160265 27.829015544041795  L 0 21.99558860828256  L 1.5828458718285674 18.658010111406156  L 4.549618320610875 18.05699481865304  L 3.721679785467586 14.148078850502884  L 5.7044410413477635 14.02072538860142  L 5.7044410413477635 9.967241379310167  L 4.549618320610875 7.860103626942988  L 4.549618320610875 4.029310344827934  Z " fill-rule="nonzero" fill="#169bd5" stroke="none" transform="matrix(1 0 0 1 825 547 )" />
  </g>
</svg>