<?xml version="1.0" encoding="utf-8"?>
<svg version="1.1" xmlns:xlink="http://www.w3.org/1999/xlink" width="16px" height="23px" xmlns="http://www.w3.org/2000/svg">
  <g transform="matrix(1 0 0 1 -1072 -445 )">
    <path d="M 1.931034482758605 8.615873015873149  C 1.931034482758605 7.642328042328074  1.931034482758605 5.695238095237983  1.931034482758605 5.695238095237983  C 1.931034482758605 5.695238095237983  4.8735632183907 4.332275132275356  6.029556650246377 3.65079365079373  C 7.080459770114885 2.579894179894154  6.964415737317722 0.3119996556948763  8.55172413793116 0.43809523809551365  C 9.943885699802195 0.5486883798388362  10.75862068965489 3.65079365079373  10.75862068965489 3.65079365079373  L 10.75862068965489 6.571428571428498  L 13.280788177339673 10.222222222222285  L 15.935136251134736 13.716531758842907  L 15.935136251134736 15.187301587301649  L 12.334975369458334 15.187301587301649  L 10.75862068965489 18.107936507936415  L 10.12807881773415 19.860317460317503  L 11.38916256157654 21.46666666666664  L 8.55172413793116 22.92698412698428  L 6.029556650246377 22.92698412698428  L 2.5615763546802555 21.46666666666664  L 1.300492610837864 19.860317460317503  L 0.039408866995472636 17.523809523809348  L 0.039408866995472636 13.716531758842907  L 0.6699507389157588 10.95238095238085  C 0.6699507389157588 10.95238095238085  1.5106732348112928 9.394708994709163  1.931034482758605 8.615873015873149  Z " fill-rule="nonzero" fill="#169bd5" stroke="none" transform="matrix(1 0 0 1 1072 445 )" />
  </g>
</svg>