<?xml version="1.0" encoding="utf-8"?>
<svg version="1.1" xmlns:xlink="http://www.w3.org/1999/xlink" width="41px" height="60px" xmlns="http://www.w3.org/2000/svg">
  <g transform="matrix(1 0 0 1 -916 -470 )">
    <path d="M 12.874396135265783 23.368421052631675  L 17.1526570048311 24.07017543859672  L 19.371014492753716 22.666666666666572  L 19.371014492753716 20.280701754385746  L 21.114009661836235 17.473684210526528  L 21.114009661836235 11.017543859649209  L 23.80772946859884 3.8596491228068435  L 28.878260869565224 0.07017543859637954  C 28.878260869565224 0.07017543859637954  30.990982286634676 1.0058479532162892  32.04734299516895 1.4736842105260166  C 33.10370370370367 2.269005847953622  35.21642512077301 3.8596491228068435  35.21642512077301 3.8596491228068435  L 35.21642512077301 5.824561403508653  C 35.21642512077301 5.824561403508653  33.526247987117586 9.286549707602205  32.681159420289646 11.017543859649209  C 32.46988727858286 12.701754385964932  32.04734299516895 16.070175438596493  32.04734299516895 16.070175438596493  L 34.42415458937205 18.877192982456222  L 38.702415458937026 18.877192982456222  L 40.762318840579496 20.982456140350905  L 39.33623188405829 31.22807017543857  L 36.167149758454116 31.22807017543857  L 33.3149758454108 29.263157894736707  L 29.82898550724633 33.47368421052613  L 30.93816425120769 45.68421052631567  L 33.3149758454108 45.68421052631567  L 35.21642512077301 46.38596491228077  L 35.21642512077301 48.9122807017543  L 35.21642512077301 51.8596491228069  L 33.3149758454108 53.263157894737105  L 30.93816425120769 52.421052631578675  L 27.452173913043566 54.24561403508767  L 28.085990338164375 59.01754385964887  L 27.452173913043566 59.71929824561391  L 25.5507246376809 58.03508771929813  L 23.80772946859884 57.3333333333336  L 22.381642512077182 54.24561403508767  L 17.1526570048311 52.421052631578675  C 17.1526570048311 52.421052631578675  16.730112721417186 50.54970760233937  16.5188405797104 49.61403508771946  C 16.730112721417186 48.53801169590622  17.1526570048311 46.38596491228077  17.1526570048311 46.38596491228077  L 16.5188405797104 42.175438596491404  L 13.666666666666629 39.92982456140345  L 13.666666666666629 33.47368421052613  L 11.448309178744125 31.789473684210353  L 9.705314009661606 28.421052631578846  L 2.891787439613722 27.7192982456138  L 0.5149758454109588 26.596491228070363  L 10.33913043478276 25.614035087719117  L 12.874396135265783 23.368421052631675  Z " fill-rule="nonzero" fill="#623ceb" stroke="none" transform="matrix(1 0 0 1 916 470 )" />
  </g>
</svg>