<?xml version="1.0" encoding="utf-8"?>
<svg version="1.1" xmlns:xlink="http://www.w3.org/1999/xlink" width="68px" height="75px" xmlns="http://www.w3.org/2000/svg">
  <g transform="matrix(1 0 0 1 -1058 -535 )">
    <path d="M 11.020689655172646 16.92857142857156  L 11.020689655172646 14.928571428571558  L 9.144827586207157 9.499999999999886  L 12.740229885057488 10.214285714285666  L 16.960919540229952 14.928571428571558  L 18.68045977011525 14.214285714285836  L 22.27586206896558 7.357142857142605  L 19.618390804597766 4.500000000000114  L 17.58620689655163 0.6428571428572241  L 18.68045977011525 0.07142857142855519  L 22.27586206896558 4.500000000000114  L 25.71494252873572 7.357142857142605  L 38.06436781609182 11.214285714285609  L 40.721839080460086 14.214285714285836  L 42.75402298850577 19.92857142857173  L 43.84827586206893 21.35714285714272  C 43.84827586206893 21.35714285714272  46.503001570348715 24.161737228986624  50.101149425287076 24.357142857142833  C 52.710571601246556 24.498853481601657  54.4544008596572 23.223322462461287  56.04137931034484 22.35714285714323  C 57.306065581171424 21.666871697857914  58.698850574712196 21.35714285714272  58.698850574712196 21.35714285714272  L 57.44827586206884 25.9285714285715  L 51.977011494252565 25.9285714285715  L 51.977011494252565 29.35714285714255  L 47.756321839080556 35.78571428571422  L 48.85057471264372 38.785714285714334  L 56.04137931034484 42.78571428571456  L 56.82298850574716 44.78571428571456  L 60.41839080459749 46.357142857142776  L 63.07586206896576 44.78571428571456  C 63.07586206896576 44.78571428571456  64.9517241379308 45.83333333333337  65.88965517241331 46.357142857142776  C 66.46283524904175 47.261904761904816  67.60919540229861 49.071428571428555  67.60919540229861 49.071428571428555  L 63.701149425286985 53.92857142857156  L 65.88965517241331 57.78571428571411  L 64.63908045976996 59.357142857142776  L 56.82298850574716 57.071428571428896  L 60.41839080459749 63.35714285714289  L 58.698850574712196 67.2142857142859  L 56.04137931034484 70.49999999999989  L 51.322881368004346 73.45175927192145  L 48.85057471264372 71.7857142857141  L 43.84827586206893 71.7857142857141  L 39.00229885057479 68.07142857142878  L 35.56321839080465 70.49999999999989  L 32.905747126436836 73.35714285714278  L 29.935632183908183 74.78571428571433  L 34.781609195402325 66.21428571428532  L 23.213793103448552 72.49999999999989  L 22.27586206896558 71.7857142857141  L 23.213793103448552 70.49999999999989  L 16.960919540229952 57.78571428571411  L 19.618390804597766 53.92857142857156  L 17.58620689655163 51.642857142857224  C 17.58620689655163 51.642857142857224  14.072663050395477 51.26190476190493  12.315891127316718 51.071428571428555  C 11.884157303268694 50.404761904762154  11.020689655172646 49.071428571428555  11.020689655172646 49.071428571428555  L 12.315891127316718 45.78571428571411  L 12.740229885057488 44.78571428571456  L 14.303448275862138 44.21428571428555  C 14.303448275862138 44.21428571428555  15.658237547892895 43.2619047619047  16.335632183908274 42.78571428571456  C 16.331588980514425 41.7380952380953  16.323502573726728 39.642857142857224  16.323502573726728 39.642857142857224  L 16.335632183908274 35.78571428571422  L 16.323502573726728 35.77655724989529  L 12.740229885057488 33.07142857142844  C 12.740229885057488 33.07142857142844  12.457337379897126 33.031033928655575  12.315891127316718 33.01083660726829  C 10.78990442970553 32.792938690559936  7.737931034482699 32.35714285714266  7.737931034482699 32.35714285714266  L 0.547126436781582 25.071428571428555  C 0.547126436781582 25.071428571428555  5.236781609195532 26.500000000000057  6.174712643678049 25.071428571428555  C 7.112643678161021 23.642857142857054  6.174712643678049 18.500000000000227  6.174712643678049 18.500000000000227  L 11.020689655172646 16.92857142857156  Z " fill-rule="nonzero" fill="#169bd5" stroke="none" transform="matrix(1 0 0 1 1058 535 )" />
  </g>
</svg>