<?xml version="1.0" encoding="utf-8"?>
<svg version="1.1" xmlns:xlink="http://www.w3.org/1999/xlink" width="94px" height="56px" xmlns="http://www.w3.org/2000/svg">
  <g transform="matrix(1 0 0 1 -1056 -478 )">
    <path d="M 10.734567901234186 16.932038834951072  L 17.36596119929436 9.941747572815416  L 22.007936507936392 5.747572815534113  L 25.655202821869807 4.815533980582586  L 27.313103315079843 2.951419649266313  L 31.291887125220452 0.1553398058252924  C 31.291887125220452 0.1553398058252924  32.286533012120344 1.5016181229773338  32.78385595557029 2.174757281553582  C 32.94967234192609 3.831715210356265  33.2813051146386 7.14563106796146  33.2813051146386 7.14563106796146  L 36.762786596119895 0.9320388349514701  L 45.21781305114655 0.9320388349514701  L 46.37830687830683 10.5631067961167  C 46.37830687830683 10.5631067961167  46.70987654321016 13.048543689320468  49.196649029982375 13.66990291262124  C 51.683421516755516 14.29126213592201  58.64638447971765 13.048543689320468  58.64638447971765 13.048543689320468  L 58.64638447971765 9.009708737864003  L 68.09611992945338 0.9320388349514701  C 68.09611992945338 0.9320388349514701  72.84861845972955 2.2783171521034546  75.22486772486764 2.951456310679646  C 78.43004115226358 3.316767578803308  84.84038800705503 4.047390115049552  84.84038800705503 4.047390115049552  L 86.16666666666652 2.174757281553582  L 87.16322262435915 4.047390115049552  L 93.46119929453243 2.951456310679646  L 91.47178130511475 7.14563106796146  L 92.63227513227503 9.941747572815416  L 91.47178130511475 10.5631067961167  L 87.49294532627891 9.009708737864003  L 74.39594356261023 18.01941747572795  L 71.41181657848347 18.01941747572795  L 71.41181657848347 19.728155339805483  L 72.73809523809587 19.728155339805483  L 72.73809523809587 21.436893203883585  L 69.7539682539682 22.990291262135827  L 69.7539682539682 25.631067961164888  C 69.7539682539682 25.631067961164888  65.11199294532616 24.543689320388637  63.951499118165884 25.631067961164888  C 62.791005291005604 26.71844660194165  64.94620811287496 31.533980582524293  64.94620811287496 31.533980582524293  C 64.94620811287496 31.533980582524293  63.67519106408008 34.27831715210368  62.79100529100515 35.41747572815541  C 61.5752498530278 35.67637540453063  58.64638447971765 36.194174757281075  58.64638447971765 36.194174757281075  L 56.491181657848294 44.42718446601941  L 54.170194003527286 43.80582524271864  L 50.85449735449765 45.51456310679612  L 49.196649029982375 47.37864077669917  L 47.704585537918774 50.33009708737882  L 46.37830687830683 51.41747572815518  L 45.21781305114655 54.05825242718413  C 45.21781305114655 54.05825242718413  43.48772047339298 51.745094645416316  40.90740740740739 51.41747572815518  C 38.72709685952077 51.14064459847259  36.762786596119895 52.66019417475718  36.762786596119895 52.66019417475718  L 32.78385595557029 54.05825242718413  L 27.976190476190368 54.05825242718413  C 27.976190476190368 54.05825242718413  26.315962080048852 53.91151394871167  25.655202821869807 52.66019417475718  C 24.953305079761773 51.33096796548227  25.655202821869807 49.398058252426836  25.655202821869807 49.398058252426836  L 20.68165784832445 47.37864077669917  C 20.68165784832445 47.37864077669917  18.913286302175493 50.89967637540474  18.02910052910056 52.66019417475718  C 16.868606701939825 53.64401294498413  14.547619047619264 55.61165048543694  14.547619047619264 55.61165048543694  L 6.921516754850018 54.05825242718413  L 4.766313932980665 52.66019417475718  L 3.4400352733687214 50.33009708737882  L 0.29012345678984275 48.46601941747588  L 0.29012345678984275 46.601941747572994  L 7.7504409171078805 42.56310679611647  L 6.921516754850018 38.36893203883517  L 4.766313932980665 34.01941747572812  L 4.766313932980665 30.757281553398112  L 3.4400352733687214 26.873786407767057  L 10.734567901234186 16.932038834951072  Z " fill-rule="nonzero" fill="#623ceb" stroke="none" transform="matrix(1 0 0 1 1056 478 )" />
  </g>
</svg>