<?xml version="1.0" encoding="utf-8"?>
<svg version="1.1" xmlns:xlink="http://www.w3.org/1999/xlink" width="46px" height="94px" xmlns="http://www.w3.org/2000/svg">
  <g transform="matrix(1 0 0 1 -996 -445 )">
    <path d="M 5.092857142857156 33.23002421307484  C 5.7601375889598785 30.51129447988052  4.107142857143117 27.91928974979805  4.107142857143117 27.91928974979805  L 8.542857142857429 23.822437449556332  L 7.88571428571413 20.787732041969434  L 10.02142857142826 18.966908797417204  L 13.63571428571413 18.056497175140862  C 13.63571428571413 18.056497175140862  15.607142857143115 16.235673930589144  16.592857142857156 15.325262308313313  C 17.68809523809523 14.313693839117889  19.878571428571377 12.290556900726756  19.878571428571377 12.290556900726756  L 19.878571428571377 9.40758676351902  L 20.53571428571422 9.40758676351902  L 23.98571428571449 8.648910411622353  L 25.79278922032518 7.757683341444135  L 25.79278922032518 6.221146085552789  L 28.31608004125701 5.233209932791169  L 33.350000000000364 6.221146085552789  L 37.12857142857138 4.709421996803314  L 40.907142857142844 0.30347054075849655  L 42.55000000000018 1.0621468926555622  L 43.53571428571422 3.641646489104403  L 42.827901526512505 4.709421996803314  L 37.94999999999982 6.221146085552789  L 38.60714285714266 11.07667473769152  L 45.8357142857144 13.049233252623424  L 46 17.44955609362387  L 44.52142857142826 22.00161420500416  C 44.52142857142826 22.00161420500416  42.11190476190495 22.00161420500416  40.907142857142844 22.00161420500416  C 40.359523809524035 22.608555286521096  39.26428571428596 23.822437449556332  39.26428571428596 23.822437449556332  L 38.60714285714266 27.008878127522163  C 38.60714285714266 27.008878127522163  37.62142857142862 30.245897228948138  37.12857142857138 31.86440677966135  C 37.62142857142862 33.43233790691437  38.60714285714266 36.56820016142041  38.60714285714266 36.56820016142041  L 44.52142857142826 39.45117029862763  L 45.8357142857144 42.94108151735287  L 38.60714285714266 57.81113801452801  L 37.94999999999982 60.08716707021824  L 41.72857142857174 64.03228410008069  L 41.72857142857174 66.30831315577103  L 40.25 69.34301856335759  L 40.907142857142844 71.46731234866826  L 40.25 73.13640032284081  L 40.907142857142844 75.26069410815137  L 38.60714285714266 76.77804681194522  L 38.60714285714266 80.57142857142878  L 32.19999999999982 82.69572235673951  L 23.98571428571449 82.088781275222  L 19.878571428571377 84.9717514124294  L 6.407142857142844 90.13075060532702  L 3.285714285714221 93.77239709443091  L 0.32857142857164945 93.01372074253425  L 0 87.09604519773995  L 3.285714285714221 73.13640032284081  C 3.285714285714221 73.13640032284081  0.9613598215378261 69.57974471561914  0.32857142857164945 64.7909604519773  C -0.41698531671409 59.148773507395276  1.150000000000091 54.472962066182454  1.150000000000091 54.472962066182454  L 5.092857142857156 51.58999192897522  C 5.092857142857156 51.58999192897522  4.435714285714312 46.936776970675  4.107142857143117 45.21711057304276  C 3.1214285714286234 43.8514931396287  1.150000000000091 42.33414043583588  1.150000000000091 42.33414043583588  L 0.32857142857164945 39.45117029862763  C 0.32857142857164945 39.45117029862763  4.149180086071738 37.074888674185615  5.092857142857156 33.23002421307484  Z " fill-rule="nonzero" fill="#623ceb" stroke="none" transform="matrix(1 0 0 1 996 445 )" />
  </g>
</svg>