<?xml version="1.0" encoding="utf-8"?>
<svg version="1.1" xmlns:xlink="http://www.w3.org/1999/xlink" width="108px" height="77px" xmlns="http://www.w3.org/2000/svg">
  <g transform="matrix(1 0 0 1 -922 -661 )">
    <path d="M 0 28.92307692307702  L 0.6600458365169288 27.38461538461536  L 7.7555385790678875 25.384615384615017  L 12.210847975553861 26.000000000000227  L 15.016042780748649 27.38461538461536  L 21.94652406417117 27.38461538461536  L 24.256684491978376 24.6153846153843  C 24.256684491978376 24.6153846153843  26.2368220015278 24  27.22689075630251 23.692307692307853  C 27.996944232238548 22.974358974358893  29.537051184110165 21.538461538461547  29.537051184110165 21.538461538461547  L 33.49732620320856 20.15384615384653  L 36.46753246753224 16.461538461538453  L 38.8114968000682 17.126648865942798  L 41.2528647822769 20.15384615384653  L 44.8831168831166 19.384615384615245  C 44.8831168831166 19.384615384615245  46.86325439266648 20.30769230769249  47.85332314744073 20.769230769230717  C 49.118411000764354 20.769230769230717  51.64858670740978 20.769230769230717  51.64858670740978 20.769230769230717  C 51.64858670740978 20.769230769230717  51.36816592399782 18.1857701366813  53.13368983957207 17.126648865942798  C 55.36989586537175 15.785169803108033  59.239113827348774 17.126648865942798  59.239113827348774 17.126648865942798  C 59.239113827348774 17.126648865942798  57.86071911882755 15.149246948700807  58.579067990832755 13.692307692307963  C 59.203795969052855 12.425248257112685  61.38426279602754 12.153846153846303  61.38426279602754 12.153846153846303  L 64.35446906035168 10.153846153845961  L 68.31474407945007 10.153846153845961  L 69.46982429335367 8.153846153846189  L 70.62490450725727 6.923076923076792  L 73.5951107715814 9.538461538461775  C 73.5951107715814 9.538461538461775  75.91532508841419 6.498518672573596  78.7104660045834 6.1538461538459615  C 80.43072823232478 5.941718346093239  81.51566080977864 7.5384615384614335  81.51566080977864 7.5384615384614335  C 81.51566080977864 7.5384615384614335  83.71581359816673 6.615384615384642  84.81588999236055 6.1538461538459615  C 85.53093964858681 5.128205128205309  86.96103896103887 3.0769230769232085  86.96103896103887 3.0769230769232085  L 87.6383767979305 2.8062774027804385  L 87.6383767979305 1.846153846154266  C 87.6383767979305 1.846153846154266  89.77199776635871 2.8062774027804385  91.08632543926706 2.8062774027804385  C 91.85637891520219 2.2934568899598844  93.89152024446139 0.3076923076921503  93.89152024446139 0.3076923076921503  L 94.88158899923656 1.846153846154266  L 94.88158899923656 6.1538461538459615  L 96.86172650878552 7.5384615384614335  L 96.2016806722686 10.76923076923083  L 93.89152024446139 15.538461538461206  L 92.40641711229955 17.126648865942798  L 91.08632543926706 18.15384615384619  L 90.42627960275058 20.769230769230717  C 90.42627960275058 20.769230769230717  90.42627960275013 22.769230769231058  91.08632543926706 23.692307692307853  C 91.74637127578308 24.6153846153843  96.2016806722686 20.15384615384653  96.2016806722686 20.15384615384653  L 96.86172650878552 20.769230769230717  L 96.86172650878552 24.6153846153843  C 96.86172650878552 24.6153846153843  99.72192513368964 25.538461538461547  101.15202444614215 26.000000000000227  C 103.02215431627246 25.538461538461547  106.76241405653172 24.6153846153843  106.76241405653172 24.6153846153843  L 107.75248281130644 29.69230769230728  L 105.44232238349878 34.30769230769204  L 102.80213903743334 36.7692307692306  L 98.51184110007625 45.53846153846155  L 98.51184110007625 50.92307692307713  L 89.60122230710476 55.07692307692287  L 87.95110771581358 57.846153846153925  L 89.60122230710476 60.76923076923105  L 88.94117647058829 62.307692307692605  L 85.47593582887703 61.69230769230796  L 84.81588999236055 65.69230769230796  L 80.03055767761634 66.30769230769226  L 76.89533995416332 72.76923076923129  L 74.750190985485 69.84615384615415  L 68.31474407945007 76.92307692307702  L 67.15966386554601 74.76923076923106  L 63.15905165503818 74.29990365140475  L 59.239113827348774 67.53846153846132  L 58.579067990832755 72.76923076923129  L 55.10217610534619 72.11990665810845  L 53.13368983957207 74.29990365140475  L 46.20320855614955 69.84615384615415  L 42.24293353705116 71.84615384615392  L 32.012223071046265 66.30769230769226  C 32.012223071046265 66.30769230769226  29.648516292966182 63.03952499529089  30.69213139801377 60.1538461538463  C 31.272154450941343 58.55003624031883  33.49732620320856 57.846153846153925  33.49732620320856 57.846153846153925  L 32.837280366692084 53.53846153846166  L 26.071810542398907 53.53846153846166  L 22.606569900687646 51.692307692307956  L 15.016042780748649 50.92307692307713  C 15.016042780748649 50.92307692307713  15.464721851015383 49.470282829792836  16.501145912910488 48.76923076923083  C 17.892905155140397 47.82782490994601  20.14951465569402 47.3902381027749  21.94652406417117 45.53846153846155  C 25.081741787624196 42.30769230769226  21.94652406417117 35.53846153846155  21.94652406417117 35.53846153846155  L 15.016042780748649 37.84615384615404  L 9.57066462948842 37.84615384615404  L 9.57066462948842 31.846153846153584  L 5.115355233002447 30.461538461538108  L 1.3200916730329482 31.846153846153584  L 0.6600458365169288 31.076923076922867  L 0 28.92307692307702  Z " fill-rule="nonzero" fill="#5c4fd0" stroke="none" transform="matrix(1 0 0 1 922 661 )" />
  </g>
</svg>