<?xml version="1.0" encoding="utf-8"?>
<svg version="1.1" xmlns:xlink="http://www.w3.org/1999/xlink" width="279px" height="197px" xmlns="http://www.w3.org/2000/svg">
  <g transform="matrix(1 0 0 1 -543 -312 )">
    <path d="M 105.41925465838519 50.72615803814705  L 101.20530462763406 44.283797412758815  L 106.5745341614903 42.967392609246474  L 117.10564323817141 44.283797412758815  L 122.45962732919281 45.358310626703314  L 128.23602484472042 47.77384196185295  L 132.42778771741564 45.358310626703314  L 129.96894409937875 37.84332425068112  L 144.85896154019918 21.483696304623493  C 144.85896154019918 21.483696304623493  159.3829950566285 32.704287628242355  167.98672679188917 28.465897603625763  C 174.1630697267974 25.423293407049474  173.19047397351915 16.649864636082782  174.925056367396 13.427310190389733  C 176.65963876127262 10.204755744696229  187.64532725582515 7.519293706617987  187.64532725582515 7.519293706617987  L 191.11449204357848 1.0741848152309785  L 198.63101575037751 0  L 200.9437922755469 9.130570929464739  L 205.5693453258848 12.353125375158243  L 207.88212185105363 18.261141858929932  L 220.6023927394831 23.094973527470188  L 226.38433405240573 42.967392609246474  L 220.02419860819077 57.4688876148677  L 222.33697513336006 66.59945854433289  C 222.33697513336006 66.59945854433289  247.77751691021888 63.913996506254705  259.3413995360638 77.87839910425964  C 263.6243190271173 83.05040006648352  268.88160270238575 82.4436845689923  268.88160270238575 82.4436845689923  L 270.3270880306163 88.08315484895593  L 274.93075671296583 91.30570929464943  L 279 104.19592707742288  L 277.8436117374158 113.32649800688864  L 277.26541760612304 117.08614486019735  L 271.1943792275549 117.08614486019735  L 268.0143115054475 119.77160689827515  L 261.65417606123253 118.6974220830441  L 258.1850112734792 121.38288412112189  L 253.55945822314106 122.99416134396914  L 248.93390517280352 127.8279930125093  L 246.04293451634203 132.66182468104955  L 243.15196385988042 135.34728671912734  L 235.0572460217894 135.34728671912734  L 233.32266362791256 140.71821079528286  L 233.32266362791256 146.62622727905455  L 232.7444694966202 150.9229665399791  L 235.0572460217894 153.60842857805687  L 228.69711057757445 155.7567982085198  L 223.49336339594413 156.83098302375083  L 219.4460044768989 156.83098302375083  L 215.39864555785277 157.90516783898227  L 211.3512866388071 158.97935265421336  L 203.83476293200783 158.97935265421336  L 198.63101575037751 161.12772228467526  L 196.89643335650112 165.96155395321603  L 198.05282161908576 171.86957043698726  L 205.5693453258848 178.3146793283738  L 206.43663652282305 182.34287238549115  L 200.9437922755469 187.61311354151167  L 203.83476293200783 193.35326674161075  L 201.81108347248505 196.03872877968854  L 196.89643335650112 196.03872877968854  L 191.11449204357848 193.35326674161075  L 184.17616246807165 193.35326674161075  L 177.81602702385715 189.05652748068576  L 169.4322121201194 187.61311354151167  L 166.54124146365825 185.83397303499225  L 161.3374942820284 185.02833442356894  L 155.26645590345936 187  L 144.28076740890685 187  L 139.6552143585684 190.1307122959168  L 132.42778771741564 192.81617433399504  L 121.73119628850907 191.4734433149564  L 117.10564323817141 193.35326674161075  L 111.90189605654109 193.35326674161075  L 107.27634300620308 191.4734433149564  L 103.80717821844974 191.4734433149564  L 101.20530462763406 190.1307122959168  L 98.60343103681895 186.6396116464157  C 98.60343103681895 186.6396116464157  96.57975157729652 182.34287238549115  93.1105867895426 186.6396116464157  C 89.64142200178969 190.93635090734062  70.56101566914572 187.61311354151167  70.56101566914572 187.61311354151167  C 70.56101566914572 187.61311354151167  65.3572684875154 184.22269581214556  63.33358902799216 184.49124201595367  C 62.14561798359364 184.64888808618753  61.5990066341152 187.71379646164712  59.28623010894637 189.05652748068576  C 56.973453583777655 190.39925849972536  55.52796825554709 197  55.52796825554709 197  L 45.40957095793283 196.03872877968854  L 41.36221203888704 195.50163637207277  L 37.89304725113368 192.27908192637972  L 37.02575605419497 177.50904071695084  L 20.836320378012147 170.79538562175583  L 25.172776362704212 166.7671925646394  L 14.765281999443573 165.96155395321603  L 13.897990802505317 161.12772228467526  L 16.210767327674148 153.60842857805687  L 8.694243620875 146.62622727905455  L 6.092370030060239 147.61549863611157  L 0.31042871713759723 143.32119416968692  L 8.694243620875 142.51601208223184  L 11.874311342982423 130.4382807704112  L 10.717923080397782 120.50770169180407  L 6.092370030060239 116.48179125453021  L 2.045011111014105 120.50770169180407  L 0 117.28730253534236  L 1.1777199140758512 114.33463902131717  L 2.912302307952814 110.57712261319546  L 1.1777199140758512 105.74603008846749  L 7.248758292644425 99.57296741798154  C 7.248758292644425 99.57296741798154  9.742859491839113 96.42183644855254  13.319796671212998 96.08384503901107  C 17.947433474989566 95.64657107871483  21.99270864059679 99.03617935967816  21.99270864059679 99.03617935967816  L 26.3291646252884 97.96260324307195  L 26.3291646252884 96.08384503901107  L 30.954717675626853 95.54705698070813  L 30.954717675626853 101.72070844686668  L 38.9906832298135 100.91553133515022  L 44.47826086956536 95.54705698070813  L 50.83229813664627 93.66893732970061  L 54.87577639751555 94.74250681198896  L 58.630434782608745 92.05858310626706  L 70.56101566914572 93.66893732970061  L 75.95962732919259 90  L 87.22360248447205 90  C 87.22360248447205 90  92.00040481756469 86.06448683015441  94.1552795031057 84.27520435967324  C 95.65878991073203 81.77020890099942  97.62111801242224 76.76021798365105  97.62111801242224 76.76021798365105  L 100.50931677018649 79.17574931880108  L 103.80717821844974 67.36648501362401  L 103.17121207677815 61.72447080326617  L 105.41925465838519 50.72615803814705  Z " fill-rule="nonzero" fill="#623ceb" stroke="none" transform="matrix(1 0 0 1 543 312 )" />
  </g>
</svg>