<?xml version="1.0" encoding="utf-8"?>
<svg version="1.1" xmlns:xlink="http://www.w3.org/1999/xlink" width="66px" height="83px" xmlns="http://www.w3.org/2000/svg">
  <g transform="matrix(1 0 0 1 -1048 -603 )">
    <path d="M 1.7599999999997635 15.70173160173124  L 8.034782608695423 11.246320346320317  L 14.003478260869542 11.246320346320317  L 16.75826086956522 8.371861471861507  L 18.80072685190453 7.639262498443259  L 23.18608695652165 6.790909090909054  L 28.076807981979073 4.809670987692243  L 32.67478260869575 4.809670987692243  L 38.79652173913064 0.46709956709958084  L 37.4191304347828 5.2099567099566  C 37.4191304347828 5.2099567099566  37.498452635350986 6.039908885271302  38.74115540194316 6.790909090909054  C 39.983858168535335 7.541909296547259  39.87469918690158 6.605055108091847  40.78608695652156 6.2160173160172  C 42.46956521739139 5.497402597402811  44.918260869565074 2.479220779220782  44.918260869565074 2.479220779220782  L 45.53043478260861 0.46709956709958084  L 47.50736228025471 0.11658666511254978  L 51.19304347826073 3.054112554112635  L 57.00869565217408 3.772727272727139  L 60.0695652173913 5.2099567099566  C 60.0695652173913 5.2099567099566  58.38608695652192 8.08441558441541  58.84521739130423 9.377922077921653  C 59.304347826086996 10.671428571429033  65.57913043478266 19.294805194805008  65.57913043478266 19.294805194805008  L 64.04869565217405 21.30692640692621  L 64.04869565217405 23.893939393939377  L 61.59999999999991 25.043722943723083  L 58.84521739130423 27.774458874458784  L 56.39652173913055 27.774458874458784  C 56.39652173913055 27.774458874458784  52.48312001952263 26.703290009198554  50.274782608695205 28.34935064935121  C 46.54955489444774 31.126077922077798  47.50736228025471 37.69134199134214  47.50736228025471 37.69134199134214  L 48.132173913043516 38.55367965367964  L 48.132173913043516 39.70346320346334  L 43.081739130434926 43.44025974025976  C 43.081739130434926 43.44025974025976  41.571658424380985 45.10738453498027  41.70434782608663 47.033333333333076  C 41.84366240559302 49.055444696742256  43.69391304347846 50.482683982683746  43.69391304347846 50.482683982683746  L 41.70434782608663 53.6445887445891  L 40.173913043478024 54.93809523809501  L 40.173913043478024 57.95627705627692  L 37.4191304347828 58.818614718614526  L 38.74115540194316 60.01711140118413  L 35.5826086956522 62.555411255411286  L 35.5826086956522 64.71125541125525  L 34.97043478260912 67.01082251082266  L 36.19478260869573 68.73549783549777  L 31.909565217391446 71.75367965367968  L 33.44000000000051 75.77792207792209  L 32.67478260869575 77.5025974025973  L 33.44000000000051 79.94588744588737  L 32.67478260869575 80.95194805194797  L 28.076807981979073 77.5025974025973  L 19.819130434782437 80.95194805194797  L 15.83999999999969 80.95194805194797  L 14.003478260869542 82.82034632034663  L 12.779130434782473 80.95194805194797  L 15.83999999999969 76.9277056277059  C 15.83999999999969 76.9277056277059  20.43130434782597 72.75974025974028  17.82956521739152 70.89134199134207  C 15.227826086956611 69.02294372294386  10.177391304347566 73.19090909090949  10.177391304347566 73.19090909090949  L 7.422608695652343 68.73549783549777  C 7.422608695652343 68.73549783549777  10.353101316393804 65.93752764441388  10.177391304347566 62.555411255411286  C 10.066083686618185 60.41293050681543  8.034782608695423 58.818614718614526  8.034782608695423 58.818614718614526  C 8.034782608695423 58.818614718614526  9.871304347826026 57.95627705627692  9.106086956521722 56.087878787878815  C 8.705185751635781 55.109015623606524  7.016054871066899 53.837029277014494  6.045217391304504 52.638528138528045  C 5.162975572253345 51.54939855031694  4.9739130434782055 50.482683982683746  4.9739130434782055 50.482683982683746  C 4.9739130434782055 50.482683982683746  4.055652173913131 46.74588744588732  3.5965217391308215 44.87748917748911  C 3.851594202898468 43.44025974025976  4.106666666667024 42.0030303030303  4.361739130435126 40.56580086580095  C 3.851594202898468 39.89509379509377  3.34144927536272 39.22438672438682  2.831304347826517 38.55367965367964  C 2.066086956522213 38.93694083694061  0.5356521739131495 39.70346320346334  0.5356521739131495 39.70346320346334  L 0.5356521739131495 36.82900432900453  L 8.034782608695423 28.34935064935121  L 4.9739130434782055 17.4264069264068  L 1.7599999999997635 15.70173160173124  Z " fill-rule="nonzero" fill="#169bd5" stroke="none" transform="matrix(1 0 0 1 1048 603 )" />
  </g>
</svg>