<?xml version="1.0" encoding="utf-8"?>
<svg version="1.1" xmlns:xlink="http://www.w3.org/1999/xlink" width="82px" height="71px" xmlns="http://www.w3.org/2000/svg">
  <g transform="matrix(1 0 0 1 -998 -512 )">
    <path d="M 18.759834368529937 20.98791208791198  L 22.155279503105703 18.179120879120774  L 26.73913043478251 18.179120879120774  L 29.67053140096641 18.896923076923315  L 38.068599033816554 16.46263736263711  L 38.068599033816554 12.561538461538476  L 40.286956521739285 10.449743589743662  L 40.286956521739285 7.828152706916796  L 41.509316770186615 5.643589743589757  L 40.286956521739285 3.313333333333162  L 41.509316770186615 0.23406593406588172  L 50.67701863354068 2.574725274725324  L 57.46790890269176 1.014285714285677  L 62.85439864557065 0.37394566938479556  L 64.59834368530028 4.759340659340694  L 65.44720496894433 7.880219780219534  L 57.46790890269176 12.561538461538476  L 57.46790890269176 16.46263736263711  L 61.88198757763985 18.179120879120774  C 61.88198757763985 18.179120879120774  63.364425749288785 20.710618950820162  66.29606625258839 22.236263736263936  C 70.24089427129184 24.289177894542945  74.44513457556923 24.10879120879082  74.44513457556923 24.10879120879082  L 76.99171842650094 22.860439560439772  L 81.91511387163564 29.414285714285484  L 78.85921325051777 34.71978021978015  L 74.44513457556923 30.506593406593424  C 74.44513457556923 30.506593406593424  71.03073390372674 28.298719940076865  69.6915113871637 29.414285714285484  C 68.29187028549131 30.58017987294187  69.6915113871637 34.71978021978015  69.6915113871637 34.71978021978015  L 70.55455471699315 37.10871586721868  C 70.55455471699315 37.10871586721868  66.87726289839793 37.514838133030935  65.44720496894433 39.55714285714316  C 64.45207403802578 40.9783164749843  65.44720496894433 42.834065934066075  65.44720496894433 42.834065934066075  L 65.44720496894433 45.174725274725006  C 65.44720496894433 45.174725274725006  61.78012422360234 43.863956043955795  60.35403726708091 45.174725274725006  C 59.498385093168054 45.961186813186714  60.35403726708091 47.98351648351667  60.35403726708091 47.98351648351667  L 62.85439864557065 49.69999999999993  L 66.59946350484188 54.16664295252622  C 66.59946350484188 54.16664295252622  67.52901371486405 55.55811175340648  67.99378881987604 56.2538461538461  C 69.40855762594902 56.2538461538461  72.23809523809541 56.2538461538461  72.23809523809541 56.2538461538461  C 72.23809523809541 56.2538461538461  74.5605797101448 56.251919342447195  75.463768115942 57.50219780219811  C 76.64666708438017 59.1396779678048  75.463768115942 61.71538461538444  75.463768115942 61.71538461538444  L 76.31262939958606 63.4318681318681  C 76.31262939958606 63.4318681318681  74.38854382332647 64.16007326007355  73.4265010351969 64.52417582417559  C 72.80400276052433 65.20036630036611  71.55900621118008 66.5527472527474  71.55900621118008 66.5527472527474  L 71.55900621118008 67.80109890109895  L 69.6915113871637 69.20549450549447  L 66.59946350484188 67.80109890109895  C 66.59946350484188 67.80109890109895  64.93164190359903 70.63188834781499  62.85439864557065 70.6098901098901  C 60.3846281101487 70.58373496429112  58.486542443064536 67.17692307692312  58.486542443064536 67.17692307692312  C 58.486542443064536 67.17692307692312  57.88067093178461 66.06699113127104  56.449275362318986 65.61648351648353  C 54.95134745932501 65.14503597179623  53.22360248447194 65.61648351648353  53.22360248447194 65.61648351648353  L 47.790890269151525 66.5527472527474  L 47.790890269151525 61.71538461538444  L 46.7722567287783 59.0626373626377  L 41.509316770186615 58.12637362637338  L 33.02070393374743 58.12637362637338  L 22.155279503105703 57.50219780219811  L 18.759834368529937 55.16153846153816  L 14.006211180123953 54.16664295252622  C 14.006211180123953 54.16664295252622  10.432467084378006 52.32813387494059  8.233954451345653 48.763736263736064  C 6.0801685360552264 45.271853044071236  8.647428236534779 44.74773298517795  6.196687370600103 41.585714285714516  C 4.5238359915906585 39.427351720590025  3.140786749482231 39.71318681318678  1.6128364389237504 38.77692307692291  C 1.1035196687371354 37.42454212454163  0.08488612836436005 34.71978021978015  0.08488612836436005 34.71978021978015  L 0.08488612836436005 30.506593406593424  L 4.329192546584181 26.2934065934067  L 18.759834368529937 20.98791208791198  Z " fill-rule="nonzero" fill="#169bd5" stroke="none" transform="matrix(1 0 0 1 998 512 )" />
  </g>
</svg>