<?xml version="1.0" encoding="utf-8"?>
<svg version="1.1" xmlns:xlink="http://www.w3.org/1999/xlink" width="76px" height="100px" xmlns="http://www.w3.org/2000/svg">
  <g transform="matrix(1 0 0 1 -1034 -412 )">
    <path d="M 0.3729552889853949 24.924012158054666  L 4.84841875681559 16.56534954407317  L 8.992366412213869 11.094224924012508  L 10.358908689479449 15.501519756838944  L 10.358908689479449 19.148936170212494  L 16.11995637949849 20.6686930091185  L 20.761177753544416 14.589665653495388  L 24.739367502726505 16.56534954407317  L 28.717557251908147 13.829787234042556  L 31.866957470011133 13.829787234042556  L 33.69029443838599 10.030395136778282  L 34.353326063249824 2.4316109422490513  L 38.256180325287005 3.7023465015660126  L 40.817884405671066 0.15197568389027083  L 43.30425299890976 0.15197568389027083  L 43.967284623773594 2.4316109422490513  L 45.29334787350035 6.382978723404108  L 48.608505997819066 8.510638297872674  L 50.59760087241011 7.14285714285694  L 50.59760087241011 10.030395136778282  L 49.76881134133055 13.829787234042556  L 53.24972737186499 17.629179331307  L 60.87459105779726 19.148936170212494  L 60.04580152671724 20.6686930091185  L 60.04580152671724 22.94832826747728  L 58.38822246455811 24.924012158054666  L 60.87459105779726 27.963525835866164  L 62.86368593238831 27.963525835866164  L 67.8364231188657 28.875379939209722  L 70.32279171210484 30.69908814589627  L 70.98582333696868 33.28267477203656  L 75.95856052344607 34.80243161094256  L 72.80916030534354 37.23404255319167  C 72.80916030534354 37.23404255319167  72.47605205270611 43.70143082906236  67.8364231188657 47.11246200607917  C 63.8576481047794 50.037636801933616  58.38822246455811 48.784194528875446  58.38822246455811 48.784194528875446  C 58.38822246455811 48.784194528875446  54.29952744456568 43.31306990881484  52.25517993456924 40.57750759878428  C 52.034169392948115 39.00709219858146  51.592148309705415 35.86626139817639  51.592148309705415 35.86626139817639  L 49.76881134133055 33.28267477203656  C 49.76881134133055 33.28267477203656  47.66921119592871 33.78926038500509  46.61941112322802 34.04255319148979  C 46.17739003998531 34.65045592705144  45.29334787350035 35.86626139817639  45.29334787350035 35.86626139817639  L 43.967284623773594 31.458966565349556  L 46.61941112322802 28.875379939209722  L 45.29334787350035 26.899696048631938  L 40.817884405671066 26.29179331306989  C 40.817884405671066 26.29179331306989  36.342420937840416 23.55623100303984  34.353326063249824 23.55623100303984  C 32.36423118865878 23.55623100303984  31.369683751363482 23.40425531914906  30.87241003271538 24.924012158054666  C 30.375136314067277 26.44376899696016  31.866957470011133 27.963525835866164  31.866957470011133 27.963525835866164  L 30.209378407851545 27.963525835866164  L 28.717557251908147 29.635258358662554  L 27.723009814613306 29.635258358662554  L 24.739367502726505 31.458966565349556  C 24.739367502726505 31.458966565349556  24.739367502726505 33.181357649443044  24.739367502726505 34.04255319148979  C 25.18138858596831 34.65045592705144  26.06543075245372 35.86626139817639  26.06543075245372 35.86626139817639  L 23.91057797164649 37.993920972644446  L 20.761177753544416 40.57750759878428  C 20.761177753544416 40.57750759878428  20.761177753544416 42.29989868287737  20.761177753544416 43.1610942249236  C 22.08724100327163 43.76899696048656  24.739367502726505 44.984802431611115  24.739367502726505 44.984802431611115  L 29.380588876771977 45.89665653495416  C 29.380588876771977 45.89665653495416  31.590694292984153 47.315096251266255  32.695747001090695 48.02431610942273  C 34.353326063249824 48.02431610942273  37.66848418756808 48.02431610942273  37.66848418756808 48.02431610942273  C 37.66848418756808 48.02431610942273  37.12184619603886 53.08581034387555  39.823336968375315 56.23100303951344  C 42.28909753558037 59.10174840891506  46.61941112322802 58.96656534954394  46.61941112322802 58.96656534954394  L 49.76881134133055 58.20668693009122  L 48.608505997819066 60.334346504559676  L 50.59760087241011 62.158054711246336  L 54.410032715376474 65.19756838905744  L 52.25517993456924 66.26139817629166  L 50.59760087241011 67.47720364741622  L 48.608505997819066 68.99696048632222  L 45.29334787350035 69.75683890577545  C 45.29334787350035 69.75683890577545  41.480916030534445 72.03647416413384  34.353326063249824 80.09118541033422  C 27.225736095965203 88.14589665653472  24.739367502726505 91.9452887537991  24.739367502726505 91.9452887537991  L 26.06543075245372 96.35258358662634  L 26.06543075245372 97.26443768996944  L 22.750272628135008 97.26443768996944  L 19.563722119340582 98.34415919282458  L 15.12540894220274 99.84802431610973  L 10.358908689479449 98.36216260518904  L 6.837513631406636 97.26443768996944  C 6.837513631406636 97.26443768996944  5.511450381679424 95.33941236068887  4.84841875681559 94.37689969604855  C 4.130134496546816 93.56636271529862  2.693565976008813 91.9452887537991  2.693565976008813 91.9452887537991  L 4.185387131952211 88.60182370820701  L 10.358908689479449 74.77203647416445  L 8.163576881134304 71.12462006079028  L 2.693565976008813 68.08510638297867  L 1.8647764449292479 66.26139817629166  L 4.185387131952211 57.14285714285694  L 8.163576881134304 56.23100303951344  C 8.163576881134304 56.23100303951344  9.627131420031219 53.79939209726433  10.358908689479449 52.583586626139834  C 10.358908689479449 51.063829787234226  10.358908689479449 48.02431610942273  10.358908689479449 48.02431610942273  L 9.655398037077248 44.984802431611115  L 3.356597600872192 43.1610942249236  L 2.693565976008813 39.96960486322172  L 6.837513631406636 39.05775075987867  L 8.163576881134304 36.62613981762922  L 5.511450381679424 32.066869300912  L 1.8647764449292479 28.875379939209722  L 0.3729552889853949 24.924012158054666  Z " fill-rule="nonzero" fill="#623ceb" stroke="none" transform="matrix(1 0 0 1 1034 412 )" />
  </g>
</svg>