<?xml version="1.0" encoding="utf-8"?>
<svg version="1.1" xmlns:xlink="http://www.w3.org/1999/xlink" width="52px" height="56px" xmlns="http://www.w3.org/2000/svg">
  <g transform="matrix(1 0 0 1 -1111 -580 )">
    <path d="M 0.9142857142855974 26.31111111111113  L 6.099096137799279 22.32888888888874  C 6.099096137799279 22.32888888888874  9.892263882580664 19.657627429992772  10.057142857142935 16.07111111111135  C 10.146628072353451 14.124591334993736  8.228571428571286 12.51555555555558  8.228571428571286 12.51555555555558  L 11.580952380952112 13.368888888888932  L 16 11.235555555555948  L 13.866666666666788 5.97333333333313  L 17.21904761904807 1.137777777777842  L 19.809523809523853 1.137777777777842  L 26.209523809523493 2.560000000000173  L 34.59047619047624 0  L 38.09523809523853 2.560000000000173  L 33.52380952380918 7.395555555555802  L 23.16190476190468 10.097777777778106  L 33.52380952380918 13.368888888888932  L 37.33333333333303 9.528888888889242  L 44.64761904761872 9.528888888889242  L 47.08571428571395 13.368888888888932  L 49.536343311703604 13.368888888888932  L 49.536343311703604 14.648888888889019  L 46.32380952380936 17.635555555555698  L 49.536343311703604 18.26618331831719  L 51.80952380952385 22.32888888888874  L 51.08635549788323 23.43336412848555  L 46.32380952380936 23.43336412848555  C 46.32380952380936 23.43336412848555  42.97142857142899 24.035555555555106  44.64761904761872 26.31111111111113  C 46.323809523809814 28.58666666666681  48.457142857143026 27.448888888889087  48.457142857143026 27.448888888889087  L 46.32380952380936 34.559999999999945  L 48.457142857143026 34.559999999999945  L 48.457142857143026 37.26222222222225  L 43.428571428571104 40.67555555555566  L 43.428571428571104 37.26222222222225  L 42.057142857142935 37.26222222222225  L 37.33333333333303 44.51555555555535  L 38.09523809523853 46.22222222222206  L 37.33333333333303 47.78666666666663  L 36.26666666666688 48.639999999999986  L 36.26666666666688 54.61333333333357  L 35.347609048883896 55.77595766330978  L 31.39047619047642 53.33333333333292  L 28.190476190476147 52.62222222222181  L 28.190476190476147 54.61333333333357  L 25.59999999999991 53.90222222222201  L 24.228571428571286 52.62222222222181  L 22.247619047619082 49.63555555555547  L 19.200000000000273 51.34222222222229  L 19.809523809523853 52.62222222222181  C 19.809523809523853 52.62222222222181  16.300723496439332 55.541176284983294  13.866666666666788 54.61333333333357  C 11.843703801036554 53.8421961054072  11.580952380952112 50.20444444444456  11.580952380952112 50.20444444444456  C 11.580952380952112 50.20444444444456  11.835920365324455 46.218514021414194  9.295238095237892 43.377777777777965  C 8.098979902646533 42.04024177634551  6.099096137799279 41.815140228373934  6.099096137799279 41.815140228373934  L 6.704761904761653 40.67555555555566  L 4.571428571428896 37.26222222222225  L 0.30476190476201737 31.288888888889232  L 0.30476190476201737 30.29333333333352  L 0.30476190476201737 28.871111111110736  L 2.4380952380952294 27.448888888889087  L 0.9142857142855974 26.31111111111113  Z " fill-rule="nonzero" fill="#169bd5" stroke="none" transform="matrix(1 0 0 1 1111 580 )" />
  </g>
</svg>