<?xml version="1.0" encoding="utf-8"?>
<svg version="1.1" xmlns:xlink="http://www.w3.org/1999/xlink" width="34px" height="29px" xmlns="http://www.w3.org/2000/svg">
  <g transform="matrix(1 0 0 1 -980 -755 )">
    <path d="M 1.243010752687951 14.700628930817743  L 10.017204301075253 8.572327044024519  L 7.969892473117852 6.091823899370979  L 14.696774193548208 4.049056603773693  L 15.281720430107725 2.8817610062893664  L 24.640860215053635 2.8817610062893664  L 25.956989247312322 1.7144654088044717  L 30.49032258064517 2.298113207546635  L 30.49032258064517 0.2553459119502577  L 32.391397849462464 1.7144654088044717  L 33.12258064516118 4.049056603773693  L 33.70752688172024 6.091823899370979  L 33.12258064516118 7.842767295597697  L 30.49032258064517 9.739622641509413  L 28.296774193548572 13.679245283018304  L 28.296774193548572 20.39119496855335  L 25.956989247312322 21.704402515723245  L 20.546236559139743 27.24905660377385  L 17.32903225806467 28.1245283018867  L 13.380645161290431 28.708176100629316  L 7.393608953943385 26.150033476879685  L 2.8516129032259414 25.644025157232704  L 1.243010752687951 22.433962264150637  L 0.21935483870993266 18.202515723270494  L 1.243010752687951 14.700628930817743  Z " fill-rule="nonzero" fill="#623ceb" stroke="none" transform="matrix(1 0 0 1 980 755 )" />
  </g>
</svg>