<?xml version="1.0" encoding="utf-8"?>
<svg version="1.1" xmlns:xlink="http://www.w3.org/1999/xlink" width="106px" height="60px" xmlns="http://www.w3.org/2000/svg">
  <g transform="matrix(1 0 0 1 -976 -560 )">
    <path d="M 13.134782608695787 11.582608695652084  C 14.029076806450576 9.816916151225314  18.972463768116086 10.191304347826076  18.972463768116086 10.191304347826076  L 21.584057971014317 7.263987529332326  L 18.05072463768147 3.9304347826084722  L 14.824637681159402 2.121739130434605  L 14.067923455409527 0.5340893670212381  L 16.97536231884078 1.008695652173742  L 26.03913043478269 1.008695652173742  L 29.726086956522067 2.121739130434605  L 31.5695652173913 0.03478260869559335  L 34.642028985507295 3.9304347826084722  L 38.78985507246398 6.852173913043316  L 41.86307335264382 7.263987529332326  L 46.47101449275351 9.634782608695787  L 68.90000000000009 10.88695652173908  L 69.51449275362347 17.008695652173742  L 71.20434782608709 18.678260869565293  L 78.731884057971 17.008695652173742  L 81.804347826087 19.791304347826213  C 81.804347826087 19.791304347826213  83.40011112984621 22.1212694615715  85.49130434782592 22.156521739130767  C 87.70007063368666 22.193756004000306  89.48550724637653 19.791304347826213  89.48550724637653 19.791304347826213  L 92.55797101449298 21.043478260869506  L 95.93768115942066 24.382608695652152  L 100.5463768115942 25.078260869565156  L 101.31449275362365 26.33043478260879  L 98.85652173913059 29.66956521739155  L 105.46231884057988 42.469565217391164  L 104.3869565217392 43.304347826086996  L 104.3869565217392 44.55652173913063  L 100.5463768115942 44.55652173913063  L 96.85942028985528 47.06086956521699  L 92.55797101449298 47.06086956521699  L 88.4101449275363 49.008695652173856  L 87.79565217391291 50.12173913043466  C 87.79565217391291 50.12173913043466  83.8014492753623 50.863768115942094  81.804347826087 51.23478260869558  C 80.78019323671515 51.7449275362319  78.731884057971 52.765217391304304  78.731884057971 52.765217391304304  L 74.89130434782646 56.52173913043498  L 73.20144927536239 54.852173913043316  C 73.20144927536239 54.852173913043316  74.12318840579701 50.817391304347666  73.20144927536239 49.370378643080585  C 72.27971014492778 47.92336598181362  68.90000000000009 47.61739130434785  68.90000000000009 47.61739130434785  L 66.13478260869579 50.12173913043466  L 64.7521739130434 50.12173913043466  L 63.67681159420272 46.08695652173901  L 61.218840579710104 45.252173913043634  L 59.06811594202918 48.173913043478024  L 55.07391304347812 51.23478260869558  L 53.23043478260888 50.12173913043466  C 53.23043478260888 50.12173913043466  49.54347826086996 48.452173913043566  47.69999999999982 47.61739130434785  C 45.49806763285005 47.10724637681153  41.094202898550975 46.08695652173901  41.094202898550975 46.08695652173901  L 33.720289855072224 43.304347826086996  L 27.114492753623384 44  L 28.34347826086923 49.008695652173856  L 24.649413963119514 49.370378643080585  L 21.584057971014317 47.61739130434785  L 16.97536231884078 50.12173913043466  L 13.134782608695787 54.0173913043476  L 11.752173913043407 59.860869565217286  L 2.381159420289805 49.008695652173856  L 2.381159420289805 45.252173913043634  L 0.38405797101449934 42.469565217391164  L 1.152173913043498 39.965217391304236  L 13.134782608695787 38.99130434782569  L 21.584057971014317 33.98260869565229  C 21.584057971014317 33.98260869565229  23.957853451392566 31.72099804449897  23.427536231884005 28.278260869565543  C 23.004552266769224 25.532314542475206  20.508695652174083 22.85217391304377  20.508695652174083 22.85217391304377  L 16.05362318840571 21.043478260869506  L 16.05362318840571 17.008695652173742  C 16.05362318840571 17.008695652173742  12.14744296635945 13.532009966137139  13.134782608695787 11.582608695652084  Z " fill-rule="nonzero" fill="#169bd5" stroke="none" transform="matrix(1 0 0 1 976 560 )" />
  </g>
</svg>