<?xml version="1.0" encoding="utf-8"?>
<svg version="1.1" xmlns:xlink="http://www.w3.org/1999/xlink" width="74px" height="81px" xmlns="http://www.w3.org/2000/svg">
  <g transform="matrix(1 0 0 1 -983 -606 )">
    <path d="M 6.552083333333485 10.43999999999994  L 8.864583333333485 7.272000000000048  L 12.564583333333303 5.976000000000112  L 13.952083333333121 6.695999999999913  L 20.272916666666788 6.695999999999913  L 19.65625 1.0799999999999272  L 20.272916666666788 0.3599999999996726  L 25.052083333333485 0.3599999999996726  L 31.989583333333485 3.2399999999998954  L 37.23124999999981 4.1039999999998145  L 46.17291666666688 9.287999999999897  L 53.11041666666688 3.2399999999998954  L 54.1895833333333 5.976000000000112  L 54.1895833333333 8.711999999999762  L 58.96875 7.272000000000048  L 60.81874999999991 4.968000000000075  L 62.97708333333321 5.976000000000112  L 62.97708333333321 11.01600000000019  L 64.67291666666688 14.183999999999628  L 68.98958333333348 15.624000000000137  C 68.98958333333348 15.624000000000137  68.98958333333348 18.79200000000003  68.98958333333348 20.375999999999753  C 69.91458333333321 21.912000000000262  71.76458333333312 24.98400000000015  71.76458333333312 24.98400000000015  L 63.59375 34.343999999999596  L 64.67291666666688 41.11200000000008  L 67.75624999999991 38.23199999999974  L 67.75624999999991 44.135999999999854  C 67.75624999999991 44.135999999999854  68.32152777777765 48.168000000000006  68.98958333333348 50.18400000000031  C 70.12013888888896 51.43200000000036  73.1520833333334 53.92799999999999  73.1520833333334 53.92799999999999  L 71.14791666666679 55.79999999999973  L 71.14791666666679 57.672000000000025  L 72.38124999999991 57.672000000000025  L 73.92291666666688 59.11199999999974  L 73.92291666666688 62.00770828269356  L 71.76458333333312 65.73599999999999  L 71.14791666666679 66.88799999999958  L 68.98958333333348 68.90399999999977  C 68.98958333333348 68.90399999999977  65.14151069029867 65.9026876645097  60.81874999999991 65.73599999999999  C 58.282968948768485 65.63821910223123  56.8104166666667 66.88799999999958  56.8104166666667 66.88799999999958  C 56.8104166666667 66.88799999999958  54.65208333333294 68.4720000000001  54.96041666666679 69.76800000000014  C 55.26875000000019 71.0640000000003  56.65625 72.07200000000012  57.73541666666688 73.65600000000029  C 58.8145833333333 75.24000000000001  57.73541666666688 76.53600000000006  57.73541666666688 76.53600000000006  L 49.8729166666667 72.64799999999991  C 49.8729166666667 72.64799999999991  47.20891666666648 70.68139730696589  46.17291666666688 71.35199999999986  C 44.71786112472455 72.2938573020657  46.17291666666688 76.53600000000006  46.17291666666688 76.53600000000006  L 43.86041666666688 78.26399999999978  L 41.39375000000019 78.84000000000003  L 37.23124999999981 80.56799999999987  L 35.22708333333321 79.41599999999983  L 35.84375 75.38400000000013  L 29.831250000000182 75.38400000000013  L 31.989583333333485 70.77599999999973  L 33.53125 69.76800000000014  L 35.22708333333321 62.71200000000022  L 32.760416666666515 61.27200000000005  L 32.760416666666515 56.66400000000067  L 29.831250000000182 54.6479999999998  L 27.210416666666788 56.66400000000067  L 21.8145833333333 56.66400000000067  L 20.272916666666788 60.12000000000012  C 20.272916666666788 60.12000000000012  19.450694444444252 61.04247218846194  18.57708333333312 62.00770828269356  C 18.31556844863053 62.00770828269356  17.792538679225345 62.00770828269356  17.792538679225345 62.00770828269356  L 16.418749999999818 60.6959999999998  L 13.952083333333121 61.27200000000005  L 10.09791666666706 64.15199999999982  L 6.552083333333485 60.12000000000012  C 6.552083333333485 60.12000000000012  5.010416666666515 59.687999999999874  5.010416666666515 57.672000000000025  C 5.010416666666515 55.65600000000018  5.627083333333303 54.6479999999998  5.627083333333303 54.6479999999998  L 5.627083333333303 52.48799999999983  L 7.322916666666515 50.18400000000031  L 6.552083333333485 46.28810491409911  L 3.622916666666697 44.85599999999965  L 0.07516325066944773 46.28810491409911  L 0.2312499999998181 43.56000000000006  L 5.627083333333303 40.10400000000004  L 4.239583333333485 34.343999999999596  C 4.239583333333485 34.343999999999596  3.828472222222444 32.903999999999996  3.622916666666697 32.1840000000002  C 4.290972222222081 31.463999999999828  5.627083333333303 30.02400000000023  5.627083333333303 30.02400000000023  L 3.622916666666697 25.70399999999995  L 2.852083333333212 16.91999999999973  L 6.552083333333485 10.43999999999994  Z " fill-rule="nonzero" fill="#169bd5" stroke="none" transform="matrix(1 0 0 1 983 606 )" />
  </g>
</svg>