<?xml version="1.0" encoding="utf-8"?>
<svg version="1.1" xmlns:xlink="http://www.w3.org/1999/xlink" width="195px" height="154px" xmlns="http://www.w3.org/2000/svg">
  <g transform="matrix(1 0 0 1 -779 -418 )">
    <path d="M 0.23076923076939695 34.23414634146371  L 2.5961538461536975 30.156097560975585  L 8.826923076923094 30.79999999999984  L 13.673076923077017 25.648780487805144  L 20.365384615384755 18.565853658536867  L 24.057692307692264 16.41951219512174  L 26.826923076923094 14.487804878048678  L 32.826923076923094 15.131707317073053  L 38.826923076923094 12.985365853658436  L 45.05769230769249 11.053658536584976  L 45.05769230769249 1.180487804878112  C 45.05769230769249 1.180487804878112  47.25483041304949 0.8863053993320591  48.35339946572799 0.7392141965590895  C 49.748420156639554 0.552430060578672  52.538461538461775 0.1788617886179509  52.538461538461775 0.1788617886179509  L 57.28846153846143 4.829268292682627  L 58.9038461538463 8.263414634146386  L 60.26572732634179 11.919456611041255  L 62.59615384615381 13.629268292682752  L 61.67307692307713 16.41951219512174  L 58.9038461538463 19.63902439024389  L 63.28846153846143 23.287804878048917  L 63.98076923076917 27.151219512194928  L 66.28846153846166 29.297560975610054  L 66.9807692307694 33.59024390243883  L 69.05769230769215 35.5219512195124  L 71.82692307692287 35.5219512195124  L 74.13461538461547 32.94634146341457  L 88.53846153846143 30.79999999999984  L 88.53846153846143 33.59024390243883  L 83.36538461538464 41.10243902439038  L 85.21153846153834 44.10731707317052  L 89.13461538461524 46.25365853658519  L 91.90384615384608 49.04390243902458  L 93.75000000000034 50.117073170731715  L 95.13461538461524 51.97723577235786  L 97.90384615384608 53.55121951219502  L 99.28846153846155 59.131707317072994  L 103.99585666694122 59.981220487207054  C 103.99585666694122 59.981220487207054  105.44204366868985 63.67932719972521  108.28846153846177 64.2829268292682  C 111.42002905874858 64.9469941172116  114.75000000000011 61.92195121951198  114.75000000000011 61.92195121951198  L 113.82692307692298 59.131707317072994  L 112.44230769230751 58.05853658536591  L 113.82692307692298 56.126829268292454  L 116.59615384615381 56.126829268292454  L 116.61264446453254 56.12354970436252  C 116.61264446453254 56.12354970436252  120.14919040921563 58.752611906296465  123.75000000000034 58.05853658536591  C 129.70336556859047 56.910993508327806  133.21153846153834 50.76097560975603  133.21153846153834 50.76097560975603  L 137.46153846153857 51.97723577235786  C 137.46153846153857 51.97723577235786  140.05556565559777 54.70719842423881  139.4423076923074 57.41463414634154  C 138.6958485122732 60.71013191415449  134.36538461538453 62.56585365853676  134.36538461538453 62.56585365853676  L 129.28846153846155 65.35609756097574  L 126.75000000000011 73.94146341463437  C 126.75000000000011 73.94146341463437  127.67307692307668 75.65853658536577  130.90384615384642 78.66341463414591  C 134.13461538461502 81.66829268292702  136.6730769230769 80.59512195121937  136.6730769230769 80.59512195121937  L 139.4423076923074 83.81463414634112  L 142.6730769230769 83.17073170731726  L 145.9038461538462 84.458536585366  L 147.05769230769215 86.31869918699203  L 149.36538461538476 89.180487804878  L 150.47576513103502 95.30318529163992  C 150.47576513103502 95.30318529163992  153.20123967204404 96.97597266596074  153.51923076923094 99.48292682926842  C 153.6908014111507 100.83554248067276  152.5961538461538 102.05853658536586  152.5961538461538 102.05853658536586  L 151.35440161029464 103.6555637782593  L 152.5961538461538 106.99512195121946  L 158.82692307692287 111.0731707317077  L 159.98076923076974 113.43414634146336  L 162.98076923076906 115.58048780487752  L 167.36538461538476 114.93658536585326  L 166.69230769230808 110.21463414634172  L 168.74999999999977 109.14146341463413  L 171.30769230769215 109.14146341463413  L 173.59615384615415 107.81242803514215  L 174.51923076923129 102.70243902439017  L 172.90384615384642 99.48292682926842  L 168.74999999999977 97.76585365853657  L 168.74999999999977 88.32195121951247  L 171.30769230769215 86.31869918699203  L 177.05769230769215 87.46341463414603  L 182.13461538461513 91.97073170731699  L 186.51923076923083 94.97560975609758  L 193.21715828647632 96.47804878048788  L 195 99.48292682926842  L 193.21715828647632 102.70243902439017  L 193.21715828647632 107.81242803514215  L 192.51923076923072 111.0731707317077  C 192.51923076923072 111.0731707317077  185.98576178459257 110.77770490801004  182.13461538461513 113.43414634146336  C 179.4431095141308 115.2906916321798  180.0576923076925 118.15609756097541  180.0576923076925 118.15609756097541  L 179.1346153846157 119.13504148614538  L 172.90384615384642 116.43902439024396  L 169.67307692307668 116.43902439024396  L 163.67307692307713 125.02439024390264  L 163.67307692307713 129.53170731707348  C 163.67307692307713 129.53170731707348  165.68589743589746 132.2504065040656  166.69230769230808 133.6097560975611  C 166.69230769230808 134.92140921409225  166.69230769230808 137.54471544715454  166.69230769230808 137.54471544715454  C 166.69230769230808 137.54471544715454  160.45692307692286 136.67223028293006  157.6730769230768 139.83414634146345  C 155.0758736886471 142.78407179006376  156.75 148.20487804878042  156.75 148.20487804878042  C 156.75 148.20487804878042  155.51923076923026 150.35121951219503  154.90384615384596 151.42439024390262  C 153.60256410256397 152.13983739837386  151.0000000000001 153.57073170731724  151.0000000000001 153.57073170731724  L 145.9038461538462 151.42439024390262  L 142.6730769230769 151.42439024390262  L 143.59615384615404 147.3463414634149  L 142.6730769230769 144.98536585365866  C 142.6730769230769 144.98536585365866  139.198717948718 142.0039109511681  137.46153846153857 140.5131834999229  C 137.46153846153857 139.5236941490001  137.46153846153857 137.54471544715454  137.46153846153857 137.54471544715454  C 137.46153846153857 137.54471544715454  129.98668077061313 137.9329363038661  125.36538461538464 134.68292682926824  C 121.68736175972049 132.09629123458285  121.90384615384664 128.02926829268313  121.90384615384664 128.02926829268313  L 117.51923076923094 128.02926829268313  L 115.44230769230785 130.17560975609786  L 110.82692307692321 135.54146341463422  L 112.44230769230751 141.5512195121953  L 108.98076923076894 142.19512195121968  L 106.89683394558222 140.5131834999229  L 103.67307692307713 141.5512195121953  L 97.15384615384608 138.689430894309  C 97.15384615384608 138.689430894309  96.57692307692332 136.0184281842818  96.28846153846132 134.68292682926824  C 96.28846153846132 133.18048780487788  96.28846153846132 130.17560975609786  96.28846153846132 130.17560975609786  L 105.28846153846155 131.24878048780488  L 108.28846153846177 128.6731707317075  L 108.28846153846177 125.02439024390264  L 104.59615384615381 122.87804878048797  L 108.98076923076894 119.87317073170743  L 113.1596108170005 119.13504148614538  L 116.59615384615381 114.93658536585326  L 116.59615384615381 112.57560975609744  L 118.9038461538463 111.93170731707312  L 123.0576923076926 103.77560975609731  L 119.59615384615358 98.40975609756094  L 117.51923076923094 87.46341463414603  L 115.44230769230785 83.81463414634112  L 111.74999999999977 81.23902439024369  L 111.74999999999977 76.94634146341497  L 105.28846153846155 78.01951219512205  L 88.53846153846143 65.35609756097574  L 85.90384615384608 67.71707317073157  L 69.05769230769215 55.05365853658532  L 66.28846153846166 56.77073170731717  L 60.9807692307694 58.05853658536591  L 50.826923076923094 52.69268292682949  L 47.59615384615404 54.1951219512198  L 47.59615384615404 59.99024390243943  C 47.59615384615404 59.99024390243943  47.64139025211455 62.80208183491612  46.21153846153857 63.42439024390228  C 44.43848117216055 64.19607054536192  41.596153846153584 61.92195121951198  41.596153846153584 61.92195121951198  L 32.826923076923094 54.1951219512198  L 24.057692307692264 50.76097560975603  L 20.365384615384755 48.400000000000205  L 13.673076923077017 47.75609756097549  L 8.826923076923094 47.75609756097549  L 2.5961538461536975 46.25365853658519  L 0.23076923076939695 43.105691056910814  L 0.23076923076939695 34.23414634146371  Z " fill-rule="nonzero" fill="#623ceb" stroke="none" transform="matrix(1 0 0 1 779 418 )" />
  </g>
</svg>