<?xml version="1.0" encoding="utf-8"?>
<svg version="1.1" xmlns:xlink="http://www.w3.org/1999/xlink" width="62px" height="69px" xmlns="http://www.w3.org/2000/svg">
  <g transform="matrix(1 0 0 1 -1083 -624 )">
    <path d="M 8.266666666666879 33.12713178294598  L 12.045714285714439 30.274418604651146  L 12.045714285714439 28.848062015503615  C 12.045714285714439 28.848062015503615  9.15422899649775 27.114316063833485  9.368888888888705 25.282170542635864  C 9.800784381334324 21.595895555279412  16.297142857142717 19.29147286821717  16.297142857142717 19.29147286821717  L 17.55682539682539 13.586046511627956  L 15.667301587301608 15.155038759689775  L 16.297142857142717 9.306976744186159  L 20.233650793650668 7.16744186046526  L 22.59555555555562 8.451162790697254  L 26.53206349206357 8.451162790697254  C 26.53206349206357 8.451162790697254  28.10666666666657 6.454263565891779  28.89396825396807 5.455813953488928  C 30.04867724867745 4.742635658914992  32.3580952380953 3.3162790697675746  32.3580952380953 3.3162790697675746  L 32.3580952380953 0.3209302325582257  C 32.3580952380953 0.3209302325582257  34.71745812202744 0.004967121407958075  36.13714285714286 1.1767441860461079  C 38.094330647893 2.792164643606384  37.331044481278695 5.189646307732687  37.86920634920625 7.16744186046526  C 38.56871426765838 9.7381993456504  40.231111111111204 11.731782945736313  40.231111111111204 11.731782945736313  C 40.231111111111204 11.731782945736313  43.937135229452906 13.50400702610534  47.001904761904825 12.302325581394939  C 49.42936058158193 11.350531788918943  50.30857142857167 8.451162790697254  50.30857142857167 8.451162790697254  C 50.30857142857167 8.451162790697254  51.04338624338607 10.257881136951255  51.410793650793494 11.161240310077233  C 52.30306878306919 11.541602067183248  54.08761904761923 12.302325581394939  54.08761904761923 12.302325581394939  L 57.551746031746006 13.015503875968875  L 59.441269841269786 11.731782945736313  L 60.07111111111135 14.299224806201437  L 61.80317460317474 15.155038759689775  L 61.80317460317474 16.43875968992279  L 58.65396825396829 19.29147286821717  L 58.65396825396829 22.42945736434092  L 52.35555555555584 21.431007751937614  L 51.410793650793494 22.42945736434092  L 52.35555555555584 23.57054263565908  L 58.65396825396829 27.279069767441797  L 57.551746031746006 28.848062015503615  L 52.35555555555584 31.415503875969307  L 54.08761904761923 34.98139534883717  L 53.14285714285734 36.550387596898986  L 54.08761904761923 39.403100775193366  L 51.410793650793494 39.403100775193366  L 47.789206349206324 41.68527131782969  L 50.30857142857167 44.110077519379956  L 49.04888888888854 45.10852713178315  L 45.9999304389944 44.110077519379956  L 45.9999304389944 49.53023255813946  L 45.9999304389944 51.812403100775214  L 42.90793650793648 55.235658914728674  L 37.86920634920625 55.235658914728674  L 37.86920634920625 58.51627906976728  L 34.09015873015869 57.94573643410865  L 33.1453968253968 61.22635658914771  L 29.681269841269568 67.93023255813978  L 24.957460317460573 64.07906976744164  C 24.957460317460573 64.07906976744164  25.5401929739146 68.13271147618582  24.17015873015862 68.64341085271326  C 22.1735118147476 69.38768884393255  18.18666666666695 64.64961240310072  18.18666666666695 64.64961240310072  L 15.667301587301608 58.51627906976728  L 12.045714285714439 54  L 1.338412698412867 54  L 0.0787301587301954 50.13660781167596  L 3.7003174603173647 47.81860465116267  L 2.7555555555554747 45.10852713178315  L 3.7003174603173647 44.110077519379956  L 3.7003174603173647 41.68527131782969  L 6.377142857143099 39.403100775193366  L 6.816819838946685 37.942733305624415  L 8.266666666666879 37.12093023255807  L 8.266666666666879 33.12713178294598  Z " fill-rule="nonzero" fill="#4646c5" stroke="none" transform="matrix(1 0 0 1 1083 624 )" />
  </g>
</svg>