<?xml version="1.0" encoding="utf-8"?>
<svg version="1.1" xmlns:xlink="http://www.w3.org/1999/xlink" width="269px" height="152px" xmlns="http://www.w3.org/2000/svg">
  <g transform="matrix(1 0 0 1 -575 -497 )">
    <path d="M 13.565450643777012 34.666666666666856  L 8.370171673819868 21.066666666666947  L 14.157638080044876 11.486818980667806  L 25.687768240343186 12.266666666666708  L 27.996781115879795 5.599999999999966  L 34.382835337252345 0  C 34.382835337252345 0  42.125631587305065 3.662976453372721  51.66416309012868 3.733333333333462  C 60.04908666233189 3.7951811199740177  64.07510729613716 0.8014059753954257  64.07510729613716 0.8014059753954257  C 64.07510729613716 0.8014059753954257  65.18252393923922 0.8605950745011341  66.6727467811155 1.599999999999909  C 68.1629696229927 2.339404925499082  69.7239353842208 5.752374501208408  70.71351931330457 6.666666666666686  C 72.44527896995714 8.266666666666652  75.62017167381987 6.666666666666686  75.62017167381987 6.666666666666686  L 83.12446351931351 8.528134606441427  L 91.49463519313292 6.666666666666686  C 91.49463519313292 6.666666666666686  95.87753092115496 8.400108879486368  101.01931330472087 7.733333333333519  C 108.57489268374434 6.7535416597199855  114.00751072961339 2.6666666666666288  114.00751072961339 2.6666666666666288  L 123.53218884120133 3.199999999999875  L 130.17060085836954 0.8014059753954257  L 134.35309606573287 0.8014059753954257  L 145.17918454935602 3.733333333333462  L 152.39484978540736 8.528134606441427  L 152.39484978540736 16.266666666667163  L 149.50858369098728 17.86666666666656  L 148.35407725321875 23.19999999999999  C 148.35407725321875 23.19999999999999  152.39484978540736 24.533333333333303  151.81759656652378 28.53333333333336  C 151.24034334763985 32.533333333333815  148.35407725321875 41.600000000000136  148.35407725321875 41.600000000000136  C 148.35407725321875 41.600000000000136  157.01287553648046 55.199999999999704  160.1877682403432 55.733333333332894  C 163.36266094420603 56.26666666666688  166.53755364806887 52.80000000000007  166.53755364806887 52.80000000000007  L 168.84656652360536 53.866666666666845  L 172.88733905579397 59.99999999999994  C 172.88733905579397 59.99999999999994  175.0079218812641 60.670543318507896  177.7939914163088 61.86666666666639  C 180.40386869097188 62.987146649232386  184.08964003079973 63.78253974314584  187.89592274678125 65.18101933216161  C 190.2674784847386 66.05236088538408  192.50490362512778 67.58738657172341  195.1115879828326 68.26666666666642  C 206.3680257510731 71.19999999999982  213.8723175965663 68.26666666666642  213.8723175965663 68.26666666666642  L 221.45683568729532 76.65058678805974  L 223.97424892703873 82.93333333333328  L 230.03540772532153 86.13333333333355  L 233.78755364806887 84.8000000000003  L 236.3851931330471 80.53333333333319  L 238.40557939914197 80.53333333333319  L 240.71459227467847 84.8000000000003  L 246.48712446351954 82.13333333333367  L 246.48712446351954 79.19999999999982  L 249.37339055794018 78.13333333333355  L 249.37339055794018 72  L 256.5890557939915 78.13333333333355  L 257.45493562231775 82.93333333333328  L 262.6502145922743 87.99768086532708  L 263.8047210300433 97.86666666666667  L 266.113733905579 105.06666666666649  L 266.9796137339057 106.66666666666686  L 266.113733905579 113.86666666666666  L 269 118.93213511375211  L 266.113733905579 125.01933216168709  L 259.7639484978538 130.13333333333333  L 260.9184549356223 136.26609654605943  L 255.14592274678125 138.64323374340984  C 255.14592274678125 138.64323374340984  251.97103004291841 131.1999999999997  247.3530042918453 131.7333333333329  C 242.73497854077232 132.26666666666688  245.0439914163088 136.80000000000007  245.0439914163088 136.80000000000007  L 243.3122317596568 142.38312829525512  L 236.3851931330471 139.7117750439362  L 230.03540772532153 134  L 219.93347639484955 134  L 205.50214592274688 142.38312829525512  L 198.863733905579 141.31458699472762  L 194.24570815450647 148  L 188.47317596566472 150.6666666666672  L 172.88733905579397 152  L 169.71244635193113 145.86666666666656  L 169.71244635193113 139.7117750439362  L 164.80579399141632 139.7117750439362  L 164.80579399141632 134.13333333333344  L 155.32164791679725 132.7280840066163  L 147.77682403433528 129.0666666666666  C 147.77682403433528 129.0666666666666  143.06524615623266 126.29045057999747  139.69527896995714 126.66666666666697  C 136.61604936848198 127.01042541759512  135.0772532188845 129.0666666666666  135.0772532188845 129.0666666666666  L 127.8615879828327 139.7117750439362  L 124.39806866952756 134.93333333333362  C 124.39806866952756 134.93333333333362  129.59334763948516 130.39999999999998  126.70708154506406 127.99999999999977  C 123.82081545064398 125.5999999999998  110.54399141630881 127.99999999999977  110.54399141630881 127.99999999999977  L 105.06008583690948 127.99999999999977  L 97.84442060085803 123.46666666666613  L 91.49463519313292 125.01933216168709  C 91.49463519313292 125.01933216168709  89.21025753265019 120.43045271354583  84.27896995708159 117.60000000000014  C 80.8562823999963 115.63545116055138  77.06330472102968 115.73333333333323  77.06330472102968 115.73333333333323  L 75.04291845493594 111.4666666666666  L 67.49802194568429 107.44456748814434  L 62.054721030042856 98.9333333333334  L 57.20841509895729 99.90861159929705  C 57.20841509895729 99.90861159929705  53.51224709307189 94.81398164420978  51.66416309012868 92.26666666666665  C 50.279196611380485 91.50700958351513  47.50926365388352 89.98769541721128  47.50926365388352 89.98769541721128  L 39.830472103004695 82.13333333333367  L 38.38733905579397 77.3333333333328  L 32.90343347639464 76.53333333333308  L 29.151287553647876 81.06666666666626  L 27.996781115879795 81.06666666666626  L 21.669854204150283 75.86643233743393  L 11.557255575546947 65.18101933216161  L 6.645421955939582 59.304042179261955  L 1.1557255575547742 59.304042179261955  L 0 51.82425307557139  L 3.1782452832752597 45.94727592267133  L 1.1557255575547742 43.008787346221425  L 2.022519725721054 36.59753954305779  L 4.040772532188612 41.06666666666655  L 8.370171673819868 41.06666666666655  C 8.370171673819868 41.06666666666655  11.256437768240403 39.288888888889005  12.69957081545067 38.39999999999981  C 12.988197424892519 37.15555555555551  13.565450643777012 34.666666666666856  13.565450643777012 34.666666666666856  Z " fill-rule="nonzero" fill="#623ceb" stroke="none" transform="matrix(1 0 0 1 575 497 )" />
  </g>
</svg>