<?xml version="1.0" encoding="utf-8"?>
<svg version="1.1" xmlns:xlink="http://www.w3.org/1999/xlink" width="82px" height="66px" xmlns="http://www.w3.org/2000/svg">
  <g transform="matrix(1 0 0 1 -908 -621 )">
    <path d="M 36.08764568764536 23.987096774193333  C 38.99300699300693 22.141935483870498  39.222238026933155 21.497089004524128  38.840093240093665 18.87741935483882  C 38.584623353497136 17.126128400805214  37.00512820512813 16.98494623655904  36.08764568764536 16.03870967741932  C 34.66045066045035 15.802150537634702  31.806060606060782 15.329032258064672  31.806060606060782 15.329032258064672  C 31.806060606060782 15.329032258064672  28.034835149342143 12.777410505542093  28.59487179487178 10.929032258064922  C 28.85726970242922 10.062998600473975  31.03656805292985 9.8976178491464  31.03656805292985 9.8976178491464  L 33.9468531468533 9.8976178491464  C 33.9468531468533 9.8976178491464  35.37404817404831 11.720711326059245  36.08764568764536 12.632258064515895  C 37.090914440077995 12.443010752688451  39.09745194494326 12.064516129032086  39.09745194494326 12.064516129032086  L 40.063403263403416 10.929032258064922  L 41.286713286713166 12.064516129032086  L 44.34498834498846 12.064516129032086  L 45.41538461538494 10.929032258064922  L 45.41538461538494 9.083870967742087  L 46.02703962703981 7.664516129032336  L 46.94452214452258 6.954838709677688  L 51.379020979020886 6.954838709677688  L 53.36689976689968 4.541935483871043  L 54.131468531468265 0.14193548387083865  L 55.35477855477893 0.14193548387083865  C 55.35477855477893 0.14193548387083865  55.660606060606376 4.825806451613175  58.10722610722587 5.39354838709653  C 60.55384615384627 5.961290322580453  62.08298368298347 1.2774193548389121  62.08298368298347 1.2774193548389121  L 63.4592074592074 1.2774193548389121  L 65.14125874125921 1.9870967741931054  L 65.14125874125921 5.39354838709653  L 66.6703962703964 7.664516129032336  L 67.58787878787871 12.632258064515895  L 71.10489510489515 12.632258064515895  L 71.86946386946374 15.329032258064672  C 71.86946386946374 15.329032258064672  72.78694638694606 16.60645161290313  74.62191142191114 16.748387096774422  C 76.45687645687667 16.89032258064526  76.60979020978994 14.05161290322576  76.60979020978994 14.05161290322576  L 77.37435897435898 14.05161290322576  L 76.60979020978994 13.20000000000016  L 78.59766899766873 12.632258064515895  L 79.8209790209794 13.20000000000016  L 78.59766899766873 15.329032258064672  L 77.98601398601386 16.748387096774422  C 77.98601398601386 16.748387096774422  80.3184237549508 21.99116884893283  79.68741700568035 23.414939263176052  C 79.05641025641035 24.838709677419274  74.62191142191114 27.819354838709728  74.62191142191114 27.819354838709728  C 74.62191142191114 27.819354838709728  73.2781934779996 31.59701064056196  74.62191142191114 32.50313359634674  C 76.3345454545456 33.65803148161979  80.7384615384617 30.65806451612923  80.7384615384617 30.65806451612923  L 81.50303030302985 34.63225806451601  L 80.7384615384617 36.19354838709671  L 79.68741700568035 41.303225806451564  L 81.50303030302985 45.135483870967505  L 80.7384615384617 48.40000000000009  L 75.69230769230762 48.9677419354839  C 75.69230769230762 48.9677419354839  74.36705516705524 50.38709677419365  73.70442890442882 51.0967741935483  C 72.43014763014799 51.75913978494634  69.88158508158494 53.08387096774152  69.88158508158494 53.08387096774152  L 68.81118881118846 55.07096774193508  L 66.6703962703964 55.07096774193508  L 63.4592074592074 57.341935483870884  L 62.08298368298347 59.18709677419315  L 58.71337507719226 57.979917642427836  C 58.71337507719226 57.979917642427836  56.06654072114634 57.979917642427836  54.7431235431236 57.979917642427836  C 54.28438228438199 57.34145047129607  53.36689976689968 56.06451612903243  53.36689976689968 56.06451612903243  L 49.39114219114208 54.361290322580885  C 49.39114219114208 54.361290322580885  47.14840714840693 56.91612903225791  46.02703962703981 58.193548387096826  C 44.72396725346971 58.79531232206341  42.11782250632904 59.99884019199749  42.11782250632904 59.99884019199749  L 39.09745194494326 62.33992932348235  C 39.09745194494326 62.33992932348235  37.090914440077995 62.98212697879546  36.08764568764536 63.30322580645168  C 35.57793317793312 64.15483870967773  34.558508158508175 65.85806451612916  34.558508158508175 65.85806451612916  L 29.20652680652665 65.85806451612916  L 24.49291469192667 64.03009689341172  L 20.490442890442864 63.30322580645168  L 14.373892773892749 65.85806451612916  L 16.973426573426423 59.18709677419315  L 11.621445221445358 55.07096774193508  L 11.621445221445358 51.0967741935483  C 11.621445221445358 51.0967741935483  14.523430597406332 47.61152094274212  14.373892773892749 43.29032258064524  C 14.276485694805615 40.47554769146859  12.233100233100231 38.32258064516111  12.233100233100231 38.32258064516111  L 9.480652680652838 37.754838709677756  L 6.575291375291272 37.754838709677756  L 5.046153846154084 39.741935483870975  L 1.987878787878799 38.32258064516111  L 0.45874125874115634 34.63225806451601  L 0.45874125874115634 32.36129032258032  L 1.987878787878799 29.66451612903245  L 5.963636363636397 28.670967741935215  L 14.373892773892749 28.670967741935215  L 16.973426573426423 29.66451612903245  C 16.973426573426423 29.66451612903245  19.827816627816446 28.434408602150597  21.255011655011913 27.819354838709728  C 22.33431266731668 27.015053763440847  24.49291469192667 24.838709677419274  24.49291469192667 24.838709677419274  L 26.301165501165542 25.832258064516054  C 26.301165501165542 25.832258064516054  33.18228438228425 25.832258064516054  36.08764568764536 23.987096774193333  Z " fill-rule="nonzero" fill="#169bd5" stroke="none" transform="matrix(1 0 0 1 908 621 )" />
  </g>
</svg>