<?xml version="1.0" encoding="utf-8"?>
<svg version="1.1" xmlns:xlink="http://www.w3.org/1999/xlink" width="82px" height="71px" xmlns="http://www.w3.org/2000/svg">
  <g transform="matrix(1 0 0 1 -1094 -394 )">
    <path d="M 30.581642512076996 16.142786069651777  L 34.85990338164265 16.707960199004617  L 34.85990338164265 12.893034825870757  L 37.07826086956493 10.10248756218931  L 41.03961352657006 11.056218905472917  L 46.11014492753657 10.10248756218931  L 49.59613526570047 6.428855721392778  L 51.022222222222354 4.026865671642099  L 50.38840579710131 1.9074626865672712  L 51.022222222222354 0.21194029850772722  L 54.19130434782619 2.7552238805967018  L 58.62801932367165 1.9074626865672712  L 59.26183574879224 4.026865671642099  L 61.48019323671497 5.43980099502494  L 64.33236714975828 5.43980099502494  L 66.07536231884069 1.9074626865672712  L 67.34299516908231 2.7552238805967018  C 67.34299516908231 2.7552238805967018  66.39227053140121 5.121890547263547  67.34299516908231 7.241293532338034  C 68.29371980676387 9.360696517412975  69.24444444444453 10.10248756218931  69.24444444444453 10.10248756218931  L 74.94879227053116 13.776119402984989  L 74.94879227053116 20.134328358209245  L 75.5826086956522 23.242786069651515  C 75.5826086956522 23.242786069651515  79.70241545893714 25.362189054726457  77.95942028985519 25.079601990049866  C 76.21642512077324 24.797014925373617  80.01932367149766 25.079601990049866  80.01932367149766 25.079601990049866  L 81.12850241545902 26.209950248755945  L 81.92077294686032 31.437810945273156  L 80.01932367149766 33.5572139303481  L 71.77971014492732 41.46965174129349  L 67.35178301783026 50.635540338705596  L 67.34299516908231 50.65373134328354  L 65.76463597797738 51.06767926921458  L 62.11400966183601 52.172636815920384  L 59.89565217391282 52.172636815920384  L 56.56811594202918 53.479601990049616  L 43.416425120773056 64.88905472636804  L 41.03961352657006 69.26915422885583  L 39.9304347826087 70.71741293532341  L 34.06763285024135 70.71741293532341  L 34.85990338164265 69.26915422885583  L 38.50434782608727 68.31542288557216  L 39.9304347826087 66.16069651741304  L 39.9304347826087 64.88905472636804  L 41.67342995169065 63.51144278606955  L 41.03961352657006 59.97910447761177  L 38.50434782608727 61.35671641791038  L 36.44444444444434 62.06318407960208  L 36.44444444444434 59.09601990049765  L 37.71207729468597 56.55273631840765  L 39.85827384974937 54.27297927678268  L 41.03961352657006 51.06767926921458  L 41.03961352657006 45.39054726368158  L 37.71207729468597 40.24736536709639  L 34.85990338164265 38.891044776119486  L 32.00772946859888 40.24736536709639  L 31.05690356922878 40.24736536709639  L 29.789371980676606 40.86915422885602  L 27.412560386473615 41.46965174129349  L 24.40193236715004 44.40149253731329  L 18.856038647343212 53.479601990049616  L 16.00386473429944 54.150746268656576  L 10.933333333333394 53.479601990049616  L 9.982608695652289 49.77064676616931  L 7.714120174740401 48.59477117880198  L 4.595169082125722 47.22736318407942  L 0.47536231884078006 46.52089552238823  L 0 45.95572139303488  L 0.47536231884078006 43.730348258706385  L 0.47536231884078006 41.46965174129349  L 3.0106280193235766 37.76069651741278  L 6.496618357487932 35.111442786069745  L 4.595169082125722 25.079601990049866  L 9.031884057971183 28.576616915422846  L 11.567149758453978 29.84825870646779  L 15.211594202898596 27.728855721393302  L 22.025120772947048 20.134328358209245  L 25.352657004831144 18.96865671641791  L 27.412560386473615 15.577611940298482  L 30.581642512076996 16.142786069651777  Z " fill-rule="nonzero" fill="#6552d5" stroke="none" transform="matrix(1 0 0 1 1094 394 )" />
  </g>
</svg>