<?xml version="1.0" encoding="utf-8"?>
<svg version="1.1" xmlns:xlink="http://www.w3.org/1999/xlink" width="62px" height="58px" xmlns="http://www.w3.org/2000/svg">
  <g transform="matrix(1 0 0 1 -934 -578 )">
    <path d="M 0.03899371069155677 33.81185185185177  L 1.5987421383647415 32.00740740740741  L 15.636477987421587 33.00987654320977  L 18.132075471698045 30.288888888889005  L 20.62767295597496 26.565432098765427  L 24.0591194968556 25.133333333333553  L 27.334591194968198 20.407407407407163  L 30.610062893081704 18.259259259259238  L 33.417610062893345 13.533333333333303  L 35.2893081761008 11.642962962962997  L 37.3169811320754 8.234567901234527  L 38.09685534591199 3.651851851851916  L 42.60452830188706 0.12888888888903693  L 48.40679245283036 4.768888888888682  L 51.02716981132107 6.1437037037035225  L 54.396226415094134 5.456296296296273  L 58.70113207547183 7.002962962963011  C 58.70113207547183 7.002962962963011  60.97287935121676 8.467464257652182  61.50867924528302 11.642962962962997  C 61.92209000639059 14.093104053315187  60.75999999999976 16.1111111111112  60.75999999999976 16.1111111111112  L 55.23180592991912 18.259259259259238  L 51.02716981132107 20.407407407407163  L 46.05157232704414 20.407407407407163  L 39.048301886792615 21.438518518518435  L 37.3169811320754 25.777777777778056  L 39.65660377358472 29.460317460317356  L 40.732830188679145 33.81185185185177  L 47.14339622641501 40.814814814815236  L 50.09132075471689 45.497777777777515  L 51.775849056603874 54.60592592592582  L 50.09132075471689 54.60592592592582  L 48.40679245283036 55.35061728395044  L 47.14339622641501 57.785185185185014  L 46.05157232704414 57.785185185185014  L 45.11572327044041 54.60592592592582  L 43.40000000000009 53.34567901234527  L 41.84025157232736 54.06172839506189  L 40.732830188679145 53.34567901234527  L 40.732830188679145 50.911111111111154  L 39.65660377358472 48.190123456790275  C 39.65660377358472 48.190123456790275  39.07004980878628 43.00025851229873  36.6930817610064 42.46172839506164  C 34.00925455334527 41.85367571966492  30.610062893081704 46.75802469135806  30.610062893081704 46.75802469135806  L 29.986163522012703 46.75802469135806  L 28.894339622641382 42.46172839506164  C 28.894339622641382 42.46172839506164  28.426415094339518 41.172839506172636  26.55471698113206 41.459259259259284  C 24.683018867924602 41.74567901234548  24.0591194968556 43.60740740740721  24.0591194968556 43.60740740740721  L 23.4352201257866 46.75802469135806  L 22.18742138364769 48.76296296296266  L 17.50817610062859 48.76296296296266  L 15.636477987421587 50.911111111111154  L 13.920754716981264 52.05866633512255  L 14.54465408805072 53.34567901234527  L 13.920754716981264 53.34567901234527  L 12.984905660377535 52.05866633512255  L 10.489308176100621 52.05866633512255  L 9.241509433962165 54.06172839506189  L 7.681761006289435 54.06172839506189  C 7.681761006289435 54.06172839506189  9.507686070643558 51.19195086445086  8.461635220125572 48.76296296296266  C 7.449977592655159 46.41383802667724  4.094339622641655 45.497777777777515  4.094339622641655 45.497777777777515  L 0.9748427672957405 41.459259259259284  L 0.03899371069155677 37.162962962962865  L 0.03899371069155677 33.81185185185177  Z " fill-rule="nonzero" fill="#169bd5" stroke="none" transform="matrix(1 0 0 1 934 578 )" />
  </g>
</svg>