<?xml version="1.0" encoding="utf-8"?>
<svg version="1.1" xmlns:xlink="http://www.w3.org/1999/xlink" width="72px" height="117px" xmlns="http://www.w3.org/2000/svg">
  <g transform="matrix(1 0 0 1 -934 -468 )">
    <path d="M 21.183471074380122 36.70333333333343  L 23.08760330578525 26.476666666666517  L 29.180826446281117 28.20999999999981  L 33.56033057851255 29.596666666666522  L 38.891900826446545 29.596666666666522  L 40.79603305785122 26.476666666666517  L 43.46181818181822 18.503333333333273  L 43.46181818181822 14.170000000000186  L 49.55504132231408 9.143333333333203  L 58.12363636363625 5.5033333333332735  L 57.36198347107438 2.2099999999999795  L 60.218181818182074 2.2099999999999795  L 64.40727272727281 4.116666666666617  L 65.54975206611562 0.13000000000016598  L 68.78677685950424 0.13000000000016598  L 69.92925619834705 2.903333333333137  L 64.40727272727281 6.8900000000001  L 66.69223140495887 10.356666666666683  L 66.61938809295134 12.439884921388455  L 62.12231404958675 17.810000000000116  L 62.32679467054095 22.990866010707748  L 64.40727272727281 24.223333333333414  L 65.54975206611562 26.476666666666517  L 65.54975206611562 30.46333333333348  L 62.12231404958675 33.063333333333105  C 62.12231404958675 33.063333333333105  60.97983471074349 36.00999999999988  61.17024793388464 40.689999999999884  C 61.36066115702488 45.36999999999995  63.07438016528886 48.66333333333324  63.07438016528886 48.66333333333324  L 64.40727272727281 52.99666666666667  L 61.17024793388464 68.24999999999966  L 60.218181818182074 72.23666666666657  L 61.17024793388464 74.31666666666683  L 64.40727272727281 75.7033333333336  C 64.40727272727281 75.7033333333336  64.02644628099142 79.86333333333329  64.40727272727281 82.29000000000019  C 64.78809917355375 84.7166666666667  70.69090909090937 87.83666666666664  70.69090909090937 87.83666666666664  L 71.64297520661148 93.73000000000013  L 69.92925619834705 94.94333333333361  L 66.69223140495887 93.73000000000013  L 58.1235701929827 93.73000000000013  C 58.1235701929827 93.73000000000013  55.0770027365038 93.73000000000013  53.553719008264125 93.73000000000013  C 53.172892561983645 94.13444444444463  52.79206611570271 94.53888888888906  52.41123966942132 94.94333333333361  C 52.79206611570271 96.0411111111116  52.030413223140386 96.3299999999997  53.553719008264125 97.88999999999987  C 55.07702479338832 99.44999999999982  58.12363636363625 99.7966666666664  58.12363636363625 99.7966666666664  L 61.17024793388464 103.43666666666672  L 55.83867768595064 103.43666666666672  L 52.41123966942132 105.86333333333312  L 54.886611570247624 112.96999999999957  L 55.83867768595064 116.6099999999999  L 53.553719008264125 116.6099999999999  L 51.268760330578516 116.6099999999999  L 43.46181818181822 111.41000000000042  L 37.178181818181656 110.02333333333331  L 31.65619834710742 111.41000000000042  L 29.180826446281117 109.3299999999997  L 25.562975206611554 105.86333333333312  L 23.08760330578525 107.7700000000001  L 21.183471074380122 107.7700000000001  L 19.46975206611569 105.16999999999996  L 17.756033057851255 102.39666666666653  L 6.902479338843023 105.16999999999996  L 2.7133884297518307 101.5300000000002  L 0.4284297520657674 93.73000000000013  L 2.7133884297518307 90.60999999999962  L 6.140826446280698 89.74333333333317  L 12.424462809917259 89.74333333333317  L 11.66280991735539 84.02333333333303  L 9.949090909090955 80.38333333333321  L 9.187438016529086 75.7033333333336  L 14.709421487603322 68.24999999999966  L 16.61355371900845 68.24999999999966  L 24.230082644628055 71.54333333333352  C 24.230082644628055 71.54333333333352  26.134214876033184 71.54333333333352  27.086280991735293 71.54333333333352  C 27.784462809917386 70.6766666666665  29.180826446281117 68.94333333333327  29.180826446281117 68.94333333333327  L 25.562975206611554 67.03666666666675  C 25.562975206611554 67.03666666666675  26.134214876033184 64.78333333333359  30.704132231404856 63.74333333333345  C 35.27404958677653 62.703333333333774  37.178181818181656 63.74333333333345  37.178181818181656 63.74333333333345  L 39.65355371900796 57.50333333333299  L 39.65355371900796 52.99666666666667  L 41.74809917355378 49.87666666666661  L 39.65355371900796 46.41000000000008  L 37.178181818181656 44.67666666666628  L 30.704132231404856 43.29000000000002  L 25.562975206611554 39.64999999999969  L 21.183471074380122 36.70333333333343  Z " fill-rule="nonzero" fill="#623ceb" stroke="none" transform="matrix(1 0 0 1 934 468 )" />
  </g>
</svg>