<?xml version="1.0" encoding="utf-8"?>
<svg version="1.1" xmlns:xlink="http://www.w3.org/1999/xlink" width="174px" height="117px" xmlns="http://www.w3.org/2000/svg">
  <g transform="matrix(1 0 0 1 -725 -466 )">
    <path d="M 26.92512479201332 28.036866359447117  L 18.239600665557646 16.44470046082978  L 17.08153078202986 8.626728110599345  L 21.713810316140098 6.718987420600001  L 26.302325581395053 6.718987420600001  L 30.637873754153137 5.90366972477068  L 34.10631229235878 6.718987420600001  L 38.730897009967066 4.561926605504709  L 43.06644518272424 4.561926605504709  L 46.534883720929884 3.220183486238227  L 50.87043189368751 2.146788990825769  L 55.87687188019936 0  L 62.431893687707536 1.6100917431195967  L 68.21262458471756 1.0733944954133676  L 74.28239202657824 3.220183486238227  L 77.46179401993368 5.3669724770645075  L 82.66445182724237 6.718987420600001  L 89.31229235880437 12.07568807339453  L 93.64784053156153 16.44470046082978  L 97.85690515806982 17.209132519616333  L 101.16279069767462 16.44470046082978  L 102.31893687707635 12.07568807339453  L 102.31893687707635 8.05045871559605  L 103.64725457570695 6.718987420600001  L 110.99003322259159 10.73394495412856  L 114.16943521594658 12.07568807339453  L 118.215946843854 10.73394495412856  L 119.95016611295705 10.73394495412856  L 122.75540765390997 9.677746294681981  L 138.09983361064906 21.512781791007342  L 141.04983388704295 21.512781791007342  L 142.15307820299495 19.360957155312292  L 150.25956738768718 26.354387221322497  L 157.78702163061553 32.00292689002356  L 163.57737104825264 30.389058413251686  L 163.57737104825264 34.080275229357824  L 167.35215946843846 37.56880733944911  L 168.50830564784064 40.252293577981675  L 170.08775172575088 44.96019817189767  L 171.10963455149476 51.221198156681965  L 174 56.621559633027346  L 171.10963455149476 62.793577981651595  L 167.35215946843846 63.866972477064515  L 167.35215946843846 66.81880733944911  L 165.03986710963454 70.03899082568785  L 160.99335548172758 70.03899082568785  L 155.79069767441888 74.86926605504567  L 155.79069767441888 76.21100917431215  L 160.12624584717605 78.8944954128441  L 157.78702163061553 81.84633027522932  L 147.65391014975057 80.95693735209886  L 148.2757475083058 92.31192660550471  L 154.34551495016603 94.72706422018359  L 154.34551495016603 96.6055045871559  C 154.34551495016603 96.6055045871559  150.58803986710973 94.99541284403676  149.431893687708 95.53211009174294  C 148.2757475083058 96.06880733944911  150.25956738768718 103.79032258064478  150.25956738768718 103.79032258064478  L 142.784053156146 103.79032258064478  L 142.15307820299495 107.87614678899104  L 139.89368770764122 104.38761467889924  L 134.98006644518273 103.04587155963327  L 133.24584717607968 99.47695852534537  L 129.70382695507487 101.63364055299553  L 124.2857142857142 95.53211009174294  L 123.4186046511627 93.38532110091762  L 120.52823920265791 92.31192660550471  L 118.79401993355486 89.09174311926597  L 118.79401993355486 86.26728110599072  L 117.05980066445181 82.65137614678912  L 113.30232558139505 82.65137614678912  L 107.23255813953482 81.84633027522932  L 104.92026578073092 80.95693735209886  L 102.31893687707635 83.99311926605509  L 102.31893687707635 87.75  L 103.64725457570695 93.38532110091762  L 101.16279069767462 94.19036697247697  L 101.16279069767462 97.94724770642188  L 98.56146179402003 100.0940366972477  L 96.56622404380096 104.51094984472456  L 97.85690515806982 108.68119266055089  L 95.09302325581393 110.29128440366947  L 94.51495016611307 114.31651376146806  L 91.62458471760783 115.3899082568804  L 89.31229235880437 112.16972477064212  L 86.42192691029868 110.29128440366947  L 84.10963455149476 113.24311926605515  L 82.66445182724237 116.46330275229377  L 80.19633943427652 117  L 76.01661129568083 115.3899082568804  L 75.1495016611293 112.16972477064212  L 72.54817275747519 107.87614678899104  L 70.52491694352193 106.80275229357812  L 63.98336106489205 98.93778801843348  L 57.80730897009926 100.0940366972477  L 45.45424292845246 99.47695852534537  L 35.840531561461376 95.53211009174294  L 30.637873754153137 94.19036697247697  L 23.45091514143087 90.85023041474653  C 23.45091514143087 90.85023041474653  20.000270866385563 84.79816513761489  17.08153078202986 83.99311926605509  C 14.162790697674607 83.18807339449529  13.948749672047597 86.93945015230418  10.983388704319168 86.26728110599072  C 8.360218659609473 85.67267770813811  7.104642666444762 83.97734419311985  5.4916943521593575 81.84633027522932  C 2.465628263943472 77.84831688984548  0 73.32718894009201  0 73.32718894009201  L 1.1580698835273324 70.03899082568785  L 3.757475083056761 62.256880733944904  L 3.757475083056761 58.231651376146885  L 1.1580698835273324 55.27981651376177  L 1.1580698835273324 51.221198156681965  L 3.757475083056761 49.10779816513747  L 4.632279534109784 40.97695852534537  L 9.249169435216118 40.97695852534537  L 13.873754152823949 42.667431192660615  L 20.52159468438549 44.009174311926586  L 23.45091514143087 42.667431192660615  L 23.45091514143087 39.178899082568705  L 21.713810316140098 33.42857142857139  L 26.92512479201332 28.036866359447117  Z " fill-rule="nonzero" fill="#623ceb" stroke="none" transform="matrix(1 0 0 1 725 466 )" />
  </g>
</svg>