<?xml version="1.0" encoding="utf-8"?>
<svg version="1.1" xmlns:xlink="http://www.w3.org/1999/xlink" width="155px" height="131px" xmlns="http://www.w3.org/2000/svg">
  <g transform="matrix(1 0 0 1 -1088 -248 )">
    <path d="M 0.17350746268652983 12.938271604938166  L 1.3302238805974866 4.959670781893152  L 16.598880597015068 0.21563786008246666  L 23.539179104477853 2.3720164609053427  L 36.725746268656394 3.0189300411523163  L 48.98694029850776 15.094650205761496  L 63.79291044776095 32.1300411522634  L 71.19589552238813 46.79341563786042  L 83.688432835821 47.44032921810694  L 97.80037313432831 49.81234567901228  L 101.73320895522397 52.184362139917624  L 105.8973880597016 51.53744855967065  L 106.82276119402991 56.281481481481336  L 109.36753731343241 58.00658436213976  L 111.68097014925343 60.37860082304553  L 110.061567164179 62.319341563786  L 115.84514925373128 67.7102880658436  L 132.2705223880596 64.47693552973004  L 135.27798507462694 61.02551440329205  C 135.27798507462694 61.02551440329205  135.04664179104475 58.22222222222223  135.97201492537306 56.281481481481336  C 136.89738805970137 54.340740740740955  141.29291044776096 53.69382716049353  141.29291044776096 53.69382716049353  C 141.29291044776096 53.69382716049353  142.91231343283584 49.59670781893027  144.53171641791073 48.518518518518846  C 146.15111940298493 47.44032921810694  150.315298507463 46.79341563786042  150.315298507463 46.79341563786042  L 150.315298507463 51.53744855967065  L 151.70335820895525 54.55637860082297  L 153.32276119402945 56.281481481481336  L 153.32276119402945 58.8691358024692  L 151.70335820895525 61.02551440329205  L 152.15538087138702 64.47693552973004  L 154.24813432835822 75.25761316872462  L 154.94216417910434 87.54897119341581  L 154.24813432835822 90.13662551440314  L 152.15538087138702 95.09629629629632  L 149.62126865671644 97.68395061728415  L 144.53171641791073 97.68395061728415  L 142.44988639909207 97.03703703703718  L 139.2108208955226 97.03703703703718  L 134.1212686567169 101.78106995884787  L 131.11380597014931 107.17201646090552  L 133.19589552238813 111.2691358024693  L 137.1287313432831 115.5818930041155  L 139.2108208955226 126.57942386831235  L 137.1287313432831 126.57942386831235  L 131.11380597014931 123.9917695473249  L 131.11380597014931 121.83539094650212  L 131.11380597014931 119.89465020576165  L 127.87499999999977 119.89465020576165  L 126.71828358208927 123.9917695473249  L 126.0242537313436 123.9917695473249  L 122.55410447761187 121.83539094650212  C 122.55410447761187 121.83539094650212  118.85261194029863 123.129218106996  117.46455223880616 125.93251028806583  C 116.07649253731347 128.7358024691356  118.42927235236903 130.2234228848667  118.42927235236903 130.2234228848667  L 115.84514925373128 130.6765432098765  L 110.9869402985073 125.93251028806583  L 106.82276119402991 123.9917695473249  L 106.82276119402991 120.97283950617265  L 105.20335820895502 118.6008230452673  L 103.12126865671667 118.6008230452673  L 101.73320895522397 120.97283950617265  L 101.73320895522397 123.9917695473249  L 101.03917910447787 124.85432098765398  L 99.188432835821 124.85432098765398  L 98.4944029850749 120.97283950617265  L 92.24813432835822 116.66008230452695  L 91.55410447761166 118.6008230452673  L 88.7779850746267 118.6008230452673  L 88.7779850746267 116.66008230452695  L 86.46455223880594 112.99423868312766  L 78.36753731343265 112.99423868312766  L 77.44216417910434 115.5818930041155  C 77.44216417910434 115.5818930041155  76.0541044776121 114.2880658436211  75.36007462686598 113.64115226337462  C 75.36007462686598 113.20987654320965  75.36007462686598 112.34732510288023  75.36007462686598 112.34732510288023  L 72.58395522388037 109.32839506172843  L 68.41977611940297 111.2691358024693  L 66.10634328358196 110.62222222222232  L 63.0988805970153 111.2691358024693  L 58.00932835820868 112.99423868312766  L 56.15858208955206 112.99423868312766  L 51.531716417910275 109.32839506172843  L 49.91231343283539 105.66255144032914  L 47.59888059701507 100.70288065843596  L 41.58395522388037 103.93744855967077  L 39.50186567164178 102.85925925925932  L 38.80783582089566 95.74320987654329  L 35.106343283581964 95.09629629629632  L 35.106343283581964 93.58683127571993  L 29.554104477611872 87.54897119341581  L 32.79291044776119 83.45185185185204  L 35.106343283581964 82.80493827160461  L 36.725746268656394 80.64855967078222  L 39.50186567164178 73.31687242798326  L 42.50932835820868 71.59176954732487  L 46.442164179104566 73.31687242798326  L 48.292910447761194 72.45432098765434  L 49.91231343283539 66.20082304526721  L 48.292910447761194 63.1818930041149  L 48.98694029850776 58.8691358024692  L 51.86469576569107 55.634567901234874  L 52.45708955223905 52.83127572016457  L 50.606343283581964 44.852674897119556  L 51.86469576569107 39.026841193343046  L 50.606343283581964 36.01152263374516  L 51.531716417910275 31.267489711934473  L 46.442164179104566 22.426337448559565  L 42.50932835820868 20.269958847736177  L 38.11380597014954 22.426337448559565  L 36.725746268656394 25.013991769547374  L 32.79291044776119 25.87654320987636  L 27.70335820895502 28.89547325102913  L 25.621268656716666 29.973662551440555  L 21.688432835820777 28.89547325102913  L 16.598880597015068 23.50452674897147  L 16.598880597015068 18.760493827160275  L 17.986940298507307 16.388477366255444  L 11.046641791044976 14.01646090534959  L 8.733208955223745 15.094650205761496  L 7.345149253731506 17.466666666666868  L 2.2555970149253426 17.466666666666868  L 1.3302238805974866 15.094650205761496  L 0.17350746268652983 12.938271604938166  Z " fill-rule="nonzero" fill="#5030a2" stroke="none" transform="matrix(1 0 0 1 1088 248 )" />
  </g>
</svg>