<?xml version="1.0" encoding="utf-8"?>
<svg version="1.1" xmlns:xlink="http://www.w3.org/1999/xlink" width="7px" height="15px" xmlns="http://www.w3.org/2000/svg">
  <g transform="matrix(1 0 0 1 -1640 -357 )">
    <path d="M 6.44551101072841 3.37958388230129  C 6.518915866741963 3.4710785390133196  6.533032185206082 3.5711508197921376  6.487859966120851 3.679800724637687  C 6.437041219649927 3.788450629483236  6.355166572557891 3.842775581906011  6.242236024844743 3.842775581906011  L 4.345002823263712 3.842775581906011  L 4.345002823263712 14.547650417215607  C 4.345002823263712 14.627708241838661  4.319593450028236 14.693470026350468  4.2687747035573125 14.744935770750999  C 4.217955957086417 14.796401515151501  4.153020892151346 14.822134387351781  4.073969508752128 14.822134387351781  L 2.447769621682653 14.822134387351781  C 2.3687182382834635 14.822134387351781  2.3037831733483927 14.796401515151501  2.2529644268774973 14.744935770750999  C 2.202145680406545 14.693470026350468  2.1767363071710975 14.627708241838661  2.1767363071710975 14.547650417215607  L 2.1767363071710975 3.842775581906011  L 0.2795031055900381 3.842775581906011  C 0.1609260304912823 3.842775581906011  0.07905138339924633 3.788450629483236  0.03387916431393023 3.679800724637687  C -0.011293054771300604 3.5711508197921376  0.002823263692846467 3.4710785390133196  0.07622811970639987 3.37958388230129  L 3.0406549971767163 0.08577624066754197  C 3.0971202710333614 0.028592080222495042  3.1620553359683754 0  3.235460191981929 0  C 3.314511575381175 0  3.3822699040090356 0.028592080222495042  3.438735177865624 0.08577624066754197  L 6.44551101072841 3.37958388230129  Z " fill-rule="nonzero" fill="#ff0000" stroke="none" transform="matrix(1 0 0 1 1640 357 )" />
  </g>
</svg>