<?xml version="1.0" encoding="utf-8"?>
<svg version="1.1" xmlns:xlink="http://www.w3.org/1999/xlink" width="39px" height="45px" xmlns="http://www.w3.org/2000/svg">
  <g transform="matrix(1 0 0 1 -890 -361 )">
    <path d="M 14 0.3985882352941417  L 14 16.670588235294076  C 13.637343956043992 17.054305882352935  13.538408241758361 17.43209411764701  13.35068406593416 17.76668235294119  L 0.6928318681317478 40.33148235294112  C 0.08907032967033501 41.40809411764707  0.47043791208784574 42.77185882352933  1.5452010989010887 43.37665882352945  C 1.8792148351648166 43.564705882352825  2.2555087912086265 43.662964705882246  2.638567582417522 43  L 35.33217032967036 43  C 36.56506153846169 43.662964705882246  37.56456593406597 42.66174117647063  37.56456593406597 41.42672941176477  C 37.56456593406597 41.02776470588242  37.45717417582421 40.63472941176457  37.25422912087902 40.290823529411625  L 23.994306593406574 17.781929411764793  C 23.7913615384615 17.438023529411737  23.684815384615494 17.04498823529417  23 16.64517647058824  L 23 0.3985882352941417  " stroke-width="0.396" stroke="#07dbff" fill="none" transform="matrix(1 0 0 1 890 361 )" />
  </g>
</svg>