<?xml version="1.0" encoding="utf-8"?>
<svg version="1.1" xmlns:xlink="http://www.w3.org/1999/xlink" width="16px" height="4px" xmlns="http://www.w3.org/2000/svg">
  <defs>
    <mask fill="white" id="clip382">
      <path d="M 15.281999999999925 1.1228444444444108  C 15.281999999999925 0.6044444444443684  14.750099999999975 0.18417777777767697  14.093999999999937 0.18417777777767697  C 14.093999999999937 0.18417777777767697  1.606499999999869 0.18417777777767697  1.606499999999869 0.18417777777767697  C 0.9503999999998314 0.18417777777767697  0.41849999999988086 0.6044444444443684  0.41849999999988086 1.1228444444444108  C 0.41849999999988086 1.1228444444444108  0.41849999999988086 2.5813333333333617  0.41849999999988086 2.5813333333333617  C 0.41849999999988086 3.0997333333332904  0.9503999999998314 3.519999999999982  1.606499999999869 3.519999999999982  C 1.606499999999869 3.519999999999982  14.093999999999937 3.519999999999982  14.093999999999937 3.519999999999982  C 14.750099999999975 3.519999999999982  15.281999999999925 3.0997333333332904  15.281999999999925 2.5813333333333617  C 15.281999999999925 2.5813333333333617  15.281999999999925 1.1228444444444108  15.281999999999925 1.1228444444444108  Z " fill-rule="evenodd" />
    </mask>
  </defs>
  <g transform="matrix(1 0 0 1 -903 -358 )">
    <path d="M 15.281999999999925 1.1228444444444108  C 15.281999999999925 0.6044444444443684  14.750099999999975 0.18417777777767697  14.093999999999937 0.18417777777767697  C 14.093999999999937 0.18417777777767697  1.606499999999869 0.18417777777767697  1.606499999999869 0.18417777777767697  C 0.9503999999998314 0.18417777777767697  0.41849999999988086 0.6044444444443684  0.41849999999988086 1.1228444444444108  C 0.41849999999988086 1.1228444444444108  0.41849999999988086 2.5813333333333617  0.41849999999988086 2.5813333333333617  C 0.41849999999988086 3.0997333333332904  0.9503999999998314 3.519999999999982  1.606499999999869 3.519999999999982  C 1.606499999999869 3.519999999999982  14.093999999999937 3.519999999999982  14.093999999999937 3.519999999999982  C 14.750099999999975 3.519999999999982  15.281999999999925 3.0997333333332904  15.281999999999925 2.5813333333333617  C 15.281999999999925 2.5813333333333617  15.281999999999925 1.1228444444444108  15.281999999999925 1.1228444444444108  Z " fill-rule="nonzero" fill="#ffffff" stroke="none" fill-opacity="0" transform="matrix(1 0 0 1 903 358 )" />
    <path d="M 15.281999999999925 1.1228444444444108  C 15.281999999999925 0.6044444444443684  14.750099999999975 0.18417777777767697  14.093999999999937 0.18417777777767697  C 14.093999999999937 0.18417777777767697  1.606499999999869 0.18417777777767697  1.606499999999869 0.18417777777767697  C 0.9503999999998314 0.18417777777767697  0.41849999999988086 0.6044444444443684  0.41849999999988086 1.1228444444444108  C 0.41849999999988086 1.1228444444444108  0.41849999999988086 2.5813333333333617  0.41849999999988086 2.5813333333333617  C 0.41849999999988086 3.0997333333332904  0.9503999999998314 3.519999999999982  1.606499999999869 3.519999999999982  C 1.606499999999869 3.519999999999982  14.093999999999937 3.519999999999982  14.093999999999937 3.519999999999982  C 14.750099999999975 3.519999999999982  15.281999999999925 3.0997333333332904  15.281999999999925 2.5813333333333617  C 15.281999999999925 2.5813333333333617  15.281999999999925 1.1228444444444108  15.281999999999925 1.1228444444444108  Z " stroke-width="0.792" stroke="#000000" fill="none" transform="matrix(1 0 0 1 903 358 )" mask="url(#clip382)" />
  </g>
</svg>