<?xml version="1.0" encoding="utf-8"?>
<svg version="1.1" xmlns:xlink="http://www.w3.org/1999/xlink" width="16px" height="4px" xmlns="http://www.w3.org/2000/svg">
  <defs>
    <mask fill="white" id="clip388">
      <path d="M 15.853599999999801 1.1205333333332987  C 15.853599999999801 0.537333333333379  15.32169999999985 0.06453333333325872  14.665600000000154 0.06453333333325872  C 14.665600000000154 0.06453333333325872  2.178099999999972 0.06453333333325872  2.178099999999972 0.06453333333325872  C 1.5219999999998208 0.06453333333325872  0.9901000000000977 0.537333333333379  0.9901000000000977 1.1205333333332987  C 0.9901000000000977 1.1205333333332987  0.9901000000000977 2.7613333333333117  0.9901000000000977 2.7613333333333117  C 0.9901000000000977 3.344533333333345  1.5219999999998208 3.8173333333333517  2.178099999999972 3.8173333333333517  C 2.178099999999972 3.8173333333333517  14.665600000000154 3.8173333333333517  14.665600000000154 3.8173333333333517  C 15.32169999999985 3.8173333333333517  15.853599999999801 3.344533333333345  15.853599999999801 2.7613333333333117  C 15.853599999999801 2.7613333333333117  15.853599999999801 1.1205333333332987  15.853599999999801 1.1205333333332987  Z " fill-rule="evenodd" />
    </mask>
  </defs>
  <g transform="matrix(1 0 0 1 -827 -281 )">
    <path d="M 15.853599999999801 1.1205333333332987  C 15.853599999999801 0.537333333333379  15.32169999999985 0.06453333333325872  14.665600000000154 0.06453333333325872  C 14.665600000000154 0.06453333333325872  2.178099999999972 0.06453333333325872  2.178099999999972 0.06453333333325872  C 1.5219999999998208 0.06453333333325872  0.9901000000000977 0.537333333333379  0.9901000000000977 1.1205333333332987  C 0.9901000000000977 1.1205333333332987  0.9901000000000977 2.7613333333333117  0.9901000000000977 2.7613333333333117  C 0.9901000000000977 3.344533333333345  1.5219999999998208 3.8173333333333517  2.178099999999972 3.8173333333333517  C 2.178099999999972 3.8173333333333517  14.665600000000154 3.8173333333333517  14.665600000000154 3.8173333333333517  C 15.32169999999985 3.8173333333333517  15.853599999999801 3.344533333333345  15.853599999999801 2.7613333333333117  C 15.853599999999801 2.7613333333333117  15.853599999999801 1.1205333333332987  15.853599999999801 1.1205333333332987  Z " fill-rule="nonzero" fill="#ffffff" stroke="none" fill-opacity="0" transform="matrix(1 0 0 1 827 281 )" />
    <path d="M 15.853599999999801 1.1205333333332987  C 15.853599999999801 0.537333333333379  15.32169999999985 0.06453333333325872  14.665600000000154 0.06453333333325872  C 14.665600000000154 0.06453333333325872  2.178099999999972 0.06453333333325872  2.178099999999972 0.06453333333325872  C 1.5219999999998208 0.06453333333325872  0.9901000000000977 0.537333333333379  0.9901000000000977 1.1205333333332987  C 0.9901000000000977 1.1205333333332987  0.9901000000000977 2.7613333333333117  0.9901000000000977 2.7613333333333117  C 0.9901000000000977 3.344533333333345  1.5219999999998208 3.8173333333333517  2.178099999999972 3.8173333333333517  C 2.178099999999972 3.8173333333333517  14.665600000000154 3.8173333333333517  14.665600000000154 3.8173333333333517  C 15.32169999999985 3.8173333333333517  15.853599999999801 3.344533333333345  15.853599999999801 2.7613333333333117  C 15.853599999999801 2.7613333333333117  15.853599999999801 1.1205333333332987  15.853599999999801 1.1205333333332987  Z " stroke-width="0.792" stroke="#000000" fill="none" transform="matrix(1 0 0 1 827 281 )" mask="url(#clip388)" />
  </g>
</svg>