<?xml version="1.0" encoding="utf-8"?>
<svg version="1.1" xmlns:xlink="http://www.w3.org/1999/xlink" width="39px" height="45px" xmlns="http://www.w3.org/2000/svg">
  <g transform="matrix(1 0 0 1 -815 -284 )">
    <path d="M 14 0.07105882352931303  L 14 16.343058823529418  C 13.415428571428492 16.72677647058822  13.316000000000031 17.104564705882296  13.125714285714253 17.439152941176417  L 0.2942857142857065 40.00395294117658  C -0.31771428571437355 41.08056470588235  0.06885714285726863 42.44432941176461  1.158285714285853 43.04912941176474  C 1.4968571428571522 43.23717647058828  1.8791428571428241 43.33543529411776  2.2674285714285816 43  L 35.40628571428579 43  C 36.65599999999995 43.33543529411776  37.669142857142674 42.3342117647058  37.669142857142674 41.099199999999996  C 37.669142857142674 40.70023529411765  37.561142857142954 40.30720000000002  37.35542857142855 39.963294117647195  L 23.914571428571435 17.454399999999964  C 23.70885714285714 17.11049411764708  23.599999999999795 16.71745882352934  23 16.31764705882341  L 23 0.07105882352931303  " stroke-width="0.396" stroke="#000000" fill="none" transform="matrix(1 0 0 1 815 284 )" />
  </g>
</svg>