<?xml version="1.0" encoding="utf-8"?>
<svg version="1.1" xmlns:xlink="http://www.w3.org/1999/xlink" width="35px" height="52px" xmlns="http://www.w3.org/2000/svg">
  <defs>
    <mask fill="white" id="clip389">
      <path d="M 11.690897435897455 0.701422222222277  C 11.690897435897455 0.701422222222277  22.94474358974378 0.701422222222277  22.94474358974378 0.701422222222277  C 22.94474358974378 0.701422222222277  22.94474358974378 17.53208888888895  22.94474358974378 17.53208888888895  C 29.477942307692388 19.697888888888883  34.198589743589764 27.08535555555545  34.198589743589764 34.44942222222227  C 34.198589743589764 43.61095555555562  26.892967948717796 51.03742222222235  17.880512820512877 51.03742222222235  C 8.86805769230773 51.03742222222235  0.4370512820512431 43.61095555555562  0.4370512820512431 34.44942222222227  C 0.4370512820512431 27.08535555555545  5.157698717948733 19.697888888888883  11.691749999999843 17.53208888888895  C 11.691749999999843 17.53208888888895  11.690897435897455 0.701422222222277  11.690897435897455 0.701422222222277  Z " fill-rule="evenodd" />
    </mask>
  </defs>
  <g transform="matrix(1 0 0 1 -758 -322 )">
    <path d="M 11.690897435897455 0.701422222222277  C 11.690897435897455 0.701422222222277  22.94474358974378 0.701422222222277  22.94474358974378 0.701422222222277  C 22.94474358974378 0.701422222222277  22.94474358974378 17.53208888888895  22.94474358974378 17.53208888888895  C 29.477942307692388 19.697888888888883  34.198589743589764 27.08535555555545  34.198589743589764 34.44942222222227  C 34.198589743589764 43.61095555555562  26.892967948717796 51.03742222222235  17.880512820512877 51.03742222222235  C 8.86805769230773 51.03742222222235  0.4370512820512431 43.61095555555562  0.4370512820512431 34.44942222222227  C 0.4370512820512431 27.08535555555545  5.157698717948733 19.697888888888883  11.691749999999843 17.53208888888895  C 11.691749999999843 17.53208888888895  11.690897435897455 0.701422222222277  11.690897435897455 0.701422222222277  Z " fill-rule="nonzero" fill="#07dbff" stroke="none" transform="matrix(1 0 0 1 758 322 )" />
    <path d="M 11.690897435897455 0.701422222222277  C 11.690897435897455 0.701422222222277  22.94474358974378 0.701422222222277  22.94474358974378 0.701422222222277  C 22.94474358974378 0.701422222222277  22.94474358974378 17.53208888888895  22.94474358974378 17.53208888888895  C 29.477942307692388 19.697888888888883  34.198589743589764 27.08535555555545  34.198589743589764 34.44942222222227  C 34.198589743589764 43.61095555555562  26.892967948717796 51.03742222222235  17.880512820512877 51.03742222222235  C 8.86805769230773 51.03742222222235  0.4370512820512431 43.61095555555562  0.4370512820512431 34.44942222222227  C 0.4370512820512431 27.08535555555545  5.157698717948733 19.697888888888883  11.691749999999843 17.53208888888895  C 11.691749999999843 17.53208888888895  11.690897435897455 0.701422222222277  11.690897435897455 0.701422222222277  Z " stroke-width="0.792" stroke="#000000" fill="none" transform="matrix(1 0 0 1 758 322 )" mask="url(#clip389)" />
  </g>
</svg>