<?xml version="1.0" encoding="utf-8"?>
<svg version="1.1" xmlns:xlink="http://www.w3.org/1999/xlink" width="10px" height="4px" xmlns="http://www.w3.org/2000/svg">
  <defs>
    <mask fill="white" id="clip406">
      <path d="M 9.818225000000098 1.1912000000000376  C 9.818225000000098 0.6080000000000041  9.37940750000007 0.13519999999999754  8.838124999999877 0.13519999999999754  C 8.838124999999877 0.13519999999999754  1.0433599999998933 0.13519999999999754  1.0433599999998933 0.13519999999999754  C 0.5020774999999276 0.13519999999999754  0.06326000000012755 0.6080000000000041  0.06326000000012755 1.1912000000000376  C 0.06326000000012755 1.1912000000000376  0.06326000000012755 2.8320000000000505  0.06326000000012755 2.8320000000000505  C 0.06326000000012755 3.4151999999999134  0.5020774999999276 3.8880000000000905  1.0433599999998933 3.8880000000000905  C 1.0433599999998933 3.8880000000000905  8.838124999999877 3.8880000000000905  8.838124999999877 3.8880000000000905  C 9.37940750000007 3.8880000000000905  9.818225000000098 3.4151999999999134  9.818225000000098 2.8320000000000505  C 9.818225000000098 2.8320000000000505  9.818225000000098 1.1912000000000376  9.818225000000098 1.1912000000000376  Z " fill-rule="evenodd" />
    </mask>
  </defs>
  <g transform="matrix(1 0 0 1 -860 -371 )">
    <path d="M 9.818225000000098 1.1912000000000376  C 9.818225000000098 0.6080000000000041  9.37940750000007 0.13519999999999754  8.838124999999877 0.13519999999999754  C 8.838124999999877 0.13519999999999754  1.0433599999998933 0.13519999999999754  1.0433599999998933 0.13519999999999754  C 0.5020774999999276 0.13519999999999754  0.06326000000012755 0.6080000000000041  0.06326000000012755 1.1912000000000376  C 0.06326000000012755 1.1912000000000376  0.06326000000012755 2.8320000000000505  0.06326000000012755 2.8320000000000505  C 0.06326000000012755 3.4151999999999134  0.5020774999999276 3.8880000000000905  1.0433599999998933 3.8880000000000905  C 1.0433599999998933 3.8880000000000905  8.838124999999877 3.8880000000000905  8.838124999999877 3.8880000000000905  C 9.37940750000007 3.8880000000000905  9.818225000000098 3.4151999999999134  9.818225000000098 2.8320000000000505  C 9.818225000000098 2.8320000000000505  9.818225000000098 1.1912000000000376  9.818225000000098 1.1912000000000376  Z " fill-rule="nonzero" fill="#ffffff" stroke="none" fill-opacity="0" transform="matrix(1 0 0 1 860 371 )" />
    <path d="M 9.818225000000098 1.1912000000000376  C 9.818225000000098 0.6080000000000041  9.37940750000007 0.13519999999999754  8.838124999999877 0.13519999999999754  C 8.838124999999877 0.13519999999999754  1.0433599999998933 0.13519999999999754  1.0433599999998933 0.13519999999999754  C 0.5020774999999276 0.13519999999999754  0.06326000000012755 0.6080000000000041  0.06326000000012755 1.1912000000000376  C 0.06326000000012755 1.1912000000000376  0.06326000000012755 2.8320000000000505  0.06326000000012755 2.8320000000000505  C 0.06326000000012755 3.4151999999999134  0.5020774999999276 3.8880000000000905  1.0433599999998933 3.8880000000000905  C 1.0433599999998933 3.8880000000000905  8.838124999999877 3.8880000000000905  8.838124999999877 3.8880000000000905  C 9.37940750000007 3.8880000000000905  9.818225000000098 3.4151999999999134  9.818225000000098 2.8320000000000505  C 9.818225000000098 2.8320000000000505  9.818225000000098 1.1912000000000376  9.818225000000098 1.1912000000000376  Z " stroke-width="0.792" stroke="#000000" fill="none" transform="matrix(1 0 0 1 860 371 )" mask="url(#clip406)" />
  </g>
</svg>