<?xml version="1.0" encoding="utf-8"?>
<svg version="1.1" xmlns:xlink="http://www.w3.org/1999/xlink" width="16px" height="6px" xmlns="http://www.w3.org/2000/svg">
  <defs>
    <mask fill="white" id="clip390">
      <path d="M 15.938461538461638 3.761280000000056  C 15.938461538461638 2.5808400000000233  15.175138461538381 0.19727999999997792  14.232615384615201 0.19727999999997792  C 14.232615384615201 0.19727999999997792  1.7230769230767464 0.19727999999997792  1.7230769230767464 0.19727999999997792  C 0.7814153846153431 0.19727999999997792  0.01723076923087774 2.5808400000000233  0.01723076923087774 3.761280000000056  C 0.01723076923087774 4.942800000000091  0.7814153846153431 5.89968000000016  1.7230769230767464 5.89968000000016  C 1.7230769230767464 5.89968000000016  14.232615384615201 5.89968000000016  14.232615384615201 5.89968000000016  C 15.175138461538381 5.89968000000016  15.938461538461638 4.942800000000091  15.938461538461638 3.761280000000056  Z " fill-rule="evenodd" />
    </mask>
  </defs>
  <g transform="matrix(1 0 0 1 -767 -318 )">
    <path d="M 15.938461538461638 3.761280000000056  C 15.938461538461638 2.5808400000000233  15.175138461538381 0.19727999999997792  14.232615384615201 0.19727999999997792  C 14.232615384615201 0.19727999999997792  1.7230769230767464 0.19727999999997792  1.7230769230767464 0.19727999999997792  C 0.7814153846153431 0.19727999999997792  0.01723076923087774 2.5808400000000233  0.01723076923087774 3.761280000000056  C 0.01723076923087774 4.942800000000091  0.7814153846153431 5.89968000000016  1.7230769230767464 5.89968000000016  C 1.7230769230767464 5.89968000000016  14.232615384615201 5.89968000000016  14.232615384615201 5.89968000000016  C 15.175138461538381 5.89968000000016  15.938461538461638 4.942800000000091  15.938461538461638 3.761280000000056  Z " fill-rule="nonzero" fill="#07dbff" stroke="none" transform="matrix(1 0 0 1 767 318 )" />
    <path d="M 15.938461538461638 3.761280000000056  C 15.938461538461638 2.5808400000000233  15.175138461538381 0.19727999999997792  14.232615384615201 0.19727999999997792  C 14.232615384615201 0.19727999999997792  1.7230769230767464 0.19727999999997792  1.7230769230767464 0.19727999999997792  C 0.7814153846153431 0.19727999999997792  0.01723076923087774 2.5808400000000233  0.01723076923087774 3.761280000000056  C 0.01723076923087774 4.942800000000091  0.7814153846153431 5.89968000000016  1.7230769230767464 5.89968000000016  C 1.7230769230767464 5.89968000000016  14.232615384615201 5.89968000000016  14.232615384615201 5.89968000000016  C 15.175138461538381 5.89968000000016  15.938461538461638 4.942800000000091  15.938461538461638 3.761280000000056  Z " stroke-width="0.792" stroke="#000000" fill="none" transform="matrix(1 0 0 1 767 318 )" mask="url(#clip390)" />
  </g>
</svg>