<?xml version="1.0" encoding="utf-8"?>
<svg version="1.1" xmlns:xlink="http://www.w3.org/1999/xlink" width="11px" height="4px" xmlns="http://www.w3.org/2000/svg">
  <defs>
    <mask fill="white" id="clip408">
      <path d="M 10.51874999999984 1.1912000000000376  C 10.51874999999984 0.6080000000000041  10.06368000000009 0.13519999999999754  9.502349999999865 0.13519999999999754  C 9.502349999999865 0.13519999999999754  1.4188900000001468 0.13519999999999754  1.4188900000001468 0.13519999999999754  C 0.8575599999999213 0.13519999999999754  0.40249000000017077 0.6080000000000041  0.40249000000017077 1.1912000000000376  C 0.40249000000017077 1.1912000000000376  0.40249000000017077 2.8320000000000505  0.40249000000017077 2.8320000000000505  C 0.40249000000017077 3.4151999999999134  0.8575599999999213 3.8880000000000905  1.4188900000001468 3.8880000000000905  C 1.4188900000001468 3.8880000000000905  9.502349999999865 3.8880000000000905  9.502349999999865 3.8880000000000905  C 10.06368000000009 3.8880000000000905  10.51874999999984 3.4151999999999134  10.51874999999984 2.8320000000000505  C 10.51874999999984 2.8320000000000505  10.51874999999984 1.1912000000000376  10.51874999999984 1.1912000000000376  Z " fill-rule="evenodd" />
    </mask>
  </defs>
  <g transform="matrix(1 0 0 1 -848 -371 )">
    <path d="M 10.51874999999984 1.1912000000000376  C 10.51874999999984 0.6080000000000041  10.06368000000009 0.13519999999999754  9.502349999999865 0.13519999999999754  C 9.502349999999865 0.13519999999999754  1.4188900000001468 0.13519999999999754  1.4188900000001468 0.13519999999999754  C 0.8575599999999213 0.13519999999999754  0.40249000000017077 0.6080000000000041  0.40249000000017077 1.1912000000000376  C 0.40249000000017077 1.1912000000000376  0.40249000000017077 2.8320000000000505  0.40249000000017077 2.8320000000000505  C 0.40249000000017077 3.4151999999999134  0.8575599999999213 3.8880000000000905  1.4188900000001468 3.8880000000000905  C 1.4188900000001468 3.8880000000000905  9.502349999999865 3.8880000000000905  9.502349999999865 3.8880000000000905  C 10.06368000000009 3.8880000000000905  10.51874999999984 3.4151999999999134  10.51874999999984 2.8320000000000505  C 10.51874999999984 2.8320000000000505  10.51874999999984 1.1912000000000376  10.51874999999984 1.1912000000000376  Z " fill-rule="nonzero" fill="#ffffff" stroke="none" fill-opacity="0" transform="matrix(1 0 0 1 848 371 )" />
    <path d="M 10.51874999999984 1.1912000000000376  C 10.51874999999984 0.6080000000000041  10.06368000000009 0.13519999999999754  9.502349999999865 0.13519999999999754  C 9.502349999999865 0.13519999999999754  1.4188900000001468 0.13519999999999754  1.4188900000001468 0.13519999999999754  C 0.8575599999999213 0.13519999999999754  0.40249000000017077 0.6080000000000041  0.40249000000017077 1.1912000000000376  C 0.40249000000017077 1.1912000000000376  0.40249000000017077 2.8320000000000505  0.40249000000017077 2.8320000000000505  C 0.40249000000017077 3.4151999999999134  0.8575599999999213 3.8880000000000905  1.4188900000001468 3.8880000000000905  C 1.4188900000001468 3.8880000000000905  9.502349999999865 3.8880000000000905  9.502349999999865 3.8880000000000905  C 10.06368000000009 3.8880000000000905  10.51874999999984 3.4151999999999134  10.51874999999984 2.8320000000000505  C 10.51874999999984 2.8320000000000505  10.51874999999984 1.1912000000000376  10.51874999999984 1.1912000000000376  Z " stroke-width="0.792" stroke="#000000" fill="none" transform="matrix(1 0 0 1 848 371 )" mask="url(#clip408)" />
  </g>
</svg>