<?xml version="1.0" encoding="utf-8"?>
<svg version="1.1" xmlns:xlink="http://www.w3.org/1999/xlink" width="10px" height="34px" xmlns="http://www.w3.org/2000/svg">
  <defs>
    <mask fill="white" id="clip407">
      <path d="M 0.807999999999879 29.686449944258698  C 0.807999999999879 29.686449944258698  0.807999999999879 0.14070011148271533  0.807999999999879 0.14070011148271533  C 0.807999999999879 0.14070011148271533  9.593800000000101 0.14070011148271533  9.593800000000101 0.14070011148271533  C 9.593800000000101 0.14070011148271533  9.593800000000101 29.686449944258698  9.593800000000101 29.686449944258698  C 9.593800000000101 31.700932887402473  7.892799999999966 33.33343322185061  5.794899999999757 33.33343322185061  C 3.6969999999997754 33.33343322185061  0.807999999999879 31.700932887402473  0.807999999999879 29.686449944258698  Z " fill-rule="evenodd" />
    </mask>
  </defs>
  <g transform="matrix(1 0 0 1 -861 -373 )">
    <path d="M 0.807999999999879 29.686449944258698  C 0.807999999999879 29.686449944258698  0.807999999999879 0.14070011148271533  0.807999999999879 0.14070011148271533  C 0.807999999999879 0.14070011148271533  9.593800000000101 0.14070011148271533  9.593800000000101 0.14070011148271533  C 9.593800000000101 0.14070011148271533  9.593800000000101 29.686449944258698  9.593800000000101 29.686449944258698  C 9.593800000000101 31.700932887402473  7.892799999999966 33.33343322185061  5.794899999999757 33.33343322185061  C 3.6969999999997754 33.33343322185061  0.807999999999879 31.700932887402473  0.807999999999879 29.686449944258698  Z " fill-rule="nonzero" fill="#ffffff" stroke="none" fill-opacity="0" transform="matrix(1 0 0 1 861 373 )" />
    <path d="M 0.807999999999879 29.686449944258698  C 0.807999999999879 29.686449944258698  0.807999999999879 0.14070011148271533  0.807999999999879 0.14070011148271533  C 0.807999999999879 0.14070011148271533  9.593800000000101 0.14070011148271533  9.593800000000101 0.14070011148271533  C 9.593800000000101 0.14070011148271533  9.593800000000101 29.686449944258698  9.593800000000101 29.686449944258698  C 9.593800000000101 31.700932887402473  7.892799999999966 33.33343322185061  5.794899999999757 33.33343322185061  C 3.6969999999997754 33.33343322185061  0.807999999999879 31.700932887402473  0.807999999999879 29.686449944258698  Z " stroke-width="0.792" stroke="#000000" fill="none" transform="matrix(1 0 0 1 861 373 )" mask="url(#clip407)" />
  </g>
</svg>