<?xml version="1.0" encoding="utf-8"?>
<svg version="1.1" xmlns:xlink="http://www.w3.org/1999/xlink" width="11px" height="4px" xmlns="http://www.w3.org/2000/svg">
  <defs>
    <mask fill="white" id="clip410">
      <path d="M 10.918600000000083 1.1912000000000376  C 10.918600000000083 0.6080000000000041  10.463530000000105 0.13519999999999754  9.902200000000107 0.13519999999999754  C 9.902200000000107 0.13519999999999754  1.818740000000048 0.13519999999999754  1.818740000000048 0.13519999999999754  C 1.2574100000001636 0.13519999999999754  0.802340000000072 0.6080000000000041  0.802340000000072 1.1912000000000376  C 0.802340000000072 1.1912000000000376  0.802340000000072 2.8320000000000505  0.802340000000072 2.8320000000000505  C 0.802340000000072 3.4151999999999134  1.2574100000001636 3.8880000000000905  1.818740000000048 3.8880000000000905  C 1.818740000000048 3.8880000000000905  9.902200000000107 3.8880000000000905  9.902200000000107 3.8880000000000905  C 10.463530000000105 3.8880000000000905  10.918600000000083 3.4151999999999134  10.918600000000083 2.8320000000000505  C 10.918600000000083 2.8320000000000505  10.918600000000083 1.1912000000000376  10.918600000000083 1.1912000000000376  Z " fill-rule="evenodd" />
    </mask>
  </defs>
  <g transform="matrix(1 0 0 1 -834 -371 )">
    <path d="M 10.918600000000083 1.1912000000000376  C 10.918600000000083 0.6080000000000041  10.463530000000105 0.13519999999999754  9.902200000000107 0.13519999999999754  C 9.902200000000107 0.13519999999999754  1.818740000000048 0.13519999999999754  1.818740000000048 0.13519999999999754  C 1.2574100000001636 0.13519999999999754  0.802340000000072 0.6080000000000041  0.802340000000072 1.1912000000000376  C 0.802340000000072 1.1912000000000376  0.802340000000072 2.8320000000000505  0.802340000000072 2.8320000000000505  C 0.802340000000072 3.4151999999999134  1.2574100000001636 3.8880000000000905  1.818740000000048 3.8880000000000905  C 1.818740000000048 3.8880000000000905  9.902200000000107 3.8880000000000905  9.902200000000107 3.8880000000000905  C 10.463530000000105 3.8880000000000905  10.918600000000083 3.4151999999999134  10.918600000000083 2.8320000000000505  C 10.918600000000083 2.8320000000000505  10.918600000000083 1.1912000000000376  10.918600000000083 1.1912000000000376  Z " fill-rule="nonzero" fill="#ffffff" stroke="none" fill-opacity="0" transform="matrix(1 0 0 1 834 371 )" />
    <path d="M 10.918600000000083 1.1912000000000376  C 10.918600000000083 0.6080000000000041  10.463530000000105 0.13519999999999754  9.902200000000107 0.13519999999999754  C 9.902200000000107 0.13519999999999754  1.818740000000048 0.13519999999999754  1.818740000000048 0.13519999999999754  C 1.2574100000001636 0.13519999999999754  0.802340000000072 0.6080000000000041  0.802340000000072 1.1912000000000376  C 0.802340000000072 1.1912000000000376  0.802340000000072 2.8320000000000505  0.802340000000072 2.8320000000000505  C 0.802340000000072 3.4151999999999134  1.2574100000001636 3.8880000000000905  1.818740000000048 3.8880000000000905  C 1.818740000000048 3.8880000000000905  9.902200000000107 3.8880000000000905  9.902200000000107 3.8880000000000905  C 10.463530000000105 3.8880000000000905  10.918600000000083 3.4151999999999134  10.918600000000083 2.8320000000000505  C 10.918600000000083 2.8320000000000505  10.918600000000083 1.1912000000000376  10.918600000000083 1.1912000000000376  Z " stroke-width="0.792" stroke="#000000" fill="none" transform="matrix(1 0 0 1 834 371 )" mask="url(#clip410)" />
  </g>
</svg>