<?xml version="1.0" encoding="utf-8"?>
<svg version="1.1" xmlns:xlink="http://www.w3.org/1999/xlink" width="9px" height="34px" xmlns="http://www.w3.org/2000/svg">
  <defs>
    <mask fill="white" id="clip409">
      <path d="M 0.021656249999978172 29.686449944258698  C 0.021656249999978172 29.686449944258698  0.021656249999978172 0.14070011148271533  0.021656249999978172 0.14070011148271533  C 0.021656249999978172 0.14070011148271533  8.91727875000015 0.14070011148271533  8.91727875000015 0.14070011148271533  C 8.91727875000015 0.14070011148271533  8.91727875000015 29.686449944258698  8.91727875000015 29.686449944258698  C 8.91727875000015 31.700932887402473  7.195016249999981 33.33343322185061  5.070892500000014 33.33343322185061  C 2.9467687500000466 33.33343322185061  0.021656249999978172 31.700932887402473  0.021656249999978172 29.686449944258698  Z " fill-rule="evenodd" />
    </mask>
  </defs>
  <g transform="matrix(1 0 0 1 -849 -373 )">
    <path d="M 0.021656249999978172 29.686449944258698  C 0.021656249999978172 29.686449944258698  0.021656249999978172 0.14070011148271533  0.021656249999978172 0.14070011148271533  C 0.021656249999978172 0.14070011148271533  8.91727875000015 0.14070011148271533  8.91727875000015 0.14070011148271533  C 8.91727875000015 0.14070011148271533  8.91727875000015 29.686449944258698  8.91727875000015 29.686449944258698  C 8.91727875000015 31.700932887402473  7.195016249999981 33.33343322185061  5.070892500000014 33.33343322185061  C 2.9467687500000466 33.33343322185061  0.021656249999978172 31.700932887402473  0.021656249999978172 29.686449944258698  Z " fill-rule="nonzero" fill="#ffffff" stroke="none" fill-opacity="0" transform="matrix(1 0 0 1 849 373 )" />
    <path d="M 0.021656249999978172 29.686449944258698  C 0.021656249999978172 29.686449944258698  0.021656249999978172 0.14070011148271533  0.021656249999978172 0.14070011148271533  C 0.021656249999978172 0.14070011148271533  8.91727875000015 0.14070011148271533  8.91727875000015 0.14070011148271533  C 8.91727875000015 0.14070011148271533  8.91727875000015 29.686449944258698  8.91727875000015 29.686449944258698  C 8.91727875000015 31.700932887402473  7.195016249999981 33.33343322185061  5.070892500000014 33.33343322185061  C 2.9467687500000466 33.33343322185061  0.021656249999978172 31.700932887402473  0.021656249999978172 29.686449944258698  Z " stroke-width="0.792" stroke="#000000" fill="none" transform="matrix(1 0 0 1 849 373 )" mask="url(#clip409)" />
  </g>
</svg>