<?xml version="1.0" encoding="utf-8"?>
<svg version="1.1" xmlns:xlink="http://www.w3.org/1999/xlink" width="40px" height="46px" xmlns="http://www.w3.org/2000/svg">
  <defs>
    <linearGradient gradientUnits="userSpaceOnUse" x1="-3.3301578561042766" y1="18.88626370578126" x2="43.33015785610427" y2="27.11373629421874" id="LinearGradient417">
      <stop id="Stop418" stop-color="#030e27" offset="0" />
      <stop id="Stop419" stop-color="#030e27" offset="0.1" />
      <stop id="Stop420" stop-color="#0ee4f9" offset="0.17" />
      <stop id="Stop421" stop-color="#0ee4f9" offset="1" />
    </linearGradient>
    <mask fill="white" id="clip422">
      <path d="M 0.1603950617281953 28.516387281399144  C 0.1603950617281953 28.516387281399144  0.1603950617281953 0.14292909379969387  0.1603950617281953 0.14292909379969387  C 0.1603950617281953 0.14292909379969387  39.58439506172817 0.14292909379969387  39.58439506172817 0.14292909379969387  C 39.58439506172817 0.14292909379969387  34.58496395061741 6.782550079491217  34.58496395061741 6.782550079491217  C 34.58496395061741 6.782550079491217  34.58496395061741 28.516387281399144  34.58496395061741 28.516387281399144  C 34.58496395061741 37.76550270270275  26.028827654321162 45.263005405405465  16.825165432098743 45.263005405405465  C 7.621503209876437 45.263005405405465  0.1603950617281953 37.76550270270275  0.1603950617281953 28.516387281399144  Z " fill-rule="evenodd" />
    </mask>
  </defs>
  <g transform="matrix(1 0 0 1 -698 -361 )">
    <path d="M 0.1603950617281953 28.516387281399144  C 0.1603950617281953 28.516387281399144  0.1603950617281953 0.14292909379969387  0.1603950617281953 0.14292909379969387  C 0.1603950617281953 0.14292909379969387  39.58439506172817 0.14292909379969387  39.58439506172817 0.14292909379969387  C 39.58439506172817 0.14292909379969387  34.58496395061741 6.782550079491217  34.58496395061741 6.782550079491217  C 34.58496395061741 6.782550079491217  34.58496395061741 28.516387281399144  34.58496395061741 28.516387281399144  C 34.58496395061741 37.76550270270275  26.028827654321162 45.263005405405465  16.825165432098743 45.263005405405465  C 7.621503209876437 45.263005405405465  0.1603950617281953 37.76550270270275  0.1603950617281953 28.516387281399144  Z " fill-rule="nonzero" fill="#ffffff" stroke="none" fill-opacity="0" transform="matrix(1 0 0 1 698 361 )" />
    <path d="M 0.1603950617281953 28.516387281399144  C 0.1603950617281953 28.516387281399144  0.1603950617281953 0.14292909379969387  0.1603950617281953 0.14292909379969387  C 0.1603950617281953 0.14292909379969387  39.58439506172817 0.14292909379969387  39.58439506172817 0.14292909379969387  C 39.58439506172817 0.14292909379969387  34.58496395061741 6.782550079491217  34.58496395061741 6.782550079491217  C 34.58496395061741 6.782550079491217  34.58496395061741 28.516387281399144  34.58496395061741 28.516387281399144  C 34.58496395061741 37.76550270270275  26.028827654321162 45.263005405405465  16.825165432098743 45.263005405405465  C 7.621503209876437 45.263005405405465  0.1603950617281953 37.76550270270275  0.1603950617281953 28.516387281399144  Z " stroke-width="0.792" stroke="url(#LinearGradient417)" fill="none" transform="matrix(1 0 0 1 698 361 )" mask="url(#clip422)" />
  </g>
</svg>