<?xml version="1.0" encoding="utf-8"?>
<svg version="1.1" xmlns:xlink="http://www.w3.org/1999/xlink" width="10px" height="34px" xmlns="http://www.w3.org/2000/svg">
  <defs>
    <mask fill="white" id="clip411">
      <path d="M 0.45699999999999363 29.686449944258698  C 0.45699999999999363 29.686449944258698  0.45699999999999363 0.14070011148271533  0.45699999999999363 0.14070011148271533  C 0.45699999999999363 0.14070011148271533  9.242799999999875 0.14070011148271533  9.242799999999875 0.14070011148271533  C 9.242799999999875 0.14070011148271533  9.242799999999875 29.686449944258698  9.242799999999875 29.686449944258698  C 9.242799999999875 31.700932887402473  7.54180000000008 33.33343322185061  5.443900000000099 33.33343322185061  C 3.3460000000001173 33.33343322185061  0.45699999999999363 31.700932887402473  0.45699999999999363 29.686449944258698  Z " fill-rule="evenodd" />
    </mask>
  </defs>
  <g transform="matrix(1 0 0 1 -835 -373 )">
    <path d="M 0.45699999999999363 29.686449944258698  C 0.45699999999999363 29.686449944258698  0.45699999999999363 0.14070011148271533  0.45699999999999363 0.14070011148271533  C 0.45699999999999363 0.14070011148271533  9.242799999999875 0.14070011148271533  9.242799999999875 0.14070011148271533  C 9.242799999999875 0.14070011148271533  9.242799999999875 29.686449944258698  9.242799999999875 29.686449944258698  C 9.242799999999875 31.700932887402473  7.54180000000008 33.33343322185061  5.443900000000099 33.33343322185061  C 3.3460000000001173 33.33343322185061  0.45699999999999363 31.700932887402473  0.45699999999999363 29.686449944258698  Z " fill-rule="nonzero" fill="#ffffff" stroke="none" fill-opacity="0" transform="matrix(1 0 0 1 835 373 )" />
    <path d="M 0.45699999999999363 29.686449944258698  C 0.45699999999999363 29.686449944258698  0.45699999999999363 0.14070011148271533  0.45699999999999363 0.14070011148271533  C 0.45699999999999363 0.14070011148271533  9.242799999999875 0.14070011148271533  9.242799999999875 0.14070011148271533  C 9.242799999999875 0.14070011148271533  9.242799999999875 29.686449944258698  9.242799999999875 29.686449944258698  C 9.242799999999875 31.700932887402473  7.54180000000008 33.33343322185061  5.443900000000099 33.33343322185061  C 3.3460000000001173 33.33343322185061  0.45699999999999363 31.700932887402473  0.45699999999999363 29.686449944258698  Z " stroke-width="0.792" stroke="#000000" fill="none" transform="matrix(1 0 0 1 835 373 )" mask="url(#clip411)" />
  </g>
</svg>