<?xml version="1.0" encoding="utf-8"?>
<svg version="1.1" xmlns:xlink="http://www.w3.org/1999/xlink" width="13px" height="21px" xmlns="http://www.w3.org/2000/svg">
  <defs>
    <mask fill="white" id="clip428">
      <path d="M 0.01560000000006312 14.20906323529425  C 0.01560000000006312 17.41094558823528  3.580199999999991 20.0058044117647  6.70799999999997 20.0058044117647  C 9.835800000000063 20.0058044117647  12.370799999999917 17.41094558823528  12.370799999999917 14.20906323529425  C 12.370799999999917 12.07530882352944  10.483200000000124 6.669630882352976  6.70799999999997 0.19415735294120395  C 2.9327999999999292 6.669630882352976  0.01560000000006312 12.07530882352944  0.01560000000006312 14.20906323529425  Z " fill-rule="evenodd" />
    </mask>
  </defs>
  <g transform="matrix(1 0 0 1 -767 -373 )">
    <path d="M 0.01560000000006312 14.20906323529425  C 0.01560000000006312 17.41094558823528  3.580199999999991 20.0058044117647  6.70799999999997 20.0058044117647  C 9.835800000000063 20.0058044117647  12.370799999999917 17.41094558823528  12.370799999999917 14.20906323529425  C 12.370799999999917 12.07530882352944  10.483200000000124 6.669630882352976  6.70799999999997 0.19415735294120395  C 2.9327999999999292 6.669630882352976  0.01560000000006312 12.07530882352944  0.01560000000006312 14.20906323529425  Z " fill-rule="nonzero" fill="#ffffff" stroke="none" fill-opacity="0" transform="matrix(1 0 0 1 767 373 )" />
    <path d="M 0.01560000000006312 14.20906323529425  C 0.01560000000006312 17.41094558823528  3.580199999999991 20.0058044117647  6.70799999999997 20.0058044117647  C 9.835800000000063 20.0058044117647  12.370799999999917 17.41094558823528  12.370799999999917 14.20906323529425  C 12.370799999999917 12.07530882352944  10.483200000000124 6.669630882352976  6.70799999999997 0.19415735294120395  C 2.9327999999999292 6.669630882352976  0.01560000000006312 12.07530882352944  0.01560000000006312 14.20906323529425  Z " stroke-width="0.792" stroke="#ff0000" fill="none" transform="matrix(1 0 0 1 767 373 )" mask="url(#clip428)" />
  </g>
</svg>