<?xml version="1.0" encoding="utf-8"?>
<svg version="1.1" xmlns:xlink="http://www.w3.org/1999/xlink" width="66px" height="32px" xmlns="http://www.w3.org/2000/svg">
  <g transform="matrix(1 0 0 1 -655 -376 )">
    <path d="M 0.6539226279070363 11.619632941176405  L 38.156568488372045 0.08944705882350945  L 65.57035918604652 14.855461176470556  C 65.77127500311622 14.97157892235299  65.90899013881403 15.175447070588234  65.94401524520924 15.408607254117669  C 65.97904035160468 15.641767289411746  65.90750689318611 15.878465849411725  65.74992676744182 16.050830588235215  C 62.885548255814 19.139905882352934  51.625877651162796 30.946254117647015  46.08945230232564 31.781856470588252  C 43.581743162790644 32.02555529411774  33.459817395348864 24.804865882352885  18.34887181395345 21.977722352941157  C 16.681707209302317 21.814663529411803  4.17057530232546 16.177719999999965  0.4530332093023617 12.585385882352966  C 0.30957877315051974 12.446935155294057  0.2470792000557367 12.242097103529431  0.28810813040411176 12.044855221176476  C 0.3291370608977786 11.847613338823521  0.46776515850206124 11.686472235294161  0.6539226279070363 11.619632941176405  Z " fill-rule="nonzero" fill="#4992e8" stroke="none" transform="matrix(1 0 0 1 655 376 )" />
  </g>
</svg>