<?xml version="1.0" encoding="utf-8"?>
<svg version="1.1" xmlns:xlink="http://www.w3.org/1999/xlink" width="50px" height="46px" xmlns="http://www.w3.org/2000/svg">
  <g transform="matrix(1 0 0 1 -1030 -362 )">
    <path d="M 47.44897959183674 9.194010416666664  C 48.2092837134854 9.493489583333336  48.79951980792317 9.922743055555552  49.21968787515006 10.481770833333336  C 50.020008003201276 11.619791666666664  50.200080032012806 12.907552083333336  49.759903961584634 14.345052083333336  L 41.506602641056425 41.477864583333336  C 41.1264505802321 42.755642361111114  40.36114445778311 43.828776041666664  39.21068427370948 44.697265625  C 38.06022408963586 45.565755208333336  36.83473389355743 46  35.53421368547419 46  L 7.8331332533013205 46  C 6.292517006802721 46  4.8069227691076435 45.46592881944445  3.3763505402160865 44.397786458333336  C 1.9457783113245302 43.32964409722222  0.9503801520608245 42.016927083333336  0.39015606242497 40.459635416666664  C -0.09003601440576231 39.12196180555555  -0.11004401760704283 37.854166666666664  0.33013205282112845 36.65625  C 0.33013205282112845 36.576388888888886  0.36014405762304924 36.306857638888886  0.42016806722689076 35.84765625  C 0.4801920768307323 35.38845486111111  0.5202080832332934 35.01909722222222  0.5402160864345739 34.739583333333336  C 0.5602240896358543 34.579861111111114  0.5302120848339336 34.365234375  0.4501800720288115 34.095703125  C 0.3701480592236895 33.826171875  0.34013605442176875 33.63151041666667  0.36014405762304924 33.51171875  C 0.4001600640256103 33.29210069444444  0.4801920768307323 33.08246527777777  0.6002400960384154 32.8828125  C 0.7202881152460985 32.683159722222214  0.8853541416566626 32.44856770833333  1.0954381752701081 32.17903645833333  C 1.3055222088835534 31.90950520833333  1.4705882352941175 31.674913194444443  1.5906362545018007 31.47526041666667  C 2.0508203281312527 30.716579861111104  2.501000400160064 29.80316840277777  2.941176470588235 28.73502604166667  C 3.3813525410164065 27.666883680555557  3.6814725890356144 26.753472222222218  3.8415366146458583 25.99479166666667  C 3.9015606242496994 25.795138888888886  3.9065626250500203 25.495659722222218  3.8565426170468187 25.09635416666667  C 3.806522609043618 24.697048611111114  3.8015206082432975 24.417534722222218  3.8415366146458583 24.2578125  C 3.9015606242496994 24.038194444444443  4.071628651460585 23.758680555555557  4.351740696278512 23.41927083333333  C 4.631852741096439 23.079861111111114  4.8019207683073235 22.850260416666664  4.861944777911164 22.73046875  C 5.282112845138055 22.01171875  5.702280912364946 21.09331597222222  6.122448979591836 19.975260416666664  C 6.5426170468187275 18.857204861111107  6.792717086834735 17.958767361111107  6.872749099639856 17.279947916666664  C 6.892757102841136 17.100260416666664  6.867747098839535 16.78081597222222  6.797719087635054 16.321614583333336  C 6.727691076430572 15.862413194444443  6.732693077230893 15.582899305555552  6.812725090036015 15.483072916666664  C 6.892757102841136 15.223524305555552  7.1128451380552224 14.919053819444438  7.472989195678272 14.569661458333336  C 7.8331332533013205 14.220269097222221  8.053221288515406 13.995659722222221  8.133253301320527 13.895833333333336  C 8.513405362144859 13.376736111111109  8.93857543017207 12.533203125  9.408763505402161 11.365234375  C 9.878951580632252 10.197265625  10.154061624649861 9.233940972222221  10.234093637454981 8.475260416666664  C 10.254101640656263 8.315538194444438  10.224089635854343 8.060980902777773  10.14405762304922 7.711588541666665  C 10.064025610244098 7.362196180555552  10.044017607042818 7.09765625  10.084033613445378 6.91796875  C 10.12404961984794 6.758246527777773  10.214085634253703 6.578559027777773  10.354141656662664 6.37890625  C 10.494197679071629 6.179253472222221  10.674269707883154 5.949652777777773  10.894357743097238 5.690104166666665  C 11.114445778311326 5.430555555555552  11.28451380552221 5.220920138888887  11.404561824729893 5.061197916666665  C 11.564625850340137 4.821614583333335  11.729691876750701 4.517144097222221  11.899759903961584 4.147786458333335  C 12.069827931172469 3.7784288194444384  12.219887955182074 3.429036458333335  12.349939975990395 3.099609375  C 12.47999199679872 2.770182291666665  12.640056022408967 2.410807291666665  12.830132052821128 2.021484375  C 13.020208083233294 1.632161458333335  13.215286114445778 1.3127170138888866  13.415366146458583 1.063151041666665  C 13.615446178471391 0.8135850694444382  13.880552220888356 0.5789930555555516  14.210684273709484 0.359375  C 14.540816326530614 0.1397569444444382  14.900960384153663 0.024956597222221655  15.29111644657863 0.014973958333335036  C 15.681272509003602 0.0049913194444382025  16.156462585034014 0.059895833333335036  16.716686674669866 0.1796875  L 16.686674669867948 0.26953125  C 17.446978791516607 0.08984375  17.95718287314926 0  18.217286914765907 0  L 41.05642256902761 0  C 42.537014805922375 0  43.67747098839536 0.5590277777777732  44.47779111644658 1.677083333333335  C 45.2781112444978 2.7951388888888866  45.45818327330933 4.092881944444438  45.01800720288116 5.5703125  L 36.79471788715486 32.703125  C 36.07442977190876 35.07899305555555  35.35914365746299 36.611328125  34.64885954381753 37.300130208333336  C 33.93857543017207 37.988932291666664  32.6530612244898 38.333333333333336  30.792316926770706 38  L 4.711884753901561 38  C 4.171668667466987 38.333333333333336  3.791516606642657 38.483072916666664  3.571428571428571 38.782552083333336  C 3.3513405362144857 39.10199652777778  3.3413365346138457 39.53125  3.5414165666266504 40.0703125  C 4.021608643457383 41.46788194444445  5.46218487394958 42.166666666666664  7.86314525810324 42  L 35.56422569027611 42  C 36.144457783113246 42.166666666666664  36.7046818727491 42.011935763888886  37.244897959183675 41.702473958333336  C 37.78511404561824 41.39301215277778  38.13525410164066 40.978732638888886  38.2953181272509 40.459635416666664  L 47.29891956782713 10.901041666666664  C 47.4389755902361 10.461805555555552  47.4889955982393 9.892795138888886  47.44897959183674 9.194010416666664  Z M 17.917166866746697 8.625  L 17.286914765906364 10.541666666666664  C 17.20688275310124 10.801215277777773  17.22689075630252 11.025824652777773  17.346938775510203 11.215494791666664  C 17.466986794717887 11.405164930555552  17.667066826730697 11.5  17.94717887154862 12  L 36.19447779111645 12  C 36.4545818327331 11.5  36.70968387354942 11.405164930555552  36.959783913565424 11.215494791666664  C 37.20988395358143 11.025824652777773  37.374949979992 10.801215277777773  37.45498199279712 10.541666666666664  L 38.08523409363745 8.625  C 38.16526610644258 8.365451388888886  38.1452581032413 8.140842013888886  38.02521008403361 7.951171875  C 37.90516206482593 7.761501736111108  37.70508203281313 7.666666666666665  37.4249699879952 8  L 19.177671068427372 8  C 18.917567026810726 7.666666666666665  18.662464985994397 7.761501736111108  18.41236494597839 7.951171875  C 18.162264905962385 8.140842013888886  17.997198879551824 8.365451388888886  17.917166866746697 8.625  Z M 15.426170468187275 16.291666666666664  L 14.795918367346939 18.208333333333336  C 14.71588635454182 18.467881944444443  14.7358943577431 18.692491319444443  14.855942376950782 18.882161458333336  C 14.975990396158464 19.07183159722222  15.176070428171268 19.166666666666664  15.456182472989196 20  L 33.70348139255702 20  C 33.96358543417367 19.166666666666664  34.21868747499 19.07183159722222  34.468787515006 18.882161458333336  C 34.718887555022015 18.692491319444443  34.88395358143258 18.467881944444443  34.9639855942377 18.208333333333336  L 35.59423769507803 16.291666666666664  C 35.674269707883155 16.03211805555555  35.65426170468187 15.807508680555552  35.53421368547419 15.617838541666664  C 35.414165666266506 15.428168402777779  35.214085634253706 15.333333333333336  34.93397358943577 16  L 16.686674669867948 16  C 16.4265706282513 15.333333333333336  16.171468587434976 15.428168402777779  15.921368547418968 15.617838541666664  C 15.671268507402964 15.807508680555552  15.506202480992398 16.03211805555555  15.426170468187275 16.291666666666664  Z " fill-rule="nonzero" fill="#07dbff" stroke="none" transform="matrix(1 0 0 1 1030 362 )" />
  </g>
</svg>