<?xml version="1.0" encoding="utf-8"?>
<svg version="1.1" xmlns:xlink="http://www.w3.org/1999/xlink" width="198px" height="125px" xmlns="http://www.w3.org/2000/svg">
  <defs>
    <mask fill="white" id="clip462">
      <path d="M 197.5527151518222 7.002053362134461  C 197.5527151518222 7.002053362134461  72.51750620226105 0  72.51750620226105 0  C 72.51750620226105 0  0.3500517678852333 101.53396810214133  0.3500517678852617 101.53396810214139  C 21.41275107342871 116.4762430394141  46.642332189801834 124.50786783956698  72.51749999999998 124.50786783956698  C 138.40008474919628 124.50786783956698  193.8180983273702 72.39679748775171  197.5527151518222 7.002053362134461  Z " fill-rule="evenodd" />
    </mask>
  </defs>
  <g transform="matrix(1 0 0 1 -76 -298 )">
    <path d="M 197.5527151518222 7.002053362134461  C 197.5527151518222 7.002053362134461  72.51750620226105 0  72.51750620226105 0  C 72.51750620226105 0  0.3500517678852333 101.53396810214133  0.3500517678852617 101.53396810214139  C 21.41275107342871 116.4762430394141  46.642332189801834 124.50786783956698  72.51749999999998 124.50786783956698  C 138.40008474919628 124.50786783956698  193.8180983273702 72.39679748775171  197.5527151518222 7.002053362134461  Z " fill-rule="nonzero" fill="#55e6ff" stroke="none" transform="matrix(1 0 0 1 76 298 )" />
    <path d="M 197.5527151518222 7.002053362134461  C 197.5527151518222 7.002053362134461  72.51750620226105 0  72.51750620226105 0  C 72.51750620226105 0  0.3500517678852333 101.53396810214133  0.3500517678852617 101.53396810214139  C 21.41275107342871 116.4762430394141  46.642332189801834 124.50786783956698  72.51749999999998 124.50786783956698  C 138.40008474919628 124.50786783956698  193.8180983273702 72.39679748775171  197.5527151518222 7.002053362134461  Z " stroke-width="2" stroke="#55e6ff" fill="none" transform="matrix(1 0 0 1 76 298 )" mask="url(#clip462)" />
  </g>
</svg>