<?xml version="1.0" encoding="utf-8"?>
<svg version="1.1" xmlns:xlink="http://www.w3.org/1999/xlink" width="126px" height="177px" xmlns="http://www.w3.org/2000/svg">
  <defs>
    <mask fill="white" id="clip463">
      <path d="M 52.51993783738588 176.16791369689543  C 52.51993783738588 176.16791369689543  125.26171516212952 74.16201622403838  125.26171516212952 74.16201622403838  C 125.26171516212952 74.16201622403838  24.727552907977255 0.6755955280956982  24.727552907977255 0.6755955280957266  C 9.142975494480908 21.978932521365294  0.7382874269531428 47.72504805734196  0.7382874269531428 74.1620111731844  C 0.7382874269531428 114.26051893188112  20.02622008963705 152.8767782181949  52.51993783738588 176.16791369689543  Z " fill-rule="evenodd" />
    </mask>
  </defs>
  <g transform="matrix(1 0 0 1 -24 -223 )">
    <path d="M 52.51993783738588 176.16791369689543  C 52.51993783738588 176.16791369689543  125.26171516212952 74.16201622403838  125.26171516212952 74.16201622403838  C 125.26171516212952 74.16201622403838  24.727552907977255 0.6755955280956982  24.727552907977255 0.6755955280957266  C 9.142975494480908 21.978932521365294  0.7382874269531428 47.72504805734196  0.7382874269531428 74.1620111731844  C 0.7382874269531428 114.26051893188112  20.02622008963705 152.8767782181949  52.51993783738588 176.16791369689543  Z " fill-rule="nonzero" fill="#fea213" stroke="none" transform="matrix(1 0 0 1 24 223 )" />
    <path d="M 52.51993783738588 176.16791369689543  C 52.51993783738588 176.16791369689543  125.26171516212952 74.16201622403838  125.26171516212952 74.16201622403838  C 125.26171516212952 74.16201622403838  24.727552907977255 0.6755955280956982  24.727552907977255 0.6755955280957266  C 9.142975494480908 21.978932521365294  0.7382874269531428 47.72504805734196  0.7382874269531428 74.1620111731844  C 0.7382874269531428 114.26051893188112  20.02622008963705 152.8767782181949  52.51993783738588 176.16791369689543  Z " stroke-width="2" stroke="#fea213" fill="none" transform="matrix(1 0 0 1 24 223 )" mask="url(#clip463)" />
  </g>
</svg>