<?xml version="1.0" encoding="utf-8"?>
<svg version="1.1" xmlns:xlink="http://www.w3.org/1999/xlink" width="125px" height="38px" xmlns="http://www.w3.org/2000/svg">
  <defs>
    <mask fill="white" id="clip461">
      <path d="M 121.51991193640106 0.4705366055616196  C 121.51991193640106 0.4705366055616196  0.2460690066061488 29.999998573526796  0.2460690066061488 29.999998573526796  C 0.2460690066061488 29.999998573526796  124.55531212898887 37.11408621592864  124.55531212898887 37.11408621592864  C 125.22409293568795 25.1465925371387  124.20190888787232 12.143474164736972  121.51991193640106 0.4705366055616196  Z " fill-rule="evenodd" />
    </mask>
  </defs>
  <g transform="matrix(1 0 0 1 -149 -269 )">
    <path d="M 121.51991193640106 0.4705366055616196  C 121.51991193640106 0.4705366055616196  0.2460690066061488 29.999998573526796  0.2460690066061488 29.999998573526796  C 0.2460690066061488 29.999998573526796  124.55531212898887 37.11408621592864  124.55531212898887 37.11408621592864  C 125.22409293568795 25.1465925371387  124.20190888787232 12.143474164736972  121.51991193640106 0.4705366055616196  Z " fill-rule="nonzero" fill="#6bc393" stroke="none" transform="matrix(1 0 0 1 149 269 )" />
    <path d="M 121.51991193640106 0.4705366055616196  C 121.51991193640106 0.4705366055616196  0.2460690066061488 29.999998573526796  0.2460690066061488 29.999998573526796  C 0.2460690066061488 29.999998573526796  124.55531212898887 37.11408621592864  124.55531212898887 37.11408621592864  C 125.22409293568795 25.1465925371387  124.20190888787232 12.143474164736972  121.51991193640106 0.4705366055616196  Z " stroke-width="2" stroke="#6bc393" fill="none" transform="matrix(1 0 0 1 149 269 )" mask="url(#clip461)" />
  </g>
</svg>