<?xml version="1.0" encoding="utf-8"?>
<svg version="1.1" xmlns:xlink="http://www.w3.org/1999/xlink" width="123px" height="125px" xmlns="http://www.w3.org/2000/svg">
  <defs>
    <mask fill="white" id="clip460">
      <path d="M 0.2479838709677438 0.4921321604330728  C 0.2479838709677438 0.4921321604330728  0.2479838709677438 124.9999938238189  0.2479838709677438 124.9999938238189  C 0.2479838709677438 124.9999938238189  122.46855124893688 96.919819493663  122.46855124893688 96.91981949366306  C 109.3175694540248 41.02015298654507  58.0986384704091 0.4921321604331012  0.2479838709677438 0.4921321604330728  Z " fill-rule="evenodd" />
    </mask>
  </defs>
  <g transform="matrix(1 0 0 1 -149 -173 )">
    <path d="M 0.2479838709677438 0.4921321604330728  C 0.2479838709677438 0.4921321604330728  0.2479838709677438 124.9999938238189  0.2479838709677438 124.9999938238189  C 0.2479838709677438 124.9999938238189  122.46855124893688 96.919819493663  122.46855124893688 96.91981949366306  C 109.3175694540248 41.02015298654507  58.0986384704091 0.4921321604331012  0.2479838709677438 0.4921321604330728  Z " fill-rule="nonzero" fill="#0000ff" stroke="none" transform="matrix(1 0 0 1 149 173 )" />
    <path d="M 0.2479838709677438 0.4921321604330728  C 0.2479838709677438 0.4921321604330728  0.2479838709677438 124.9999938238189  0.2479838709677438 124.9999938238189  C 0.2479838709677438 124.9999938238189  122.46855124893688 96.919819493663  122.46855124893688 96.91981949366306  C 109.3175694540248 41.02015298654507  58.0986384704091 0.4921321604331012  0.2479838709677438 0.4921321604330728  Z " stroke-width="2" stroke="#5050ff" fill="none" transform="matrix(1 0 0 1 149 173 )" mask="url(#clip460)" />
  </g>
</svg>