<?xml version="1.0" encoding="utf-8"?>
<svg version="1.1" xmlns:xlink="http://www.w3.org/1999/xlink" width="102px" height="125px" xmlns="http://www.w3.org/2000/svg">
  <defs>
    <mask fill="white" id="clip464">
      <path d="M 0.11888817741955648 50.869320251841316  C 0.11888817741955648 50.869320251841316  101.25727654599268 124.9999963426784  101.25727654599268 124.9999963426784  C 101.25727654599268 124.9999963426784  101.25728155339803 0.4921321604330728  101.25728155339806 0.4921321604330728  C 61.71175614123038 0.4921321604331012  23.53638529464294 19.197227003772838  0.11888817741955648 50.869320251841316  Z " fill-rule="evenodd" />
    </mask>
  </defs>
  <g transform="matrix(1 0 0 1 -49 -173 )">
    <path d="M 0.11888817741955648 50.869320251841316  C 0.11888817741955648 50.869320251841316  101.25727654599268 124.9999963426784  101.25727654599268 124.9999963426784  C 101.25727654599268 124.9999963426784  101.25728155339803 0.4921321604330728  101.25728155339806 0.4921321604330728  C 61.71175614123038 0.4921321604331012  23.53638529464294 19.197227003772838  0.11888817741955648 50.869320251841316  Z " fill-rule="nonzero" fill="#ff5050" stroke="none" fill-opacity="0.8470588235294118" transform="matrix(1 0 0 1 49 173 )" />
    <path d="M 0.11888817741955648 50.869320251841316  C 0.11888817741955648 50.869320251841316  101.25727654599268 124.9999963426784  101.25727654599268 124.9999963426784  C 101.25727654599268 124.9999963426784  101.25728155339803 0.4921321604330728  101.25728155339806 0.4921321604330728  C 61.71175614123038 0.4921321604331012  23.53638529464294 19.197227003772838  0.11888817741955648 50.869320251841316  Z " stroke-width="2" stroke="#ff5050" fill="none" transform="matrix(1 0 0 1 49 173 )" mask="url(#clip464)" />
  </g>
</svg>