<?xml version="1.0" encoding="utf-8"?>
<svg version="1.1" xmlns:xlink="http://www.w3.org/1999/xlink" width="120px" height="58px" xmlns="http://www.w3.org/2000/svg">
  <defs>
    <mask fill="white" id="clip465">
      <path d="M 12.799999999999997 9  L 0.33333333333325754 9  L 0.33333333333325754 57.666666666666515  L 119.66666666666674 57.666666666666515  L 119.66666666666674 38.333333333333485  L 119.66666666666674 34  L 119.66666666666674 27  L 119.66666666666674 9  L 26.400000000000006 9  L 19.599999999999994 0.8000000000000114  L 12.799999999999997 9  Z " fill-rule="evenodd" />
    </mask>
  </defs>
  <g transform="matrix(1 0 0 1 -53 -670 )">
    <path d="M 12.799999999999997 9  L 0.33333333333325754 9  L 0.33333333333325754 57.666666666666515  L 119.66666666666674 57.666666666666515  L 119.66666666666674 38.333333333333485  L 119.66666666666674 34  L 119.66666666666674 27  L 119.66666666666674 9  L 26.400000000000006 9  L 19.599999999999994 0.8000000000000114  L 12.799999999999997 9  Z " fill-rule="nonzero" fill="#fea213" stroke="none" transform="matrix(1 0 0 1 53 670 )" />
    <path d="M 12.799999999999997 9  L 0.33333333333325754 9  L 0.33333333333325754 57.666666666666515  L 119.66666666666674 57.666666666666515  L 119.66666666666674 38.333333333333485  L 119.66666666666674 34  L 119.66666666666674 27  L 119.66666666666674 9  L 26.400000000000006 9  L 19.599999999999994 0.8000000000000114  L 12.799999999999997 9  Z " stroke-width="2" stroke="#fea213" fill="none" transform="matrix(1 0 0 1 53 670 )" mask="url(#clip465)" />
  </g>
</svg>