<?xml version="1.0" encoding="utf-8"?>
<svg version="1.1" xmlns:xlink="http://www.w3.org/1999/xlink" width="125px" height="50px" xmlns="http://www.w3.org/2000/svg">
  <defs>
    <mask fill="white" id="clip466">
      <path d="M 119 0.3333333333334849  L 0.33333333333325754 0.3333333333334849  L 0.33333333333325754 49.666666666666515  L 119 49.666666666666515  L 119 30.333333333333485  L 124.33333333333326 26.333333333333485  L 119 19  L 119 0.3333333333334849  Z " fill-rule="evenodd" />
    </mask>
  </defs>
  <g transform="matrix(1 0 0 1 -220 -569 )">
    <path d="M 119 0.3333333333334849  L 0.33333333333325754 0.3333333333334849  L 0.33333333333325754 49.666666666666515  L 119 49.666666666666515  L 119 30.333333333333485  L 124.33333333333326 26.333333333333485  L 119 19  L 119 0.3333333333334849  Z " fill-rule="nonzero" fill="#fea213" stroke="none" transform="matrix(1 0 0 1 220 569 )" />
    <path d="M 119 0.3333333333334849  L 0.33333333333325754 0.3333333333334849  L 0.33333333333325754 49.666666666666515  L 119 49.666666666666515  L 119 30.333333333333485  L 124.33333333333326 26.333333333333485  L 119 19  L 119 0.3333333333334849  Z " stroke-width="2" stroke="#fea213" fill="none" transform="matrix(1 0 0 1 220 569 )" mask="url(#clip466)" />
  </g>
</svg>