<?xml version="1.0" encoding="UTF-8"?>
<svg width="343px" height="639px" viewBox="0 0 343 639" version="1.1" xmlns="http://www.w3.org/2000/svg" xmlns:xlink="http://www.w3.org/1999/xlink">
    <!-- Generator: Sketch 60.1 (88133) - https://sketch.com -->
    <title>女人站姿演讲</title>
    <desc>Created with Sketch.</desc>
    <defs>
        <path d="M11.12,6.7 C10.82,10.04 0.74,30.56 0.74,30.56 L0.74,30.56 C0.74,30.56 4.26,31.98 8.84,31.42 L8.84,31.42 C12.56,30.96 18.55,31 23.73,29.919 L23.73,29.919 C26.684,29.307 31.105,30.733 36.046,32.16 L36.046,32.16 C43.369,34.271 51.836,36.383 58.38,31.87 L58.38,31.87 C61.02,30.05 66.36,31.76 66.73,29.81 L66.73,29.81 C68.761,19.04 53.81,3.01 53.81,3.01 L53.81,3.01 L15.859,0.64 C15.859,0.64 11.42,3.36 11.12,6.7 L11.12,6.7 Z" id="path-1"></path>
        <path d="M0.83,4.47 C3.6,5.75 6.02,19.61 0.66,20.819 L0.66,20.819 C-2.387,21.51 25.367,22.226 29.155,22.32 L29.155,22.32 C27.155,21.38 24.973,8.447 28.91,2.54 L28.91,2.54 C29.662,1.412 28.162,0.993 25.522,0.993 L25.522,0.993 C17.914,0.993 0.83,4.47 0.83,4.47 L0.83,4.47 Z M29.58,22.331 C29.58,22.331 29.431,22.327 29.155,22.32 L29.155,22.32 C29.298,22.388 29.441,22.393 29.58,22.331 L29.58,22.331 Z" id="path-3"></path>
        <path d="M0.441,0.956 C2.654,3.451 4.249,13.263 1.023,16.12 L1.023,16.12 C1.06,16.37 1.08,16.51 1.08,16.51 L1.08,16.51 C1.08,16.51 10.55,12.55 22.23,8.95 L22.23,8.95 C23.505,8.557 24.677,8.113 25.721,7.647 L25.721,7.647 C25.741,5.669 25.959,3.665 26.454,1.876 L26.454,1.876 C24.408,1.502 22.45,1.27 22.45,1.27 L22.45,1.27 L2.77,1.06 C2.77,1.06 2.047,0.88 1.25,0.88 L1.25,0.88 C0.98,0.88 0.702,0.901 0.441,0.956 L0.441,0.956 Z" id="path-5"></path>
        <path d="M15.15,11.64 C12.63,13.11 4.04,24.88 4.04,24.88 L4.04,24.88 C4.04,24.88 0.77,37.59 0.41,39.83 L0.41,39.83 C0.06,42.069 1.08,56.72 1.08,56.72 L1.08,56.72 C1.08,56.72 5.18,65.67 10.37,75.44 L10.37,75.44 C14.5,83.22 27.09,87.26 29.63,87.2104585 L29.63,87.2104585 C39.091,87 47.3,77.41 49.1,74.83 L49.1,74.83 C52.439,70.049 55.23,64.56 55.23,64.56 L55.23,64.56 C55.23,64.56 58.119,63.79 60.42,60.55 L60.42,60.55 C62.73,57.3 67.84,47.95 64.19,45.31 L64.19,45.31 C60.53,42.66 51.03,24.03 51.03,24.03 L51.03,24.03 L32.87,0.96 C32.87,0.96 17.67,10.17 15.15,11.64 L15.15,11.64 Z" id="path-7"></path>
        <path d="M23.52,1.37 C23.52,1.37 15.951,6.16 12.97,8.75 L12.97,8.75 C9.99,11.34 2.6,24.56 1.57,28.449 L1.57,28.449 C1.132,30.103 0.752,38.061 0.46,46.664 L0.46,46.664 C2.086,50.09 4.998,56.093 8.37,62.44 L8.37,62.44 C9.903,65.327 12.6,67.698 15.516,69.538 L15.516,69.538 C13.701,67.08 12.4,64.157 11.66,60.83 L11.66,60.83 C11.19,58.73 12.44,54.66 12.1,52.65 L12.1,52.65 C11.25,47.69 10.12,44.96 9.399,40.61 L9.399,40.61 C8.34,34.27 19.201,22.3 28.78,14.18 L28.78,14.18 C37.561,6.75 33.15,6.46 33.18,2.24 L33.18,2.24 C33.192,0.609 31.752,0.109 29.981,0.109 L29.981,0.109 C27.168,0.109 23.52,1.37 23.52,1.37 L23.52,1.37 Z" id="path-9"></path>
        <path d="M0.2,4.69 C0.2,4.69 17.45,2.51 23.43,13.25 L23.43,13.25 C29.419,24 30.12,35.44 37.48,38.47 L37.48,38.47 C39.92,39.48 39.83,33.57 41.92,33.139 L41.92,33.139 C43.046,32.91 44.642,32.487 46.708,34.406 L46.708,34.406 C40.296,26.041 21.81,1.27 21.81,1.27 L21.81,1.27 L7.58,0.469 L0.2,4.69 Z M48.73,36.89 C48.012,35.795 47.338,34.991 46.708,34.406 L46.708,34.406 C48.366,36.569 49.217,37.636 48.73,36.89 L48.73,36.89 Z" id="path-11"></path>
        <path d="M0.08,2.49 C0.08,3.82 0.93,4.91 1.98,4.91 L1.98,4.91 C3.03,4.91 3.88,3.82 3.88,2.49 L3.88,2.49 C3.88,1.159 3.03,0.069 1.98,0.069 L1.98,0.069 C0.93,0.069 0.08,1.159 0.08,2.49 L0.08,2.49 Z" id="path-13"></path>
        <path d="M0.98,3.139 C0.98,4.47 1.84,5.55 2.88,5.55 L2.88,5.55 C3.93,5.55 4.79,4.47 4.79,3.139 L4.79,3.139 C4.79,1.8 3.93,0.719 2.88,0.719 L2.88,0.719 C1.84,0.719 0.98,1.8 0.98,3.139 L0.98,3.139 Z" id="path-15"></path>
        <path d="M1.3,5.21 C4.09,9.25 6.91,10.77 11.649,9.38 L11.649,9.38 C17.29,7.73 19.42,1.03 17.23,0.98 L17.23,0.98 L1.17,0.43 C0.36,0.54 0.19,3.6 1.3,5.21 L1.3,5.21 Z" id="path-17"></path>
        <path d="M54.9,0.489 C25.93,0.27 13.971,23.76 13.24,49.69 L13.24,49.69 C13.12,54.08 12.74,62.74 5.74,68.799 L5.74,68.799 C-2.75,76.15 2.58,87.85 2.919,89.09 L2.919,89.09 C5.45,98.38 18.669,104.25 28.79,100.219 L28.79,100.219 C32.84,98.61 33.96,100.87 35.75,95.85 L35.75,95.85 C37.53,90.831 36.741,90.6 35.42,85.32 L35.42,85.32 C34.28,80.77 39.48,77.35 35.52,70.72 L35.52,70.72 C31.21,63.5 31.98,54.43 41.73,46.62 L41.73,46.62 C51.37,38.91 60.98,28.5 60.98,28.5 L60.98,28.5 C65.17,28.46 65.32,33.81 68.701,42.29 L68.701,42.29 C71.4,49.09 75.801,55.6 76.3,56.71 L76.3,56.71 C76.72,57.639 76.95,58.78 77.5,58.68 L77.5,58.68 C78.89,58.42 80.169,54.26 82.119,53.7 L82.119,53.7 C87.051,52.27 87.81,55.21 87.66,61.47 L87.66,61.47 C87.56,65.41 84.01,68.31 81.15,68.05 L81.15,68.05 C76.14,67.6 77.999,70.77 75.57,79.53 L75.57,79.53 C73.06,88.57 68.83,84.59 73.03,94.59 L73.03,94.59 C77.55,105.33 89.03,103.71 96.681,91.71 L96.681,91.71 C101.16,84.68 104.48,74.78 99.551,66.14 L99.551,66.14 C97.12,61.87 96.07,56.26 94.19,53.74 L94.19,53.74 C92.32,51.21 90.62,47.549 91.31,42.75 L91.31,42.75 C92,37.95 92.22,28.48 86.71,18.75 L86.71,18.75 C77.01,1.63 68.33,6.78 65.88,4.41 L65.88,4.41 C62.216,0.874 57.807,0.445 55.881,0.445 L55.881,0.445 C55.263,0.445 54.9,0.489 54.9,0.489 L54.9,0.489 Z" id="path-19"></path>
        <path d="M53.9,0.5 C24.93,0.28 12.971,23.77 12.24,49.7 L12.24,49.7 C12.12,54.09 11.74,62.75 4.74,68.81 L4.74,68.81 C1.762,71.389 0.484,74.503 0.095,77.512 L0.095,77.512 C1.651,75.516 4.365,73.632 8.61,71.89 L8.61,71.89 C19.82,67.29 18.79,39.05 25.26,22.14 L25.26,22.14 C29.3,11.576 34.652,12.384 41.955,13.191 L41.955,13.191 C46.149,13.656 50.987,14.119 56.59,12.43 L56.59,12.43 C71.95,7.8 65.09,5 65.09,5 L65.09,5 C65.138,4.893 65.181,4.787 65.221,4.681 L65.221,4.681 C65.097,4.605 64.982,4.52 64.88,4.42 L64.88,4.42 C61.217,0.885 56.81,0.456 54.883,0.456 L54.883,0.456 C54.264,0.456 53.9,0.5 53.9,0.5 L53.9,0.5 Z" id="path-21"></path>
        <path d="M0.197,26.513 C0.302,26.517 0.404,26.525 0.504,26.535 L0.504,26.535 C1.409,22.269 3.954,10.654 6.396,3.081 L6.396,3.081 C5.761,2.963 5.25,2.777 4.88,2.42 L4.88,2.42 C4.157,1.722 3.406,1.146 2.65,0.67 L2.65,0.67 C0.818,8.931 0.32,21.93 0.197,26.513 L0.197,26.513 Z" id="path-23"></path>
        <path d="M3.24,0.15 L3.40910181,0.155156706 C4.92026913,0.24755102 6.13,1.57 6.13,3.19 L6.13,3.19 L6.12506783,3.36886138 C6.03670408,4.96696939 4.77225,6.239 3.24,6.239 L3.24,6.239 L3.06976494,6.23381337 C1.54880102,6.14088648 0.34,4.81096429 0.34,3.19 C0.34,1.51 1.64,0.15 3.24,0.15" id="path-25"></path>
        <radialGradient cx="0.00151813471%" cy="49.9244917%" fx="0.00151813471%" fy="49.9244917%" r="99.9533679%" gradientTransform="translate(0.000015,0.499245),scale(1.000000,0.950895),translate(-0.000015,-0.499245)" id="radialGradient-27">
            <stop stop-color="#FFFFFF" offset="0%"></stop>
            <stop stop-color="#FDECED" offset="100%"></stop>
        </radialGradient>
        <path d="M0.32,9.851 L4.67,58.94 C4.67,58.94 5.83,111.3 8.649,130 L8.649,130 C9.29,134.25 9.69,138.069 9.91,141.59 L9.91,141.59 C10.81,156.309 11.15,164.989 8.281,181.27 L8.281,181.27 C6.61,190.72 3.411,203.91 3.411,203.91 L3.411,203.91 C3.411,203.91 5.37,215.07 10.701,217.3 L10.701,217.3 C16.03,219.52 18.811,218.69 23.33,215.179 L23.33,215.179 C27.85,211.67 32.61,209.75 32.59,201.75 L32.59,201.75 C32.56,193.74 31.68,193.56 31.68,193.56 L31.68,193.56 L32.17,185.7 C33.41,181.14 33.84,177.26 33.08,174.38 L33.08,174.38 L30.21,165.059 L31.09,137.13 C31.09,137.13 37.071,100.021 34.24,75.63 L34.24,75.63 C32.47,60.451 38.12,20.08 39.87,5.87 L39.87,5.87 C40.365,1.876 37.46,0.439 33.028,0.439 L33.028,0.439 C21.681,0.439 0.32,9.851 0.32,9.851 L0.32,9.851 Z" id="path-28"></path>
        <path d="M0.32,2.851 L4.67,51.94 C4.67,51.94 5.83,104.3 8.649,123 L8.649,123 C9.29,127.25 9.69,131.069 9.91,134.59 L9.91,134.59 C10.81,149.309 11.15,157.989 8.281,174.27 L8.281,174.27 C7.206,180.35 5.498,187.98 4.417,192.647 L4.417,192.647 C5.365,192.896 6.283,191.801 7.15,189.02 L7.15,189.02 C9.73,180.75 13.43,147.36 13.33,143.95 L13.33,143.95 C13.141,137.739 12.96,130.21 11.63,117.319 L11.63,117.319 C9.59,97.37 10.87,91.31 9.43,75.31 L9.43,75.31 C7.98,59.31 10.81,49.78 13.11,32.56 L13.11,32.56 C15.399,15.34 38.91,5.29 38.91,5.29 L38.91,5.29 C38.91,5.29 16.544,2.492 5.331,0.783 L5.331,0.783 C2.282,1.987 0.32,2.851 0.32,2.851 L0.32,2.851 Z" id="path-30"></path>
        <path d="M2.656,4.175 C1.452,9.617 0.411,13.91 0.411,13.91 L0.411,13.91 C0.411,13.91 2.37,25.07 7.701,27.3 L7.701,27.3 C13.03,29.52 15.811,28.69 20.33,25.179 L20.33,25.179 C24.85,21.67 29.61,19.75 29.5900628,11.75 L29.5900628,11.75 C29.56,3.74 28.68,3.56 28.68,3.56 L28.68,3.56 L28.756,2.344 C23.554,0.857 19.248,0.288 15.698,0.288 L15.698,0.288 C8.831,0.288 4.805,2.421 2.656,4.175 L2.656,4.175 Z" id="path-32"></path>
        <path d="M0.827,4.734 C0.668,5.572 0.501,6.425 0.328,7.285 L0.328,7.285 C8.898,2.475 17.236,1.484 25.087,8.034 L25.087,8.034 L25.17,6.7 C25.273,6.324 25.369,5.953 25.46,5.587 L25.46,5.587 L25.46,5.29 C21.333,2.287 17.175,0.845 12.987,0.845 L12.987,0.845 C8.961,0.845 4.908,2.176 0.827,4.734 L0.827,4.734 Z" id="path-34"></path>
        <path d="M8.85,17.49 C8.1,22.479 8.48,29.309 8.27,33.45 L8.27,33.45 C8.06,37.59 10.06,41.979 2.84,47.04 L2.84,47.04 C1.773,47.787 1.188,48.324 0.965,48.697 L0.965,48.697 C5.285,45.478 9.609,43.375 9.59,35.75 L9.59,35.75 C9.56,27.74 8.68,27.56 8.68,27.56 L8.68,27.56 L9.17,19.7 C10.41,15.14 10.84,11.26 10.08,8.38 L10.08,8.38 L7.531,0.103 C7.56,0.277 9.595,12.536 8.85,17.49 L8.85,17.49 Z" id="path-36"></path>
        <path d="M0.69,6.319 C2.44,20.54 8.09,60.9 6.33,76.09 L6.33,76.09 C3.49,100.47 9.47,137.58 9.47,137.58 L9.47,137.58 L10.36,165.52 L7.48,174.83 C6.72,177.72 7.15,181.59 8.39,186.149 L8.39,186.149 L8.88,194.021 C8.88,194.021 7.999,194.201 7.98,202.2 L7.98,202.2 C7.95,210.21 12.711,212.13 17.23,215.639 L17.23,215.639 C21.749,219.15 24.529,219.979 29.86,217.75 L29.86,217.75 C35.2,215.531 37.16,204.361 37.16,204.361 L37.16,204.361 C37.16,204.361 33.95,191.179 32.29,181.719 L32.29,181.719 C29.419,165.45 29.749,156.77 30.659,142.04 L30.659,142.04 C30.87,138.52 31.27,134.71 31.91,130.45 L31.91,130.45 C34.74,111.75 35.89,59.4 35.89,59.4 L35.89,59.4 L40.24,10.3 C40.24,10.3 18.881,0.893 7.535,0.893 L7.535,0.893 C3.105,0.893 0.199,2.329 0.69,6.319 L0.69,6.319 Z" id="path-38"></path>
        <path d="M0.66,4.75 C0.66,4.75 24.169,14.8 26.461,32.021 L26.461,32.021 C28.749,49.24 31.58,58.771 30.14,74.771 L30.14,74.771 C28.69,90.771 29.98,96.819 27.93,116.78 L27.93,116.78 C26.61,129.659 26.43,137.2 26.239,143.409 L26.239,143.409 C26.13,146.819 29.84,180.21 32.42,188.479 L32.42,188.479 C33.286,191.258 34.205,192.351 35.152,192.104 L35.152,192.104 C34.068,187.438 32.359,179.808 31.29,173.719 L31.29,173.719 C28.419,157.45 28.749,148.77 29.659,134.04 L29.659,134.04 C29.87,130.52 30.27,126.71 30.91,122.45 L30.91,122.45 C33.74,103.75 34.89,51.4 34.89,51.4 L34.89,51.4 L39.24,2.3 C39.24,2.3 37.288,1.441 34.25,0.241 L34.25,0.241 C23.042,1.951 0.66,4.75 0.66,4.75 L0.66,4.75 Z" id="path-40"></path>
        <path d="M1.805,2.805 L1.88,4.021 C1.88,4.021 0.999,4.201 0.979858956,12.2 L0.979858956,12.2 C0.95,20.21 5.711,22.13 10.23,25.639 L10.23,25.639 C14.749,29.15 17.529,29.979 22.86,27.75 L22.86,27.75 C28.2,25.531 30.16,14.361 30.16,14.361 L30.16,14.361 C30.16,14.361 29.117,10.077 27.912,4.64 L27.912,4.64 C25.767,2.885 21.742,0.747 14.869,0.746 L14.869,0.746 C11.319,0.746 7.01,1.316 1.805,2.805 L1.805,2.805 Z" id="path-42"></path>
        <path d="M0.1,4.75 L0.101,5.04 C0.192,5.405 0.288,5.775 0.39,6.149 L0.39,6.149 L0.473,7.5 C8.33,0.932 16.665,1.924 25.241,6.749 L25.241,6.749 C25.069,5.889 24.902,5.037 24.744,4.2 L24.744,4.2 C20.667,1.636 16.613,0.302 12.587,0.301 L12.587,0.301 C8.396,0.301 4.234,1.745 0.1,4.75 L0.1,4.75 Z" id="path-44"></path>
        <path d="M3.037,0.564 L0.48,8.83 C-0.28,11.72 0.15,15.59 1.39,20.149 L1.39,20.149 L1.88,28.021 C1.88,28.021 0.999,28.201 0.98,36.2 L0.98,36.2 C0.951,43.85 5.292,45.944 9.619,49.175 L9.619,49.175 C9.409,48.801 8.821,48.254 7.73,47.489 L7.73,47.489 C0.5,42.43 2.51,38.05 2.291,33.909 L2.291,33.909 C2.079,29.77 2.461,22.94 1.71,17.951 L1.71,17.951 C0.96,12.96 3.04,0.56 3.04,0.56 L3.04,0.56 L3.037,0.564 Z" id="path-46"></path>
        <path d="M44.75,42.09 C35.77,34.93 18.4,19.32 13.1,11.97 L13.1,11.97 C9.96,14.25 3.67,18.28 0.44,17.109 L0.44,17.109 C2.33,21.46 24.7,65.49 55.92,63.92 L55.92,63.92 C64.11,63.51 67.69,53.61 76.43,40.28 L76.43,40.28 C77.42,21.66 77.4,8.53 76.37,0.91 L76.37,0.91 C68.73,8.08 58.19,21.799 44.75,42.09 L44.75,42.09 Z" id="path-48"></path>
        <path d="M30.68,7.35 C18.29,4.87 10.66,3.55 7.79,3.4 L7.79,3.4 C3.49,3.17 5.57,5.99 5.54,6.6 L5.54,6.6 C-0.36,6.29 1.64,9.02 1.8,9.54 L1.8,9.54 C-0.569,11.9 1.44,12.94 3.34,13.6 L3.34,13.6 C1.93,14.359 3.04,16.28 4.57,16.36 L4.57,16.36 C14,16.39 24.22,19.33 35.23,25.17 L35.23,25.17 C43.451,23.05 47.85,20.89 48.42,18.68 L48.42,18.68 C44.99,7.52 32.63,5.22 28.55,0.64 L28.55,0.64 C25.31,1.13 26.02,3.371 30.68,7.35 L30.68,7.35 Z" id="path-50"></path>
        <path d="M37.83,6.38 C31.57,14.75 28.01,29.2 23.75,40.03 L23.75,40.03 C17.54,55.79 -1.24,79.93 1.03,81.25 L1.03,81.25 C9.911,86.39 10.16,91.89 10.9,99.84 L10.9,99.84 C11.65,107.79 15.1,107.44 23.42,94.9 L23.42,94.9 C37.33,73.949 37.21,68.7 43.22,62.27 L43.22,62.27 C49.07,56.02 46.35,57.59 50.571,58.639 L50.571,58.639 C65.52,62.39 47.511,24.3 47.511,24.3 L47.511,24.3 L52.17,0.76 C49.19,1.1 41.12,1.98 37.83,6.38 L37.83,6.38 Z" id="path-52"></path>
        <path d="M0.919,39.82 C9.669,53.15 13.249,63.05 21.44,63.46 L21.44,63.46 C52.659,65.02 75.03,20.99 76.92,16.64 L76.92,16.64 C73.69,17.81 67.4,13.78 64.26,11.5 L64.26,11.5 C58.96,18.85 41.59,34.47 32.61,41.63 L32.61,41.63 C19.169,21.34 8.62,7.61 0.99,0.44 L0.99,0.44 C-0.039,8.07 -0.06,21.19 0.919,39.82 L0.919,39.82 Z" id="path-54"></path>
        <path d="M0.94,18.21 C1.51,20.43 5.91,22.59 14.131,24.71 L14.131,24.71 C25.14,18.86 35.36,15.93 44.791,15.9 L44.791,15.9 C46.32,15.819 47.431,13.89 46.02,13.14 L46.02,13.14 C47.919,12.47 49.93,11.44 47.56,9.069 L47.56,9.069 C47.72,8.56 49.72,5.819 43.82,6.14 L43.82,6.14 C43.79,5.53 45.87,2.71 41.57,2.94 L41.57,2.94 C38.7,3.09 31.069,4.41 18.68,6.89 L18.68,6.89 C23.34,2.9 24.05,0.67 20.81,0.18 L20.81,0.18 C16.73,4.76 4.369,7.06 0.94,18.21 L0.94,18.21 Z" id="path-56"></path>
        <path d="M9.85,23.84 C9.85,23.84 -8.16,61.92 6.791,58.18 L6.791,58.18 C11.01,57.12 8.29,55.56 14.14,61.811 L14.14,61.811 C20.15,68.24 19.82,76.43 33.73,97.38 L33.73,97.38 C42.05,109.92 45.71,107.33 46.46,99.38 L46.46,99.38 C47.2,91.43 47.45,85.92 56.329,80.78 L56.329,80.78 C58.6,79.469 39.82,55.32 33.61,39.57 L33.61,39.57 C29.35,28.73 25.791,14.291 19.53,5.92 L19.53,5.92 C16.24,1.52 8.169,0.639 5.19,0.3 L5.19,0.3 L9.85,23.84 Z" id="path-58"></path>
        <path d="M29.4,0.46 C29.4,0.46 28.27,2.71 28.46,7.069 L28.46,7.069 C28.7,12.64 9.321,15.32 3.79,19.03 L3.79,19.03 C-2.69,23.38 1.53,26.94 1.221,34.73 L1.221,34.73 C1.1,37.77 9.62,76.59 10.79,79.95 L10.79,79.95 C14.84,91.65 19.66,102.52 20.73,107.13 L20.73,107.13 C22.46,114.54 19.12,125.68 21.35,126.23 L21.35,126.23 C58.58,135.49 93.77,134.23 95.25,124.81 L95.25,124.81 C95.25,124.81 96.33,118.57 95.6,106.13 L95.6,106.13 C94.59,88.67 105.791,48.929 105.98,41.88 L105.98,41.88 C106.41,25.37 109.97,16.4 100.53,14.82 L100.53,14.82 C91.1,13.23 85.7,11.31 78.3,8.83 L78.3,8.83 C70.45,6.21 71.03,8.19 68.58,5.68 L68.58,5.68 C66.19,3.23 65.53,0.44 65.53,0.44 L65.53,0.44 C53.88,2.61 43.431,3.659 31.81,0.18 L31.81,0.18 L29.4,0.46 Z" id="path-60"></path>
        <path d="M87.74,6.12 C65.281,7.597 31.294,5.487 31.954,1.67 L31.954,1.67 C30.647,5.843 7.095,81.311 6.22,104.81 L6.22,104.81 C5.32,128.979 -1.32,198.46 0.47,207.409 L0.47,207.409 C2.26,216.37 138.59,215.1 138.59,215.1 L138.59,215.1 C157.94,223.99 116.06,2.45 107.05,0.82 L107.05,0.82 C107.05,0.82 98.69,5.389 87.74,6.12 L87.74,6.12 Z M31.954,1.67 C31.992,1.55 32.011,1.49 32.011,1.49 L32.011,1.49 C31.983,1.55 31.965,1.61 31.954,1.67 L31.954,1.67 Z" id="path-62"></path>
        <path d="M31.954,0.67 C31.992,0.55 32.011,0.49 32.011,0.49 L32.011,0.49 C31.984,0.55 31.965,0.61 31.954,0.67 L31.954,0.67 Z M6.22,103.81 C5.32,127.979 -1.32,197.46 0.47,206.409 L0.47,206.409 C0.585,206.98 1.246,207.51 2.384,208.001 L2.384,208.001 C2.526,207.479 2.636,207.033 2.71,206.68 L2.71,206.68 C4.6,197.739 3.12,160.92 9.41,112.281 L9.41,112.281 C15.69,63.64 30.78,39.34 35.811,30.02 L35.811,30.02 C40.85,20.69 42.07,16.909 66.31,11.86 L66.31,11.86 C76.736,9.683 85.997,6.902 93.166,4.439 L93.166,4.439 C91.455,4.752 89.637,4.993 87.74,5.12 L87.74,5.12 C65.281,6.597 31.294,4.487 31.954,0.67 L31.954,0.67 C30.647,4.843 7.095,80.311 6.22,103.81 L6.22,103.81 Z" id="path-64"></path>
        <polygon id="path-66" points="0.677 0.327 18.871 0.327 18.871 27.83 0.677 27.83"></polygon>
    </defs>
    <g id="页面-1" stroke="none" stroke-width="1" fill="none" fill-rule="evenodd">
        <g id="女人站姿演讲">
            <g id="编组" transform="translate(132.000000, 72.409000)">
                <mask id="mask-2" fill="white">
                    <use xlink:href="#path-1"></use>
                </mask>
                <g id="Clip-2"></g>
                <polygon id="Fill-1" fill="#4F3B3B" mask="url(#mask-2)" points="-4.26 39.544 71.919 39.544 71.919 -4.36 -4.26 -4.36"></polygon>
            </g>
            <g id="编组" transform="translate(151.000000, 83.409000)">
                <mask id="mask-4" fill="white">
                    <use xlink:href="#path-3"></use>
                </mask>
                <g id="Clip-4"></g>
                <polygon id="Fill-3" fill="#FAE1DB" mask="url(#mask-4)" points="-4.573 27.374 34.58 27.374 34.58 -4.007 -4.573 -4.007"></polygon>
            </g>
            <g id="编组" transform="translate(152.000000, 87.409000)">
                <mask id="mask-6" fill="white">
                    <use xlink:href="#path-5"></use>
                </mask>
                <g id="Clip-6"></g>
                <polygon id="Fill-5" fill="#F8CFC6" mask="url(#mask-6)" points="-5.827 21.51 36.048 21.51 36.048 -4.12 -5.827 -4.12"></polygon>
            </g>
            <g id="编组" transform="translate(137.000000, 10.409000)">
                <mask id="mask-8" fill="white">
                    <use xlink:href="#path-7"></use>
                </mask>
                <g id="Clip-8"></g>
                <polygon id="Fill-7" fill="#FAE1DB" mask="url(#mask-8)" points="-4.663 92.211 70.466 92.211 70.466 -4.04 -4.663 -4.04"></polygon>
            </g>
            <g id="编组" transform="translate(139.000000, 23.409000)">
                <mask id="mask-10" fill="white">
                    <use xlink:href="#path-9"></use>
                </mask>
                <g id="Clip-10"></g>
                <polygon id="Fill-9" fill="#F8CFC6" mask="url(#mask-10)" points="-5.17 81.999 39.261 81.999 39.261 -4.891 -5.17 -4.891"></polygon>
            </g>
            <g id="编组" transform="translate(153.000000, 22.409000)">
                <mask id="mask-12" fill="white">
                    <use xlink:href="#path-11"></use>
                </mask>
                <g id="Clip-12"></g>
                <polygon id="Fill-11" fill="#F8CFC6" mask="url(#mask-12)" points="-4.8 43.586 53.866 43.586 53.866 -4.53 -4.8 -4.53"></polygon>
            </g>
            <g id="编组" transform="translate(151.000000, 61.409000)">
                <mask id="mask-14" fill="white">
                    <use xlink:href="#path-13"></use>
                </mask>
                <g id="Clip-14"></g>
                <polygon id="Fill-13" fill="#461C1D" mask="url(#mask-14)" points="-4.92 9.91 8.88 9.91 8.88 -4.93 -4.92 -4.93"></polygon>
            </g>
            <g id="编组" transform="translate(175.000000, 60.409000)">
                <mask id="mask-16" fill="white">
                    <use xlink:href="#path-15"></use>
                </mask>
                <g id="Clip-16"></g>
                <polygon id="Fill-15" fill="#461C1D" mask="url(#mask-16)" points="-4.02 10.55 9.79 10.55 9.79 -4.28 -4.02 -4.28"></polygon>
            </g>
            <g id="编组" transform="translate(148.000000, 51.409000)" fill="#5A4646">
                <path d="M38.6199,2.7044 C38.4289,2.7044 38.2689,2.5804 38.2149,2.4084 C38.0219,2.3034 37.1339,2.0294 33.2559,2.1964 L33.0299,2.2044 L31.4699,2.2044 C30.9859,2.2044 28.9059,2.4804 28.7289,2.5194 L28.6199,2.1094 L28.2279,1.9444 C28.4299,1.4634 31.4399,1.3554 31.4699,1.3554 L33.2189,1.3474 C37.5779,1.1604 38.5079,1.5004 38.8399,1.8174 C39.0089,1.9804 39.0449,2.1584 39.0449,2.2794 C39.0449,2.5144 38.8539,2.7044 38.6199,2.7044 L38.6199,2.7044 Z" id="Fill-17"></path>
                <path d="M8.1606,2.6851 C7.9866,2.6851 7.7066,2.5761 7.1716,2.3661 C6.6506,2.1631 5.9806,1.9001 5.5736,1.7631 C4.6596,1.4621 3.8036,1.5241 2.8966,1.5901 C2.2316,1.6391 1.5446,1.6881 0.8136,1.5921 C0.5816,1.5611 0.4176,1.3471 0.4486,1.1141 C0.4796,0.8811 0.7066,0.7201 0.9256,0.7491 C1.5686,0.8341 2.1826,0.7901 2.8356,0.7421 C3.7876,0.6731 4.7656,0.6021 5.8426,0.9561 C6.2626,1.0991 6.9486,1.3661 7.4806,1.5741 C7.7836,1.6931 8.0336,1.7911 8.1436,1.8301 C8.2066,1.8401 8.2676,1.8641 8.3236,1.9021 C8.4996,2.0261 8.5596,2.2661 8.4586,2.4561 C8.3756,2.6101 8.3046,2.6851 8.1606,2.6851" id="Fill-19"></path>
            </g>
            <g id="编组" transform="translate(157.000000, 77.409000)">
                <mask id="mask-18" fill="white">
                    <use xlink:href="#path-17"></use>
                </mask>
                <g id="Clip-22"></g>
                <polygon id="Fill-21" fill="#CB7778" mask="url(#mask-18)" points="-4.485 14.883 23.076 14.883 23.076 -4.57 -4.485 -4.57"></polygon>
            </g>
            <g id="编组" transform="translate(165.000000, 57.409000)">
                <path d="M1.5698,16.0752 C1.5148,16.0752 1.4608,16.0552 1.4178,16.0152 C1.2918,15.9002 1.1368,15.8062 0.9728,15.7082 C0.6978,15.5412 0.3848,15.3532 0.1778,15.0182 C-0.1552,14.4842 0.0588,13.7342 0.2478,13.0722 C0.3398,12.7512 0.4248,12.4482 0.4348,12.2212 C0.5078,10.5482 0.5068,8.8492 0.5058,7.2072 L0.5058,6.6602 C0.5058,6.4542 0.5358,6.1842 0.5688,5.8992 C0.6168,5.4762 0.6768,4.9502 0.6118,4.7082 C0.5808,4.5882 0.6518,4.4642 0.7718,4.4322 C0.8968,4.3992 1.0148,4.4722 1.0478,4.5922 C1.1328,4.9162 1.0738,5.4422 1.0148,5.9502 C0.9848,6.2222 0.9548,6.4802 0.9548,6.6602 L0.9558,7.2072 C0.9558,8.8542 0.9568,10.5572 0.8838,12.2402 C0.8728,12.5192 0.7798,12.8482 0.6798,13.1962 C0.5168,13.7672 0.3328,14.4152 0.5608,14.7812 C0.7108,15.0242 0.9508,15.1692 1.2058,15.3232 C1.3818,15.4292 1.5628,15.5382 1.7218,15.6842 C1.8138,15.7682 1.8198,15.9102 1.7358,16.0022 C1.6908,16.0512 1.6308,16.0752 1.5698,16.0752" id="Fill-23" fill="#835349"></path>
                <path d="M28.23,8.6797 C28.419,8.9597 28.13,8.0097 28.13,7.6697 C28.13,6.9897 28.15,6.3197 28.23,5.6397 C28.41,4.0997 29.669,0.4097 31.77,0.4097" id="Stroke-25" stroke="#F8CFC6" stroke-width="0.65" stroke-linecap="round" stroke-linejoin="round"></path>
                <path d="M28.77,5.4399 C28.31,5.2999 29.259,4.3599 29.38,4.2399 C29.94,3.6499 30.54,3.3099 31.339,3.1699 C31.47,3.1499 32.669,2.9899 32.78,2.7999" id="Stroke-27" stroke="#F8CFC6" stroke-width="0.65" stroke-linecap="round" stroke-linejoin="round"></path>
            </g>
            <g id="编组" transform="translate(112.000000, 1.409000)">
                <mask id="mask-20" fill="white">
                    <use xlink:href="#path-19"></use>
                </mask>
                <g id="Clip-30"></g>
                <polygon id="Fill-29" fill="#5A4646" mask="url(#mask-20)" points="-4.043 106.761 106.999 106.761 106.999 -4.554 -4.043 -4.554"></polygon>
            </g>
            <g id="编组" transform="translate(113.000000, 0.409000)">
                <mask id="mask-22" fill="white">
                    <use xlink:href="#path-21"></use>
                </mask>
                <g id="Clip-32"></g>
                <polygon id="Fill-31" fill="#443131" mask="url(#mask-22)" points="-21.106 126.629 71.617 126.629 71.617 -8.653 -21.106 -8.653"></polygon>
            </g>
            <g id="编组" transform="translate(173.000000, 2.409000)">
                <mask id="mask-24" fill="white">
                    <use xlink:href="#path-23"></use>
                </mask>
                <g id="Clip-34"></g>
                <polygon id="Fill-33" fill="#443131" mask="url(#mask-24)" points="-4.84 33.18 14.701 33.18 14.701 -11.409 -4.84 -11.409"></polygon>
            </g>
            <g id="编组" transform="translate(191.000000, 65.409000)">
                <mask id="mask-26" fill="white">
                    <use xlink:href="#path-25"></use>
                </mask>
                <g id="Clip-36"></g>
                <path d="M0.34,3.19 C0.34,4.871 1.64,6.239 3.24,6.239 L3.24,6.239 C4.829,6.239 6.13,4.871 6.13,3.19 L6.13,3.19 C6.13,1.51 4.829,0.15 3.24,0.15 L3.24,0.15 C1.64,0.15 0.34,1.51 0.34,3.19" id="Fill-35" fill="url(#radialGradient-27)" mask="url(#mask-26)"></path>
            </g>
            <g id="编组" transform="translate(133.000000, 420.409000)">
                <mask id="mask-29" fill="white">
                    <use xlink:href="#path-28"></use>
                </mask>
                <g id="Clip-38"></g>
                <polygon id="Fill-37" fill="#FAE1DB" mask="url(#mask-29)" points="-4.68 223.53 44.925 223.53 44.925 -4.562 -4.68 -4.562"></polygon>
            </g>
            <g id="编组" transform="translate(133.000000, 427.409000)">
                <mask id="mask-31" fill="white">
                    <use xlink:href="#path-30"></use>
                </mask>
                <g id="Clip-40"></g>
                <polygon id="Fill-39" fill="#F6D8D2" mask="url(#mask-31)" points="-19.755 197.68 43.91 197.68 43.91 -5.091 -19.755 -5.091"></polygon>
            </g>
            <g id="编组" transform="translate(136.000000, 610.409000)">
                <mask id="mask-33" fill="white">
                    <use xlink:href="#path-32"></use>
                </mask>
                <g id="Clip-42"></g>
                <polygon id="Fill-41" fill="#887372" mask="url(#mask-33)" points="-6.23 37 47.563 37 47.563 -4.713 -6.23 -4.713"></polygon>
            </g>
            <g id="编组" transform="translate(140.000000, 599.409000)">
                <mask id="mask-35" fill="white">
                    <use xlink:href="#path-34"></use>
                </mask>
                <g id="Clip-44"></g>
                <polygon id="Fill-43" fill="#897372" mask="url(#mask-35)" points="-6.05 13.351 30.46 13.351 30.46 -4.155 -6.05 -4.155"></polygon>
            </g>
            <g id="编组" transform="translate(156.000000, 586.409000)">
                <mask id="mask-37" fill="white">
                    <use xlink:href="#path-36"></use>
                </mask>
                <g id="Clip-46"></g>
                <polygon id="Fill-45" fill="#422A2A" mask="url(#mask-37)" points="-4.142 54.423 21.18 54.423 21.18 -4.899 -4.142 -4.899"></polygon>
            </g>
            <g id="编组" transform="translate(183.000000, 418.409000)">
                <mask id="mask-39" fill="white">
                    <use xlink:href="#path-38"></use>
                </mask>
                <g id="Clip-48"></g>
                <polygon id="Fill-47" fill="#FAE1DB" mask="url(#mask-39)" points="-4.364 223.988 45.24 223.988 45.24 -4.106 -4.364 -4.106"></polygon>
            </g>
            <g id="编组" transform="translate(184.000000, 426.409000)">
                <mask id="mask-41" fill="white">
                    <use xlink:href="#path-40"></use>
                </mask>
                <g id="Clip-50"></g>
                <polygon id="Fill-49" fill="#F6D8D2" mask="url(#mask-41)" points="-4.34 197.137 59.319 197.137 59.319 -5.634 -4.34 -5.634"></polygon>
            </g>
            <g id="编组" transform="translate(190.000000, 608.409000)">
                <mask id="mask-43" fill="white">
                    <use xlink:href="#path-42"></use>
                </mask>
                <g id="Clip-52"></g>
                <polygon id="Fill-51" fill="#887372" mask="url(#mask-43)" points="-16.993 37.46 36.79 37.46 36.79 -4.253 -16.993 -4.253"></polygon>
            </g>
            <g id="编组" transform="translate(191.000000, 598.409000)">
                <mask id="mask-45" fill="white">
                    <use xlink:href="#path-44"></use>
                </mask>
                <g id="Clip-54"></g>
                <polygon id="Fill-53" fill="#897372" mask="url(#mask-45)" points="-4.9 12.81 31.61 12.81 31.61 -4.698 -4.9 -4.698"></polygon>
            </g>
            <g id="编组" transform="translate(190.000000, 584.409000)">
                <mask id="mask-47" fill="white">
                    <use xlink:href="#path-46"></use>
                </mask>
                <g id="Clip-56"></g>
                <polygon id="Fill-55" fill="#422A2A" mask="url(#mask-47)" points="-10.61 54.881 14.71 54.881 14.71 -4.44 -10.61 -4.44"></polygon>
            </g>
            <g id="编组" transform="translate(33.000000, 156.409000)">
                <mask id="mask-49" fill="white">
                    <use xlink:href="#path-48"></use>
                </mask>
                <g id="Clip-58"></g>
                <polygon id="Fill-57" fill="#F9D5D6" mask="url(#mask-49)" points="-16.97 78.72 93.6 78.72 93.6 -16.66 -16.97 -16.66"></polygon>
            </g>
            <g id="编组" transform="translate(0.000000, 152.409000)">
                <mask id="mask-51" fill="white">
                    <use xlink:href="#path-50"></use>
                </mask>
                <g id="Clip-60"></g>
                <polygon id="Fill-59" fill="#F9D5D6" mask="url(#mask-51)" points="-15 39.46 64.41 39.46 64.41 -14.41 -15 -14.41"></polygon>
            </g>
            <path d="M20.6499,166.889 C23.9399,165.939 26.6099,166.079 28.6699,167.309" id="Stroke-61" stroke="#F1BFB5" stroke-linecap="round"></path>
            <g id="编组" transform="translate(78.000000, 116.409000)">
                <mask id="mask-53" fill="white">
                    <use xlink:href="#path-52"></use>
                </mask>
                <g id="Clip-64"></g>
                <polygon id="Fill-63" fill="#33537C" mask="url(#mask-53)" points="-4.159 110.183 61.504 110.183 61.504 -4.24 -4.159 -4.24"></polygon>
            </g>
            <g id="编组" transform="translate(233.000000, 155.409000)">
                <mask id="mask-55" fill="white">
                    <use xlink:href="#path-54"></use>
                </mask>
                <g id="Clip-66"></g>
                <polygon id="Fill-65" fill="#F9D5D6" mask="url(#mask-55)" points="-16.24 78.26 94.329 78.26 94.329 -17.12 -16.24 -17.12"></polygon>
            </g>
            <g id="编组" transform="translate(294.000000, 151.409000)">
                <mask id="mask-57" fill="white">
                    <use xlink:href="#path-56"></use>
                </mask>
                <g id="Clip-68"></g>
                <polygon id="Fill-67" fill="#F9D5D6" mask="url(#mask-57)" points="-15.05 39 64.36 39 64.36 -14.87 -15.05 -14.87"></polygon>
            </g>
            <path d="M322.7095,165.4193 C319.4195,164.4693 316.7495,164.6193 314.6895,165.8493" id="Stroke-69" stroke="#F1BFB5" stroke-linecap="round"></path>
            <g id="编组" transform="translate(208.000000, 113.409000)">
                <mask id="mask-59" fill="white">
                    <use xlink:href="#path-58"></use>
                </mask>
                <g id="Clip-72"></g>
                <polygon id="Fill-71" fill="#33537C" mask="url(#mask-59)" points="-4.144 109.723 61.519 109.723 61.519 -4.7 -4.144 -4.7"></polygon>
            </g>
            <g id="编组" transform="translate(118.000000, 99.409000)">
                <mask id="mask-61" fill="white">
                    <use xlink:href="#path-60"></use>
                </mask>
                <g id="Clip-74"></g>
                <polygon id="Fill-73" fill="#33547C" mask="url(#mask-61)" points="-4.846 137.561 111.991 137.561 111.991 -4.82 -4.846 -4.82"></polygon>
            </g>
            <g id="编组" transform="translate(107.000000, 222.409000)">
                <mask id="mask-63" fill="white">
                    <use xlink:href="#path-62"></use>
                </mask>
                <g id="Clip-76"></g>
                <polygon id="Fill-75" fill="#C6C7C7" mask="url(#mask-63)" points="-4.835 220.361 148.638 220.361 148.638 -4.18 -4.835 -4.18"></polygon>
            </g>
            <g id="编组" transform="translate(107.000000, 223.409000)">
                <mask id="mask-65" fill="white">
                    <use xlink:href="#path-64"></use>
                </mask>
                <g id="Clip-78"></g>
                <polygon id="Fill-77" fill="#BAB5B5" mask="url(#mask-65)" points="-24.871 243.45 113.49 243.45 113.49 -20.671 -24.871 -20.671"></polygon>
            </g>
            <path d="M166.9341,173.8489 C166.1361,173.8489 165.4621,173.2529 164.9291,172.0749 C159.0421,159.0669 144.4401,110.7429 144.2931,110.2559 C144.2171,110.0049 144.3601,109.7399 144.6111,109.6639 C144.8641,109.5889 145.1271,109.7309 145.2031,109.9819 C145.3501,110.4679 159.9341,158.7319 165.7941,171.6829 C166.1781,172.5309 166.5871,172.9399 167.0081,172.8949 C171.8781,172.3869 182.2281,133.3209 187.9971,107.1859 C188.0541,106.9299 188.3091,106.7689 188.5631,106.8249 C188.8201,106.8819 188.9821,107.1349 188.9251,107.3909 C187.4411,114.1149 174.2201,173.0979 167.1071,173.8399 C167.0491,173.8459 166.9911,173.8489 166.9341,173.8489" id="Fill-79" fill="#ECBCBC"></path>
            <g id="编组" transform="translate(158.000000, 170.409000)">
                <mask id="mask-67" fill="white">
                    <use xlink:href="#path-66"></use>
                </mask>
                <g id="Clip-82"></g>
                <polygon id="Fill-81" fill="#FCEFED" mask="url(#mask-67)" points="-4.323 32.83 23.871 32.83 23.871 -4.673 -4.323 -4.673"></polygon>
            </g>
            <g id="编组" transform="translate(158.000000, 169.409000)">
                <path d="M1.152,28.354 L18.396,28.354 L18.396,1.801 L1.152,1.801 L1.152,28.354 Z M18.871,29.305 L0.677,29.305 C0.415,29.305 0.202,29.092 0.202,28.83 L0.202,1.327 C0.202,1.064 0.415,0.852 0.677,0.852 L18.871,0.852 C19.133,0.852 19.346,1.064 19.346,1.327 L19.346,28.83 C19.346,29.092 19.133,29.305 18.871,29.305 L18.871,29.305 Z" id="Fill-83" fill="#ECBCBC"></path>
                <path d="M9.7739,6.1548 C7.7749,6.1548 6.1499,7.7628 6.1499,9.7398 C6.1499,11.7108 7.7749,13.3148 9.7739,13.3148 C11.7729,13.3148 13.3979,11.7108 13.3979,9.7398 C13.3979,7.7628 11.7729,6.1548 9.7739,6.1548 M9.7739,14.2648 C7.2519,14.2648 5.1999,12.2348 5.1999,9.7398 C5.1999,7.2388 7.2519,5.2048 9.7739,5.2048 C12.2959,5.2048 14.3479,7.2388 14.3479,9.7398 C14.3479,12.2348 12.2959,14.2648 9.7739,14.2648" id="Fill-85" fill="#FCEFED"></path>
                <path d="M13.73,8.8799 C13.73,10.8129 12.163,12.3799 10.23,12.3799 C8.297,12.3799 6.73,10.8129 6.73,8.8799 C6.73,6.9469 8.297,5.3799 10.23,5.3799 C12.163,5.3799 13.73,6.9469 13.73,8.8799" id="Fill-86" fill="#C3AFAE"></path>
                <polygon id="Fill-87" fill="#C3AFAE" points="4.73 18.38 14.73 18.38 14.73 16.38 4.73 16.38"></polygon>
                <polygon id="Fill-88" fill="#C3AFAE" points="2.73 22.38 16.73 22.38 16.73 20.38 2.73 20.38"></polygon>
            </g>
        </g>
    </g>
</svg>