<?xml version="1.0" encoding="utf-8"?>
<svg version="1.1" xmlns:xlink="http://www.w3.org/1999/xlink" width="6px" height="2px" xmlns="http://www.w3.org/2000/svg">
  <g transform="matrix(1 0 0 1 -661 -451 )">
    <path d="M 0.91625779036832 1.642818696883836  C 0.5687507082153331 1.7237039660056723  0.2182478753541659 1.4642719546741887  0.2182478753541659 1.1071784702549223  C 0.2182478753541659 0.8789022662889465  0.3656388101983339 0.6775878186968782  0.5867252124646143 0.6200694050991444  C 1.0864164305949089 0.4888555240792982  2.0204915014164726 0.28154957507081235  2.9162209631728615 0.28154957507081235  C 3.8071572237960822 0.28154957507081235  4.697494334277678 0.48645892351271414  5.175616147308801 0.6176728045325888  C 5.390711048158664 0.676389518413572  5.532709631728096 0.8741090651558068  5.532709631728096 1.0975920679886713  C 5.532709631728096 1.4564830028328402  5.176215297450483 1.7159150141642954  4.826910764872537 1.6326331444759035  C 4.333810198300341 1.514600566572227  3.6369985835694365 1.3887790368271737  2.9162209631728615 1.3887790368271737  C 2.1750722379603644 1.3887790368271737  1.4339235127479242 1.522389518413604  0.91625779036832 1.642818696883836  Z " fill-rule="nonzero" fill="#546a8b" stroke="none" transform="matrix(1 0 0 1 661 451 )" />
  </g>
</svg>