<?xml version="1.0" encoding="utf-8"?>
<svg version="1.1" xmlns:xlink="http://www.w3.org/1999/xlink" width="24px" height="73px" xmlns="http://www.w3.org/2000/svg">
  <g transform="matrix(1 0 0 1 -705 -619 )">
    <path d="M 22.8098 62.98239024390243  C 23.06345853658537 62.15799999999999  23.000043902439025 62.34824390243902  21.731751219512198 61.58726829268291  C 20.463458536585367 60.82629268292682  19.512239024390244 59.748243902439015  17.6098 58.86043902439023  C 15.961019512195122 58.03604878048779  14.756141463414636 57.718975609756086  13.614678048780489 56.45068292682926  C 12.34638536585366 55.05556097560975  11.014678048780487 49.91897560975609  9.746385365853659 45.03604878048779  C 8.287848780487804 39.20190243902438  8.47809268292683 31.465317073170723  9.048824390243903 28.167756097560968  C 10.190287804878048 21.445931707317065  13.23419024390244 12.123980487804879  14.121995121951219 8.255687804878043  C 15.0098 4.387395121951215  13.868336585365853 2.7386146341463373  12.156141463414635 1.216663414634148  C 10.126873170731708 -0.6223609756097588  7.146385365853657 -0.051629268292685986  5.243933658536585 5.275199999999991  C 3.27808 10.602029268292682  0.8683239024390246 20.431297560975608  0.1707629268292683 28.167756097560968  C -0.14631024390243902 31.909219512195108  -0.20972931707317072 37.93360975609755  1.692707804878049 45.41653658536583  C 2.961000487804878 50.61653658536585  4.863439512195122 54.48482926829267  7.3366292682926835 59.30434146341461  C 7.970775609756098 60.63604878048778  8.161019512195123 61.77751219512194  9.112239024390245 64.37751219512194  C 10.063458536585367 67.04092682926829  11.839068292682926 69.8311707317073  13.678092682926827 71.35312195121949  C 15.51711707317073 72.8750731707317  16.40492195121951 73.12873170731706  16.8488243902439 72.8750731707317  C 17.419556097560974 72.55799999999999  17.356141463414634 71.98726829268291  16.595165853658536 71.16287804878048  C 15.834190243902437 70.40190243902437  14.439068292682926 69.19702439024388  13.424434146341465 67.10434146341463  C 13.424434146341465 67.10434146341463  15.0098 68.87995121951218  16.024434146341463 69.89458536585366  C 17.039068292682927 70.90921951219511  18.180531707317073 71.67019512195121  19.068336585365852 72.11409756097561  C 20.14638536585366 72.68482926829266  21.79516585365854 71.86043902439023  21.03419024390244 71.03604878048779  C 20.273214634146342 70.21165853658536  19.512239024390244 69.8311707317073  17.990287804878047 68.30921951219511  C 16.595165853658536 66.97751219512193  15.897604878048782 65.7092195121951  15.897604878048782 65.7092195121951  C 15.897604878048782 65.7092195121951  17.6098 67.23117073170731  19.258580487804878 68.24580487804876  C 20.907360975609755 69.26043902439024  21.858580487804876 69.32385365853658  22.429312195121952 69.32385365853658  C 23.000043902439025 69.32385365853658  23.824434146341464 68.56287804878046  22.746385365853662 67.67507317073171  C 21.79516585365854 66.91409756097559  20.273214634146342 66.27995121951218  18.687848780487805 64.50434146341463  C 17.54638536585366 63.23604878048781  16.912239024390242 62.15799999999999  17.292726829268293 62.15799999999999  C 17.6098 62.15799999999999  18.243946341463417 62.98239024390243  19.63906829268293 63.489707317073155  C 20.970775609756096 63.99702439024389  22.619556097560977 63.74336585365852  22.8098 62.98239024390243  Z " fill-rule="nonzero" fill="#ffcea9" stroke="none" transform="matrix(1 0 0 1 705 619 )" />
  </g>
</svg>