<?xml version="1.0" encoding="utf-8"?>
<svg version="1.1" xmlns:xlink="http://www.w3.org/1999/xlink" width="37px" height="74px" xmlns="http://www.w3.org/2000/svg">
  <g transform="matrix(1 0 0 1 -712 -606 )">
    <path d="M 4.205048780487804 11.616726829268288  C 8.26358536585366 8.763068292682924  9.912365853658535 7.938678048780488  9.912365853658535 7.938678048780488  C 9.912365853658535 7.938678048780488  15.683097560975611 16.49965365853658  23.673341463414637 17.324043902439023  C 26.209926829268298 14.850873170731703  26.46358536585366 5.9728243902439  22.912365853658535 3.1191658536585294  C 22.912365853658535 3.1191658536585294  26.14651219512195 0.519165853658528  28.30260975609756 1.0264829268292637  C 28.30260975609756 1.0264829268292637  31.790414634146344 2.8020926829268227  33.24895121951219 7.367946341463416  C 34.70748780487804 11.87038536585365  36.229439024390246 17.324043902439023  36.10260975609756 25.694775609756093  C 35.975780487804876 34.12892195121951  36.10260975609756 59.81165853658536  36.10260975609756 59.81165853658536  C 36.10260975609756 59.81165853658536  34.96114634146341 65.26531707317072  27.731878048780487 69.26043902439024  C 20.502609756097563 73.31897560975608  15.112365853658538 73.69946341463414  10.166024390243907 72.55799999999999  C 6.107487804878048 71.60678048780487  2.7465121951219515 70.148243902439  1.3513902439024381 67.2311707317073  C 1.731878048780489 61.33360975609755  4.331878048780487 45.98726829268293  3.3806585365853645 38.567756097560974  C 2.429439024390245 31.148434146341458  0.8440731707317077 25.631360975609745  0.4001707317073171 19.606970731707307  C 0.019682926829267977 13.645995121951216  1.1611463414634147 13.709409756097557  4.205048780487804 11.616726829268288  Z " fill-rule="nonzero" fill="#f4f4f4" stroke="none" transform="matrix(1 0 0 1 712 606 )" />
  </g>
</svg>