<?xml version="1.0" encoding="utf-8"?>
<svg version="1.1" xmlns:xlink="http://www.w3.org/1999/xlink" width="60px" height="31px" xmlns="http://www.w3.org/2000/svg">
  <g transform="matrix(1 0 0 1 -741 -616 )">
    <path d="M 8.878029268292686 3.5825804878048757  L 0.4438829268292679 14.616726829268288  C 2.8536390243902403 17.28014146341463  5.26339512195122 19.943556097560972  7.673151219512199 22.543556097560973  C 10.20973658536586 25.333799999999997  12.873151219512195 28.250682926829256  16.42437073170732 29.64580487804878  C 22.321931707317077 32.05556097560975  29.107170731707313 29.8360487804878  34.81448780487804 27.04580487804877  C 37.16082926829269 25.90453170731707  39.44375609756098 24.699653658536583  41.66326829268293 23.36794634146341  C 44.19985365853658 21.84599512195122  44.00960975609756 21.71916585365853  46.41936585365853 20.070385365853653  C 47.94131707317074 19.05575121951219  49.463268292682926 18.04111707317073  51.04863414634147 17.15331219512195  C 52.57058536585366 16.328921951219506  54.47302439024391 15.69477560975609  55.61448780487805 14.426482926829266  C 56.3120487804878 13.60209268292683  56.7559512195122 12.650873170731707  57.19985365853658 11.699653658536583  C 58.2779024390244 9.353312195121951  59.86326829268293 6.4362390243902325  59.229121951219525 3.7728243902439047  C 59.16570731707317 3.4557512195121873  59.03887804878049 3.138678048780484  59.03887804878049 2.7581902439024404  C 59.03887804878049 2.1874585365853605  59.29253658536585 1.6801414634146283  59.35595121951219 1.1094097560975555  C 59.35595121951219 0.5386780487804828  58.91204878048781 -0.1588829268292713  58.34131707317074 0.09477560975609123  C 58.151073170731706 0.15819024390243897  57.960829268292684 0.4118487804878015  57.834 0.6020926829268234  C 57.19985365853658 1.3630682926829252  56.375463414634154 1.8703853658536502  55.55107317073171 2.3777024390243895  C 52.1900975609756 4.470385365853652  49.14619512195122 7.070385365853653  46.35595121951219 9.860629268292676  C 42.17058536585367 14.045995121951215  40.26814634146342 15.69477560975609  34.751073170731715 17.914287804878043  C 31.136439024390242 19.3728243902439  31.834000000000003 18.865507317073167  27.965707317073175 19.182580487804877  C 24.097541463414636 19.49965365853658  19.975590243902438 18.548434146341464  17.121931707317074 15.948434146341457  C 15.663395121951218 14.616726829268288  14.585346341463413 12.90453170731707  13.570712195121956 11.192336585365844  L 8.878029268292686 3.5825804878048757  Z " fill-rule="nonzero" fill="#ffcea9" stroke="none" transform="matrix(1 0 0 1 741 616 )" />
  </g>
</svg>