<?xml version="1.0" encoding="utf-8"?>
<svg version="1.1" xmlns:xlink="http://www.w3.org/1999/xlink" width="36px" height="100px" xmlns="http://www.w3.org/2000/svg">
  <g transform="matrix(1 0 0 1 -713 -665 )">
    <path d="M 34.722058536585365 0.6848292682926598  L 1.1123024390243916 9.182390243902418  C 1.239131707317073 12.797024390243891  2.3805951219512185 28.587268292682904  2.8879121951219506 36.958  C 3.395229268292683 45.328731707317075  3.522058536585366 55.53848780487803  3.522058536585366 55.53848780487803  C 3.522058536585366 55.53848780487803  2.0635219512195135 61.626292682926845  1.1757170731707323 68.79214634146342  C 0.22449756097561036 75.958  1.1757170731707323 98.53360975609758  1.1757170731707323 98.53360975609758  C 1.1757170731707323 98.53360975609758  3.902546341463415 100.56287804878048  7.3269365853658535 98.53360975609758  C 7.3269365853658535 98.53360975609758  11.195229268292685 80.46043902439024  12.970839024390244 72.34336585365853  C 14.746448780487803 64.22629268292684  15.06352195121951 59.53360975609757  16.014741463414634 54.46043902439024  C 17.156204878048783 48.37263414634148  19.565960975609755 19.89946341463414  19.565960975609755 19.89946341463414  L 20.51718048780488 19.962878048780468  L 23.11718048780488 52.1140975609756  C 23.11718048780488 52.1140975609756  22.102546341463416 54.77751219512194  21.4684 59.4067804878049  C 20.770839024390245 64.67019512195122  22.2293756097561 90.98726829268296  22.2293756097561 90.98726829268296  C 22.2293756097561 90.98726829268296  25.209863414634142 92.95312195121952  28.887912195121956 90.73360975609756  C 28.887912195121956 90.73360975609756  35.292790243902445 55.85556097560976  35.292790243902445 50.528731707317085  C 35.292790243902445 47.0409268292683  34.722058536585365 0.6848292682926598  34.722058536585365 0.6848292682926598  Z " fill-rule="nonzero" fill="#8c50ff" stroke="none" transform="matrix(1 0 0 1 713 665 )" />
  </g>
</svg>