<?xml version="1.0" encoding="utf-8"?>
<svg version="1.1" xmlns:xlink="http://www.w3.org/1999/xlink" width="101px" height="191px" xmlns="http://www.w3.org/2000/svg">
  <defs>
    <mask fill="white" id="clip279">
      <path d="M 0.3042168674699042 0.30414067605732953  C 0.3042168674699042 0.30414067605732953  0.3042168674699042 11.277515374898059  0.3042168674699042 11.277515374898059  C 49.35096229475789 11.277515374898087  89.71963910302406 51.6360090017786  89.71963910302406 100.67038216560509  C 89.71963910302406 134.9722000315785  69.34678862479586 166.2054523915118  38.34311397213628 180.89802718023742  C 38.34311397213628 180.89802718023742  43.04455019374018 190.81380247750553  43.04455019374018 190.81380247750553  C 77.88013928423857 174.30529167175314  100.6957825837228 139.21175010418466  100.6957825837228 100.67038216560509  C 100.6957825837228 45.57558150142975  55.41291895110248 0.30414067605732953  0.3042168674699042 0.30414067605732953  Z " fill-rule="evenodd" />
    </mask>
  </defs>
  <g transform="matrix(1 0 0 1 -261 -911 )">
    <path d="M 0.3042168674699042 0.30414067605732953  C 0.3042168674699042 0.30414067605732953  0.3042168674699042 11.277515374898059  0.3042168674699042 11.277515374898059  C 49.35096229475789 11.277515374898087  89.71963910302406 51.6360090017786  89.71963910302406 100.67038216560509  C 89.71963910302406 134.9722000315785  69.34678862479586 166.2054523915118  38.34311397213628 180.89802718023742  C 38.34311397213628 180.89802718023742  43.04455019374018 190.81380247750553  43.04455019374018 190.81380247750553  C 77.88013928423857 174.30529167175314  100.6957825837228 139.21175010418466  100.6957825837228 100.67038216560509  C 100.6957825837228 45.57558150142975  55.41291895110248 0.30414067605732953  0.3042168674699042 0.30414067605732953  Z " fill-rule="nonzero" fill="#0000ff" stroke="none" transform="matrix(1 0 0 1 261 911 )" />
    <path d="M 0.3042168674699042 0.30414067605732953  C 0.3042168674699042 0.30414067605732953  0.3042168674699042 11.277515374898059  0.3042168674699042 11.277515374898059  C 49.35096229475789 11.277515374898087  89.71963910302406 51.6360090017786  89.71963910302406 100.67038216560509  C 89.71963910302406 134.9722000315785  69.34678862479586 166.2054523915118  38.34311397213628 180.89802718023742  C 38.34311397213628 180.89802718023742  43.04455019374018 190.81380247750553  43.04455019374018 190.81380247750553  C 77.88013928423857 174.30529167175314  100.6957825837228 139.21175010418466  100.6957825837228 100.67038216560509  C 100.6957825837228 45.57558150142975  55.41291895110248 0.30414067605732953  0.3042168674699042 0.30414067605732953  Z " stroke-width="2" stroke="#0000ff" fill="none" transform="matrix(1 0 0 1 261 911 )" mask="url(#clip279)" />
  </g>
</svg>