<?xml version="1.0" encoding="utf-8"?>
<svg version="1.1" xmlns:xlink="http://www.w3.org/1999/xlink" width="140px" height="77px" xmlns="http://www.w3.org/2000/svg">
  <defs>
    <mask fill="white" id="clip280">
      <path d="M 139.84568861396974 67.11362148250521  C 139.84568861396974 67.11362148250521  135.14222852830176 57.230139801450264  135.14222852830176 57.230139801450264  C 123.24806196072996 62.845984981519685  110.24973427370651 65.75921314530717  97.08695652173924 65.75921314530717  C 57.19752330637402 65.75921314530717  21.58921629361066 38.672066517710505  10.889124932287586 0.3958277529254132  C 10.889124932287586 0.3958277529254132  0.31069352392955807 3.329780495529405  0.31069352392955807 3.329780495529405  C 12.333267946793285 46.33678984129034  52.26736916278878 76.69684984681885  97.08695652173924 76.69684984681885  C 111.87659427255835 76.69684984681885  126.48145667166614 73.42355981337892  139.84568861396974 67.11362148250521  Z " fill-rule="evenodd" />
    </mask>
  </defs>
  <g transform="matrix(1 0 0 1 -165 -1035 )">
    <path d="M 139.84568861396974 67.11362148250521  C 139.84568861396974 67.11362148250521  135.14222852830176 57.230139801450264  135.14222852830176 57.230139801450264  C 123.24806196072996 62.845984981519685  110.24973427370651 65.75921314530717  97.08695652173924 65.75921314530717  C 57.19752330637402 65.75921314530717  21.58921629361066 38.672066517710505  10.889124932287586 0.3958277529254132  C 10.889124932287586 0.3958277529254132  0.31069352392955807 3.329780495529405  0.31069352392955807 3.329780495529405  C 12.333267946793285 46.33678984129034  52.26736916278878 76.69684984681885  97.08695652173924 76.69684984681885  C 111.87659427255835 76.69684984681885  126.48145667166614 73.42355981337892  139.84568861396974 67.11362148250521  Z " fill-rule="nonzero" fill="#fea213" stroke="none" transform="matrix(1 0 0 1 165 1035 )" />
    <path d="M 139.84568861396974 67.11362148250521  C 139.84568861396974 67.11362148250521  135.14222852830176 57.230139801450264  135.14222852830176 57.230139801450264  C 123.24806196072996 62.845984981519685  110.24973427370651 65.75921314530717  97.08695652173924 65.75921314530717  C 57.19752330637402 65.75921314530717  21.58921629361066 38.672066517710505  10.889124932287586 0.3958277529254132  C 10.889124932287586 0.3958277529254132  0.31069352392955807 3.329780495529405  0.31069352392955807 3.329780495529405  C 12.333267946793285 46.33678984129034  52.26736916278878 76.69684984681885  97.08695652173924 76.69684984681885  C 111.87659427255835 76.69684984681885  126.48145667166614 73.42355981337892  139.84568861396974 67.11362148250521  Z " stroke-width="2" stroke="#fea213" fill="none" transform="matrix(1 0 0 1 165 1035 )" mask="url(#clip280)" />
  </g>
</svg>