<?xml version="1.0" encoding="utf-8"?>
<svg version="1.1" xmlns:xlink="http://www.w3.org/1999/xlink" width="72px" height="39px" xmlns="http://www.w3.org/2000/svg">
  <defs>
    <mask fill="white" id="clip282">
      <path d="M 0.3684669803333236 30.621278442766766  C 0.3684669803333236 30.621278442766766  8.147256911299337 38.52269897213998  8.147256911299337 38.52269897213998  C 24.84623727231451 21.6010002778537  48.09310443889831 11.47714229876189  71.69491525423723 11.47714229876189  C 71.69491525423723 11.47714229876189  71.69491525423723 0.3095243679047712  71.69491525423723 0.3095243679047712  C 45.17602700741122 0.30952436790479965  19.131366043226308 11.60813406451436  0.3684669803333236 30.621278442766766  Z " fill-rule="evenodd" />
    </mask>
  </defs>
  <g transform="matrix(1 0 0 1 -190 -911 )">
    <path d="M 0.3684669803333236 30.621278442766766  C 0.3684669803333236 30.621278442766766  8.147256911299337 38.52269897213998  8.147256911299337 38.52269897213998  C 24.84623727231451 21.6010002778537  48.09310443889831 11.47714229876189  71.69491525423723 11.47714229876189  C 71.69491525423723 11.47714229876189  71.69491525423723 0.3095243679047712  71.69491525423723 0.3095243679047712  C 45.17602700741122 0.30952436790479965  19.131366043226308 11.60813406451436  0.3684669803333236 30.621278442766766  Z " fill-rule="nonzero" fill="#ff0000" stroke="none" transform="matrix(1 0 0 1 190 911 )" />
    <path d="M 0.3684669803333236 30.621278442766766  C 0.3684669803333236 30.621278442766766  8.147256911299337 38.52269897213998  8.147256911299337 38.52269897213998  C 24.84623727231451 21.6010002778537  48.09310443889831 11.47714229876189  71.69491525423723 11.47714229876189  C 71.69491525423723 11.47714229876189  71.69491525423723 0.3095243679047712  71.69491525423723 0.3095243679047712  C 45.17602700741122 0.30952436790479965  19.131366043226308 11.60813406451436  0.3684669803333236 30.621278442766766  Z " stroke-width="2" stroke="#ff0000" fill="none" transform="matrix(1 0 0 1 190 911 )" mask="url(#clip282)" />
  </g>
</svg>