<?xml version="1.0" encoding="utf-8"?>
<svg version="1.1" xmlns:xlink="http://www.w3.org/1999/xlink" width="39px" height="99px" xmlns="http://www.w3.org/2000/svg">
  <defs>
    <mask fill="white" id="clip281">
      <path d="M 4.0302631416832355 98.68954065819241  C 4.0302631416832355 98.68954065819241  14.788599846101988 95.73230257636135  14.788599846101988 95.73230257636135  C 6.039536910601099 64.71438570858368  15.522283809738838 30.838130325448017  38.59913498805099 8.084373771642476  C 38.59913498805099 8.084373771642476  30.70716160570851 0.28425350546632444  30.70716160570851 0.28425350546632444  C 4.778115640787291 25.850271806642468  -5.8001445361976485 63.83794907898414  4.0302631416832355 98.68954065819241  Z " fill-rule="evenodd" />
    </mask>
  </defs>
  <g transform="matrix(1 0 0 1 -162 -941 )">
    <path d="M 4.0302631416832355 98.68954065819241  C 4.0302631416832355 98.68954065819241  14.788599846101988 95.73230257636135  14.788599846101988 95.73230257636135  C 6.039536910601099 64.71438570858368  15.522283809738838 30.838130325448017  38.59913498805099 8.084373771642476  C 38.59913498805099 8.084373771642476  30.70716160570851 0.28425350546632444  30.70716160570851 0.28425350546632444  C 4.778115640787291 25.850271806642468  -5.8001445361976485 63.83794907898414  4.0302631416832355 98.68954065819241  Z " fill-rule="nonzero" fill="#07dbff" stroke="none" transform="matrix(1 0 0 1 162 941 )" />
    <path d="M 4.0302631416832355 98.68954065819241  C 4.0302631416832355 98.68954065819241  14.788599846101988 95.73230257636135  14.788599846101988 95.73230257636135  C 6.039536910601099 64.71438570858368  15.522283809738838 30.838130325448017  38.59913498805099 8.084373771642476  C 38.59913498805099 8.084373771642476  30.70716160570851 0.28425350546632444  30.70716160570851 0.28425350546632444  C 4.778115640787291 25.850271806642468  -5.8001445361976485 63.83794907898414  4.0302631416832355 98.68954065819241  Z " stroke-width="2" stroke="#07dbff" fill="none" transform="matrix(1 0 0 1 162 941 )" mask="url(#clip281)" />
  </g>
</svg>