<?xml version="1.0" encoding="utf-8"?>
<svg version="1.1" xmlns:xlink="http://www.w3.org/1999/xlink" width="27px" height="30px" xmlns="http://www.w3.org/2000/svg">
  <g transform="matrix(1 0 0 1 -1750 -654 )">
    <path d="M 6.965944272445767 12.51811069255291  L 2.786377708978307 12.51811069255291  L 2.786377708978307 22.254419008982836  L 6.965944272445767 22.254419008982836  L 6.965944272445767 12.51811069255291  Z M 15.325077399380916 12.51811069255291  L 11.145510835913228 12.51811069255291  L 11.145510835913228 22.254419008982836  L 15.325077399380916 22.254419008982836  L 15.325077399380916 12.51811069255291  Z M 0 25  L 0 29  L 26.470588235294144 29  L 26.470588235294144 25  L 0 25  Z M 23.684210526315837 12.51811069255291  L 19.504643962848377 12.51811069255291  L 19.504643962848377 22.254419008982836  L 23.684210526315837 22.254419008982836  L 23.684210526315837 12.51811069255291  Z M 26.470588235294144 6.954505940307172  L 13.235294117647072 0  L 0 6.954505940307172  L 0 10  L 26.470588235294144 10  L 26.470588235294144 6.954505940307172  Z " fill-rule="nonzero" fill="#07dbff" stroke="none" transform="matrix(1 0 0 1 1750 654 )" />
  </g>
</svg>