<?xml version="1.0" encoding="utf-8"?>
<svg version="1.1" xmlns:xlink="http://www.w3.org/1999/xlink" width="15px" height="17px" xmlns="http://www.w3.org/2000/svg">
  <g transform="matrix(1 0 0 1 -25 -202 )">
    <path d="M 3.9473684210526154 7.093596059113338  L 1.5789473684210549 7.093596059113338  L 1.5789473684210549 12.610837438423687  L 3.9473684210526154 12.610837438423687  L 3.9473684210526154 7.093596059113338  Z M 8.68421052631578 7.093596059113338  L 6.3157894736842195 7.093596059113338  L 6.3157894736842195 12.610837438423687  L 8.68421052631578 12.610837438423687  L 8.68421052631578 7.093596059113338  Z M 0 14  L 0 16.551724137931046  L 15 16.551724137931046  L 15 14  L 0 14  Z M 13.421052631578945 7.093596059113338  L 11.052631578947384 7.093596059113338  L 11.052631578947384 12.610837438423687  L 13.421052631578945 12.610837438423687  L 13.421052631578945 7.093596059113338  Z M 15 3.9408866995073595  L 7.5 0  L 0 3.9408866995073595  L 0 5.517241379310349  L 15 5.517241379310349  L 15 3.9408866995073595  Z " fill-rule="nonzero" fill="#07dbff" stroke="none" transform="matrix(1 0 0 1 25 202 )" />
  </g>
</svg>