<?xml version="1.0" encoding="utf-8"?>
<svg version="1.1" xmlns:xlink="http://www.w3.org/1999/xlink" width="15px" height="14px" xmlns="http://www.w3.org/2000/svg">
  <g transform="matrix(1 0 0 1 -25 -263 )">
    <path d="M 15 3.0208333333333144  L 7.5 3.0208333333333144  L 7.5 0  L 0 0  L 0 13.59375  L 15 13.59375  L 15 3.0208333333333144  Z M 3 10.572916666666686  L 3 12.083333333333314  L 1.5 12.083333333333314  L 1.5 10.572916666666686  L 3 10.572916666666686  Z M 3 7.552083333333315  L 3 9.0625  L 1.5 9.0625  L 1.5 7.552083333333315  L 3 7.552083333333315  Z M 3 4.53125  L 3 6.041666666666686  L 1.5 6.041666666666686  L 1.5 4.53125  L 3 4.53125  Z M 3 1.5104166666666856  L 3 3.0208333333333144  L 1.5 3.0208333333333144  L 1.5 1.5104166666666856  L 3 1.5104166666666856  Z M 6 10.572916666666686  L 6 12.083333333333314  L 4.5 12.083333333333314  L 4.5 10.572916666666686  L 6 10.572916666666686  Z M 6 7.552083333333315  L 6 9.0625  L 4.5 9.0625  L 4.5 7.552083333333315  L 6 7.552083333333315  Z M 6 4.53125  L 6 6.041666666666686  L 4.5 6.041666666666686  L 4.5 4.53125  L 6 4.53125  Z M 6 1.5104166666666856  L 6 3.0208333333333144  L 4.5 3.0208333333333144  L 4.5 1.5104166666666856  L 6 1.5104166666666856  Z M 13.5 4.53125  L 13.5 12.083333333333314  L 7.5 12.083333333333314  L 7.5 10.572916666666686  L 9 10.572916666666686  L 9 9.0625  L 7.5 9.0625  L 7.5 7.552083333333315  L 9 7.552083333333315  L 9 6.041666666666686  L 7.5 6.041666666666686  L 7.5 4.53125  L 13.5 4.53125  Z M 12 7.552083333333315  L 12 6.041666666666686  L 10.5 6.041666666666686  L 10.5 7.552083333333315  L 12 7.552083333333315  Z M 12 10.572916666666686  L 12 9.0625  L 10.5 9.0625  L 10.5 10.572916666666686  L 12 10.572916666666686  Z " fill-rule="nonzero" fill="#07dbff" stroke="none" transform="matrix(1 0 0 1 25 263 )" />
  </g>
</svg>