<?xml version="1.0" encoding="utf-8"?>
<svg version="1.1" xmlns:xlink="http://www.w3.org/1999/xlink" width="30px" height="30px" xmlns="http://www.w3.org/2000/svg">
  <g transform="matrix(1 0 0 1 -1750 -542 )">
    <path d="M 30 15  C 30 6.712499999999977  23.279999999999973 0  14.992500000000064 0  C 6.704999999999927 0  0 6.712499999999977  0 15  C 0 23.287500000000023  6.704999999999927 30  14.992500000000064 30  C 23.279999999999973 30  30 23.287500000000023  30 15  Z M 18.88499999999999 3.659999999999968  C 21.644999999999982 4.605000000000018  23.940000000000055 6.517500000000041  25.38000000000011 9  L 20.954999999999927 9  C 20.467499999999973 7.125  19.785000000000082 5.3250000000000455  18.88499999999999 3.659999999999968  Z M 12.134999999999991 9  C 12.772500000000036 6.855000000000018  13.747499999999945 4.852499999999964  15 3.052500000000009  C 16.252500000000055 4.852499999999964  17.227499999999964 6.855000000000018  17.86500000000001 9  L 12.134999999999991 9  Z M 8.460000000000036 18  L 3.3900000000001 18  C 3.1424999999999272 17.039999999999964  3 16.034999999999968  3 15  C 3 13.965000000000032  3.1424999999999272 12.960000000000036  3.3900000000001 12  L 8.4525000000001 12  C 8.332499999999982 12.982499999999959  8.25 13.980000000000018  8.25 15  C 8.25 16.019999999999982  8.332499999999982 17.01750000000004  8.460000000000036 18  Z M 11.107500000000073 26.347499999999968  C 8.347500000000082 25.402500000000032  6.052500000000009 23.48249999999996  4.6124999999999545 21  L 9.037499999999909 21  C 9.525000000000091 22.875  10.207499999999982 24.674999999999955  11.107500000000073 26.347499999999968  Z M 11.107500000000073 3.652500000000032  C 10.207499999999982 5.3250000000000455  9.525000000000091 7.125  9.037499999999909 9  L 4.6124999999999545 9  C 6.052500000000009 6.517500000000041  8.347500000000082 4.597499999999968  11.107500000000073 3.652500000000032  Z M 17.86500000000001 21  C 17.220000000000027 23.144999999999982  16.24499999999989 25.147500000000036  15 26.94749999999999  C 13.75500000000011 25.147500000000036  12.779999999999973 23.144999999999982  12.134999999999991 21  L 17.86500000000001 21  Z M 18.75 15  C 18.75 16.019999999999982  18.652499999999918 17.01750000000004  18.50999999999999 18  L 11.490000000000009 18  C 11.347500000000082 17.01750000000004  11.25 16.019999999999982  11.25 15  C 11.25 13.980000000000018  11.347500000000082 12.982499999999959  11.490000000000009 12  L 18.50999999999999 12  C 18.652499999999918 12.982499999999959  18.75 13.980000000000018  18.75 15  Z M 25.387500000000045 21  C 23.940000000000055 23.48249999999996  21.644999999999982 25.394999999999982  18.892499999999927 26.340000000000032  C 19.792500000000018 24.667500000000018  20.47499999999991 22.875  20.96250000000009 21  L 25.387500000000045 21  Z M 26.602499999999964 18  L 21.539999999999964 18  C 21.660000000000082 17.01750000000004  21.75 16.019999999999982  21.75 15  C 21.75 13.980000000000018  21.667500000000018 12.982499999999959  21.539999999999964 12  L 26.602499999999964 12  C 26.84999999999991 12.960000000000036  27 13.965000000000032  27 15  C 27 16.034999999999968  26.857500000000073 17.039999999999964  26.602499999999964 18  Z " fill-rule="nonzero" fill="#07dbff" stroke="none" transform="matrix(1 0 0 1 1750 542 )" />
  </g>
</svg>