<?xml version="1.0" encoding="utf-8"?>
<svg version="1.1" xmlns:xlink="http://www.w3.org/1999/xlink" width="18px" height="14px" xmlns="http://www.w3.org/2000/svg">
  <g transform="matrix(1 0 0 1 -25 -376 )">
    <path d="M 7.875 10.5  L 7.875 11.375  L 9.625 11.375  L 9.625 10.5  L 10.5 10.5  C 10.981249999999996 10.5  11.375 10.106250000000045  11.375 9.625  L 11.375 7  C 11.375 6.5187499999999545  10.981249999999996 6.125  10.5 6.125  L 7.875 6.125  L 7.875 5.25  L 11.375 5.25  L 11.375 3.5  L 9.625 3.5  L 9.625 2.625  L 7.875 2.625  L 7.875 3.5  L 7 3.5  C 6.518750000000008 3.5  6.125 3.8937499999999545  6.125 4.375  L 6.125 7  C 6.125 7.4812500000000455  6.518750000000008 7.875  7 7.875  L 9.625 7.875  L 9.625 8.75  L 6.125 8.75  L 6.125 10.5  L 7.875 10.5  Z M 17.5 1.75  C 17.5 0.7831249999999841  16.716875 0  15.75 0  L 1.75 0  C 0.7831250000000018 0  0.008749999999992042 0.7831249999999841  0 1.75  L 0 12.25  C 0 13.216875000000016  0.7831250000000018 14  1.75 14  L 15.75 14  C 16.716875 14  17.5 13.216875000000016  17.5 12.25  L 17.5 1.75  Z M 15.75 2  L 15.75 12  L 2 12  L 2 2  L 15.75 2  Z " fill-rule="nonzero" fill="#07dbff" stroke="none" transform="matrix(1 0 0 1 25 376 )" />
  </g>
</svg>