<?xml version="1.0" encoding="utf-8"?>
<svg version="1.1" xmlns:xlink="http://www.w3.org/1999/xlink" width="15px" height="17px" xmlns="http://www.w3.org/2000/svg">
  <g transform="matrix(1 0 0 1 -25 -320 )">
    <path d="M 14.164775815217393 12.863581730769226  C 14.288258605072464 12.977764423076906  14.350000000000001 13.112980769230717  14.350000000000001 13.269230769230774  C 14.350000000000001 13.425480769230774  14.288258605072464 13.560697115384642  14.164775815217393 13.674879807692264  C 14.041293025362318 13.789062499999943  13.895063405797103 13.846153846153811  13.726086956521737 13.846153846153811  L 9.222214673913044 13.846153846153811  C 9.228713768115941 13.94831730769232  9.248211050724638 14.211237980769226  9.28070652173913 14.634915865384585  C 9.313201992753623 15.05859375  9.329449728260872 15.384615384615358  9.329449728260872 15.612980769230774  C 9.329449728260872 15.763221153846132  9.270957880434786 15.890925480769226  9.153974184782609 15.99609375  C 9.036990489130432 16.101262019230717  8.897259963768114 16.153846153846132  8.734782608695653 16.153846153846132  L 5.615217391304348 16.153846153846132  C 5.452740036231884 16.153846153846132  5.313009510869566 16.101262019230717  5.196025815217389 15.99609375  C 5.079042119565216 15.890925480769226  5.020550271739133 15.763221153846132  5.020550271739133 15.612980769230774  C 5.020550271739133 15.384615384615358  5.036798007246375 15.05859375  5.069293478260871 14.634915865384585  C 5.101788949275363 14.211237980769226  5.12128623188406 13.94831730769232  5.127785326086958 13.846153846153811  L 0.6239130434782609 13.846153846153811  C 0.45493659420289845 13.846153846153811  0.3087069746376798 13.789062499999943  0.1852241847826086 13.674879807692264  C 0.061741394927537385 13.560697115384642  0 13.425480769230774  0 13.269230769230774  C 0 13.112980769230717  0.061741394927537385 12.977764423076906  0.1852241847826086 12.863581730769226  L 4.104177989130434 9.230769230769226  L 1.8717391304347828 9.230769230769226  C 1.7027626811594203 9.230769230769226  1.5565330615942052 9.173677884615358  1.4330502717391305 9.05949519230768  C 1.3095674818840592 8.9453125  1.2478260869565219 8.810096153846189  1.2478260869565219 8.653846153846132  C 1.2478260869565219 8.497596153846132  1.3095674818840592 8.362379807692264  1.4330502717391305 8.248197115384585  L 5.352004076086956 4.615384615384585  L 3.431521739130435 4.615384615384585  C 3.262545289855076 4.615384615384585  3.1163156702898576 4.558293269230717  2.992832880434783 4.444110576923094  C 2.869350090579708 4.329927884615415  2.807608695652174 4.194711538461547  2.807608695652174 4.038461538461547  C 2.807608695652174 3.8822115384614904  2.869350090579708 3.746995192307679  2.992832880434783 3.6328125  L 6.736311141304348 0.1712740384615472  C 6.859793931159423 0.05709134615386802  7.006023550724638 0  7.175000000000004 0  C 7.343976449275363 0  7.490206068840578 0.05709134615386802  7.613688858695653 0.1712740384615472  L 11.357167119565219 3.6328125  C 11.48064990942029 3.746995192307679  11.542391304347824 3.8822115384614904  11.542391304347824 4.038461538461547  C 11.542391304347824 4.194711538461547  11.48064990942029 4.329927884615415  11.357167119565219 4.444110576923094  C 11.233684329710147 4.558293269230717  11.087454710144932 4.615384615384585  10.918478260869566 4.615384615384585  L 8.997995923913042 4.615384615384585  L 12.916949728260867 8.248197115384585  C 13.040432518115942 8.362379807692264  13.10217391304348 8.497596153846132  13.10217391304348 8.653846153846132  C 13.10217391304348 8.810096153846189  13.040432518115942 8.9453125  12.916949728260867 9.05949519230768  C 12.7934669384058 9.173677884615358  12.647237318840581 9.230769230769226  12.478260869565219 9.230769230769226  L 10.245822010869567 9.230769230769226  L 14.164775815217393 12.863581730769226  Z " fill-rule="nonzero" fill="#07dbff" stroke="none" transform="matrix(1 0 0 1 25 320 )" />
  </g>
</svg>