<?xml version="1.0" encoding="utf-8"?>
<svg version="1.1" xmlns:xlink="http://www.w3.org/1999/xlink" width="96px" height="93px" xmlns="http://www.w3.org/2000/svg">
  <g transform="matrix(1 0 0 1 -1215 -964 )">
    <path d="M 1263 964.5  C 1289.6 964.5  1310.5 984.74  1310.5 1010.5  C 1310.5 1036.26  1289.6 1056.5  1263 1056.5  C 1236.4 1056.5  1215.5 1036.26  1215.5 1010.5  C 1215.5 984.74  1236.4 964.5  1263 964.5  Z " fill-rule="nonzero" fill="#0b1837" stroke="none" />
    <path d="M 1263 964.5  C 1289.6 964.5  1310.5 984.74  1310.5 1010.5  C 1310.5 1036.26  1289.6 1056.5  1263 1056.5  C 1236.4 1056.5  1215.5 1036.26  1215.5 1010.5  C 1215.5 984.74  1236.4 964.5  1263 964.5  Z " stroke-width="1" stroke-dasharray="9,4,2,4,2,4" stroke="#0b4a6b" fill="none" stroke-dashoffset="0.5" />
  </g>
</svg>