<?xml version="1.0" encoding="utf-8"?>
<svg version="1.1" xmlns:xlink="http://www.w3.org/1999/xlink" width="50px" height="33px" xmlns="http://www.w3.org/2000/svg">
  <g transform="matrix(1 0 0 1 -45 -1002 )">
    <path d="M 39.166666666666664 26  L 10.833333333333334 26  C 9.6875 26.400000000000002  8.706597222222223 25.99609375  7.890625 25.18828125  C 7.074652777777778 24.380468749999995  6.666666666666667 23.409375  7 22.275000000000002  L 7 4.125  C 6.666666666666667 2.9906249999999988  7.074652777777778 2.0195312499999987  7.890625 1.2117187500000006  C 8.706597222222223 0.40390624999999536  9.6875 0  10.833333333333334 0  L 39.166666666666664 0  C 40.3125 0  41.293402777777786 0.40390624999999536  42.109375 1.2117187500000006  C 42.92534722222223 2.0195312499999987  43.333333333333336 2.9906249999999988  43 4.125  L 43 22.275000000000002  C 43.333333333333336 23.409375  42.92534722222223 24.380468749999995  42.109375 25.18828125  C 41.293402777777786 25.99609375  40.3125 26.400000000000002  39.166666666666664 26  Z M 10.247395833333334 3.544921875  C 10.082465277777777 3.708203124999998  10 3.901562499999998  10 4.125  L 10 22.275000000000002  C 10 22.498437499999994  10.082465277777777 22.691796874999994  10.247395833333334 22.855078125000002  C 10.41232638888889 23.018359375000003  10.60763888888889 23.099999999999998  10.833333333333334 23  L 39.166666666666664 23  C 39.392361111111114 23.099999999999998  39.587673611111114 23.018359375000003  39.752604166666664 22.855078125000002  C 39.91753472222222 22.691796874999994  40 22.498437499999994  40 22.275000000000002  L 40 4.125  C 40 3.901562499999998  39.91753472222222 3.708203124999998  39.752604166666664 3.544921875  C 39.587673611111114 3.381640624999995  39.392361111111114 3.2999999999999994  39.166666666666664 3.2999999999999994  L 10.833333333333334 3.2999999999999994  C 10.60763888888889 3.2999999999999994  10.41232638888889 3.381640624999995  10.247395833333334 3.544921875  Z M 4.166666666666666 28  L 45.83333333333333 28  L 50 28.05  L 50 30.525000000000002  C 50.000000000000014 31.212500000000002  49.59201388888889 31.796875  48.776041666666664 32.278125  C 47.96006944444445 32.759375000000006  46.979166666666664 33  45.83333333333333 33  L 4.166666666666666 33  C 3.0208333333333335 33  2.039930555555556 32.759375000000006  1.2239583333333333 32.278125  C 0.40798611111111116 31.796875  0 31.212500000000002  0 30.525000000000002  L 0 28.05  L 4.166666666666666 28  Z M 22.916666666666664 30.525000000000002  L 27.083333333333332 30.525000000000002  C 27.361111111111114 30.525000000000002  27.500000000000004 30.387500000000003  27.500000000000004 30.1125  C 27.500000000000004 29.837499999999995  27.361111111111114 29.7  27.083333333333332 29.7  L 22.916666666666664 29.7  C 22.638888888888893 29.7  22.500000000000004 29.837499999999995  22.5 30.1125  C 22.500000000000004 30.387500000000003  22.638888888888893 30.525000000000002  22.916666666666664 30.525000000000002  Z " fill-rule="nonzero" fill="#07dbff" stroke="none" transform="matrix(1 0 0 1 45 1002 )" />
  </g>
</svg>