<?xml version="1.0" encoding="utf-8"?>
<svg version="1.1" xmlns:xlink="http://www.w3.org/1999/xlink" width="50px" height="33px" xmlns="http://www.w3.org/2000/svg">
  <g transform="matrix(1 0 0 1 -178 -1002 )">
    <path d="M 48.91183035714286 0.9539062500000455  C 49.63727678571428 1.24609375  50 1.7531249999999545  50 2.4750000000000227  L 50 30.52500000000009  C 50 31.246875000000045  49.63727678571428 31.75390625  48.91183035714286 32.046093749999955  C 48.67001488095238 32.132031249999955  48.4375 32.174999999999955  48.21428571428572 32.174999999999955  C 47.712053571428584 32.174999999999955  47.29352678571428 32.01171875  46.95870535714286 31.68515625000009  L 35.71428571428572 21.295312500000023  L 35.71428571428572 25.575000000000045  C 35.71428571428572 27.620312499999955  34.928385416666686 29.369140625  33.356584821428555 30.821484374999955  C 31.78478422619048 32.27382812499991  29.892113095238106 33  27.67857142857145 33  L 8.035714285714278 33  C 5.82217261904762 33  3.9295014880952412 32.27382812499991  2.357700892857139 30.821484374999955  C 0.7859002976190368 29.369140625  0 27.620312499999955  0 25.575000000000045  L 0 7.4249999999999545  C 0 5.3796875000000455  0.7859002976190368 3.630859375  2.357700892857139 2.1785156250000455  C 3.9295014880952412 0.7261718749999773  5.82217261904762 0  8.035714285714278 0  L 27.67857142857145 0  C 29.892113095238106 0  31.78478422619048 0.7261718749999773  33.356584821428555 2.1785156250000455  C 34.928385416666686 3.630859375  35.71428571428572 5.3796875000000455  35.71428571428572 7.4249999999999545  L 35.71428571428572 11.678906249999955  L 46.95870535714286 1.3148437500000227  C 47.29352678571428 0.98828125  47.712053571428584 0.8250000000000455  48.21428571428572 0.8250000000000455  C 48.4375 0.8250000000000455  48.67001488095238 0.8679687500000455  48.91183035714286 0.9539062500000455  Z " fill-rule="nonzero" fill="#07dbff" stroke="none" transform="matrix(1 0 0 1 178 1002 )" />
  </g>
</svg>