<?xml version="1.0" encoding="utf-8"?>
<svg version="1.1" xmlns:xlink="http://www.w3.org/1999/xlink" width="33px" height="34px" xmlns="http://www.w3.org/2000/svg">
  <g transform="matrix(1 0 0 1 -313 -1001 )">
    <path d="M 20.519114857744967 11.612580128205195  L 31.71338250790302 29.08653846153834  C 32.54423603793464 30.393963675213627  32.70373024236039 31.514089209401618  32.19186512118017 32.44691506410254  C 31.680000000000007 33.379740918803236  30.637723919915686 33.84615384615381  29.065036880927323 33.84615384615381  L 3.4272708113803674 33.84615384615381  C 1.8545837723920044 33.84615384615381  0.8123076923076837 33.379740918803236  0.3004425711274621 32.44691506410254  C -0.21142255005270272 31.514089209401618  -0.0519283456269477 30.393963675213627  0.7789251844046703 29.08653846153834  L 11.973192834562667 11.612580128205195  L 11.973192834562667 2.8205128205128176  L 10.548872497365664 2.8205128205128176  C 10.163119072708128 2.8205128205128176  9.829293993677538 2.680956196581292  9.547397260273954 2.401842948717899  C 9.265500526870369 2.122729700854734  9.124552160168548 1.792200854700809  9.124552160168548 1.410256410256352  C 9.124552160168548 1.0283119658120086  9.265500526870369 0.6977831196581974  9.547397260273954 0.41866987179480475  C 9.829293993677538 0.13955662393163948  10.163119072708128 0  10.548872497365664 0  L 21.943435194942026 0  C 22.329188619599563 0  22.663013698630095 0.13955662393163948  22.94491043203368 0.41866987179480475  C 23.22680716543732 0.6977831196581974  23.367755532139086 1.0283119658120086  23.367755532139086 1.410256410256352  C 23.367755532139086 1.792200854700809  23.22680716543732 2.122729700854734  22.94491043203368 2.401842948717899  C 22.663013698630095 2.680956196581292  22.329188619599563 2.8205128205128176  21.943435194942026 2.8205128205128176  L 20.519114857744967 2.8205128205128176  L 20.519114857744967 11.612580128205195  Z M 14.821833508956786 12.427884615384642  L 14.376733403582705 13.11097756410254  L 8.32337197049526 22  L 24.16893572181243 22  L 18.11557428872493 13.11097756410254  L 17.670474183350905 12.427884615384642  L 17.670474183350905 11.612580128205195  L 17.670474183350905 2.8205128205128176  L 14.821833508956786 2.8205128205128176  L 14.821833508956786 11.612580128205195  L 14.821833508956786 12.427884615384642  Z " fill-rule="nonzero" fill="#07dbff" stroke="none" transform="matrix(1 0 0 1 313 1001 )" />
  </g>
</svg>