<?xml version="1.0" encoding="utf-8"?>
<svg version="1.1" xmlns:xlink="http://www.w3.org/1999/xlink" width="63px" height="16px" xmlns="http://www.w3.org/2000/svg">
  <g transform="matrix(1 0 0 1 -798 -1016 )">
    <path d="M 35.45666991236601 15.238095238095184  C 35.45666991236601 15.355311355311414  35.45666991236601 15.355311355311414  35.333982473223045 15.355311355311414  C 35.333982473223045 15.355311355311414  35.21129503407997 15.355311355311414  35.21129503407997 15.355311355311414  L 0.8588120740021168 8.322344322344293  C 0.6134371957157327 8.20512820512829  0.3680623174293487 7.970695970695829  0.3680623174293487 7.7362637362638225  C 0.3680623174293487 7.501831501831475  0.6134371957157327 7.267399267399242  0.8588120740021168 7.150183150183011  L 35.21129503407997 0.1172161172161168  C 35.333982473223045 0.1172161172161168  35.333982473223045 0.1172161172161168  35.45666991236601 0.1172161172161168  L 62.44790652385598 5.626373626373606  C 62.815968841285326 5.743589743589723  62.938656280428404 5.9780219780220705  62.938656280428404 6.329670329670307  C 62.815968841285326 6.681318681318658  62.57059396299894 6.798534798534888  62.20253164556959 6.798534798534888  L 35.333982473223045 1.2893772893773985  L 3.925998052580212 7.7362637362638225  L 35.333982473223045 14.065934065934243  L 62.20253164556959 8.556776556776526  C 62.57059396299894 8.439560439560296  62.815968841285326 8.673992673992757  62.938656280428404 9.02564102564088  C 63.061343719571596 9.377289377289344  62.815968841285326 9.611721611721578  62.44790652385598 9.728937728937808  L 35.45666991236601 15.238095238095184  Z " fill-rule="nonzero" fill="#ff0000" stroke="none" transform="matrix(1 0 0 1 798 1016 )" />
  </g>
</svg>