<?xml version="1.0" encoding="utf-8"?>
<svg version="1.1" xmlns:xlink="http://www.w3.org/1999/xlink" width="7px" height="5px" xmlns="http://www.w3.org/2000/svg">
  <g transform="matrix(1 0 0 1 -831 -1022 )">
    <path d="M 6.341880341880369 2.628205128205309  C 6.341880341880369 3.782051282051043  5.145299145299077 4.551282051281987  3.3504273504272533 4.551282051281987  C 1.6752136752137403 4.551282051281987  0.3589743589744785 3.782051282051043  0.3589743589744785 2.628205128205309  C 0.3589743589744785 1.4743589743590064  1.6752136752137403 0.705128205128176  3.3504273504272533 0.705128205128176  C 5.025641025641107 0.705128205128176  6.341880341880369 1.4743589743590064  6.341880341880369 2.628205128205309  Z M 5.145299145299077 2.628205128205309  C 5.145299145299077 2.5  4.547008547008545 1.98717948717956  3.3504273504272533 1.98717948717956  C 2.153846153846075 1.98717948717956  1.5555555555554292 2.5  1.5555555555554292 2.628205128205309  C 1.5555555555554292 2.756410256410163  2.153846153846075 3.2692307692307168  3.3504273504272533 3.2692307692307168  C 4.547008547008545 3.2692307692307168  5.145299145299077 2.756410256410163  5.145299145299077 2.628205128205309  Z " fill-rule="nonzero" fill="#ff0000" stroke="none" transform="matrix(1 0 0 1 831 1022 )" />
  </g>
</svg>