<?xml version="1.0" encoding="utf-8"?>
<svg version="1.1" xmlns:xlink="http://www.w3.org/1999/xlink" width="10px" height="10px" xmlns="http://www.w3.org/2000/svg">
  <g transform="matrix(1 0 0 1 -1559 -248 )">
    <path d="M 1564 248  C 1566.8 248  1569 250.2  1569 253  C 1569 255.8  1566.8 258  1564 258  C 1561.2 258  1559 255.8  1559 253  C 1559 250.2  1561.2 248  1564 248  Z " fill-rule="nonzero" fill="#28a762" stroke="none" />
    <path d="M 1564 248.5  C 1566.52 248.5  1568.5 250.48  1568.5 253  C 1568.5 255.52  1566.52 257.5  1564 257.5  C 1561.48 257.5  1559.5 255.52  1559.5 253  C 1559.5 250.48  1561.48 248.5  1564 248.5  Z " stroke-width="1" stroke="#28a762" fill="none" />
  </g>
</svg>