<?xml version="1.0" encoding="utf-8"?>
<svg version="1.1" xmlns:xlink="http://www.w3.org/1999/xlink" width="10px" height="10px" xmlns="http://www.w3.org/2000/svg">
  <g transform="matrix(1 0 0 1 -1559 -287 )">
    <path d="M 1564 287  C 1566.8 287  1569 289.2  1569 292  C 1569 294.8  1566.8 297  1564 297  C 1561.2 297  1559 294.8  1559 292  C 1559 289.2  1561.2 287  1564 287  Z " fill-rule="nonzero" fill="#0000ff" stroke="none" />
    <path d="M 1564 287.5  C 1566.52 287.5  1568.5 289.48  1568.5 292  C 1568.5 294.52  1566.52 296.5  1564 296.5  C 1561.48 296.5  1559.5 294.52  1559.5 292  C 1559.5 289.48  1561.48 287.5  1564 287.5  Z " stroke-width="1" stroke="#0000ff" fill="none" />
  </g>
</svg>