<?xml version="1.0" encoding="utf-8"?>
<svg version="1.1" xmlns:xlink="http://www.w3.org/1999/xlink" width="10px" height="10px" xmlns="http://www.w3.org/2000/svg">
  <g transform="matrix(1 0 0 1 -1559 -326 )">
    <path d="M 1564 326  C 1566.8 326  1569 328.2  1569 331  C 1569 333.8  1566.8 336  1564 336  C 1561.2 336  1559 333.8  1559 331  C 1559 328.2  1561.2 326  1564 326  Z " fill-rule="nonzero" fill="#ff0000" stroke="none" />
    <path d="M 1564 326.5  C 1566.52 326.5  1568.5 328.48  1568.5 331  C 1568.5 333.52  1566.52 335.5  1564 335.5  C 1561.48 335.5  1559.5 333.52  1559.5 331  C 1559.5 328.48  1561.48 326.5  1564 326.5  Z " stroke-width="1" stroke="#ff0000" fill="none" />
  </g>
</svg>