<?xml version="1.0" encoding="utf-8"?>
<svg version="1.1" xmlns:xlink="http://www.w3.org/1999/xlink" width="10px" height="10px" xmlns="http://www.w3.org/2000/svg">
  <g transform="matrix(1 0 0 1 -1557 -364 )">
    <path d="M 1562 364  C 1564.8 364  1567 366.2  1567 369  C 1567 371.8  1564.8 374  1562 374  C 1559.2 374  1557 371.8  1557 369  C 1557 366.2  1559.2 364  1562 364  Z " fill-rule="nonzero" fill="#07dbff" stroke="none" />
    <path d="M 1562 364.5  C 1564.52 364.5  1566.5 366.48  1566.5 369  C 1566.5 371.52  1564.52 373.5  1562 373.5  C 1559.48 373.5  1557.5 371.52  1557.5 369  C 1557.5 366.48  1559.48 364.5  1562 364.5  Z " stroke-width="1" stroke="#07dbff" fill="none" />
  </g>
</svg>