<?xml version="1.0" encoding="utf-8"?>
<svg version="1.1" xmlns:xlink="http://www.w3.org/1999/xlink" width="111px" height="54px" xmlns="http://www.w3.org/2000/svg">
  <defs>
    <linearGradient gradientUnits="userSpaceOnUse" x1="0" y1="21" x2="99" y2="21" id="LinearGradient118">
      <stop id="Stop119" stop-color="#07dbff" offset="0" />
      <stop id="Stop120" stop-color="#07dbff" offset="0.4" />
      <stop id="Stop121" stop-color="#f6f6f9" offset="0.96" />
      <stop id="Stop122" stop-color="#f6f6f9" offset="1" />
    </linearGradient>
    <linearGradient gradientUnits="userSpaceOnUse" x1="0" y1="21" x2="99" y2="21" id="LinearGradient123">
      <stop id="Stop124" stop-color="#07dbff" offset="0" />
      <stop id="Stop125" stop-color="#07dbff" offset="0.4" />
      <stop id="Stop126" stop-color="#f6f6f9" offset="0.96" />
      <stop id="Stop127" stop-color="#f6f6f9" offset="1" />
    </linearGradient>
  </defs>
  <g transform="matrix(1 0 0 1 -778 -243 )">
    <path d="M 5.590046334239151 2.1797664951121236  L 56.41935483870964 22  L 75.58064516129036 22  L 99 42  " stroke-width="2" stroke="url(#LinearGradient118)" fill="none" transform="matrix(1 0 0 1 788 253 )" />
    <path d="M 3.260860375638317 -2.2284695390592715  C 1.3278637512305396 -2.2284695390592715  -0.239139624361683 -0.6614661634670491  -0.239139624361683 1.2715304609407283  C -0.239139624361683 3.2045270853485057  1.3278637512305396 4.7715304609407285  3.260860375638317 4.7715304609407285  C 5.193857000046094 4.7715304609407285  6.760860375638317 3.2045270853485057  6.760860375638317 1.2715304609407283  C 6.760860375638317 -0.6614661634670491  5.193857000046094 -2.2284695390592715  3.260860375638317 -2.2284695390592715  Z M 3.260860375638317 -0.2284695390592717  C 4.089287500384507 -0.2284695390592717  4.760860375638317 0.44310333619453823  4.760860375638317 1.2715304609407283  C 4.760860375638317 2.0999575856869184  4.089287500384507 2.7715304609407285  3.260860375638317 2.7715304609407285  C 2.4324332508921263 2.7715304609407285  1.760860375638317 2.0999575856869184  1.760860375638317 1.2715304609407283  C 1.760860375638317 0.44310333619453823  2.432433250892127 -0.2284695390592717  3.260860375638317 -0.2284695390592717  Z " fill-rule="nonzero" fill="url(#LinearGradient123)" stroke="none" transform="matrix(1 0 0 1 788 253 )" />
  </g>
</svg>