<?xml version="1.0" encoding="utf-8"?>
<svg version="1.1" xmlns:xlink="http://www.w3.org/1999/xlink" width="133px" height="60px" xmlns="http://www.w3.org/2000/svg">
  <defs>
    <linearGradient gradientUnits="userSpaceOnUse" x1="0" y1="24.499999999999996" x2="121" y2="24.499999999999996" id="LinearGradient128">
      <stop id="Stop129" stop-color="#07dbff" offset="0" />
      <stop id="Stop130" stop-color="#07dbff" offset="0.4" />
      <stop id="Stop131" stop-color="#f6f6f9" offset="0.96" />
      <stop id="Stop132" stop-color="#f6f6f9" offset="1" />
    </linearGradient>
    <linearGradient gradientUnits="userSpaceOnUse" x1="0" y1="24.499999999999996" x2="121" y2="24.499999999999996" id="LinearGradient133">
      <stop id="Stop134" stop-color="#07dbff" offset="0" />
      <stop id="Stop135" stop-color="#07dbff" offset="0.4" />
      <stop id="Stop136" stop-color="#f6f6f9" offset="0.96" />
      <stop id="Stop137" stop-color="#f6f6f9" offset="1" />
    </linearGradient>
  </defs>
  <g transform="matrix(1 0 0 1 -686 -562 )">
    <path d="M 5.428647063122561 46.444654095332176  L 84.97709923664115 9  L 108.99236641221376 9  L 121 0  " stroke-width="2" stroke="url(#LinearGradient128)" fill="none" transform="matrix(1 0 0 1 696 563 )" />
    <path d="M 3.166710739199804 44.009381578026684  C 1.2337141147920268 44.009381578026684  -0.33328926080019583 45.576384953618906  -0.33328926080019583 47.509381578026684  C -0.33328926080019583 49.44237820243446  1.2337141147920268 51.009381578026684  3.166710739199804 51.009381578026684  C 5.099707363607582 51.009381578026684  6.666710739199804 49.44237820243446  6.666710739199804 47.509381578026684  C 6.666710739199804 45.576384953618906  5.09970736360758 44.009381578026684  3.166710739199804 44.009381578026684  Z M 3.166710739199804 46.009381578026684  C 3.9951378639459945 46.009381578026684  4.666710739199804 46.68095445328049  4.666710739199804 47.509381578026684  C 4.666710739199804 48.337808702772875  3.995137863945994 49.009381578026684  3.166710739199804 49.009381578026684  C 2.338283614453614 49.009381578026684  1.6667107391998042 48.337808702772875  1.6667107391998042 47.509381578026684  C 1.6667107391998042 46.68095445328049  2.338283614453614 46.009381578026684  3.166710739199804 46.009381578026684  Z " fill-rule="nonzero" fill="url(#LinearGradient133)" stroke="none" transform="matrix(1 0 0 1 696 563 )" />
  </g>
</svg>