<?xml version="1.0" encoding="utf-8"?>
<svg version="1.1" xmlns:xlink="http://www.w3.org/1999/xlink" width="91px" height="44px" xmlns="http://www.w3.org/2000/svg">
  <defs>
    <linearGradient gradientUnits="userSpaceOnUse" x1="0" y1="16.5" x2="80" y2="16.5" id="LinearGradient148">
      <stop id="Stop149" stop-color="#07dbff" offset="0" />
      <stop id="Stop150" stop-color="#07dbff" offset="0.4" />
      <stop id="Stop151" stop-color="#f6f6f9" offset="0.96" />
      <stop id="Stop152" stop-color="#f6f6f9" offset="1" />
    </linearGradient>
    <linearGradient gradientUnits="userSpaceOnUse" x1="0" y1="16.5" x2="80" y2="16.5" id="LinearGradient153">
      <stop id="Stop154" stop-color="#07dbff" offset="0" />
      <stop id="Stop155" stop-color="#07dbff" offset="0.4" />
      <stop id="Stop156" stop-color="#f6f6f9" offset="0.96" />
      <stop id="Stop157" stop-color="#f6f6f9" offset="1" />
    </linearGradient>
  </defs>
  <g transform="matrix(1 0 0 1 -1152 -594 )">
    <path d="M 80 31  L 40 0  L 18 7  L 0 0  " stroke-width="2" stroke="url(#LinearGradient148)" fill="none" transform="matrix(1 0 0 1 1153 595 )" />
    <path d="M 79.91217602382889 27.5585493174474  C 77.97917939942111 27.5585493174474  76.41217602382889 29.125552693039623  76.41217602382889 31.0585493174474  C 76.41217602382889 32.99154594185518  77.97917939942111 34.5585493174474  79.91217602382889 34.5585493174474  C 81.84517264823667 34.5585493174474  83.41217602382889 32.99154594185518  83.41217602382889 31.0585493174474  C 83.41217602382889 29.125552693039623  81.84517264823667 27.5585493174474  79.91217602382889 27.5585493174474  Z M 79.91217602382889 29.5585493174474  C 80.74060314857508 29.5585493174474  81.41217602382889 30.23012219270121  81.41217602382889 31.0585493174474  C 81.41217602382889 31.886976442193593  80.74060314857508 32.5585493174474  79.91217602382889 32.5585493174474  C 79.0837488990827 32.5585493174474  78.41217602382889 31.886976442193593  78.41217602382889 31.0585493174474  C 78.41217602382889 30.23012219270121  79.0837488990827 29.5585493174474  79.91217602382889 29.5585493174474  Z " fill-rule="nonzero" fill="url(#LinearGradient153)" stroke="none" transform="matrix(1 0 0 1 1153 595 )" />
  </g>
</svg>