<?xml version="1.0" encoding="utf-8"?>
<svg version="1.1" xmlns:xlink="http://www.w3.org/1999/xlink" width="30px" height="28px" xmlns="http://www.w3.org/2000/svg">
  <g transform="matrix(1 0 0 1 -1601 -543 )">
    <path d="M 28.469387755101934 5.5164062500000455  C 28.925570228091146 5.6960937500000455  29.27971188475385 5.953645833333326  29.53181272509005 6.2890625  C 30.01200480192074 6.9718749999999545  30.120048019207616 7.744531250000023  29.85594237695068 8.607031249999977  L 24.903961584633862 24.88671875  C 24.67587034813937 25.65338541666665  24.216686674669972 26.297265625000023  23.52641056422567 26.818359375  C 22.836134453781597 27.339453124999977  22.100840336134524 27.600000000000023  21.320528211284454 27.600000000000023  L 4.699879951980847 27.600000000000023  C 3.7755102040816837 27.600000000000023  2.884153661464552 27.27955729166672  2.0258103241296794 26.638671875  C 1.1674669867948069 25.997786458333394  0.5702280912364586 25.210156250000068  0.23409363745508927 24.275781250000023  C -0.0540216086435521 23.473177083333326  -0.06602641056429093 22.712499999999977  0.1980792316926454 21.993749999999977  C 0.1980792316926454 21.945833333333326  0.21608643457375365 21.78411458333335  0.2521008403361975 21.508593750000045  C 0.288115246098414 21.23307291666663  0.31212484993989165 21.011458333333394  0.32412965186085785 20.84375  C 0.3361344537815967 20.747916666666697  0.31812725090026106 20.619140625  0.27010804321730575 20.457421875000023  C 0.22208883553412306 20.295703125000045  0.20408163265301482 20.178906250000068  0.21608643457375365 20.107031249999977  C 0.24009603841545868 19.97526041666663  0.288115246098414 19.849479166666697  0.36014405762307433 19.729687500000068  C 0.4321728691477347 19.609895833333326  0.5312124849940574 19.469140625000023  0.6572629051620424 19.307421875000045  C 0.7833133253300275 19.145703125000068  0.8823529411765776 19.00494791666665  0.9543817527010104 18.885156250000023  C 1.2304921968786857 18.42994791666672  1.5006002400959915 17.88190104166665  1.7647058823529278 17.241015625000045  C 2.028811524609864 16.600130208333326  2.2088835534214013 16.05208333333337  2.3049219687875393 15.596875000000068  C 2.340936374549756 15.477083333333326  2.3439375750299405 15.297395833333326  2.3139255702280934 15.057812500000068  C 2.2839135654262464 14.818229166666697  2.2809123649460616 14.650520833333301  2.3049219687875393 14.554687500000002  C 2.340936374549756 14.422916666666652  2.442977190876263 14.255208333333371  2.6110444177670615 14.051562500000045  C 2.77911164465786 13.84791666666672  2.8811524609843673 13.710156249999955  2.917166866746811 13.638281249999977  C 3.1692677070827813 13.20703125  3.421368547418979 12.655989583333394  3.6734693877551763 11.985156250000045  C 3.9255702280911464 11.314322916666697  4.0756302521008365 10.775260416666697  4.123649459784019 10.367968750000045  C 4.135654261704758 10.260156250000023  4.1206482593038345 10.068489583333303  4.078631452581021 9.79296875  C 4.036614645858435 9.517447916666697  4.03961584633862 9.349739583333303  4.087635054021575 9.289843750000045  C 4.135654261704758 9.134114583333371  4.2677070828331125 8.95143229166672  4.483793517406866 8.741796874999977  C 4.699879951980847 8.532161458333348  4.831932773109202 8.397395833333348  4.879951980792384 8.337499999999977  C 5.108043217286877 8.026041666666629  5.363145258103259 7.519921875000023  5.645258103241304 6.8191406250000455  C 5.927370948379348 6.1183593749999545  6.092436974789962 5.540364583333371  6.140456182472917 5.0851562499999545  C 6.152460984393656 4.9893229166666515  6.134453781512548 4.836588541666629  6.086434573829592 4.626953125  C 6.03841536614641 4.417317708333371  6.026410564225671 4.2585937500000455  6.0504201680671486 4.150781250000023  C 6.074429771908854 4.05494791666672  6.128451380552178 3.9471354166666965  6.2124849939975775 3.8273437499999545  C 6.296518607442977 3.707552083333326  6.4045618247298535 3.5697916666666747  6.536614645858435 3.4140625  C 6.66866746698679 3.2583333333333258  6.770708283313297 3.1325520833332803  6.842737094837958 3.0367187499999773  C 6.9387755102040956 2.8929687500000227  7.037815126050418 2.7102864583333712  7.139855942376926 2.4886718750000227  C 7.241896758703433 2.2670572916666742  7.331932773109202 2.0574218750000455  7.409963985594231 1.8597656250000227  C 7.487995198079261 1.662109375  7.584033613445399 1.4464843749999545  7.698079231692645 1.212890625  C 7.812124849939892 0.9792968750000455  7.929171668667551 0.7876302083333258  8.049219687875166 0.6378906249999545  C 8.169267707082781 0.4881510416666969  8.328331332533025 0.3473958333332803  8.526410564225671 0.21562500000004547  C 8.724489795918316 0.08385416666669698  8.940576230492297 0.01497395833337123  9.17466986794716 0.008984374999954525  C 9.408763505402248 0.0029947916666515084  9.693877551020478 0.035937500000045475  10.030012004801847 0.10781250000002274  L 10.012004801920739 0.16171874999997726  C 10.468187274909951 0.053906249999954525  10.774309723889473 0  10.930372148859533 0  L 24.633853541416556 0  C 25.522208883553503 0  26.206482593037208 0.33541666666667425  26.686674669867898 1.0062500000000227  C 27.166866746698588 1.6770833333333712  27.274909963985692 2.4557291666666288  27.010804321728756 3.3421875000000227  L 22.07683073229282 19.621875000000045  C 21.644657863145312 21.047395833333326  21.215486194477762 21.966796875  20.789315726290624 22.380078125000068  C 20.36314525810326 22.793359375000023  19.59183673469397 23  18.47539015606253 23  L 2.8271308523410426 23  C 2.5030012004801847 23  2.2749099639856922 23.08984375  2.1428571428571104 23.26953125  C 2.010804321728756 23.46119791666672  2.0048019207683865 23.71875  2.124849939976002 24.042187500000068  C 2.412965186074416 24.880729166666697  3.277310924369658 25.300000000000068  4.717887154861955 25  L 21.338535414165563 25  C 21.686674669867898 25.300000000000068  22.022809123649495 25.207161458333303  22.346938775510125 25.021484375  C 22.671068427370983 24.835807291666697  22.881152460984367 24.58723958333337  22.977190876350505 24.275781250000023  L 28.379351740696166 6.540624999999977  C 28.463385354141565 6.27708333333328  28.49339735894364 5.935677083333303  28.469387755101934 5.5164062500000455  Z M 10.750300120047996 5.1749999999999545  L 10.372148859543813 6.3250000000000455  C 10.324129651860858 6.48072916666672  10.336134453781597 6.61549479166672  10.40816326530603 6.7292968750000455  C 10.48019207683069 6.843098958333371  10.600240096038306 6.899999999999977  10.768307322929104 7  L 21.716686674669972 7  C 21.872749099639805 6.899999999999977  22.02581032412968 6.843098958333371  22.175870348139142 6.7292968750000455  C 22.325930372148832 6.61549479166672  22.424969987995155 6.48072916666672  22.472989195678338 6.3250000000000455  L 22.85114045618252 5.1749999999999545  C 22.899159663865476 5.01927083333328  22.887154861944737 4.88450520833328  22.815126050420076 4.7707031249999545  C 22.743097238895643 4.656901041666629  22.6230492196878 4.600000000000023  22.45498199279723 5  L 11.50660264105636 5  C 11.350540216086529 4.600000000000023  11.197478991596654 4.656901041666629  11.047418967586964 4.7707031249999545  C 10.897358943577501 4.88450520833328  10.798319327731178 5.01927083333328  10.750300120047996 5.1749999999999545  Z M 9.255702280912374 9.774999999999977  L 8.877551020408191 10.924999999999955  C 8.829531812725008 11.080729166666629  8.841536614645747 11.215494791666629  8.913565426170408 11.329296874999955  C 8.985594237695068 11.443098958333394  9.105642256902684 11.5  9.273709483793482 12  L 20.222088835534123 12  C 20.378151260504183 11.5  20.531212484994057 11.443098958333394  20.68127250900352 11.329296874999955  C 20.83133253301321 11.215494791666629  20.930372148859533 11.080729166666629  20.978391356542716 10.924999999999955  L 21.356542617046898 9.774999999999977  C 21.404561824729853 9.619270833333303  21.392557022809115 9.484505208333303  21.320528211284454 9.370703124999977  C 21.248499399759794 9.256901041666652  21.12845138055218 9.200000000000045  20.96038415366138 9.200000000000045  L 10.012004801920739 9.200000000000045  C 9.85594237695068 9.200000000000045  9.702881152461032 9.256901041666652  9.552821128451342 9.370703124999977  C 9.402761104441879 9.484505208333303  9.303721488595329 9.619270833333303  9.255702280912374 9.774999999999977  Z " fill-rule="nonzero" fill="#07dbff" stroke="none" transform="matrix(1 0 0 1 1601 543 )" />
  </g>
</svg>