<?xml version="1.0" encoding="utf-8"?>
<svg version="1.1" xmlns:xlink="http://www.w3.org/1999/xlink" width="30px" height="27px" xmlns="http://www.w3.org/2000/svg">
  <g transform="matrix(1 0 0 1 -1601 -656 )">
    <path d="M 28.7109375 0.08829431438130086  C 29.0234375 -0.03924191750274986  29.31640625 -0.009810479375687464  29.58984375 0.17658862876248804  C 29.86328125 0.3727982162764647  30 0.6327759197324667  30 0.9565217391303804  L 30 21.676254180601973  C 30 21.87246376811595  29.9462890625 22.049052396878437  29.8388671875 22.206020066889664  C 29.7314453125 22.362987736900777  29.58984375 22.47580824972124  29.4140625 22.544481605351166  L 20.0390625 26.311705685618676  C 19.8046875 26.419620958751352  19.5703125 26.419620958751352  19.3359375 26.311705685618676  L 10.3125 22.69163879598659  L 1.2890625 26.311705685618676  C 1.19140625 26.360758082497227  1.07421875 26.38528428093639  0.9375 26.38528428093639  C 0.751953125 26.38528428093639  0.576171875 26.33132664437005  0.41015625 26.22341137123749  C 0.13671875 26.027201783723513  0 25.76722408026751  0 25.443478260869597  L 0 4.723745819398005  C 0 4.527536231884028  0.0537109375 4.35094760312154  0.1611328125 4.193979933110313  C 0.2685546875 4.0370122630992  0.41015625 3.9241917502787373  0.5859375 3.855518394648812  L 9.9609375 0.08829431438130086  C 10.1953125 -0.01962095875137493  10.4296875 -0.01962095875137493  10.6640625 0.08829431438130086  L 19.6875 3.7083612040133858  L 28.7109375 0.08829431438130086  Z M 19 5.547826086956547  L 11 2.163210702341189  L 11 20.85217391304343  L 19 24.236789297658788  L 19 5.547826086956547  Z M 10 2.163210702341189  L 2 5.356521739130471  L 2 24.045484949832712  L 10 20.85217391304343  L 10 2.163210702341189  Z M 20 24.236789297658788  L 28 21.043478260869506  L 28 2.354515050167265  L 20 5.547826086956547  L 20 24.236789297658788  Z " fill-rule="nonzero" fill="#07dbff" stroke="none" transform="matrix(1 0 0 1 1601 656 )" />
  </g>
</svg>