<?xml version="1.0" encoding="utf-8"?>
<svg version="1.1" xmlns:xlink="http://www.w3.org/1999/xlink" width="100px" height="22px" xmlns="http://www.w3.org/2000/svg">
  <defs>
    <linearGradient gradientUnits="userSpaceOnUse" x1="0" y1="11" x2="100" y2="11" id="LinearGradient168">
      <stop id="Stop169" stop-color="#0000ff" offset="0" />
      <stop id="Stop170" stop-color="#f6f6f9" offset="1" />
    </linearGradient>
  </defs>
  <g transform="matrix(1 0 0 1 -1566 -1042 )">
    <path d="M 99.80760305372428 0.1561755644158893  C 99.85693560405139 0.32758776926266364  99.83226932888783 0.4736055733912963  99.81993619130617 0.6259719776994643  C 99.80760305372428 0.7529439812897181  99.79526991614239 0.8862645850595071  99.77060364097906 1.0132365886495336  C 99.74593736581551 1.1275113918807165  99.72127109065195 1.235437594932364  99.68427167790674 1.3497123981635468  C 99.64727226516129 1.4766844017535732  99.61027285241585 1.603656405343827  99.56094030208874 1.7306284089340804  C 99.52394088934352 1.8449032121652638  99.47460833901641 1.9591780153964464  99.42527578868953 2.0671042184478665  C 99.3759432383622 2.1940762220381202  99.3142775504532 2.3146996254488386  99.25261186254443 2.441671629038865  C 99.19094617463566 2.555946432270048  99.12928048672688 2.6702212355012307  99.055281661236 2.7781474385528777  C 98.98128283574556 2.905119442143132  98.90728401025467 3.02574284555385  98.82095204718235 3.1527148491438766  C 98.74695322169191 3.260641052195524  98.66062125861936 3.3749158554267074  98.57428929554703 3.4828420584783544  C 98.47562419489282 3.609814062068608  98.36462595665671 3.7431346658381703  98.25362771842083 3.870106669428423  C 98.15496261776661 3.978032872480071  98.0562975171124 4.0859590755317186  97.95763241645841 4.193885278583139  C 97.83430104064041 4.320857282173392  97.71096966482287 4.447829285763646  97.57530515142321 4.5748012893536725  C 97.42730750044188 4.714470493302997  97.29164298704268 4.847791097072559  97.13131219847946 4.981111700842348  C 97.09431278573425 5.012854701739798  97.0573133729888 5.044597702637475  97.02031396024336 5.076340703534925  C 96.78598434618993 5.273147309099613  96.5393215945544 5.463605314484994  96.28032570533719 5.6604119200496825  C 96.23099315501008 5.698503521126895  96.18166060468297 5.730246522024345  96.13232805435587 5.76833812310133  C 95.87333216513844 5.958796128486483  95.58967000075768 6.149254133871865  95.29367469879526 6.339712139257244  C 95.24434214846792 6.37780374033423  95.18267646055915 6.409546741231679  95.12101077265038 6.447638342308892  C 94.86201488343318 6.612701946975904  94.59068585663408 6.777765551643142  94.30702369225332 6.936480556130846  C 94.23302486676266 6.980920757387594  94.15902604127223 7.025360958644114  94.07269407819945 7.069801159900635  C 93.73969936349181 7.260259165285788  93.39437151120205 7.444368570491633  93.03671052133063 7.6284779756974785  C 92.97504483342163 7.660220976594928  92.90104600793097 7.691963977492378  92.8393803200222 7.723706978390055  C 92.56805129322333 7.863376182339152  92.27205599126069 7.996696786108714  91.98839382687993 8.130017389878503  C 91.75406421282605 8.23794359293015  91.5197345987724 8.345869795981798  91.27307184713686 8.453795999033446  C 91.0510753706651 8.555373601905558  90.81674575661123 8.650602604598134  90.58241614255758 8.745831607290711  C 90.32342025334037 8.853757810342358  90.06442436412317 8.95533541321447  89.80542847490597 9.056913016086583  C 89.55876572327043 9.152142018779386  89.31210297163511 9.247371021471963  89.06544021999935 9.34260002416454  C 88.79411119320048 9.44417762703688  88.51044902881972 9.545755229908991  88.22678686443874 9.647332832781103  C 87.96779097522153 9.74256183547368  87.69646194842267 9.831442237986721  87.42513292162357 9.926671240679298  C 87.12913761966092 10.02824884355141  86.8331423176985 10.123477846243986  86.52481387815419 10.21870684893679  C 86.14248661311922 10.339330252347281  85.77249248566591 10.466302255937535  85.36549894546738 10.580577059168718  C 84.62551069056099 10.802778065451548  83.84852302290938 11.012281871375308  83.07153535525754 11.221785677299065  C 82.84953887878578 11.278923078914659  82.6152092647319 11.33606048053025  82.39321278826014 11.393197882145842  C 81.78888904675318 11.54556428645401  81.17223216766433 11.69793069076218  80.54324215099382 11.843948494891038  C 80.33357881210372 11.894737296326866  80.12391547321363 11.945526097763148  79.91425213432353 11.98996629901967  C 79.10026505392648 12.174075704225288  78.27394483594753 12.345487909072062  77.43529148038715 12.510551513739301  C 77.2872938294056 12.542294514636751  77.1392961784245 12.567688915354893  76.97896538986129 12.593083316072807  C 76.26364341011845 12.726403919842596  75.54832143037561 12.859724523612384  74.82066631305088 12.980347927022878  C 74.52467101108846 13.031136728458932  74.21634257154415 13.081925529894988  73.9203472695815 13.13271433133127  C 73.51335372938297 13.196200333126171  73.11869332676633 13.259686334921298  72.7116997865678 13.323172336716423  C 72.36637193427805 13.373961138152481  72.02104408198852 13.424749939588537  71.67571622969876 13.475538741024593  C 71.26872268950024 13.532676142640184  70.84939601171982 13.589813544255776  70.4300693339394 13.646950945871367  C 70.0847414816501 13.691391147127886  69.73941362936034 13.742179948563944  69.3817526394887 13.78027154964093  C 68.9624259617085 13.831060351076985  68.54309928392809 13.88184915251304  68.11143946856623 13.932637953949325  C 67.76611161627648 13.970729555026082  67.40845062640506 14.01516975628283  67.05078963653364 14.053261357359816  C 66.61912982117155 14.097701558616336  66.18747000580947 14.142141759873082  65.7434770528655 14.186581961129377  C 65.41048233815786 14.218324962027054  65.07748762344977 14.250067962924733  64.7444929087419 14.281810963822181  C 63.80717445252708 14.364342766155687  62.86985599631225 14.44687456848942  61.932537540097655 14.510360570284545  C 61.796873026697995 14.523057770643389  61.66120851329834 14.529406370822926  61.52554399989912 14.535754971002463  C 60.69922378192019 14.592892372618278  59.87290356394146 14.643681174054109  59.046583345962524 14.688121375310855  C 58.72592176883632 14.707167175849236  58.417593329292 14.719864376208307  58.09693175216603 14.738910176746685  C 57.56660683614974 14.764304577464827  57.03628192013343 14.789698978182741  56.49362386653547 14.80874477872135  C 56.16062915182738 14.821441979080193  55.81530129953784 14.834139179439262  55.482306584829985 14.846836379798333  C 54.92731539365013 14.86588218033694  54.37232420247028 14.878579380696008  53.804999873708766 14.891276581055083  C 53.484338296582564 14.897625181234616  53.17600985703825 14.903973781413926  52.85534827991205 14.91032238159346  C 52.37435591422286 14.916670981772995  51.893363548533664 14.92301958195253  51.41237118284471 14.92301958195253  C 51.06704333055495 14.92301958195253  50.73404861584708 14.929368182132066  50.38872076355732 14.929368182132066  C 49.87072898512292 14.929368182132066  49.35273720668829 14.92301958195253  48.83474542825388 14.92301958195253  C 48.52641698870957 14.92301958195253  48.21808854916526 14.92301958195253  47.90976010962072 14.916670981772995  C 47.42876774393176 14.91032238159346  46.96010851582423 14.897625181234616  46.47911615013504 14.884927980875545  C 46.146121435427176 14.878579380696008  45.81312672071931 14.872230780516475  45.480132006011445 14.86588218033694  C 44.96214022757704 14.853184979977868  44.456481586724294 14.834139179439262  43.93848980828966 14.815093378900883  C 43.64249450632724 14.802396178541812  43.34649920436459 14.796047578362275  43.06283703998383 14.783350378003432  C 42.45851329847687 14.757955977285292  41.854189556969914 14.726212976387616  41.24986581546318 14.694469975490165  C 41.05253561415475 14.681772775131321  40.85520541284632 14.675424174951786  40.670208349119775 14.662726974592715  C 39.86855440630438 14.618286773336196  39.07923360107088 14.567497971900139  38.28991279583738 14.510360570284545  C 38.15424828243795 14.497663369925476  38.018583769038514 14.484966169566405  37.88291925563885 14.47861756938687  C 37.21692982622312 14.427828767950812  36.55094039680739 14.377039966514758  35.88495096739143 14.313553964719631  C 35.601288803010675 14.288159564001717  35.31762663862992 14.256416563104267  35.03396447424916 14.231022162386125  C 34.51597269581475 14.180233360949844  34.01031405496201 14.135793159693549  33.504655414109266 14.078655758077957  C 33.23332638731017 14.053261357359816  32.97433049809297 14.021518356462366  32.703001471293874 13.98977535556469  C 32.14801028011425 13.92628935376979  31.580685951352507 13.862803351974662  31.025694760172883 13.79296875  C 30.717366320628344 13.754877148923015  30.409037881084032 13.716785547845804  30.10070944153972 13.672345346589282  C 29.595050800686977 13.608859344794384  29.089392159834233 13.53902474281972  28.59606665656338 13.469190140845058  C 28.312404492182395 13.431098539768074  28.028742327801638 13.386658338511552  27.745080163420884 13.342218137255031  C 26.955759358187382 13.221594733844313  26.16643855295388 13.100971330433595  25.389450885302267 12.967650726664035  C 25.25378637190261 12.942256325945891  25.118121858503173 12.923210525407285  24.97012420752185 12.897816124689145  C 24.08213830163413 12.745449720381202  23.206485533328305 12.574037515534428  22.34316590260414 12.402625310687654  C 21.985504912732722 12.332790708713219  21.640177060442966 12.256607506559021  21.29484920815321 12.186772904584359  C 21.023520181354343 12.129635502968767  20.739858016973585 12.072498101353176  20.46852899017449 12.00901209955805  C 20.073868587557854 11.920131697045008  19.69154132252288 11.831251294531967  19.30921405748768 11.742370892018926  C 19.062551305852367 11.685233490403336  18.803555416635163 11.628096088787515  18.556892664999623 11.564610086992616  C 18.137565987219205 11.463032484120504  17.730572447020677 11.355106281068856  17.311245769240486 11.247180078017209  C 17.10158243035039 11.196391276581153  16.90425222904196 11.145602475145097  16.694588890151863 11.088465073529505  C 16.090265148644903 10.923401468862266  15.485941407137943 10.758337864195028  14.906283940794538 10.580577059168718  C 5.0891064257027665 7.660220976594928  0.18051766815688097 3.832015068351211  0.20518394332043496 0.0038091601077212545  L 0.16818453057499028 6.980920757387594  C 0.14351825541166363 10.809126665631084  5.052107012957549 14.637332573874573  14.86928452804932 17.55768865644859  C 15.46127513197439 17.729100861295137  16.053265735899686 17.90051306614191  16.657589477406418 18.06557667080915  C 16.85491967871485 18.122714072424742  17.064583017604946 18.173502873860798  17.27424635649527 18.224291675296854  C 17.68123989669357 18.33221787834873  18.100566574473987 18.440144081400376  18.519893252254406 18.54172168427226  C 18.76655600388972 18.605207686067388  19.025551893106922 18.66234508768298  19.272214644742462 18.71948248929857  C 19.654541909777436 18.808362891811612  20.03686917481241 18.89724329432488  20.431529577429274 18.98612369683792  C 20.702858604228368 19.043261098453513  20.986520768609125 19.10674710024864  21.257849795407992 19.16388450186423  C 21.529178822207086 19.221021903479595  21.78817471142429 19.278159305095187  22.047170600641493 19.33529670671078  C 22.133502563714046 19.354342507249385  22.21983452678637 19.367039707608456  22.306166489858697 19.38608550814706  C 23.169486120583088 19.55749771299361  24.045138888888914 19.728909917840383  24.93312479477663 19.88127632214855  C 25.068789308176065 19.906670722866693  25.204453821575502 19.92571652340507  25.352451472556826 19.951110924123213  C 26.12943914020866 20.084431527893003  26.91875994544216 20.21140353148303  27.708080750675663 20.325678334714212  C 27.8437452640751 20.344724135252818  27.96707663989287 20.370118535970732  28.1027411532923 20.38916433650934  C 28.250738804273624 20.408210137047718  28.41106959283661 20.427255937586324  28.559067243817935 20.452650338304466  C 29.06472588467068 20.5224849402789  29.55805138794176 20.592319542253335  30.063710028794503 20.65580554404869  C 30.372038468338815 20.693897145125675  30.680366907883126 20.738337346382195  30.988695347427438 20.77642894745918  C 31.54368653860729 20.846263549433843  32.09867772978714 20.90974955122897  32.666002058548656 20.973235553024097  C 32.87566539743875 20.99862995374201  33.085328736329075 21.024024354460153  33.29499207521917 21.04307015499853  C 33.35665776312794 21.049418755178067  33.40599031345505 21.055767355357602  33.46765600136405 21.062115955537138  C 33.973314642216565 21.112904756973194  34.4913064206512 21.16369355840925  35.009298199085606 21.214482359845306  C 35.292960363466364 21.239876760563448  35.56428939026546 21.271619761460897  35.847951554646215 21.29701416217904  C 36.513940984061946 21.35415156379463  37.19226355105957 21.411288965409994  37.87058611805719 21.462077766846278  C 37.99391749387496 21.468426367025813  38.1172488696925 21.481123567384657  38.22824710792861 21.493820767743728  C 38.24058024551027 21.493820767743728  38.24058024551027 21.493820767743728  38.252913383092164 21.493820767743728  C 39.042234188325665 21.55095816935932  39.831554993559166 21.601746970795375  40.63320893637433 21.646187172051896  C 40.8182060001011 21.658884372410967  40.99086992624575 21.665232972590502  41.17586698997252 21.671581572770037  C 41.79252386906114 21.703324573667487  42.409180748149765 21.735067574564937  43.02583762723839 21.766810575462614  C 43.03817076482028 21.766810575462614  43.05050390240217 21.766810575462614  43.0751701775655 21.766810575462614  C 43.34649920436459 21.779507775821457  43.63016136874535 21.785856376000993  43.91382353312633 21.798553576360064  C 44.41948217397885 21.81759937689867  44.937473952413484 21.836645177437276  45.44313259326623 21.84934237779612  C 45.77612730797409 21.855690977975655  46.10912202268196 21.86203957815519  46.442116737389824 21.868388178334726  C 46.923109103079014 21.881085378693797  47.39176833118631 21.893782579052868  47.8727606968755 21.900131179232176  C 47.90976010962072 21.900131179232176  47.946759522366165 21.900131179232176  47.98375893511138 21.900131179232176  C 48.255087961910476 21.90647977941171  48.51408385112768 21.900131179232176  48.785412877926774 21.90647977941171  C 49.30340465636141 21.912828379591247  49.821396434795815 21.912828379591247  50.339388213230215 21.912828379591247  C 50.67238292793809 21.912828379591247  51.017710780227844 21.90647977941171  51.35070549493571 21.90647977941171  C 51.83169786062491 21.900131179232176  52.32502336389575 21.900131179232176  52.80601572958516 21.893782579052868  C 52.892347692657495 21.893782579052868  52.97867965572982 21.893782579052868  53.077344756384036 21.893782579052868  C 53.29934123285602 21.887433978873105  53.53367084690967 21.881085378693797  53.75566732338143 21.874736778514034  C 54.3106585145615 21.86203957815519  54.87798284332279 21.84934237779612  55.43297403450265 21.83029657725774  C 55.765968749210735 21.81759937689867  56.11129660150027 21.8049021765396  56.44429131620814 21.79220497618053  C 56.97461623222444 21.77315917564215  57.51727428582263 21.747764774924008  58.04759920183892 21.722370374206093  C 58.23259626556546 21.716021774026558  58.417593329292 21.709673173847023  58.60259039301855 21.69697597348795  C 58.738254906418206 21.690627373308416  58.861586282235976 21.677930172949573  58.997250795635416 21.671581572770037  C 59.82357101361413 21.627141371513517  60.64989123159308 21.576352570077233  61.47621144957179 21.51921516846187  C 61.61187596297145 21.512866568282107  61.74754047637089 21.500169367923263  61.88320498977033 21.493820767743728  C 62.83285658356703 21.423986165769065  63.77017503978186 21.347802963615095  64.6951603584148 21.265271161281362  C 64.78149232148735 21.258922561101826  64.86782428455967 21.25257396092229  64.954156247632 21.246225360742756  C 65.20081899926754 21.22083096002484  65.44748175090285 21.195436559306927  65.69414450253839 21.170042158588785  C 66.12580431790047 21.125601957332265  66.55746413326278 21.08751035625528  66.98912394862464 21.036721554819223  C 67.34678493849606 20.99862995374201  67.69211279078581 20.960538352665026  68.04977378065723 20.916098151408505  C 68.46910045843765 20.86530934997222  68.90076027379973 20.82086914871593  69.32008695157992 20.763731747100337  C 69.67774794145134 20.719291545843816  70.0230757937411 20.67485134458707  70.36840364603063 20.630411143330548  C 70.78773032381105 20.573273741714956  71.19472386400957 20.516136340099365  71.6017174042081 20.458998938484  C 71.94704525649763 20.408210137047718  72.29237310878739 20.35742133561189  72.63770096107692 20.306632534175606  C 73.04469450127544 20.24314653238048  73.4516880414742 20.17966053058558  73.84634844409061 20.116174528790452  C 74.01901237023571 20.084431527893003  74.20400943396226 20.059037127174633  74.37667336010713 20.03364272645672  C 74.5000047359249 20.01459692591834  74.62333611174245 19.9892025252002  74.74666748756022 19.963808124482057  C 75.47432260488495 19.83683612089203  76.18964458462801 19.709864117302004  76.90496656437062 19.576543513532215  C 77.05296421535195 19.544800512634765  77.21329500391516 19.519406111916624  77.36129265489626 19.494011711198482  C 78.19994601045687 19.32894810653147  79.02626622843582 19.157535901684696  79.84025330883287 18.973426496479078  C 80.04991664772297 18.92898629522233  80.25957998661329 18.878197493786274  80.46924332550316 18.827408692350218  C 81.09823334217367 18.681390888221358  81.71489022126252 18.535373084092953  82.31921396276925 18.376658079605022  C 82.54121043924124 18.319520677989658  82.77554005329489 18.262383276374067  82.99753652976688 18.205245874758248  C 83.77452419741871 18.002090669014024  84.53917872748866 17.786238262910956  85.29150011997672 17.5640372566279  C 85.50116345886681 17.500551254833  85.69849366017525 17.443413853217407  85.89582386148368 17.37992785142228  C 86.08082092521022 17.32279044980669  86.2534848513551 17.259304448011562  86.43848191508164 17.20216704639597  C 86.74681035462595 17.106938043703394  87.0428056565886 17.005360440831282  87.33880095855125 16.910131438138706  C 87.61012998535011 16.821251035625664  87.86912587456732 16.72602203293286  88.14045490136641 16.630793030240284  C 88.42411706574717 16.52921542736817  88.70777923012815 16.42763782449606  88.97910825692702 16.326060221623948  C 89.22577100856233 16.230831218931144  89.47243376019787 16.135602216238567  89.71909651183341 16.04037321354599  C 89.97809240105084 15.938795610673878  90.24942142784971 15.830869407622231  90.49608417948525 15.729291804750119  C 90.7304137935389 15.634062802057542  90.95241027001089 15.532485199185432  91.18673988406454 15.437256196492624  C 91.43340263570008 15.329329993441204  91.66773224975373 15.221403790389331  91.90206186380738 15.113477587337684  C 92.00072696446159 15.069037386081162  92.09939206511581 15.024597184824643  92.1980571657698 14.980156983568122  C 92.39538736707823 14.891276581055083  92.56805129322333 14.796047578362275  92.75304835694965 14.707167175849236  C 92.81471404485865 14.675424174951786  92.88871287034931 14.643681174054109  92.95037855825808 14.605589572977122  C 93.3080395481295 14.421480167771279  93.65336740041926 14.237370762565659  93.98636211512712 14.046912757180506  C 94.06036094061801 14.00247255592376  94.14669290369034 13.958032354667239  94.22069172918077 13.913592153410718  C 94.50435389356176 13.754877148923015  94.77568292036062 13.589813544255776  95.03467880957783 13.424749939588537  C 95.09634449748683 13.386658338511552  95.14567704781393 13.354915337613875  95.2073427357227 13.31682373653689  C 95.23200901088626 13.29777793599851  95.25667528604981 13.28508073563944  95.28134156121337 13.266034935100834  C 95.55267058801246 13.09462273025406  95.799333339648 12.91686192522775  96.03366295370165 12.739101120201667  C 96.08299550402876 12.701009519124455  96.13232805435587 12.669266518227005  96.18166060468297 12.63117491715002  C 96.44065649390018 12.440716911764639  96.68731924553572 12.243910306199952  96.92164885958914 12.047103700635262  C 96.95864827233459 12.015360699737585  96.99564768508003 11.983617698840135  97.03264709782525 11.951874697942458  C 97.11897906089757 11.87569149578849  97.2053110239699 11.805856893813825  97.29164298704268 11.729673691659855  C 97.36564181253311 11.666187689864728  97.41497436286022 11.602701688069603  97.47664005076899 11.54556428645401  C 97.61230456416843 11.418592282863756  97.7356359399862 11.29162027927373  97.8589673158042 11.15829967550394  C 97.95763241645818 11.05037347245252  98.0562975171124 10.942447269400645  98.15496261776661 10.834521066349225  C 98.26596085600272 10.707549062758972  98.3769590942386 10.574228458989182  98.47562419489282 10.447256455398929  C 98.52495674521992 10.390119053783565  98.57428929554703 10.332981652167746  98.62362184587414 10.275844250552382  C 98.66062125861913 10.225055449116326  98.68528753378291 10.167918047500734  98.72228694652813 10.117129246064678  C 98.80861890960068 9.99650584265396  98.88261773509134 9.869533839063706  98.95661656058178 9.74256183547368  C 99.01828224849078 9.628287032242497  99.09228107398144 9.52036082919085  99.15394676189021 9.406086025959667  C 99.21561244979898 9.27911402236964  99.27727813770798 9.158490618958922  99.32661068803532 9.031518615368668  C 99.35127696319864 8.961684013394006  99.40060951352575 8.898198011599106  99.4252757886893 8.828363409624444  C 99.43760892627097 8.783923208367924  99.44994206385286 8.739483007111403  99.46227520143452 8.68869420567512  C 99.51160775176163 8.561722202085093  99.54860716450708 8.43475019849484  99.58560657725252 8.307778194904813  C 99.61027285241585 8.19350339167363  99.64727226516129 8.085577188621983  99.67193854032485 7.971302385390799  C 99.69660481548817 7.844330381800546  99.70893795307006 7.711009778030984  99.72127109065195 7.584037774440731  C 99.73360422823362 7.507854572286759  99.74593736581551 7.431671370132563  99.75827050339717 7.355488167978592  C 99.75827050339717 7.2793049658243945  99.77060364097906 7.203121763670424  99.77060364097906 7.1332871616955345  L 99.80760305372428 0.1561755644158893  Z " fill-rule="nonzero" fill="url(#LinearGradient168)" stroke="none" transform="matrix(1 0 0 1 1566 1042 )" />
  </g>
</svg>