<?xml version="1.0" encoding="utf-8"?>
<svg version="1.1" xmlns:xlink="http://www.w3.org/1999/xlink" width="378px" height="135px" xmlns="http://www.w3.org/2000/svg">
  <defs>
    <linearGradient gradientUnits="userSpaceOnUse" x1="265.47835737772476" y1="-64.96440065762948" x2="112.52164262227522" y2="199.96440065762945" id="LinearGradient7">
      <stop id="Stop8" stop-color="#000000" offset="0" />
      <stop id="Stop9" stop-color="#000000" offset="0.04" />
      <stop id="Stop10" stop-color="#07dbff" offset="0.27" />
      <stop id="Stop11" stop-color="#07dbff" offset="1" />
    </linearGradient>
  </defs>
  <g transform="matrix(1 0 0 1 -818 -539 )">
    <path d="M 377 0.71875  C 377.40625 0.9453125  377.40625 1.1265624999999773  377.3609375 1.3078124999999545  C 377.3609375 1.5343749999999545  377.31562499999995 1.7156249999999886  377.2703125 1.9421874999999886  C 377.22499999999997 2.1234374999999654  377.17968749999994 2.2593749999999773  377.134375 2.4406249999999545  C 377.08906249999995 2.6218749999999886  377.04375 2.8484374999999886  376.953125 3.029687499999966  C 376.9078125 3.210937499999943  376.81718750000005 3.3468749999999545  376.771875 3.5281249999999886  C 376.68125 3.7546874999999886  376.59062500000005 3.935937499999966  376.5 4.162499999999966  C 376.40937499999995 4.29843749999992  376.31875 4.434374999999989  376.228125 4.615624999999966  C 376.0921875 4.842187499999966  375.95624999999995 5.068749999999966  375.775 5.295312499999966  C 375.684375 5.43124999999992  375.5484375 5.5671874999999895  375.4578125 5.703124999999943  C 375.18593749999997 6.020312499999989  374.91406249999994 6.2921874999999545  374.6421875 6.609374999999943  C 374.5515625 6.699999999999989  374.415625 6.835937499999943  374.325 6.926562499999989  C 374.14374999999995 7.107812499999966  373.91718749999995 7.243749999999977  373.7359375 7.4249999999999545  C 373.5546875 7.560937499999966  373.3734375 7.696874999999977  373.1921875 7.8781249999999545  C 372.965625 8.059374999999989  372.7390625 8.1953125  372.46718749999997 8.331249999999955  C 372.24062499999997 8.512499999999989  371.96874999999994 8.6484375  371.74218749999994 8.829687499999977  L 203.315625 106.70468749999998  C 202.7265625 107.06718749999999  202.09218749999997 107.33906249999995  201.45781249999996 107.65625  C 201.2765625 107.74687500000005  201.0953125 107.83749999999998  200.91406249999994 107.8828125  C 200.41562499999995 108.109375  199.87187499999996 108.29062499999998  199.37343749999997 108.47187499999995  C 199.19218749999996 108.51718749999998  199.01093749999998 108.60781249999997  198.82968749999995 108.65312499999999  C 198.51249999999993 108.74374999999998  198.14999999999998 108.83437499999997  197.83281249999993 108.92499999999995  C 197.56093749999988 109.015625  197.3343749999999 109.06093749999997  197.0624999999999 109.15156249999995  C 196.6999999999999 109.2421875  196.3374999999999 109.33281249999999  195.97499999999988 109.37812499999995  C 195.7484374999999 109.42343749999998  195.4765624999999 109.46875  195.24999999999986 109.51406249999997  C 194.5249999999999 109.64999999999992  193.75468749999993 109.74062499999998  193.0296874999999 109.83124999999995  C 192.80312499999994 109.87656249999998  192.5765624999999 109.87656249999998  192.3046874999999 109.87656249999998  C 191.8515624999999 109.921875  191.3984374999999 109.96718750000002  190.9906249999999 109.96718750000002  C 190.7187499999999 109.96718750000002  190.40156249999993 109.96718750000002  190.12968749999993 110.01250000000005  C 189.76718749999995 110.01250000000005  189.4046874999999 110.01250000000005  189.04218749999993 110.01250000000005  C 188.7249999999999 110.01250000000005  188.45312499999994 110.01250000000005  188.13593749999993 109.96718750000002  C 187.81874999999994 109.96718750000002  187.45624999999993 109.921875  187.13906249999994 109.921875  C 186.82187499999995 109.921875  186.54999999999993 109.87656249999998  186.23281249999994 109.83124999999995  C 185.91562499999995 109.78593749999999  185.55312499999994 109.74062499999998  185.23593749999995 109.74062499999998  C 184.91874999999993 109.69531249999994  184.64687499999994 109.64999999999992  184.37499999999994 109.60468749999995  C 184.01249999999993 109.55937499999999  183.69531249999994 109.46875  183.33281249999993 109.42343749999998  C 183.06093749999994 109.37812499999995  182.78906249999994 109.33281249999999  182.51718749999995 109.2421875  C 182.10937499999994 109.15156249999995  181.70156249999994 109.06093750000002  181.29374999999993 108.92499999999995  C 181.06718749999993 108.87968749999999  180.84062499999993 108.7890625  180.61406249999993 108.74374999999998  C 179.88906249999994 108.51718749999998  179.16406249999994 108.29062499999998  178.48437499999994 108.01874999999995  C 178.39374999999995 107.97343749999999  178.30312499999997 107.92812499999997  178.21249999999995 107.8828125  C 177.26093749999993 107.52031250000005  176.35468749999993 107.06718750000005  175.53906249999994 106.61406250000005  L 5.9796874999999545 8.739062500000045  C 2.082812499999953 6.4734375000000455  0.13437499999994884 3.5281250000000455  0 0.5828125000000455  L 0 25.006250000000026  C 0.043749999999953104 27.951562500000023  1.9921874999999503 30.896875000000023  5.889062499999952 33.16250000000002  L 175.44843749999995 131.03750000000002  C 176.26406249999997 131.53593750000005  177.17031249999997 131.94375000000002  178.12187499999993 132.30624999999998  C 178.16718749999995 132.3515625  178.21249999999995 132.3515625  178.30312499999994 132.39687500000002  C 178.34843749999993 132.39687500000002  178.39374999999993 132.44218750000005  178.39374999999993 132.44218750000005  C 179.07343749999993 132.7140625  179.79843749999995 132.940625  180.52343749999991 133.1671875  C 180.56874999999994 133.1671875  180.61406249999993 133.21250000000003  180.70468749999992 133.21250000000003  C 180.8859374999999 133.25781250000006  181.06718749999993 133.30312500000008  181.20312499999991 133.34843750000005  C 181.61093749999992 133.43906250000003  182.01874999999993 133.57500000000005  182.42656249999993 133.66562500000003  C 182.51718749999992 133.71093750000006  182.65312499999993 133.71093750000006  182.74374999999992 133.75625000000008  C 182.9249999999999 133.80156250000005  183.0609374999999 133.80156250000005  183.24218749999991 133.84687500000007  C 183.60468749999993 133.8921875000001  183.92187499999991 133.98281250000008  184.28437499999993 134.02812500000005  C 184.42031249999994 134.02812500000005  184.55624999999995 134.07343750000007  184.69218749999993 134.1187500000001  C 184.82812499999991 134.1187500000001  185.00937499999992 134.1640625000001  185.14531249999993 134.1640625000001  C 185.46249999999992 134.20937500000014  185.7796874999999 134.2546875000001  186.14218749999992 134.2546875000001  C 186.27812499999993 134.2546875000001  186.4593749999999 134.30000000000013  186.59531249999992 134.30000000000013  C 186.73124999999993 134.30000000000013  186.86718749999991 134.30000000000013  187.04843749999992 134.34531250000015  C 187.3656249999999 134.39062500000017  187.72812499999992 134.39062500000017  188.0453124999999 134.39062500000017  C 188.2265624999999 134.39062500000017  188.36249999999993 134.43593750000014  188.54374999999993 134.43593750000014  C 188.6796874999999 134.43593750000014  188.81562499999993 134.43593750000014  188.9515624999999 134.43593750000014  C 189.3140624999999 134.43593750000014  189.67656249999993 134.43593750000014  190.03906249999991 134.43593750000014  C 190.22031249999992 134.43593750000014  190.40156249999987 134.43593750000014  190.58281249999993 134.43593750000014  C 190.67343749999995 134.43593750000014  190.80937499999993 134.43593750000014  190.89999999999998 134.43593750000014  C 191.35312499999995 134.43593750000014  191.80624999999995 134.39062500000017  192.21406249999993 134.34531250000015  C 192.39531249999993 134.34531250000015  192.5765624999999 134.34531250000015  192.75781249999994 134.30000000000013  C 192.80312499999997 134.30000000000013  192.8484375 134.30000000000013  192.93906249999998 134.2546875000001  C 193.70937499999997 134.1640625000001  194.43437499999993 134.07343750000013  195.15937499999993 133.9375000000001  C 195.20468749999995 133.9375000000001  195.24999999999994 133.9375000000001  195.24999999999994 133.9375000000001  C 195.47656249999991 133.8921875000001  195.65781249999992 133.84687500000007  195.88437499999995 133.8015625000001  C 196.24687499999993 133.7109375000001  196.60937499999994 133.66562500000015  196.9718749999999 133.5750000000001  C 197.24374999999995 133.52968750000014  197.47031249999995 133.43906250000015  197.74218749999994 133.3484375000001  C 198.10468749999993 133.2578125000001  198.42187499999994 133.16718750000013  198.73906249999996 133.07656250000014  C 198.82968749999998 133.07656250000014  198.87499999999994 133.0312500000001  198.965625 133.0312500000001  C 199.10156249999991 132.9859375000001  199.19218749999996 132.94062500000007  199.32812499999994 132.8953125000001  C 199.87187499999996 132.71406250000013  200.37031249999993 132.53281250000015  200.86874999999995 132.30625000000015  C 201.04999999999995 132.2156250000001  201.23124999999996 132.17031250000014  201.41249999999997 132.07968750000015  C 202.04687499999994 131.80781250000013  202.68124999999995 131.49062500000014  203.27031249999996 131.12812500000013  L 371.6968749999999 33.253125000000125  C 371.78749999999997 33.2078125000001  371.87812499999995 33.162500000000136  371.9234374999999 33.11718750000017  C 372.10468749999995 33.026562500000125  372.24062499999997 32.89062500000017  372.42187499999994 32.800000000000125  C 372.64843749999994 32.66406250000017  372.92031249999997 32.482812500000136  373.14687499999997 32.346875000000125  C 373.32812499999994 32.21093750000017  373.5093749999999 32.0750000000001  373.69062499999995 31.893750000000125  C 373.91718749999995 31.712500000000148  374.0984375 31.576562500000136  374.27968749999997 31.395312500000102  C 374.325 31.350000000000136  374.37031249999995 31.350000000000136  374.4156249999999 31.304687500000114  C 374.50624999999997 31.214062500000068  374.55156249999993 31.168750000000102  374.6421874999999 31.078125000000114  C 374.95937499999997 30.80625000000009  375.23124999999993 30.489062500000102  375.45781249999993 30.171875000000114  C 375.50312499999995 30.12656250000009  375.5937499999999 30.035937500000102  375.6390624999999 29.990625000000136  C 375.68437499999993 29.945312500000114  375.72968749999995 29.854687500000125  375.77499999999986 29.809375000000102  C 375.9562499999999 29.582812500000102  376.0921874999999 29.356250000000102  376.22812499999986 29.129687500000102  C 376.2734374999999 29.039062500000114  376.3640624999999 28.948437500000125  376.4093749999999 28.857812500000136  C 376.45468749999986 28.812500000000114  376.45468749999986 28.76718750000009  376.4999999999999 28.721875000000125  C 376.59062499999993 28.540625000000148  376.68124999999986 28.314062500000148  376.7718749999999 28.087500000000148  C 376.81718749999993 27.951562500000136  376.90781249999986 27.860937500000148  376.9531249999999 27.725000000000136  C 376.9531249999999 27.67968750000017  376.9531249999999 27.634375000000148  376.9984374999999 27.589062500000182  C 377.08906249999995 27.407812500000205  377.13437499999986 27.181250000000205  377.1796874999999 27.000000000000227  C 377.2249999999999 26.864062500000216  377.27031249999993 26.728125000000205  377.3156249999999 26.592187500000193  C 377.3156249999999 26.54687500000023  377.3156249999999 26.501562500000205  377.3156249999999 26.501562500000205  C 377.36093749999986 26.275000000000205  377.36093749999986 26.093750000000227  377.4062499999999 25.867187500000227  C 377.4062499999999 25.73125000000022  377.4515624999999 25.595312500000205  377.4515624999999 25.459375000000193  C 377.4515624999999 25.414062500000227  377.4515624999999 25.32343750000024  377 25.278125000000216  L 377 0.71875  Z " fill-rule="nonzero" fill="url(#LinearGradient7)" stroke="none" transform="matrix(1 0 0 1 818 539 )" />
  </g>
</svg>