<?xml version="1.0" encoding="utf-8"?>
<svg version="1.1" xmlns:xlink="http://www.w3.org/1999/xlink" width="40px" height="37px" xmlns="http://www.w3.org/2000/svg">
  <g transform="matrix(1 0 0 1 -1596 -996 )">
    <path d="M 5.348557692307622 15.381250000000023  C 6.862980769230717 16.722916666666606  8.75 17.625347222222217  11.009615384615472 18.08854166666663  C 9.823717948718013 15.501041666666652  9.230769230769283 12.538194444444457  9.230769230769283 9.200000000000045  L 3.0769230769230944 9.200000000000045  L 3.0769230769230944 11.5  C 3.0769230769230944 12.74583333333328  3.834134615384528 14.039583333333326  5.348557692307622 15.381250000000023  Z M 34.65144230769238 15.381250000000023  C 36.16586538461547 14.039583333333326  36.923076923076906 12.74583333333328  36.923076923076906 11.5  L 36.923076923076906 9.200000000000045  L 30.769230769230717 9.200000000000045  C 30.769230769230717 12.538194444444457  30.176282051281987 15.501041666666652  28.990384615384528 18.08854166666663  C 31.25 17.625347222222217  33.13701923076928 16.722916666666606  34.65144230769238 15.381250000000023  Z M 39.326923076923094 6.804166666666674  C 39.77564102564111 7.251388888888869  40 7.79444444444448  40 8.43333333333328  L 40 11.5  C 40 12.63402777777776  39.66746794871801 13.776041666666629  39.00240384615381 14.926041666666606  C 38.33733974358984 16.076041666666697  37.43990384615381 17.11423611111104  36.31009615384619 18.040624999999977  C 35.18028846153857 18.967013888888918  33.794070512820554 19.74565972222217  32.15144230769238 20.376562499999977  C 30.5088141025642 21.007465277777783  28.78205128205127 21.36284722222217  26.97115384615381 21.442708333333258  C 26.298076923076906 22.305208333333326  25.536858974358893 23.06388888888887  24.6875 23.71875  C 24.078525641025635 24.261805555555497  23.65785256410254 24.84079861111104  23.425480769230717 25.45572916666663  C 23.193108974358893 26.070659722222217  23.076923076923094 26.785416666666606  23.076923076923094 27.599999999999905  C 23.076923076923094 28.462499999999974  23.3213141025642 29.189236111111086  23.81009615384619 29.78020833333335  C 24.298878205128176 30.371180555555497  25.080128205128176 30.66666666666663  26.15384615384619 30.66666666666663  C 27.355769230769283 30.66666666666663  28.425480769230717 31.030034722222126  29.362980769230717 31.75677083333335  C 30.300480769230717 32.48350694444434  30.769230769230717 33.397916666666674  30.769230769230717 34.5  L 30.769230769230717 36.0333333333333  C 30.769230769230717 36.25694444444434  30.697115384615472 36.440624999999955  30.552884615384528 36.58437499999991  C 30.40865384615381 36.72812499999998  30.224358974358893 36.799999999999955  30 36.799999999999955  L 10 36.799999999999955  C 9.775641025641107 36.799999999999955  9.591346153846189 36.72812499999998  9.447115384615472 36.58437499999991  C 9.302884615384528 36.440624999999955  9.230769230769283 36.25694444444434  9.230769230769283 36.0333333333333  L 9.230769230769283 34.5  C 9.230769230769283 33.397916666666674  9.699519230769283 32.48350694444434  10.637019230769283 31.75677083333335  C 11.574519230769283 31.030034722222126  12.644230769230717 30.66666666666663  13.846153846153811 30.66666666666663  C 14.919871794871824 30.66666666666663  15.701121794871824 30.371180555555497  16.18990384615381 29.78020833333335  C 16.6786858974358 29.189236111111086  16.923076923076906 28.462499999999974  16.923076923076906 27.599999999999905  C 16.923076923076906 26.785416666666606  16.806891025641107 26.070659722222217  16.574519230769283 25.45572916666663  C 16.34214743589746 24.84079861111104  15.921474358974365 24.261805555555497  15.3125 23.71875  C 14.463141025641107 23.06388888888887  13.701923076923094 22.305208333333326  13.028846153846189 21.442708333333258  C 11.21794871794873 21.36284722222217  9.491185897435798 21.007465277777783  7.848557692307622 20.376562499999977  C 6.205929487179446 19.74565972222217  4.8197115384614335 18.967013888888918  3.689903846153811 18.040624999999977  C 2.560096153846189 17.11423611111104  1.6626602564101631 16.076041666666697  0.9975961538461888 14.926041666666606  C 0.33253205128198715 13.776041666666629  0 12.63402777777776  0 11.5  L 0 8.43333333333328  C 0 7.79444444444448  0.22435897435889274 7.251388888888869  0.6730769230769056 6.804166666666674  C 1.1217948717949184 6.35694444444448  1.6666666666667425 6.133333333333326  2.3076923076923777 6.133333333333326  L 9.230769230769283 6.133333333333326  L 9.230769230769283 3.8333333333333712  C 9.230769230769283 2.779166666666697  9.607371794871824 1.8767361111110858  10.360576923076906 1.1260416666666515  C 11.113782051281987 0.37534722222221717  12.019230769230717 0  13.076923076923094 0  L 26.923076923076906 0  C 27.980769230769283 0  28.886217948718013 0.37534722222221717  29.639423076923094 1.1260416666666515  C 30.392628205128176 1.8767361111110858  30.769230769230717 2.779166666666697  30.769230769230717 3.8333333333333712  L 30.769230769230717 6.133333333333326  L 37.69230769230762 6.133333333333326  C 38.33333333333326 6.133333333333326  38.87820512820508 6.35694444444448  39.326923076923094 6.804166666666674  Z " fill-rule="nonzero" fill="#fea213" stroke="none" transform="matrix(1 0 0 1 1596 996 )" />
  </g>
</svg>