<?xml version="1.0" encoding="utf-8"?>
<svg version="1.1" xmlns:xlink="http://www.w3.org/1999/xlink" width="253px" height="91px" xmlns="http://www.w3.org/2000/svg">
  <defs>
    <linearGradient gradientUnits="userSpaceOnUse" x1="0" y1="45.5" x2="252.99999999999997" y2="45.5" id="LinearGradient17">
      <stop id="Stop18" stop-color="#c6cad0" offset="0" />
      <stop id="Stop19" stop-color="#c0c9cf" offset="1" />
    </linearGradient>
  </defs>
  <g transform="matrix(1 0 0 1 -880 -454 )">
    <path d="M 252 72.85000000000008  L 128.67343749999998 1.2109375  C 128.53750000000002 1.120312499999983  128.35624999999996 1.0296875000000227  128.17499999999998 0.984375  C 128.0390625 0.9390624999999773  127.90312499999996 0.893749999999983  127.76718749999996 0.848437500000017  C 127.72187499999998 0.848437500000017  127.63125000000002 0.8031250000000227  127.58593749999999 0.8031250000000227  C 127.58593749999999 0.8031250000000227  127.54062499999998 0.8031250000000227  127.54062499999998 0.8031250000000227  C 127.49531249999997 0.8031250000000227  127.44999999999996 0.8031250000000227  127.44999999999996 0.7578125  C 127.35937499999996 0.7124999999999773  127.22343749999996 0.7124999999999773  127.08749999999999 0.7124999999999773  C 126.99687499999995 0.7124999999999773  126.86093749999998 0.667187499999983  126.77031249999996 0.667187499999983  C 126.67968749999994 0.667187499999983  126.54374999999996 0.667187499999983  126.45312499999994 0.667187499999983  C 126.40781249999995 0.667187499999983  126.36249999999993 0.667187499999983  126.31718749999996 0.667187499999983  C 126.31718749999996 0.667187499999983  126.27187499999997 0.667187499999983  126.27187499999997 0.667187499999983  C 126.22656249999994 0.667187499999983  126.13593749999998 0.667187499999983  126.09062499999996 0.667187499999983  C 125.95468749999998 0.667187499999983  125.81874999999997 0.667187499999983  125.72812499999998 0.7124999999999773  C 125.59218749999997 0.7124999999999773  125.45624999999995 0.7578125  125.27499999999998 0.7578125  C 125.22968749999995 0.7578125  125.13906249999997 0.8031250000000227  125.09374999999997 0.8031250000000227  C 125.04843749999998 0.8031250000000227  125.00312499999998 0.848437500000017  124.9125 0.848437500000017  C 124.82187499999998 0.8937500000000398  124.6859375 0.8937500000000398  124.59531249999998 0.9390625000000341  C 124.32343749999998 1.0296875000000512  124.09687499999998 1.1203125000000398  123.82499999999999 1.2562500000000512  L 1 72.85000000000008  L 1 90.97500000000008  L 123.77968750000002 19.381250000000023  C 124.09687500000001 19.200000000000045  124.45937500000002 19.064062500000034  124.821875 18.973437500000045  C 124.86718750000003 18.973437500000045  124.91250000000002 18.928125000000023  125.00312500000001 18.928125000000023  C 125.36562500000002 18.837500000000034  125.7734375 18.792187500000068  126.18124999999998 18.792187500000068  C 126.18124999999998 18.792187500000068  126.2265625 18.792187500000068  126.2265625 18.792187500000068  C 126.63437499999996 18.792187500000068  127.08749999999999 18.83750000000009  127.45000000000002 18.928125000000023  C 127.45000000000002 18.928125000000023  127.49531250000003 18.928125000000023  127.49531250000003 18.928125000000023  C 127.90312500000002 19.018750000000068  128.26562500000006 19.154687500000023  128.58281250000002 19.335937500000057  L 252 90.97500000000008  L 252 72.85000000000008  Z " fill-rule="nonzero" fill="url(#LinearGradient17)" stroke="none" transform="matrix(1 0 0 1 880 454 )" />
  </g>
</svg>