<?xml version="1.0" encoding="utf-8"?>
<svg version="1.1" xmlns:xlink="http://www.w3.org/1999/xlink" width="306px" height="177px" xmlns="http://www.w3.org/2000/svg">
  <defs>
    <linearGradient gradientUnits="userSpaceOnUse" x1="0" y1="88.5" x2="306" y2="88.5" id="LinearGradient70">
      <stop id="Stop71" stop-color="#fbfbfb" offset="0" />
      <stop id="Stop72" stop-color="#fbfbfb" offset="1" />
    </linearGradient>
  </defs>
  <g transform="matrix(1 0 0 1 -854 -440 )">
    <path d="M 172.48125000000002 4.879687500000017  L 296.546875 76.47343750000005  C 307.784375 82.953125  307.8296875 93.46562500000005  296.68281249999995 99.94531250000001  L 173.4328125 171.5390625  C 162.28593749999993 178.01874999999998  144.115625 178.01874999999998  132.87812499999998 171.5390625  L 8.8125 99.94531250000001  C -2.4250000000000114 93.46562500000005  -2.4703125000000057 82.953125  8.676562499999989 76.47343750000005  L 131.9265625 4.879687500000017  C 143.0734375 -1.5999999999999943  161.24374999999998 -1.5999999999999943  172.48125000000002 4.879687500000017  Z M 150.640625 161.253125  C 152 161.97812499999998  154.17499999999998 161.97812499999998  155.53437499999998 161.20781250000005  L 278.78437499999995 89.61406250000005  C 280.0984375 88.84375  280.0984375 87.57500000000005  278.78437499999995 86.8046875  L 154.67343749999998 15.2109375  C 153.359375 14.440624999999983  151.184375 14.440624999999983  149.825 15.2109375  L 26.574999999999992 86.8046875  C 25.21562499999999 87.57500000000005  25.260937499999994 88.84375  26.574999999999992 89.61406250000005  L 150.640625 161.253125  Z " fill-rule="nonzero" fill="url(#LinearGradient70)" stroke="none" transform="matrix(1 0 0 1 854 440 )" />
  </g>
</svg>