<?xml version="1.0" encoding="utf-8"?>
<svg version="1.1" xmlns:xlink="http://www.w3.org/1999/xlink" width="305px" height="107px" xmlns="http://www.w3.org/2000/svg">
  <defs>
    <linearGradient gradientUnits="userSpaceOnUse" x1="0" y1="53.49999999999999" x2="305" y2="53.49999999999999" id="LinearGradient73">
      <stop id="Stop74" stop-color="#c6cad0" offset="0" />
      <stop id="Stop75" stop-color="#c0c9cf" offset="1" />
    </linearGradient>
  </defs>
  <g transform="matrix(1 0 0 1 -854 -528 )">
    <path d="M 304.7484375 18.515625000000227  L 304.975 0.2999999999999545  C 304.975 0.5718749999999773  304.9296875 0.8437499999999999  304.884375 1.1609374999999886  C 304.83906249999995 1.4781249999999773  304.83906249999995 1.749999999999943  304.79375 2.0671874999999886  C 304.74843749999997 2.2937499999999886  304.6578125 2.5656249999999545  304.61249999999995 2.7921874999999545  C 304.52187499999997 3.0640624999999773  304.4765625 3.3812499999999654  304.38593749999995 3.653124999999989  C 304.29531249999997 3.879687499999989  304.2046875 4.106249999999989  304.06874999999997 4.332812499999989  C 303.93281249999995 4.649999999999977  303.79687499999994 4.921874999999943  303.6609375 5.239062499999989  C 303.525 5.465624999999989  303.38906249999997 5.646874999999966  303.25312499999995 5.873437499999966  C 303.02656249999995 6.1906249999999545  302.8453125 6.553124999999966  302.57343749999995 6.8703124999999545  C 302.34687499999995 7.1875  302.075 7.504687499999988  301.80312499999997 7.821874999999977  C 301.75781249999994 7.912500000000022  301.66718749999995 7.957812499999988  301.621875 8.048437499999977  C 301.259375 8.456249999999955  300.85156249999994 8.864062499999989  300.39843749999994 9.2265625  C 300.1265624999999 9.453125  299.809375 9.725000000000023  299.53749999999997 9.951562500000023  C 299.26562499999994 10.178125000000023  299.03906249999994 10.359375  298.72187499999995 10.5859375  C 298.40468749999997 10.8125  298.04218749999995 11.0390625  297.6796875 11.265625  C 297.31718750000005 11.4921875  296.9546875 11.764062500000023  296.5921875 11.990625000000023  L 173.34218750000002 83.58437500000002  C 172.48125000000005 84.08281250000005  171.57500000000002 84.53593750000005  170.62343750000002 84.94375000000002  C 170.3515625 85.07968749999998  170.07968749999998 85.17031250000002  169.8078125 85.30624999999998  C 169.08281250000002 85.62343750000002  168.31250000000003 85.89531249999999  167.54218750000004 86.16718749999995  C 167.27031250000002 86.2578125  166.99843750000002 86.34843749999999  166.72656250000009 86.43906249999998  C 166.22812500000003 86.57499999999999  165.72968750000004 86.7109375  165.2312500000001 86.84687499999995  C 164.8687500000001 86.9375  164.50625000000005 87.07343749999995  164.09843750000007 87.1640625  C 163.55468750000006 87.29999999999995  163.05625000000006 87.390625  162.51250000000007 87.48125000000005  C 162.1500000000001 87.57187500000003  161.78750000000008 87.6171875  161.42500000000007 87.70781250000005  C 160.3375000000001 87.88906250000002  159.2500000000001 88.02500000000003  158.16250000000005 88.16093750000005  C 157.8453125 88.20625000000001  157.48281250000005 88.20625000000001  157.12031250000007 88.25156250000003  C 156.4859375000001 88.29687500000006  155.8515625000001 88.34218750000008  155.1718750000001 88.38750000000005  C 154.7640625000001 88.38750000000005  154.35625000000013 88.43281250000001  153.94843750000007 88.43281250000001  C 153.40468750000005 88.43281250000001  152.9062500000001 88.43281250000001  152.36250000000007 88.43281250000001  C 151.90937500000007 88.43281250000001  151.5015625000001 88.43281250000001  151.0484375000001 88.38750000000005  C 150.55000000000007 88.38750000000005  150.0515625000001 88.34218750000002  149.5984375000001 88.296875  C 149.1453125000001 88.25156249999998  148.7375000000001 88.25156249999998  148.2843750000001 88.20624999999995  C 147.7859375000001 88.16093749999999  147.3328125000001 88.11562499999997  146.8343750000001 88.02499999999998  C 146.3812500000001 87.97968749999995  145.97343750000013 87.88906250000002  145.5656250000001 87.84375  C 145.0671875000001 87.75312499999995  144.5687500000001 87.66250000000002  144.0703125000001 87.57187499999998  C 143.6625000000001 87.48124999999999  143.2546875000001 87.43593750000002  142.8921875000001 87.34531249999998  C 142.30312500000008 87.20937500000002  141.71406250000007 87.07343749999995  141.1250000000001 86.89218749999998  C 140.8078125000001 86.80156249999999  140.4906250000001 86.7109375  140.1281250000001 86.62031249999995  C 139.0859375000001 86.30312499999997  138.0437500000001 85.98593749999998  137.0468750000001 85.578125  C 136.5484375000001 85.39687500000002  136.0953125000001 85.17031250000002  135.5968750000001 84.94375000000002  C 135.3703125000001 84.85312499999998  135.0984375000001 84.71718750000002  134.8718750000001 84.62656249999998  C 134.14687500000008 84.26406250000002  133.46718750000008 83.90156249999995  132.78750000000008 83.5390625  L 8.8125 11.9453125  C 3.1484375 8.682812499999955  0.33906250000001137 4.423437499999977  1 0.11874999999997728  L 1 18.243749999999977  C 0.33906250000001137 22.503124999999955  3.1484375 26.807812499999955  8.767187500000006 30.0703125  L 132.83281250000002 101.70937500000002  C 133.51250000000002 102.1171875  134.19218750000002 102.47968750000001  134.91718750000004 102.796875  C 135.14375000000004 102.93281249999995  135.41562500000003 103.0234375  135.64218750000003 103.11406250000005  C 136.05000000000004 103.29531250000002  136.50312500000004 103.52187500000002  136.91093750000005 103.65781250000003  C 136.95625000000007 103.65781250000003  137.00156250000003 103.70312500000006  137.09218750000002 103.70312500000006  C 138.08906250000004 104.11093750000003  139.13125000000002 104.42812500000008  140.17343750000003 104.74531250000001  C 140.26406250000002 104.79062500000003  140.30937500000005 104.79062500000003  140.40000000000003 104.83593750000006  C 140.62656250000003 104.92656250000005  140.89843750000006 104.97187500000001  141.12500000000006 105.01718750000003  C 141.71406250000007 105.15312500000005  142.30312500000005 105.33437500000008  142.89218750000003 105.47031250000003  C 143.02812500000005 105.51562500000006  143.20937500000002 105.56093750000008  143.34531250000003 105.60625000000005  C 143.57187500000003 105.65156250000001  143.84375000000006 105.69687500000003  144.07031250000006 105.7421875  C 144.56875000000005 105.83281250000005  145.06718750000005 105.92343749999998  145.61093750000003 106.01406250000002  C 145.79218750000004 106.05937500000005  146.01875000000004 106.10468750000001  146.20000000000005 106.10468750000001  C 146.42656250000005 106.15000000000003  146.65312500000005 106.15000000000003  146.87968750000005 106.19531250000006  C 147.37812500000007 106.24062500000008  147.83125000000007 106.33125000000001  148.32968750000003 106.37656250000003  C 148.55625000000003 106.37656250000003  148.78281250000003 106.42187500000006  149.00937500000003 106.46718750000008  C 149.23593750000003 106.46718750000008  149.46250000000003 106.46718750000008  149.64375000000004 106.51250000000005  C 150.14218750000003 106.55781250000007  150.59531250000003 106.55781250000007  151.09375000000003 106.60312500000009  C 151.32031250000003 106.60312500000009  151.59218750000002 106.64843750000011  151.81875000000002 106.64843750000011  C 152.00000000000006 106.64843750000011  152.22656250000006 106.64843750000011  152.40781250000003 106.64843750000011  C 152.95156250000005 106.64843750000011  153.45000000000002 106.64843750000011  153.99375 106.64843750000011  C 154.26562500000009 106.64843750000011  154.49218750000006 106.64843750000011  154.76406250000008 106.64843750000011  C 154.90000000000003 106.64843750000011  155.08125000000007 106.60312500000009  155.21718750000005 106.60312500000009  C 155.85156250000009 106.55781250000007  156.53125000000006 106.51250000000005  157.16562500000003 106.46718750000014  C 157.43750000000003 106.46718750000014  157.66406250000006 106.42187500000011  157.93593750000002 106.42187500000011  C 158.02656250000004 106.42187500000011  158.07187500000003 106.37656250000009  158.16250000000005 106.37656250000009  C 159.25000000000006 106.24062500000014  160.33750000000003 106.10468750000007  161.42500000000007 105.92343750000009  C 161.47031250000012 105.92343750000009  161.5156250000001 105.92343750000009  161.56093750000005 105.92343750000009  C 161.8781250000001 105.87812500000007  162.15000000000003 105.78750000000014  162.46718750000005 105.74218750000011  C 163.01093750000007 105.65156250000007  163.55468750000006 105.51562500000011  164.05312500000005 105.3796875000001  C 164.41562500000003 105.28906250000011  164.82343750000007 105.19843750000013  165.18593750000005 105.06250000000011  C 165.68437500000007 104.9265625000001  166.18281250000007 104.79062500000009  166.68125000000003 104.65468750000014  C 166.77187500000005 104.60937500000011  166.90781250000003 104.60937500000011  166.99843750000005 104.56406250000009  C 167.17968750000006 104.51875000000007  167.3156250000001 104.42812500000014  167.49687500000007 104.38281250000011  C 168.2671875000001 104.11093750000009  169.03750000000005 103.83906250000007  169.76250000000007 103.52187500000014  C 170.03437500000007 103.38593750000013  170.3062500000001 103.29531250000014  170.57812500000009 103.15937500000013  C 171.52968750000005 102.75156250000015  172.43593750000005 102.29843750000015  173.29687500000006 101.80000000000013  L 296.54687500000006 30.20625000000012  C 296.6828125 30.115625000000136  296.77343750000006 30.070312500000174  296.909375 29.979687500000125  C 297.18125000000003 29.798437500000148  297.40781250000003 29.66250000000014  297.63437500000003 29.481250000000102  C 297.99687500000005 29.254687500000106  298.35937500000006 29.028125000000102  298.67656250000005 28.801562500000102  C 298.9484375 28.575000000000106  299.22031250000003 28.39375000000012  299.4921875 28.167187500000125  C 299.80937500000005 27.940625000000125  300.08124999999995 27.668750000000102  300.353125 27.442187500000102  C 300.3984375 27.396875000000136  300.4890625 27.351562500000114  300.53437499999995 27.306250000000148  C 300.89687499999997 26.943750000000133  301.259375 26.626562500000148  301.57656249999997 26.264062500000136  C 301.621875 26.173437500000148  301.7124999999999 26.128125000000182  301.75781249999994 26.037500000000136  C 301.9390624999999 25.810937500000136  302.12031249999995 25.62968750000016  302.3015625 25.40312500000016  C 302.3921875 25.31250000000017  302.43749999999994 25.221875000000182  302.48281249999997 25.08593750000017  C 302.70937499999997 24.768750000000125  302.93593749999997 24.40625000000017  303.16249999999997 24.089062500000125  C 303.25312499999995 23.95312500000017  303.34374999999994 23.817187500000102  303.434375 23.681250000000148  C 303.47968749999995 23.590625000000102  303.47968749999995 23.545312500000136  303.525 23.454687500000148  C 303.70624999999995 23.137500000000102  303.796875 22.865625000000136  303.93281249999995 22.548437500000148  C 304.0234375 22.36718750000017  304.1140625 22.185937500000136  304.15937499999995 22.050000000000125  C 304.15937499999995 22.004687500000102  304.2046875 21.91406250000017  304.2046875 21.868750000000148  C 304.2953125 21.596875000000125  304.38593749999995 21.279687500000136  304.43125 21.00781250000017  C 304.4765625 20.826562500000136  304.5671875 20.64531250000016  304.61249999999995 20.41875000000016  C 304.61249999999995 20.373437500000136  304.61249999999995 20.32812500000017  304.61249999999995 20.282812500000205  C 304.6578125 19.96562500000016  304.703125 19.693750000000193  304.703125 19.376562500000205  C 304.703125 19.195312500000227  304.7484375 18.968750000000227  304.7484375 18.787500000000193  C 304.7484375 18.696875000000205  304.7484375 18.606250000000216  304.7484375 18.515625000000227  Z " fill-rule="nonzero" fill="url(#LinearGradient73)" stroke="none" transform="matrix(1 0 0 1 854 528 )" />
  </g>
</svg>