<?xml version="1.0" encoding="utf-8"?>
<svg version="1.1" xmlns:xlink="http://www.w3.org/1999/xlink" width="178px" height="172px" xmlns="http://www.w3.org/2000/svg">
  <defs>
    <linearGradient gradientUnits="userSpaceOnUse" x1="1156.7711550646843" y1="971.335862423065" x2="1369.2288449353157" y2="1048.664137576935" id="LinearGradient100">
      <stop id="Stop101" stop-color="#000000" offset="0" />
      <stop id="Stop102" stop-color="#000000" offset="0.07" />
      <stop id="Stop103" stop-color="#0ee4f9" offset="0.41" />
      <stop id="Stop104" stop-color="#0ee4f9" offset="1" />
    </linearGradient>
  </defs>
  <g transform="matrix(1 0 0 1 -1174 -924 )">
    <path d="M 1263 924.5  C 1312.56 924.5  1351.5 962.12  1351.5 1010  C 1351.5 1057.88  1312.56 1095.5  1263 1095.5  C 1213.44 1095.5  1174.5 1057.88  1174.5 1010  C 1174.5 962.12  1213.44 924.5  1263 924.5  Z " fill-rule="nonzero" fill="#0b1837" stroke="none" />
    <path d="M 1263 924.5  C 1312.56 924.5  1351.5 962.12  1351.5 1010  C 1351.5 1057.88  1312.56 1095.5  1263 1095.5  C 1213.44 1095.5  1174.5 1057.88  1174.5 1010  C 1174.5 962.12  1213.44 924.5  1263 924.5  Z " stroke-width="1" stroke-dasharray="9,4" stroke="url(#LinearGradient100)" fill="none" stroke-dashoffset="0.5" />
  </g>
</svg>