<?xml version="1.0" encoding="utf-8"?>
<svg version="1.1" xmlns:xlink="http://www.w3.org/1999/xlink" width="290px" height="134px" xmlns="http://www.w3.org/2000/svg">
  <g transform="matrix(1 0 0 1 -1597 -602 )">
    <path d="M 1.5000000000000002 111  C -4.942069872123284 98.87648657985784  15.959176643994397 66.29363584971486  34 66  C 41.87778209202202 65.87177973018123  42.92007221905146 89.03513035721687  46 99  C 50.63059373868851 113.98193018035971  54.1730024841313 130.82504886588544  65 130  C 89.76867303425229 128.11255469797186  81.11499582918304 34.73726893562099  109 30  C 129.25011299292373 26.559791397679362  132.1785690590109 72.47279086630135  154 70  C 169.0842594064777 68.29066118596307  169.82246466094625 51.117204315303695  175 38  C 178.8721853930765 28.189879233735326  185.659986097834 1.3879910388172902  196.00000000000003 1  C 205.43062107327455 0.6461323455139905  225.75340753978344 68.18036160842848  245 91  C 251.42007420645018 98.51369494176186  280.44019746500635 93.6800246831258  283 94  C 291.00000000000006 95  282.0353137937436 91.40324526125238  284 92  " stroke-width="2" stroke="#fea213" fill="none" stroke-opacity="0.8470588235294118" transform="matrix(1 0 0 1 1598 603 )" />
  </g>
</svg>