<?xml version="1.0" encoding="utf-8"?>
<svg version="1.1" xmlns:xlink="http://www.w3.org/1999/xlink" width="940px" height="150px" xmlns="http://www.w3.org/2000/svg">
  <g transform="matrix(1 0 0 1 1 1 )">
    <path d="M 1 147  C 0.9772049566797706 146.84546650027983  4.330759701828697 146.32071241050687  5.996139552743102 145.98106861576025  C 33.3307597018287 129.65404574384013  40.52417816031959 121.40729897297035  88 97  C 138.97192889703024 70.79535393784397  132.14087935678697 51.03486092049491  182 56  C 225.2947535039341 60.31143730147562  212.55927651394086 104.45371919256479  255 107  C 303.61232097782545 109.91655301190553  296.29806451879415 88.66752687988026  345 59  C 393.7393697184632 29.309669483486346  386.52915821416946 -4.156111693679691  429 1  C 487.35839550567783 8.084917388936674  459.4291486835725 62.17992711193631  522 106  C 558.448855365569 131.5261270256426  561.4510433407802 144.63694111449786  598 136  C 661.6718191578732 120.95361282547628  628.5897347271934 47.07657824239788  693 30  C 733.0666175782151 19.377458281149302  749 48.66666666666663  777 58  C 808 67.66666666666663  818.5815696907739 88.87756345514993  870 87  C 907.4417401130224 85.63280068040467  937.298757019539 66.46077742921887  936 61  " stroke-width="2" stroke="#fea213" fill="none" />
  </g>
</svg>