<?xml version="1.0" encoding="utf-8"?>
<svg version="1.1" xmlns:xlink="http://www.w3.org/1999/xlink" width="288px" height="195px" xmlns="http://www.w3.org/2000/svg">
  <defs>
    <linearGradient gradientUnits="userSpaceOnUse" x1="0" y1="97.5" x2="288" y2="97.5" id="LinearGradient473">
      <stop id="Stop474" stop-color="#0d2a4d" offset="0" />
      <stop id="Stop475" stop-color="#0d363f" stop-opacity="0.6470588235294118" offset="1" />
    </linearGradient>
  </defs>
  <g transform="matrix(1 0 0 1 -1601 -236 )">
    <path d="M 11.785166240409126 79.3752962366101  C 11.785166240409126 79.3752962366101  21.022868147757663 70.56491918219848  28 64.05109489051097  C 33.10237009350908 59.28754118905716  36.85184909673194 73.44068537844265  43 90.93776661294908  C 49.98478328343481 110.8158279095119  51.04160733973504 135.21897810096755  60 135.2189781021898  C 61.91130838021036 135.2189781024506  75.12658005911112 133.96673881471395  79.91815856777498 119.56204379562043  C 81.58954230664176 114.53744220040198  83.93339600123113 96.25704399657047  85.81074168797954 90.93776661294908  C 88.72691411922597 82.67507414785683  86.87713347431531 71.93038256587721  89 62.62773722627736  C 92.17114309680892 48.73142335359239  101.33126997041268 34.03394311899609  106 31.31386861313871  C 116.29939696038923 24.790462317229693  119 49.17978007394072  129 59.462152810693006  C 139 69.74452554744528  140.69382232411635 75.77207536644283  151 72.59124087591238  C 156.37269166757596 70.93304678100577  159.6373403735629 73.68373518242834  162 66.89781021897812  C 164.2445905261934 60.45099802733466  174.25090252721475 53.66045111583423  176 44.12408759124088  C 179.11666586825504 27.131519042704728  177.62641663740305 19.34606685768256  187 12.569911839984854  C 191.39104288909994 9.395630868139165  195.0092989081695 -2.0920888565080418  199 1.4233576642335493  C 201.09081622540543 3.2651775490046475  201.42562313369217 6.979641753515922  204.76726342711027 12.569911839984854  C 208.28995683110088 18.463067844513716  213.6989077705457 22.88862318341478  217 31.31386861313871  C 224.70213338401845 50.971715041606785  233.2374146226657 80.75611046277379  243 92.51824817518246  C 250.5055722777629 101.56109608168578  283 92.51824817518246  283 101.05839416058393  C 283 109.5985401459854  287.2634271099746 191.7882026732392  287.2634271099746 191.7882026732392  L 0 195  L 0 117.91686415738837  L 11.785166240409126 79.3752962366101  Z " fill-rule="nonzero" fill="url(#LinearGradient473)" stroke="none" transform="matrix(1 0 0 1 1601 236 )" />
  </g>
</svg>